<svg width="100" height="125" viewBox="0 0 100 125" fill="none" xmlns="http://www.w3.org/2000/svg">
<path d="M49.8253 56.1382C41.4358 41.257 26.1691 46.5561 30.6431 62.2267C32.8518 69.9643 42.8288 75.7167 53.4082 75.7167C60.0909 70.8397 65.2614 62.2267 65.2614 50.0966C65.2614 36.1454 49.8253 37.0208 49.8253 56.1382Z" stroke="black" stroke-width="2.90547" stroke-miterlimit="1.5" stroke-linecap="round" stroke-linejoin="round"/>
<path d="M45.8095 106.183C49.725 112.779 52.2036 119.954 55.7991 123.01C59.5451 116.077 63.9688 105.315 66.5353 95.0764C88.8423 99.8441 102.496 56.1383 96.9683 38.1698C82.0656 -10.2724 32.8959 -8.74047 12.3646 30.7839C-10.5888 74.9508 3.66133 129.239 45.8095 106.183Z" stroke="black" stroke-width="2.90547" stroke-miterlimit="1.5" stroke-linecap="round" stroke-linejoin="round"/>
</svg>
