<svg width="89" height="40" viewBox="0 0 89 40" fill="none" xmlns="http://www.w3.org/2000/svg">
<path d="M7.89999 0H12.1792V5.02156H7.89999V0Z" fill="black"/>
<path d="M8.00034 0H11.8483V4.43891H8.00034V0Z" fill="#B54C90"/>
<path d="M4.15228 4.4389H8.00356V8.87781H4.15228V4.4389Z" fill="#B54C90"/>
<path d="M0.234161 7.96552H4.47659V31.517H0.234161V7.96552Z" fill="black"/>
<path d="M0.304382 8.87396H4.15232V31.0685H0.304382V8.87396Z" fill="#B54C90"/>
<path d="M4.15228 31.0685H8.00356V35.5074H4.15228V31.0685Z" fill="#B54C90"/>
<path d="M7.89999 35.4423H12.1792V40H7.89999V35.4423Z" fill="black"/>
<path d="M8.00034 35.5074H11.8483V39.9464H8.00034V35.5074Z" fill="#B54C90"/>
<path d="M77.223 0H81.5022V5.02156H77.223V0Z" fill="black"/>
<path d="M77.2565 0.0575562H81.1045V4.49646H77.2565V0.0575562Z" fill="#B54C90"/>
<path d="M81.1045 4.49255H84.9557V8.93146H81.1045V4.49255Z" fill="#B54C90"/>
<path d="M84.9256 7.96552H88.8738V31.517H84.9256V7.96552Z" fill="black"/>
<path d="M84.9524 8.93146H88.8003V31.1222H84.9524V8.93146Z" fill="#B54C90"/>
<path d="M81.1045 31.1222H84.9557V35.5611H81.1045V31.1222Z" fill="#B54C90"/>
<path d="M77.223 35.4423H81.5022V40H77.223V35.4423Z" fill="black"/>
<path d="M77.2564 35.5573H81.1043V40H77.2564V35.5573Z" fill="#B54C90"/>
<path d="M59.9424 22.2175H63.7904V26.6603H59.9424V22.2175Z" fill="#83327E"/>
<path d="M56.0978 17.7786H59.9457V22.2175H56.0978V17.7786Z" fill="#83327E"/>
<path d="M59.9424 13.3436H63.7904V17.7825H59.9424V13.3436Z" fill="#83327E"/>
<path d="M63.7903 26.6564H67.6416V31.0953H63.7903V26.6564Z" fill="#83327E"/>
<path d="M63.7903 8.90466H67.6416V13.3436H63.7903V8.90466Z" fill="#83327E"/>
<path d="M25.3143 22.2175H29.1623V26.6603H25.3143V22.2175Z" fill="#83327E"/>
<path d="M29.1622 17.7786H33.0135V22.2175H29.1622V17.7786Z" fill="#83327E"/>
<path d="M25.3143 13.3436H29.1623V17.7825H25.3143V13.3436Z" fill="#83327E"/>
<path d="M21.4698 26.6564H25.3177V31.0953H21.4698V26.6564Z" fill="#83327E"/>
<path d="M21.4698 8.90466H25.3177V13.3436H21.4698V8.90466Z" fill="#83327E"/>
<path d="M36.8582 31.0953H52.153V35.5342H36.8582V31.0953Z" fill="#D27BA7"/>
</svg>
