<svg width="91" height="43" viewBox="0 0 91 43" fill="none" xmlns="http://www.w3.org/2000/svg">
<path d="M8.39456 0H13.5135V5.19387H8.39456V0Z" fill="black"/>
<path d="M8.8645 0H13.2203V4.8168H8.8645V0Z" fill="#B54C90"/>
<path d="M4.59198 4.81677H8.86445V9.63357H4.59198V4.81677Z" fill="#B54C90"/>
<path d="M0.232849 8.97925H4.98189V33.5845H0.232849V8.97925Z" fill="black"/>
<path d="M0.239471 9.63354H4.59193V33.4994H0.239471V9.63354Z" fill="#B54C90"/>
<path d="M4.59198 33.4995H8.86445V38.1832H4.59198V33.4995Z" fill="#B54C90"/>
<path d="M8.39456 37.3699H13.5135V42.9999H8.39456V37.3699Z" fill="black"/>
<path d="M8.8645 38.1832H13.2203V43H8.8645V38.1832Z" fill="#B54C90"/>
<path d="M77.5006 0H82.6195V5.19387H77.5006V0Z" fill="black"/>
<path d="M77.8871 0H82.2396V4.8168H77.8871V0Z" fill="#B54C90"/>
<path d="M82.2397 4.81677H86.5155V9.63357H82.2397V4.81677Z" fill="#B54C90"/>
<path d="M86.0322 8.97925H90.8746V33.5845H86.0322V8.97925Z" fill="black"/>
<path d="M86.5154 9.63354H90.8679V33.4994H86.5154V9.63354Z" fill="#B54C90"/>
<path d="M82.2397 33.4995H86.5155V38.1832H82.2397V33.4995Z" fill="#B54C90"/>
<path d="M77.5006 37.3699H82.6195V42.9999H77.5006V37.3699Z" fill="black"/>
<path d="M77.8871 38.1832H82.2396V43H77.8871V38.1832Z" fill="#B54C90"/>
<path d="M21.8085 4.81677H26.1609V9.63357H21.8085V4.81677Z" fill="#83327E"/>
<path d="M64.9466 4.81677H69.299V9.63357H64.9466V4.81677Z" fill="#83327E"/>
<path d="M47.7299 23.9509H52.0058V28.6827H47.7299V23.9509Z" fill="#D27BA7"/>
<path d="M43.3774 28.6827H47.7299V33.4995H43.3774V28.6827Z" fill="#D27BA7"/>
<path d="M39.1017 23.9509H43.3775V28.6827H39.1017V23.9509Z" fill="#D27BA7"/>
<path d="M52.0057 19.1342H56.3182V23.951H52.0057V19.1342Z" fill="#D27BA7"/>
<path d="M34.7892 19.1342H39.1017V23.951H34.7892V19.1342Z" fill="#D27BA7"/>
<path d="M30.4367 9.63354H60.6706V14.321H30.4367V9.63354Z" fill="#D27BA7"/>
<path d="M56.3182 14.321H60.6706V19.1342H56.3182V14.321Z" fill="#D27BA7"/>
<path d="M30.4367 14.321H34.7892V19.1342H30.4367V14.321Z" fill="#D27BA7"/>
</svg>
