<svg width="257" height="70" viewBox="0 0 257 70" fill="none" xmlns="http://www.w3.org/2000/svg">
<path d="M18.5322 70C17.6547 70 16.7949 69.8935 15.9483 69.6888C14.846 69.5045 13.7657 69.2343 12.7119 68.878C11.6581 68.5218 10.644 68.0836 9.67394 67.5636C8.7039 67.0436 7.78677 66.4498 6.92697 65.7824C6.06716 65.119 5.2779 64.3861 4.55478 63.5917C3.83166 62.8014 3.1879 61.9538 2.62352 61.057C2.05913 60.1603 1.58293 59.2267 1.19491 58.2521C0.806897 57.2776 0.511475 56.2825 0.313058 55.2629C0.110232 54.2393 0.00881798 53.2115 0 52.1755C0 49.1167 0.811307 46.2545 2.42951 43.5847C1.63143 42.2743 1.02736 40.8903 0.617298 39.4367C0.207236 37.983 0 36.5048 0 34.998C0 33.4952 0.207236 32.017 0.617298 30.5592C1.02736 29.1056 1.63143 27.7216 2.42951 26.4112C0.811307 23.7455 0 20.8833 0 17.8245C0.00881798 16.7844 0.110232 15.7567 0.313058 14.733C0.515885 13.7093 0.811306 12.7101 1.19932 11.7356C1.58734 10.761 2.06795 9.82334 2.63233 8.92249C3.20113 8.02574 3.84488 7.17812 4.57241 6.38374C5.29553 5.58935 6.0892 4.86048 6.95342 4.19304C7.81764 3.52559 8.73477 2.93595 9.70922 2.41591C10.6837 1.89588 11.7022 1.46183 12.756 1.10559C13.8142 0.749342 14.8989 0.483182 16.0057 0.298918C16.8302 0.0982746 17.6724 0 18.5278 0H237.717C238.132 0 238.55 0.0122838 238.965 0.0368529C239.379 0.0614209 239.794 0.0982754 240.208 0.147412C240.623 0.19655 241.033 0.262065 241.443 0.335771C241.849 0.409476 242.254 0.495467 242.66 0.593741C243.061 0.692015 243.458 0.802573 243.855 0.925417C244.252 1.04826 244.64 1.18339 245.028 1.3308C245.411 1.47412 245.79 1.63381 246.165 1.8017C246.54 1.96958 246.91 2.14975 247.272 2.34221C247.633 2.53057 247.986 2.73121 248.335 2.94414C248.683 3.15706 249.022 3.37818 249.358 3.61158C249.688 3.84498 250.01 4.08658 250.328 4.33636C250.641 4.59023 250.949 4.8523 251.245 5.12255C251.545 5.39281 251.831 5.67125 252.109 5.95788C252.382 6.24452 252.651 6.53934 252.907 6.84235C253.163 7.14536 253.41 7.45657 253.643 7.77596C253.881 8.09535 254.102 8.41884 254.318 8.75051C254.53 9.08219 254.728 9.42205 254.918 9.76192C255.103 10.1059 255.279 10.458 255.447 10.8102C255.61 11.1623 255.76 11.5227 255.901 11.8871C256.038 12.2474 256.165 12.616 256.276 12.9886C256.39 13.3571 256.487 13.7297 256.576 14.1065C256.664 14.4832 256.739 14.864 256.796 15.2448C256.858 15.6256 256.902 16.0105 256.937 16.3913C256.972 16.7763 256.99 17.1612 256.999 17.5461C257.003 17.931 256.994 18.3159 256.977 18.7008C256.955 19.0857 256.919 19.4706 256.871 19.8514C256.827 20.2363 256.765 20.6171 256.69 20.9939C256.615 21.3747 256.527 21.7514 256.43 22.124C256.329 22.4966 256.214 22.8693 256.086 23.2337C255.963 23.6022 255.822 23.9667 255.667 24.3229C255.517 24.6832 255.354 25.0354 255.178 25.3834C254.997 25.7315 254.812 26.0755 254.609 26.4153C255.394 27.7297 255.985 29.1138 256.39 30.5674C256.796 32.0211 256.999 33.4993 256.999 35.002C256.999 36.5007 256.796 37.9789 256.39 39.4326C255.985 40.8862 255.394 42.2703 254.609 43.5888C254.812 43.9245 254.997 44.2685 255.173 44.6166C255.354 44.9646 255.517 45.3209 255.667 45.6771C255.822 46.0374 255.958 46.3978 256.086 46.7663C256.214 47.1307 256.329 47.5034 256.426 47.876C256.527 48.2486 256.615 48.6253 256.69 49.0061C256.765 49.3829 256.822 49.7637 256.871 50.1486C256.919 50.5294 256.955 50.9143 256.972 51.2992C256.994 51.6841 257.003 52.069 256.994 52.4539C256.99 52.8388 256.968 53.2238 256.937 53.6087C256.902 53.9895 256.853 54.3744 256.796 54.7552C256.734 55.136 256.659 55.5168 256.576 55.8935C256.487 56.2662 256.386 56.6429 256.276 57.0114C256.161 57.384 256.038 57.7485 255.896 58.1129C255.76 58.4773 255.605 58.8336 255.442 59.1898C255.279 59.542 255.103 59.8941 254.913 60.234C254.728 60.5779 254.525 60.9178 254.314 61.2495C254.102 61.5812 253.877 61.9047 253.643 62.224C253.41 62.5393 253.163 62.8505 252.907 63.1536C252.651 63.4566 252.382 63.7555 252.104 64.0421C251.827 64.3288 251.54 64.6072 251.245 64.8774C250.945 65.1477 250.641 65.4098 250.328 65.6596C250.01 65.9134 249.688 66.155 249.353 66.3884C249.022 66.6177 248.683 66.8429 248.335 67.0559C247.986 67.2647 247.633 67.4653 247.272 67.6578C246.906 67.8503 246.54 68.0304 246.165 68.1983C245.79 68.3662 245.411 68.5218 245.023 68.6692C244.64 68.8166 244.247 68.9476 243.855 69.0705C243.458 69.1933 243.061 69.3039 242.66 69.4022C242.254 69.5045 241.849 69.5905 241.438 69.6642C241.033 69.7379 240.618 69.7994 240.208 69.8485C239.794 69.8976 239.379 69.9386 238.965 69.9632C238.546 69.9877 238.132 70 237.717 70H18.5322Z" fill="#EEDCC7"/>
<path d="M248.176 35.002C248.176 34.1339 248.052 33.2781 247.801 32.4387C247.554 31.5993 247.188 30.809 246.707 30.0596C246.227 29.3103 245.645 28.6388 244.966 28.0327C244.291 27.4308 243.537 26.923 242.708 26.5054C242.651 26.4726 242.594 26.4399 242.532 26.4112C243.515 25.9403 244.393 25.3384 245.169 24.6013C245.892 23.9216 246.496 23.1641 246.972 22.3205C247.453 21.477 247.792 20.5844 247.986 19.6507C248.185 18.713 248.229 17.7713 248.123 16.8254C248.017 15.8754 247.766 14.9622 247.364 14.0819C246.968 13.2056 246.439 12.3989 245.782 11.6619C245.129 10.9289 244.371 10.2942 243.511 9.77008C242.651 9.24186 241.729 8.84057 240.742 8.56213C239.754 8.28778 238.744 8.14856 237.717 8.15265H18.5321C18.3601 8.14856 18.197 8.18541 18.0471 8.25912C17.0726 8.36148 16.1379 8.5867 15.2384 8.93475C14.3345 9.28281 13.5011 9.73733 12.7383 10.3024C11.9755 10.8675 11.3141 11.5145 10.7453 12.2515C10.181 12.9886 9.73562 13.783 9.41374 14.6347C9.08745 15.4864 8.89785 16.3627 8.83612 17.2635C8.7788 18.1643 8.85817 19.057 9.06981 19.9374C9.28587 20.8178 9.62538 21.6572 10.0928 22.4475C10.5601 23.2419 11.1378 23.9584 11.8212 24.6013C12.6105 25.3425 13.51 25.9444 14.5153 26.4112C14.4535 26.444 14.3918 26.4685 14.3301 26.5054C13.4967 26.919 12.7383 27.4226 12.0549 28.0245C11.3715 28.6265 10.7894 29.3021 10.3044 30.0474C9.81939 30.7967 9.44901 31.5911 9.19768 32.4305C8.94636 33.2699 8.81849 34.1257 8.81849 34.9979C8.81849 35.8701 8.94636 36.7259 9.19768 37.5694C9.44901 38.4089 9.81939 39.2032 10.3044 39.9526C10.7894 40.6978 11.3715 41.3735 12.0549 41.9754C12.7383 42.5732 13.4967 43.081 14.3301 43.4905C14.3918 43.5314 14.4535 43.556 14.5153 43.5887C13.51 44.0514 12.6105 44.6575 11.8212 45.3986C11.1378 46.0374 10.5601 46.754 10.0928 47.5443C9.62538 48.3387 9.28587 49.174 9.07422 50.0503C8.85817 50.9307 8.78321 51.8192 8.83612 52.7201C8.89344 53.6209 9.08304 54.4972 9.40492 55.3448C9.7268 56.1965 10.1677 56.9909 10.7321 57.728C11.2965 58.4609 11.9579 59.112 12.7163 59.6771C13.4747 60.2421 14.3036 60.7008 15.2031 61.0488C16.1026 61.3969 17.0374 61.6262 18.003 61.7326C18.1706 61.8104 18.3469 61.8514 18.5321 61.8473H237.717C238.744 61.8473 239.754 61.7122 240.742 61.4337C241.729 61.1594 242.651 60.7581 243.511 60.2299C244.371 59.7016 245.129 59.071 245.782 58.3381C246.439 57.601 246.968 56.7944 247.364 55.914C247.766 55.0377 248.017 54.1246 248.123 53.1746C248.229 52.2287 248.185 51.2869 247.986 50.3492C247.792 49.4115 247.453 48.5229 246.972 47.6794C246.496 46.8359 245.892 46.0743 245.169 45.3986C244.393 44.6616 243.515 44.0596 242.532 43.5887C242.594 43.5601 242.651 43.5273 242.708 43.4905C243.537 43.0769 244.287 42.5691 244.966 41.9672C245.645 41.3653 246.222 40.6896 246.707 39.9444C247.188 39.1951 247.554 38.4007 247.801 37.5653C248.052 36.7259 248.176 35.8742 248.176 35.002ZM25.4018 59.6771H18.9466C18.8452 59.6402 18.7393 59.6156 18.6291 59.6075C17.8663 59.5542 17.1256 59.4068 16.4068 59.1611C15.6925 58.9113 15.0267 58.5797 14.4139 58.1538C13.7966 57.7321 13.263 57.2407 12.8001 56.6756C12.3371 56.1105 11.9711 55.5004 11.6977 54.8371C11.4464 54.2228 11.2833 53.5882 11.2083 52.933C11.1245 52.1591 11.1686 51.3893 11.345 50.6317C11.5214 49.8701 11.8168 49.1494 12.2357 48.4738C12.6546 47.7982 13.1748 47.1962 13.7966 46.6721C14.4139 46.148 15.1105 45.7221 15.8733 45.3986C16.7508 45.0301 17.6679 44.809 18.6291 44.7353C18.9466 44.682 19.2023 44.5387 19.4096 44.3094C19.6124 44.076 19.7094 43.814 19.7094 43.5191V43.4905C19.7006 43.2161 19.5947 42.9745 19.3875 42.7698C19.1803 42.5691 18.9289 42.4545 18.6291 42.4299C17.7032 42.3685 16.8125 42.1638 15.9615 41.8198C15.1149 41.4717 14.3521 41.0009 13.6775 40.4112C13.0029 39.8216 12.4561 39.1418 12.0373 38.3761C11.614 37.6063 11.3494 36.7996 11.2304 35.9479C11.1907 35.6326 11.1686 35.3173 11.1686 35.002C11.1686 34.6785 11.1907 34.3591 11.2392 34.0398C11.3538 33.188 11.6228 32.3814 12.0417 31.6157C12.4605 30.8499 13.0073 30.1702 13.6819 29.5806C14.3565 28.9909 15.1149 28.5241 15.9659 28.176C16.8169 27.8321 17.7032 27.6273 18.6291 27.5659C18.9113 27.5168 19.1538 27.3939 19.3522 27.1974C19.5462 27.0009 19.6609 26.7715 19.6917 26.5054C19.7006 26.4481 19.705 26.3948 19.7094 26.3375C19.705 26.0591 19.6036 25.8134 19.3963 25.6045C19.1891 25.3998 18.9334 25.2851 18.6291 25.2606C17.6679 25.1869 16.7508 24.9658 15.8733 24.6013C15.1105 24.2737 14.4139 23.8479 13.7966 23.3238C13.1748 22.7996 12.6546 22.1977 12.2357 21.5221C11.8168 20.8464 11.5214 20.1298 11.345 19.3682C11.1686 18.6066 11.1245 17.8368 11.2083 17.0629C11.2789 16.4077 11.4376 15.773 11.6977 15.1588C11.9711 14.4954 12.3371 13.8853 12.8001 13.3202C13.2586 12.7552 13.7966 12.2638 14.4094 11.8379C15.0267 11.4162 15.6925 11.0845 16.4068 10.8347C17.1256 10.589 17.8663 10.4416 18.6291 10.3884C18.7349 10.3802 18.8364 10.3597 18.9334 10.3188H25.4018V59.6771ZM41.1781 59.6771H27.4609V10.3229H41.1781V59.6771ZM56.9501 59.6771H43.2373V10.3229H56.9501V59.6771ZM72.7265 59.6771H59.0136V10.3229H72.7265V59.6771ZM88.4984 59.6771H74.7856V10.3229H88.4984V59.6771ZM104.275 59.6771H90.562V10.3229H104.275V59.6771ZM120.047 59.6771H106.334V10.3229H120.051L120.047 59.6771ZM135.823 59.6771H122.11V10.3229H135.823V59.6771ZM151.6 59.6771H137.882V10.3229H151.6V59.6771ZM167.371 59.6771H153.659V10.3229H167.371V59.6771ZM183.148 59.6771H169.431V10.3229H183.148V59.6771ZM198.92 59.6771H185.207V10.3229H198.92V59.6771ZM214.696 59.6771H200.979V10.3229H214.696V59.6771ZM230.468 59.6771H216.755V10.3229H230.468V59.6771ZM237.717 44.6739C238.246 44.6739 238.775 44.723 239.296 44.8172C239.82 44.9154 240.327 45.0588 240.817 45.2471C241.311 45.4355 241.778 45.6648 242.219 45.9391C242.664 46.2135 243.07 46.5247 243.449 46.8727C243.824 47.2208 244.159 47.5975 244.459 48.007C244.754 48.4165 245.001 48.8505 245.208 49.305C245.411 49.7596 245.565 50.2264 245.671 50.7095C245.773 51.1927 245.826 51.68 245.826 52.1714C245.826 52.4252 245.812 52.6791 245.786 52.933C245.737 53.3916 245.64 53.842 245.499 54.2843C245.358 54.7265 245.177 55.1524 244.953 55.5618C244.728 55.9754 244.463 56.3603 244.163 56.7288C243.859 57.0933 243.524 57.429 243.154 57.7402C242.783 58.0474 242.386 58.3217 241.963 58.5633C241.54 58.8049 241.094 59.0096 240.627 59.1734C240.164 59.3413 239.688 59.4641 239.199 59.5501C238.709 59.6361 238.215 59.6771 237.717 59.6771H232.532V10.3229H237.717C238.537 10.3229 239.34 10.4375 240.124 10.6627C240.909 10.892 241.641 11.2196 242.316 11.6537C242.995 12.0836 243.586 12.5996 244.093 13.1974C244.6 13.7952 245.001 14.4504 245.292 15.1588C245.548 15.773 245.715 16.4118 245.786 17.067C245.812 17.3208 245.826 17.5747 245.826 17.8286C245.826 18.32 245.777 18.8072 245.671 19.2904C245.565 19.7736 245.416 20.2404 245.208 20.6949C245.006 21.1535 244.754 21.5835 244.459 21.993C244.163 22.4024 243.828 22.7791 243.449 23.1272C243.074 23.4794 242.664 23.7865 242.223 24.0608C241.778 24.3352 241.311 24.5645 240.821 24.7528C240.327 24.9453 239.82 25.0845 239.3 25.1828C238.775 25.277 238.246 25.3261 237.717 25.3261C237.558 25.3261 237.408 25.3548 237.267 25.408C237.122 25.4653 236.994 25.5431 236.884 25.6455C236.773 25.7438 236.69 25.8625 236.628 25.9976C236.571 26.1287 236.54 26.2679 236.54 26.4112C236.54 26.444 236.54 26.4767 236.549 26.5054C236.571 26.7879 236.694 27.0254 236.919 27.2138C237.144 27.4062 237.408 27.5004 237.717 27.4963C238.206 27.4963 238.691 27.5414 239.172 27.6192C239.653 27.7011 240.12 27.8239 240.579 27.9836C241.037 28.1433 241.474 28.3398 241.893 28.5732C242.311 28.8066 242.704 29.0728 243.07 29.3717C243.44 29.6706 243.775 29.9941 244.075 30.3504C244.379 30.7066 244.644 31.0833 244.873 31.4805C245.107 31.8818 245.292 32.2954 245.442 32.7253C245.592 33.1553 245.698 33.5975 245.759 34.0438C245.808 34.3632 245.83 34.6826 245.826 35.002C245.83 35.3214 245.808 35.6367 245.759 35.9479C245.698 36.3983 245.592 36.8365 245.442 37.2664C245.297 37.7005 245.107 38.114 244.878 38.5153C244.648 38.9125 244.384 39.2892 244.08 39.6455C243.775 40.0017 243.44 40.3293 243.074 40.6282C242.708 40.9271 242.316 41.1933 241.893 41.4267C241.474 41.6601 241.037 41.8567 240.579 42.0163C240.12 42.176 239.653 42.2989 239.172 42.3767C238.691 42.4586 238.206 42.4995 237.717 42.4995C237.408 42.4995 237.144 42.5937 236.919 42.7862C236.694 42.9745 236.571 43.212 236.549 43.4905C236.54 43.5232 236.54 43.556 236.54 43.5887C236.54 43.7321 236.571 43.8713 236.628 44.0023C236.69 44.1374 236.773 44.2521 236.884 44.3545C236.994 44.4568 237.122 44.5346 237.267 44.592C237.408 44.6452 237.558 44.6739 237.717 44.6739Z" fill="black"/>
</svg>
