<svg width="260" height="71" viewBox="0 0 260 71" fill="none" xmlns="http://www.w3.org/2000/svg">
<path d="M18.7487 71C17.8464 71 16.9707 70.8891 16.1392 70.6838C6.95722 69.1805 0 61.6809 0 52.9204C0 49.7826 0.893426 46.8049 2.45913 44.2092C0.893426 41.6135 0 38.6358 0 35.4979C0 32.3601 0.893426 29.3865 2.45913 26.7867C0.893426 24.1951 0 21.2174 0 18.0796C0 9.30265 6.98376 1.7866 16.1966 0.308035C17.0149 0.106786 17.8685 0 18.7487 0H240.491C251.247 0 260 8.11159 260 18.0796C260 21.2339 259.12 24.2074 257.581 26.7908C259.12 29.3742 260 32.3437 260 35.4979C260 38.6522 259.12 41.6258 257.581 44.2092C259.12 46.7926 260 49.762 260 52.9204C260 62.8884 251.247 71 240.491 71H18.7487Z" fill="#FFF5EC"/>
<path d="M69.245 27.8176C65.5209 23.7762 61.7924 16.7489 64.8221 16.5353C67.8473 16.3177 69.245 21.4269 69.245 21.4269C69.245 21.4269 70.6426 16.3177 73.6723 16.5353C76.702 16.7489 72.9735 23.7762 69.245 27.8176Z" fill="#1D1D1B"/>
<path d="M42.2829 53.1709C38.5588 49.1295 34.8303 42.1022 37.86 41.8887C40.8853 41.671 42.2829 46.7802 42.2829 46.7802C42.2829 46.7802 43.6805 41.671 46.7102 41.8887C49.7399 42.1022 46.0114 49.1336 42.2829 53.1709Z" fill="#1D1D1B"/>
<path d="M90.7004 54.4688C86.9763 50.4273 83.2478 43.4 86.2775 43.1865C89.3028 42.9688 90.7004 48.0781 90.7004 48.0781C90.7004 48.0781 92.098 42.9688 95.1277 43.1865C98.1574 43.4 94.4289 50.4273 90.7004 54.4688Z" fill="#1D1D1B"/>
<path d="M116.773 27.8176C113.049 23.7762 109.321 16.7489 112.35 16.5353C115.376 16.3177 116.773 21.4269 116.773 21.4269C116.773 21.4269 118.171 16.3177 121.201 16.5353C124.23 16.7489 120.502 23.7762 116.773 27.8176Z" fill="#1D1D1B"/>
<path d="M144.24 54.4729C140.511 50.4315 136.787 43.4042 139.812 43.1865C142.842 42.973 144.24 48.0822 144.24 48.0822C144.24 48.0822 145.637 42.973 148.667 43.1865C151.692 43.4042 147.968 50.4315 144.24 54.4729Z" fill="#1D1D1B"/>
<path d="M170.728 27.8176C167 23.7762 163.271 16.7489 166.301 16.5353C169.331 16.3177 170.728 21.4269 170.728 21.4269C170.728 21.4269 172.126 16.3177 175.151 16.5353C178.181 16.7489 174.452 23.7762 170.728 27.8176Z" fill="#1D1D1B"/>
<path d="M193.104 54.4729C189.375 50.4315 185.651 43.4042 188.676 43.1865C191.706 42.973 193.104 48.0822 193.104 48.0822C193.104 48.0822 194.501 42.973 197.531 43.1865C200.556 43.4042 196.832 50.4315 193.104 54.4729Z" fill="#1D1D1B"/>
<path d="M217.717 27.8176C213.993 23.7762 210.265 16.7489 213.294 16.5353C216.32 16.3177 217.717 21.4269 217.717 21.4269C217.717 21.4269 219.115 16.3177 222.145 16.5353C225.174 16.7489 221.446 23.7762 217.717 27.8176Z" fill="#1D1D1B"/>
<path d="M43.6674 23.4559C43.6674 23.6242 43.632 23.7885 43.5612 23.9487C43.4949 24.1048 43.3931 24.2444 43.2649 24.3635C43.1322 24.4826 42.9818 24.5771 42.8137 24.6428C42.6457 24.7044 42.4687 24.7373 42.283 24.7373C42.1016 24.7373 41.9247 24.7044 41.7522 24.6428C41.5842 24.5771 41.4338 24.4826 41.3055 24.3635C41.1773 24.2444 41.0755 24.1048 41.0048 23.9487C40.934 23.7885 40.8986 23.6242 40.8986 23.4559C40.8986 23.2875 40.934 23.1232 41.0048 22.963C41.0755 22.8069 41.1773 22.6673 41.3055 22.5482C41.4338 22.4291 41.5842 22.3346 41.7522 22.2689C41.9247 22.2073 42.1016 22.1744 42.283 22.1744C42.4687 22.1744 42.6457 22.2073 42.8137 22.2689C42.9818 22.3346 43.1322 22.4291 43.2649 22.5482C43.3931 22.6673 43.4949 22.8069 43.5612 22.963C43.632 23.1232 43.6674 23.2875 43.6674 23.4559Z" fill="#1D1D1B"/>
<path d="M67.8782 47.5401C67.8782 47.7126 67.8428 47.8769 67.7721 48.0329C67.7013 48.189 67.5996 48.3286 67.4713 48.4477C67.3431 48.571 67.1927 48.6613 67.0246 48.727C66.8521 48.7927 66.6752 48.8256 66.4939 48.8256C66.3081 48.8256 66.1312 48.7927 65.9631 48.727C65.795 48.6613 65.6447 48.571 65.512 48.4477C65.3837 48.3286 65.2864 48.189 65.2156 48.0329C65.1449 47.8769 65.1095 47.7126 65.1095 47.5401C65.1095 47.3717 65.1449 47.2074 65.2156 47.0513C65.2864 46.8952 65.3837 46.7556 65.512 46.6324C65.6447 46.5133 65.795 46.4229 65.9631 46.3572C66.1312 46.2915 66.3081 46.2586 66.4939 46.2586C66.6752 46.2586 66.8521 46.2915 67.0246 46.3572C67.1927 46.4229 67.3431 46.5133 67.4713 46.6324C67.5996 46.7556 67.7013 46.8952 67.7721 47.0513C67.8428 47.2074 67.8782 47.3717 67.8782 47.5401Z" fill="#1D1D1B"/>
<path d="M97.6223 23.4559C97.6223 23.6242 97.5869 23.7885 97.5161 23.9487C97.4454 24.1048 97.3481 24.2444 97.2154 24.3635C97.0871 24.4826 96.9367 24.5771 96.7687 24.6428C96.5962 24.7044 96.4237 24.7373 96.2379 24.7373C96.0566 24.7373 95.8797 24.7044 95.7072 24.6428C95.5391 24.5771 95.3887 24.4826 95.2605 24.3635C95.1278 24.2444 95.0305 24.1048 94.9597 23.9487C94.8889 23.7885 94.8536 23.6242 94.8536 23.4559C94.8536 23.2875 94.8889 23.1232 94.9597 22.963C95.0305 22.8069 95.1278 22.6673 95.2605 22.5482C95.3887 22.4291 95.5391 22.3346 95.7072 22.2689C95.8797 22.2073 96.0566 22.1744 96.2379 22.1744C96.4237 22.1744 96.5962 22.2073 96.7687 22.2689C96.9367 22.3346 97.0871 22.4291 97.2154 22.5482C97.3481 22.6673 97.4454 22.8069 97.5161 22.963C97.5869 23.1232 97.6223 23.2875 97.6223 23.4559Z" fill="#1D1D1B"/>
<path d="M122.311 47.5401C122.311 47.7126 122.276 47.8769 122.205 48.0329C122.134 48.189 122.037 48.3286 121.904 48.4477C121.776 48.571 121.625 48.6613 121.457 48.727C121.285 48.7927 121.112 48.8256 120.927 48.8256C120.745 48.8256 120.568 48.7927 120.396 48.727C120.228 48.6613 120.077 48.571 119.949 48.4477C119.816 48.3286 119.719 48.189 119.648 48.0329C119.578 47.8769 119.542 47.7126 119.542 47.5401C119.542 47.3717 119.578 47.2074 119.648 47.0513C119.719 46.8952 119.816 46.7556 119.949 46.6324C120.077 46.5133 120.228 46.4229 120.396 46.3572C120.568 46.2915 120.745 46.2586 120.927 46.2586C121.112 46.2586 121.285 46.2915 121.457 46.3572C121.625 46.4229 121.776 46.5133 121.904 46.6324C122.037 46.7556 122.134 46.8952 122.205 47.0513C122.276 47.2074 122.311 47.3717 122.311 47.5401Z" fill="#1D1D1B"/>
<path d="M147.008 23.4559C147.008 23.6242 146.973 23.7885 146.902 23.9487C146.831 24.1048 146.734 24.2444 146.601 24.3635C146.473 24.4826 146.323 24.5771 146.155 24.6428C145.982 24.7044 145.805 24.7373 145.624 24.7373C145.438 24.7373 145.266 24.7044 145.093 24.6428C144.925 24.5771 144.775 24.4826 144.647 24.3635C144.514 24.2444 144.417 24.1048 144.346 23.9487C144.275 23.7885 144.24 23.6242 144.24 23.4559C144.24 23.2875 144.275 23.1232 144.346 22.963C144.417 22.8069 144.514 22.6673 144.647 22.5482C144.775 22.4291 144.925 22.3346 145.093 22.2689C145.266 22.2073 145.438 22.1744 145.624 22.1744C145.805 22.1744 145.982 22.2073 146.155 22.2689C146.323 22.3346 146.473 22.4291 146.601 22.5482C146.734 22.6673 146.831 22.8069 146.902 22.963C146.973 23.1232 147.008 23.2875 147.008 23.4559Z" fill="#1D1D1B"/>
<path d="M170.056 47.5278C170.056 47.6962 170.021 47.8604 169.95 48.0165C169.879 48.1767 169.782 48.3122 169.649 48.4354C169.521 48.5545 169.371 48.6449 169.202 48.7106C169.03 48.7763 168.853 48.8092 168.672 48.8092C168.486 48.8092 168.313 48.7763 168.141 48.7106C167.973 48.6449 167.822 48.5545 167.694 48.4354C167.562 48.3122 167.464 48.1767 167.393 48.0165C167.323 47.8604 167.287 47.6962 167.287 47.5278C167.287 47.3553 167.323 47.191 167.393 47.0349C167.464 46.8788 167.562 46.7392 167.694 46.6201C167.822 46.501 167.973 46.4065 168.141 46.3408C168.313 46.2751 168.486 46.2422 168.672 46.2422C168.853 46.2422 169.03 46.2751 169.202 46.3408C169.371 46.4065 169.521 46.501 169.649 46.6201C169.782 46.7392 169.879 46.8788 169.95 47.0349C170.021 47.191 170.056 47.3553 170.056 47.5278Z" fill="#1D1D1B"/>
<path d="M194.488 23.4559C194.488 23.6242 194.453 23.7885 194.382 23.9487C194.311 24.1048 194.214 24.2444 194.081 24.3635C193.953 24.4826 193.803 24.5771 193.635 24.6428C193.466 24.7044 193.29 24.7373 193.104 24.7373C192.922 24.7373 192.746 24.7044 192.573 24.6428C192.405 24.5771 192.255 24.4826 192.126 24.3635C191.994 24.2444 191.896 24.1048 191.826 23.9487C191.755 23.7885 191.719 23.6242 191.719 23.4559C191.719 23.2875 191.755 23.1232 191.826 22.963C191.896 22.8069 191.994 22.6673 192.126 22.5482C192.255 22.4291 192.405 22.3346 192.573 22.2689C192.746 22.2073 192.922 22.1744 193.104 22.1744C193.29 22.1744 193.466 22.2073 193.635 22.2689C193.803 22.3346 193.953 22.4291 194.081 22.5482C194.214 22.6673 194.311 22.8069 194.382 22.963C194.453 23.1232 194.488 23.2875 194.488 23.4559Z" fill="#1D1D1B"/>
<path d="M219.102 47.5278C219.102 47.6962 219.066 47.8604 219 48.0165C218.929 48.1767 218.827 48.3122 218.699 48.4354C218.566 48.5545 218.416 48.6449 218.248 48.7106C218.08 48.7763 217.903 48.8092 217.717 48.8092C217.536 48.8092 217.359 48.7763 217.191 48.7106C217.018 48.6449 216.868 48.5545 216.74 48.4354C216.611 48.3122 216.51 48.1767 216.439 48.0165C216.368 47.8604 216.333 47.6962 216.333 47.5278C216.333 47.3553 216.368 47.191 216.439 47.0349C216.51 46.8788 216.611 46.7392 216.74 46.6201C216.868 46.501 217.018 46.4065 217.191 46.3408C217.359 46.2751 217.536 46.2422 217.717 46.2422C217.903 46.2422 218.08 46.2751 218.248 46.3408C218.416 46.4065 218.566 46.501 218.699 46.6201C218.827 46.7392 218.929 46.8788 219 47.0349C219.066 47.191 219.102 47.3553 219.102 47.5278Z" fill="#1D1D1B"/>
<path d="M240.491 62.7324H18.7488C18.5586 62.7324 18.3773 62.6913 18.2181 62.6174C12.8885 62.0177 8.92557 57.9147 8.92557 52.9204C8.92557 49.1131 11.2255 45.8233 14.6842 44.2092C11.2299 42.5992 8.92557 39.3094 8.92557 35.5021C8.92557 31.6906 11.2299 28.4008 14.6842 26.7908C11.2255 25.1767 8.92557 21.8869 8.92557 18.0796C8.92557 13.0689 12.9106 8.96177 18.2579 8.37855C18.4083 8.30873 18.5763 8.26766 18.7488 8.26766H240.491C246.329 8.26766 251.079 12.6705 251.079 18.0796C251.079 21.8623 248.757 25.1521 245.365 26.7908C248.757 28.4296 251.079 31.7194 251.079 35.5021C251.079 39.2847 248.757 42.5745 245.365 44.2092C248.757 45.8479 251.079 49.1377 251.079 52.9204C251.079 58.3295 246.329 62.7324 240.491 62.7324ZM19.169 60.5268H240.491C245.02 60.5268 248.7 57.1138 248.7 52.9204C248.7 48.7229 245.02 45.3099 240.491 45.3099C239.836 45.3099 239.305 44.817 239.305 44.2092C239.305 43.6013 239.836 43.1085 240.491 43.1085C245.02 43.1085 248.7 39.6954 248.7 35.5021C248.7 31.3087 245.02 27.8915 240.491 27.8915C239.836 27.8915 239.305 27.3987 239.305 26.7908C239.305 26.183 239.836 25.6901 240.491 25.6901C245.02 25.6901 248.7 22.2771 248.7 18.0796C248.7 13.8862 245.02 10.4732 240.491 10.4732H19.1513C19.054 10.5102 18.9523 10.5307 18.8461 10.5389C14.5426 10.8675 11.3007 14.108 11.3007 18.0796C11.3007 22.0553 14.5426 25.2958 18.8461 25.6244C19.4609 25.6696 19.9386 26.146 19.9386 26.721C19.9386 27.296 19.4609 27.9162 18.8461 27.9614C14.5426 28.2858 11.3007 31.5264 11.3007 35.5021C11.3007 39.4778 14.5426 42.7183 18.8461 43.0428C19.4609 43.0879 19.9386 43.5644 19.9386 44.1394C19.9386 44.7144 19.4609 45.3345 18.8461 45.3797C14.5426 45.7042 11.3007 48.9488 11.3007 52.9204C11.3007 56.8961 14.5426 60.1366 18.8461 60.4652C18.9611 60.4734 19.0673 60.494 19.169 60.5309V60.5268Z" fill="black"/>
</svg>
