<svg width="257" height="71" viewBox="0 0 257 71" fill="none" xmlns="http://www.w3.org/2000/svg">
<path d="M18.5322 71C17.6547 71 16.7949 70.8962 15.9483 70.6843C14.846 70.4974 13.7657 70.2233 12.7119 69.8619C11.6581 69.5006 10.644 69.0562 9.67394 68.5287C8.7039 68.0053 7.78677 67.4031 6.92697 66.7261C6.06716 66.049 5.2779 65.3097 4.55478 64.5039C3.83166 63.6982 3.1879 62.8425 2.62352 61.9329C2.05913 61.0233 1.58293 60.0722 1.19491 59.0878C0.806897 58.0992 0.511475 57.0899 0.313058 56.0516C0.110232 55.0173 0.00881798 53.9748 0 52.9198C0 49.8213 0.811307 46.9139 2.42951 44.2099C1.63143 42.8808 1.02736 41.4769 0.617298 40.0025C0.207236 38.528 0 37.0244 0 35.5001C0 33.9757 0.207236 32.4722 0.617298 30.9977C1.02736 29.5232 1.63143 28.1193 2.42951 26.7902C0.811307 24.0862 0 21.183 0 18.0803C0.00881798 17.0253 0.110232 15.9786 0.313058 14.9402C0.515885 13.906 0.811306 12.8926 1.19932 11.8999C1.58734 10.9114 2.06795 9.96436 2.63233 9.05059C3.20113 8.14097 3.84488 7.2812 4.57241 6.47542C5.29553 5.66964 6.0892 4.93032 6.95342 4.2533C7.81764 3.57628 8.73477 2.97402 9.70922 2.45068C10.6837 1.92319 11.7022 1.47876 12.756 1.12156C13.8142 0.76021 14.8989 0.48608 16.0057 0.303325C16.8302 0.099804 17.6724 -0.00403337 18.5278 0.000119857H237.717C238.132 0.000119857 238.55 0.0125809 238.965 0.0375013C239.379 0.0624228 239.794 0.0998038 240.208 0.149646C240.623 0.199488 241.033 0.261791 241.443 0.336553C241.849 0.41547 242.254 0.502693 242.66 0.602377C243.061 0.702061 243.458 0.814205 243.855 0.93881C244.252 1.06341 244.64 1.20048 245.028 1.34585C245.411 1.49538 245.79 1.65321 246.165 1.82351C246.54 1.99795 246.91 2.18071 247.272 2.37177C247.633 2.56698 247.986 2.7705 248.335 2.98648C248.683 3.20247 249.022 3.42675 249.358 3.6635C249.688 3.8961 250.01 4.14531 250.328 4.39867C250.641 4.65619 250.949 4.91786 251.245 5.19199C251.545 5.46612 251.831 5.74856 252.109 6.04346C252.382 6.3342 252.651 6.63326 252.907 6.94061C253.163 7.24797 253.41 7.56364 253.643 7.88761C253.881 8.20743 254.102 8.53971 254.318 8.87614C254.53 9.21258 254.728 9.55316 254.918 9.90206C255.103 10.251 255.279 10.604 255.447 10.9654C255.61 11.3226 255.76 11.6881 255.901 12.0536C256.038 12.4232 256.165 12.797 256.276 13.1709C256.39 13.5488 256.487 13.9268 256.576 14.3089C256.664 14.691 256.739 15.0773 256.796 15.4636C256.858 15.8499 256.902 16.2361 256.937 16.6266C256.972 17.017 256.99 17.4074 256.999 17.7979C257.003 18.1883 256.994 18.5787 256.977 18.9691C256.955 19.3596 256.919 19.7458 256.871 20.1363C256.827 20.5225 256.765 20.9088 256.69 21.2951C256.615 21.6772 256.527 22.0593 256.43 22.4415C256.329 22.8194 256.214 23.1932 256.086 23.5671C255.963 23.9409 255.822 24.3064 255.667 24.6719C255.517 25.0332 255.354 25.3946 255.178 25.7476C254.997 26.1007 254.812 26.4496 254.609 26.7902C255.394 28.1234 255.985 29.5315 256.39 31.006C256.796 32.4805 256.999 33.9799 256.999 35.5001C256.999 37.0244 256.796 38.5238 256.39 39.9983C255.985 41.4728 255.394 42.8767 254.609 44.2099C254.812 44.5547 254.997 44.9036 255.173 45.2566C255.354 45.6097 255.517 45.9669 255.667 46.3324C255.822 46.6937 255.958 47.0634 256.086 47.4372C256.214 47.8069 256.329 48.1848 256.426 48.5628C256.527 48.9408 256.615 49.3229 256.69 49.7092C256.765 50.0913 256.822 50.4776 256.871 50.868C256.919 51.2543 256.955 51.6447 256.972 52.0351C256.994 52.4256 257.003 52.816 256.994 53.2064C256.99 53.5968 256.968 53.9873 256.937 54.3736C256.902 54.764 256.853 55.1544 256.796 55.5407C256.734 55.927 256.659 56.3091 256.576 56.6912C256.487 57.0733 256.386 57.4513 256.276 57.8293C256.161 58.2072 256.038 58.5769 255.896 58.9466C255.76 59.3121 255.605 59.6776 255.442 60.0389C255.279 60.3961 255.103 60.7492 254.913 61.0981C254.728 61.447 254.525 61.7875 254.314 62.124C254.102 62.4604 253.877 62.7927 253.643 63.1125C253.41 63.4365 253.163 63.7521 252.907 64.0595C252.651 64.3669 252.382 64.6659 252.104 64.9567C251.827 65.2516 251.54 65.534 251.245 65.8081C250.945 66.0823 250.641 66.3439 250.328 66.6014C250.01 66.8548 249.688 67.104 249.353 67.3366C249.022 67.5734 248.683 67.7977 248.335 68.0136C247.986 68.2296 247.633 68.4331 247.272 68.6284C246.906 68.8194 246.54 69.0022 246.165 69.1725C245.79 69.3469 245.411 69.5047 245.023 69.6543C244.64 69.7996 244.247 69.9367 243.855 70.0613C243.458 70.1859 243.061 70.2981 242.66 70.3977C242.254 70.4974 241.849 70.5846 241.438 70.6636C241.033 70.7383 240.618 70.8006 240.208 70.8505C239.794 70.9003 239.379 70.9377 238.965 70.9626C238.546 70.9875 238.132 71 237.717 71H18.5322Z" fill="#E1E0D7"/>
<path d="M31.7203 17.5736C31.7203 17.7439 31.6851 17.91 31.6145 18.0637C31.544 18.2215 31.447 18.3627 31.3191 18.4832C31.1912 18.6036 31.0413 18.695 30.8738 18.7615C30.7062 18.8238 30.5342 18.857 30.3491 18.857C30.1683 18.857 29.9963 18.8238 29.8288 18.7615C29.6612 18.695 29.5113 18.6036 29.3834 18.4832C29.2556 18.3627 29.1541 18.2215 29.088 18.0637C29.0175 17.91 28.9822 17.7439 28.9822 17.5736C28.9822 17.4033 29.0175 17.2413 29.088 17.0834C29.1541 16.9256 29.2556 16.7885 29.3834 16.6681C29.5113 16.5476 29.6612 16.4521 29.8288 16.3898C29.9963 16.3234 30.1683 16.2901 30.3491 16.2901C30.5342 16.2901 30.7062 16.3234 30.8738 16.3898C31.0413 16.4521 31.1912 16.5476 31.3191 16.6681C31.447 16.7885 31.544 16.9256 31.6145 17.0834C31.6851 17.2413 31.7203 17.4033 31.7203 17.5736Z" fill="#1D1D1B"/>
<path d="M74.1198 20.3398C74.1198 20.5101 74.0845 20.6762 74.014 20.8341C73.9478 20.9877 73.8464 21.129 73.7186 21.2494C73.5907 21.3699 73.4408 21.4612 73.2732 21.5277C73.1057 21.59 72.9337 21.6232 72.7529 21.6232C72.5677 21.6232 72.3958 21.59 72.2282 21.5277C72.0607 21.4612 71.9108 21.3699 71.7829 21.2494C71.655 21.129 71.558 20.9877 71.4875 20.8341C71.4169 20.6762 71.3817 20.5101 71.3817 20.3398C71.3817 20.1695 71.4169 20.0075 71.4875 19.8497C71.558 19.6919 71.655 19.5548 71.7829 19.4343C71.9108 19.3139 72.0607 19.2225 72.2282 19.156C72.3958 19.0896 72.5677 19.0564 72.7529 19.0564C72.9337 19.0564 73.1057 19.0896 73.2732 19.156C73.4408 19.2225 73.5907 19.3139 73.7186 19.4343C73.8464 19.5548 73.9478 19.6919 74.014 19.8497C74.0845 20.0075 74.1198 20.1695 74.1198 20.3398Z" fill="#1D1D1B"/>
<path d="M88.4235 55.2458C88.4235 55.4161 88.3882 55.5781 88.3177 55.7359C88.2472 55.8937 88.1501 56.0308 88.0223 56.1512C87.8944 56.2717 87.7445 56.3672 87.5769 56.4295C87.4094 56.496 87.233 56.5292 87.0522 56.5292C86.8715 56.5292 86.6995 56.496 86.5319 56.4295C86.3644 56.3672 86.2145 56.2717 86.0866 56.1512C85.9587 56.0308 85.8573 55.8937 85.7912 55.7359C85.7206 55.5781 85.6854 55.4161 85.6854 55.2458C85.6854 55.0755 85.7206 54.9135 85.7912 54.7557C85.8573 54.5978 85.9587 54.4608 86.0866 54.3403C86.2145 54.2199 86.3644 54.1243 86.5319 54.062C86.6995 53.9956 86.8715 53.9623 87.0522 53.9623C87.233 53.9623 87.4094 53.9956 87.5769 54.062C87.7445 54.1243 87.8944 54.2199 88.0223 54.3403C88.1501 54.4608 88.2472 54.5978 88.3177 54.7557C88.3882 54.9135 88.4235 55.0755 88.4235 55.2458Z" fill="#1D1D1B"/>
<path d="M26.9186 52.9198C26.9186 53.0901 26.8833 53.2562 26.8128 53.4099C26.7466 53.5677 26.6452 53.7089 26.5173 53.8294C26.3895 53.9499 26.2395 54.0412 26.072 54.1077C25.9044 54.17 25.7325 54.2032 25.5517 54.2032C25.3709 54.2032 25.1946 54.17 25.027 54.1077C24.8594 54.0412 24.7095 53.9499 24.5817 53.8294C24.4538 53.7089 24.3568 53.5677 24.2862 53.4099C24.2157 53.2562 24.1804 53.0901 24.1804 52.9198C24.1804 52.7495 24.2157 52.5875 24.2862 52.4297C24.3568 52.2718 24.4538 52.1348 24.5817 52.0143C24.7095 51.8939 24.8594 51.8025 25.027 51.736C25.1946 51.6696 25.3709 51.6364 25.5517 51.6364C25.7325 51.6364 25.9044 51.6696 26.072 51.736C26.2395 51.8025 26.3895 51.8939 26.5173 52.0143C26.6452 52.1348 26.7466 52.2718 26.8128 52.4297C26.8833 52.5875 26.9186 52.7495 26.9186 52.9198Z" fill="#1D1D1B"/>
<path d="M132.349 17.5736C132.349 17.7439 132.313 17.91 132.247 18.0637C132.177 18.2215 132.075 18.3627 131.947 18.4832C131.82 18.6036 131.674 18.695 131.506 18.7615C131.339 18.8238 131.163 18.857 130.982 18.857C130.801 18.857 130.625 18.8238 130.457 18.7615C130.289 18.695 130.144 18.6036 130.016 18.4832C129.884 18.3627 129.787 18.2215 129.716 18.0637C129.646 17.91 129.615 17.7439 129.615 17.5736C129.615 17.4033 129.646 17.2413 129.716 17.0834C129.787 16.9256 129.884 16.7885 130.016 16.6681C130.144 16.5476 130.289 16.4521 130.457 16.3898C130.625 16.3234 130.801 16.2901 130.982 16.2901C131.163 16.2901 131.339 16.3234 131.506 16.3898C131.674 16.4521 131.82 16.5476 131.947 16.6681C132.075 16.7885 132.177 16.9256 132.247 17.0834C132.313 17.2413 132.349 17.4033 132.349 17.5736Z" fill="#1D1D1B"/>
<path d="M120.898 47.541C120.898 47.7113 120.862 47.8774 120.792 48.0353C120.721 48.1931 120.624 48.3302 120.496 48.4506C120.369 48.5711 120.219 48.6624 120.051 48.7289C119.884 48.7954 119.712 48.8244 119.531 48.8244C119.346 48.8244 119.174 48.7954 119.006 48.7289C118.839 48.6624 118.689 48.5711 118.561 48.4506C118.433 48.3302 118.336 48.1931 118.265 48.0353C118.195 47.8774 118.16 47.7113 118.16 47.541C118.16 47.3707 118.195 47.2087 118.265 47.0509C118.336 46.8931 118.433 46.756 118.561 46.6355C118.689 46.5151 118.839 46.4237 119.006 46.3572C119.174 46.2908 119.346 46.2617 119.531 46.2617C119.712 46.2617 119.884 46.2908 120.051 46.3572C120.219 46.4237 120.369 46.5151 120.496 46.6355C120.624 46.756 120.721 46.8931 120.792 47.0509C120.862 47.2087 120.898 47.3707 120.898 47.541Z" fill="#1D1D1B"/>
<path d="M171.962 18.857C171.962 19.0273 171.926 19.1934 171.856 19.3471C171.79 19.5049 171.688 19.6461 171.56 19.7666C171.432 19.887 171.283 19.9784 171.115 20.0449C170.947 20.1072 170.775 20.1404 170.595 20.1404C170.409 20.1404 170.238 20.1072 170.07 20.0449C169.902 19.9784 169.753 19.887 169.625 19.7666C169.497 19.6461 169.4 19.5049 169.329 19.3471C169.259 19.1934 169.223 19.0273 169.223 18.857C169.223 18.6867 169.259 18.5247 169.329 18.3669C169.4 18.209 169.497 18.072 169.625 17.9515C169.753 17.8311 169.902 17.7397 170.07 17.6732C170.238 17.6068 170.409 17.5735 170.595 17.5735C170.775 17.5735 170.947 17.6068 171.115 17.6732C171.283 17.7397 171.432 17.8311 171.56 17.9515C171.688 18.072 171.79 18.209 171.856 18.3669C171.926 18.5247 171.962 18.6867 171.962 18.857Z" fill="#1D1D1B"/>
<path d="M185.886 51.6364C185.886 51.8067 185.851 51.9728 185.78 52.1306C185.71 52.2843 185.613 52.4255 185.485 52.546C185.357 52.6664 185.207 52.7578 185.039 52.8243C184.872 52.8866 184.7 52.9198 184.519 52.9198C184.334 52.9198 184.162 52.8866 183.994 52.8243C183.827 52.7578 183.677 52.6664 183.549 52.546C183.421 52.4255 183.324 52.2843 183.254 52.1306C183.183 51.9728 183.148 51.8067 183.148 51.6364C183.148 51.4661 183.183 51.3041 183.254 51.1463C183.324 50.9884 183.421 50.8514 183.549 50.7309C183.677 50.6105 183.827 50.5191 183.994 50.4526C184.162 50.3862 184.334 50.3529 184.519 50.3529C184.7 50.3529 184.872 50.3862 185.039 50.4526C185.207 50.5191 185.357 50.6105 185.485 50.7309C185.613 50.8514 185.71 50.9884 185.78 51.1463C185.851 51.3041 185.886 51.4661 185.886 51.6364Z" fill="#1D1D1B"/>
<path d="M232.505 18.857C232.505 19.0273 232.47 19.1934 232.399 19.3471C232.329 19.5049 232.232 19.6461 232.104 19.7666C231.976 19.887 231.826 19.9784 231.659 20.0449C231.491 20.1072 231.315 20.1404 231.134 20.1404C230.953 20.1404 230.777 20.1072 230.609 20.0449C230.442 19.9784 230.296 19.887 230.168 19.7666C230.041 19.6461 229.939 19.5049 229.869 19.3471C229.802 19.1934 229.767 19.0273 229.767 18.857C229.767 18.6867 229.802 18.5247 229.869 18.3669C229.939 18.209 230.041 18.072 230.168 17.9515C230.296 17.8311 230.442 17.7397 230.609 17.6732C230.777 17.6068 230.953 17.5735 231.134 17.5735C231.315 17.5735 231.491 17.6068 231.659 17.6732C231.826 17.7397 231.976 17.8311 232.104 17.9515C232.232 18.072 232.329 18.209 232.399 18.3669C232.47 18.5247 232.505 18.6867 232.505 18.857Z" fill="#1D1D1B"/>
<path d="M228.634 55.2458C228.634 55.4161 228.599 55.5781 228.532 55.7359C228.462 55.8937 228.36 56.0308 228.233 56.1512C228.105 56.2717 227.959 56.3672 227.792 56.4295C227.624 56.496 227.448 56.5292 227.267 56.5292C227.086 56.5292 226.91 56.496 226.742 56.4295C226.575 56.3672 226.425 56.2717 226.297 56.1512C226.169 56.0308 226.072 55.8937 226.002 55.7359C225.931 55.5781 225.896 55.4161 225.896 55.2458C225.896 55.0755 225.931 54.9135 226.002 54.7557C226.072 54.5978 226.169 54.4608 226.297 54.3403C226.425 54.2199 226.575 54.1243 226.742 54.062C226.91 53.9956 227.086 53.9623 227.267 53.9623C227.448 53.9623 227.624 53.9956 227.792 54.062C227.959 54.1243 228.105 54.2199 228.233 54.3403C228.36 54.4608 228.462 54.5978 228.532 54.7557C228.599 54.9135 228.634 55.0755 228.634 55.2458Z" fill="#1D1D1B"/>
<path d="M237.717 62.7345H18.5321C18.347 62.7345 18.1706 62.6972 18.0074 62.6182C16.8963 62.4936 15.8337 62.2112 14.824 61.7668C13.8098 61.3223 12.8971 60.7409 12.0858 60.0223C11.2745 59.3037 10.5999 58.4814 10.0708 57.5593C9.53723 56.6372 9.17567 55.6611 8.97726 54.6269C8.78325 53.5968 8.76561 52.5626 8.92435 51.5242C9.08308 50.49 9.41377 49.5015 9.90761 48.5628C10.4059 47.6241 11.0496 46.7851 11.8389 46.0375C12.6237 45.294 13.5144 44.6834 14.5109 44.2099C13.6555 43.7987 12.8751 43.292 12.1652 42.6773C11.4597 42.0667 10.8556 41.3773 10.3529 40.6089C9.85029 39.8405 9.47109 39.0222 9.21095 38.1541C8.94639 37.2861 8.81852 36.4014 8.81852 35.5001C8.81852 34.5987 8.94639 33.7141 9.21095 32.846C9.47109 31.9779 9.85029 31.1597 10.3529 30.3913C10.8556 29.6229 11.4597 28.9334 12.1652 28.3228C12.8751 27.7081 13.6555 27.2014 14.5109 26.7902C13.5144 26.3125 12.6237 25.702 11.8345 24.9585C11.0496 24.2109 10.4059 23.3677 9.90761 22.429C9.40937 21.4903 9.08308 20.5018 8.92435 19.4593C8.76561 18.4209 8.78766 17.3867 8.98607 16.3524C9.18449 15.3224 9.55046 14.3463 10.084 13.4242C10.6175 12.5021 11.2921 11.6798 12.1078 10.9612C12.9236 10.2426 13.8407 9.6653 14.8548 9.22088C15.8689 8.78061 16.9316 8.50233 18.0471 8.38187C18.197 8.30711 18.3602 8.26973 18.5321 8.26973H237.717C238.299 8.26973 238.877 8.31542 239.45 8.40264C240.023 8.49402 240.587 8.62693 241.134 8.80553C241.685 8.98413 242.214 9.20427 242.726 9.46594C243.237 9.72761 243.722 10.0267 244.181 10.3631C244.64 10.6995 245.063 11.0733 245.455 11.4762C245.848 11.8791 246.2 12.3111 246.514 12.768C246.831 13.229 247.1 13.7067 247.334 14.2092C247.563 14.7118 247.744 15.2268 247.885 15.7585C248.021 16.286 248.11 16.8259 248.154 17.37C248.193 17.9141 248.189 18.4583 248.136 18.9982C248.079 19.5423 247.977 20.0781 247.827 20.6056C247.678 21.1331 247.484 21.644 247.241 22.1424C246.999 22.6367 246.716 23.1143 246.39 23.5671C246.068 24.0198 245.702 24.4434 245.301 24.838C244.9 25.2326 244.468 25.594 244.005 25.9221C243.537 26.2502 243.048 26.541 242.532 26.7902C243.383 27.2055 244.159 27.7206 244.86 28.3311C245.561 28.9458 246.156 29.6353 246.655 30.4037C247.153 31.1721 247.532 31.9904 247.792 32.8543C248.052 33.7224 248.18 34.6029 248.18 35.5001C248.18 36.4014 248.052 37.2819 247.792 38.15C247.532 39.0139 247.153 39.8322 246.655 40.5964C246.156 41.3648 245.561 42.0584 244.86 42.669C244.159 43.2837 243.383 43.7987 242.532 44.2099C243.048 44.4633 243.537 44.754 244.005 45.078C244.468 45.4061 244.9 45.7717 245.301 46.1662C245.702 46.5608 246.064 46.9845 246.39 47.4372C246.716 47.8899 246.999 48.3634 247.241 48.8619C247.479 49.3561 247.673 49.8712 247.823 50.3987C247.973 50.9261 248.074 51.4578 248.132 52.0019C248.185 52.546 248.193 53.0901 248.149 53.6342C248.105 54.1783 248.017 54.7141 247.88 55.2458C247.739 55.7733 247.559 56.2925 247.329 56.7909C247.1 57.2935 246.827 57.7753 246.514 58.2321C246.196 58.6932 245.843 59.121 245.451 59.5239C245.058 59.9309 244.635 60.3006 244.177 60.637C243.722 60.9735 243.237 61.2725 242.726 61.5342C242.214 61.7958 241.685 62.016 241.134 62.1946C240.583 62.3732 240.023 62.5061 239.45 62.5975C238.877 62.6889 238.299 62.7345 237.717 62.7345ZM18.9466 60.529H237.717C238.246 60.529 238.775 60.4792 239.296 60.3837C239.82 60.284 240.327 60.1386 240.817 59.9475C241.311 59.7565 241.778 59.5197 242.219 59.2456C242.66 58.9673 243.07 58.6516 243.445 58.2986C243.824 57.9456 244.159 57.5593 244.454 57.1439C244.75 56.7286 244.997 56.2925 245.204 55.8314C245.407 55.3704 245.561 54.8927 245.663 54.4026C245.768 53.9125 245.821 53.4182 245.821 52.9198C245.821 52.4214 245.768 51.9271 245.663 51.437C245.561 50.9469 245.407 50.4734 245.204 50.0124C244.997 49.5513 244.75 49.1111 244.454 48.6957C244.159 48.2804 243.824 47.8982 243.445 47.5452C243.07 47.1922 242.66 46.8765 242.219 46.5982C241.778 46.3199 241.311 46.0873 240.817 45.8921C240.327 45.701 239.82 45.5598 239.296 45.4601C238.775 45.3605 238.246 45.3106 237.717 45.3106C237.558 45.3106 237.408 45.2857 237.267 45.2275C237.122 45.1735 236.994 45.0905 236.884 44.9908C236.773 44.887 236.69 44.7665 236.628 44.6336C236.571 44.4965 236.54 44.3553 236.54 44.2099C236.54 44.0646 236.571 43.9233 236.628 43.7863C236.69 43.6534 236.773 43.5329 236.884 43.4291C236.994 43.3294 237.122 43.2463 237.267 43.1923C237.408 43.1342 237.558 43.1093 237.717 43.1093C238.251 43.1134 238.784 43.0677 239.309 42.9722C239.833 42.8808 240.345 42.7396 240.843 42.5485C241.341 42.3616 241.813 42.129 242.259 41.8508C242.708 41.5725 243.118 41.2568 243.502 40.9038C243.881 40.5507 244.221 40.1644 244.521 39.7491C244.82 39.3337 245.072 38.8935 245.279 38.4283C245.486 37.9631 245.64 37.4854 245.746 36.9912C245.852 36.501 245.905 36.0026 245.905 35.5001C245.905 34.9975 245.852 34.4991 245.746 34.009C245.64 33.5147 245.486 33.037 245.279 32.5718C245.072 32.1066 244.82 31.6664 244.521 31.251C244.221 30.8357 243.881 30.4494 243.502 30.0964C243.118 29.7433 242.708 29.4276 242.259 29.1494C241.813 28.8752 241.341 28.6385 240.843 28.4516C240.345 28.2605 239.833 28.1193 239.309 28.0279C238.784 27.9324 238.251 27.8867 237.717 27.8909C237.558 27.895 237.404 27.8701 237.258 27.8161C237.109 27.7621 236.981 27.6832 236.866 27.5793C236.751 27.4755 236.663 27.355 236.606 27.218C236.544 27.0809 236.513 26.9397 236.513 26.7902C236.513 26.6406 236.544 26.4994 236.606 26.3624C236.663 26.2253 236.751 26.1048 236.866 26.001C236.981 25.8972 237.109 25.8183 237.258 25.7643C237.404 25.7103 237.558 25.6853 237.717 25.6895C238.246 25.6853 238.771 25.6313 239.287 25.5317C239.807 25.4278 240.31 25.2825 240.799 25.0914C241.284 24.8962 241.747 24.6594 242.188 24.3811C242.625 24.1029 243.035 23.7872 243.405 23.4341C243.78 23.0811 244.11 22.699 244.401 22.2836C244.697 21.8724 244.944 21.4363 245.147 20.9753C245.345 20.5142 245.499 20.0407 245.601 19.5548C245.707 19.0688 245.755 18.5746 245.755 18.0803C245.755 17.5819 245.707 17.0918 245.601 16.6058C245.499 16.1157 245.345 15.6422 245.147 15.1853C244.944 14.7243 244.697 14.2881 244.401 13.8728C244.11 13.4616 243.78 13.0753 243.405 12.7223C243.035 12.3692 242.625 12.0536 242.188 11.7753C241.747 11.497 241.284 11.2644 240.799 11.0692C240.31 10.8781 239.807 10.7286 239.287 10.6289C238.771 10.5292 238.246 10.4752 237.717 10.4711H18.929C18.832 10.5085 18.7306 10.5292 18.6247 10.5334C18.1221 10.5708 17.6282 10.6497 17.1432 10.7743C16.6538 10.8947 16.1864 11.0609 15.7323 11.2644C15.2781 11.4679 14.846 11.713 14.4403 11.9954C14.0347 12.2737 13.6643 12.5894 13.3204 12.9341C12.9765 13.283 12.6722 13.6527 12.4033 14.0556C12.1343 14.4543 11.9094 14.8738 11.7242 15.3141C11.539 15.7543 11.4024 16.2071 11.3098 16.6723C11.2128 17.1374 11.1687 17.6026 11.1687 18.0761C11.1687 18.5496 11.2128 19.019 11.3098 19.4842C11.4024 19.9452 11.539 20.3979 11.7242 20.8382C11.9094 21.2785 12.1343 21.698 12.4033 22.1009C12.6722 22.4996 12.9765 22.8734 13.3204 23.2182C13.6643 23.5671 14.0347 23.8786 14.4403 24.161C14.846 24.4434 15.2781 24.6844 15.7323 24.892C16.1864 25.0955 16.6538 25.2575 17.1432 25.3821C17.6282 25.5026 18.1221 25.5857 18.6247 25.6189C18.929 25.6438 19.1891 25.7601 19.3964 25.9678C19.6036 26.1796 19.705 26.4288 19.705 26.7154C19.7094 27.0145 19.6124 27.2844 19.4052 27.517C19.2024 27.7538 18.9422 27.8992 18.6247 27.9532C18.1221 27.9905 17.6282 28.0695 17.1432 28.1899C16.6538 28.3145 16.182 28.4765 15.7279 28.6842C15.2737 28.8877 14.846 29.1286 14.4403 29.411C14.0347 29.6935 13.6599 30.005 13.316 30.3539C12.9765 30.6986 12.6678 31.0724 12.3989 31.4712C12.1343 31.8741 11.905 32.2936 11.7242 32.7338C11.539 33.1741 11.3979 33.6268 11.3054 34.0879C11.2128 34.5531 11.1643 35.0224 11.1643 35.4959C11.1643 35.9694 11.2128 36.4346 11.3054 36.8998C11.3979 37.365 11.539 37.8177 11.7242 38.258C11.905 38.6982 12.1343 39.1178 12.3989 39.5165C12.6678 39.9194 12.9765 40.2932 13.316 40.6379C13.6599 40.9868 14.0347 41.2983 14.4403 41.5808C14.846 41.8591 15.2737 42.1041 15.7279 42.3076C16.182 42.5153 16.6538 42.6773 17.1432 42.7978C17.6282 42.9224 18.1221 43.0013 18.6247 43.0345C18.929 43.0594 19.1891 43.1757 19.3964 43.3875C19.6036 43.5952 19.705 43.8444 19.705 44.131C19.7094 44.4342 19.6124 44.7001 19.4052 44.9368C19.2024 45.1694 18.9422 45.3148 18.6247 45.3688C18.1221 45.4061 17.6282 45.4851 17.1432 45.6097C16.6582 45.7301 16.1864 45.8963 15.7323 46.0998C15.2781 46.3075 14.8504 46.5484 14.4448 46.8308C14.0391 47.1132 13.6643 47.4247 13.3204 47.7736C12.9809 48.1184 12.6766 48.4922 12.4077 48.8909C12.1387 49.2938 11.9138 49.7133 11.7286 50.1536C11.5435 50.5897 11.4068 51.0424 11.3142 51.5076C11.2172 51.9728 11.1731 52.4422 11.1731 52.9115C11.1731 53.385 11.2172 53.8544 11.3142 54.3195C11.4068 54.7806 11.5435 55.2333 11.7286 55.6736C11.9138 56.1139 12.1387 56.5334 12.4077 56.9363C12.6766 57.335 12.9809 57.7088 13.3204 58.0535C13.6643 58.4024 14.0391 58.714 14.4448 58.9964C14.8504 59.2747 15.2781 59.5197 15.7323 59.7233C16.1864 59.9309 16.6582 60.0929 17.1432 60.2175C17.6282 60.3421 18.1221 60.421 18.6247 60.4543C18.735 60.4667 18.8452 60.4916 18.9466 60.529Z" fill="black"/>
<path d="M54.6175 40.0481C54.6175 40.1852 54.5867 40.3222 54.5294 40.451C54.472 40.5797 54.3927 40.6919 54.2869 40.7916C54.181 40.8871 54.062 40.966 53.9253 41.0159C53.7886 41.0698 53.6431 41.0989 53.4932 41.0989C53.3477 41.0989 53.2022 41.0698 53.0655 41.0159C52.9288 40.966 52.8053 40.8871 52.7039 40.7916C52.5981 40.6919 52.5143 40.5756 52.4614 40.4468C52.4041 40.3181 52.3732 40.1852 52.3732 40.0481C52.3732 39.9069 52.4041 39.774 52.4614 39.6452C52.5187 39.5164 52.5981 39.4001 52.7039 39.3046C52.8097 39.2049 52.9288 39.1302 53.0655 39.0762C53.2022 39.0222 53.3477 38.9973 53.4976 38.9973C53.8062 38.9973 54.0708 39.0969 54.2869 39.3046C54.5073 39.5081 54.6175 39.7573 54.6175 40.0481Z" fill="black"/>
<path d="M55.1468 36.3806C55.1468 36.5177 55.1204 36.6547 55.063 36.7835C55.0057 36.9081 54.9264 37.0244 54.8205 37.1199C54.7147 37.2196 54.5912 37.2944 54.4546 37.3484C54.3179 37.4024 54.1768 37.4273 54.0269 37.4273C53.8769 37.4273 53.7358 37.4024 53.5992 37.3484C53.4625 37.2944 53.3434 37.2196 53.2376 37.1199C53.1318 37.0202 53.0524 36.9081 52.9951 36.7793C52.9378 36.6506 52.9113 36.5177 52.9113 36.3764C52.9113 36.2394 52.9378 36.1023 52.9951 35.9777C53.0524 35.8489 53.1362 35.7326 53.2376 35.6371C53.3434 35.5374 53.4669 35.4627 53.6036 35.4087C53.7403 35.3547 53.8814 35.3298 54.0313 35.3298C54.1812 35.3298 54.3223 35.3547 54.459 35.4087C54.5957 35.4627 54.7191 35.5374 54.8205 35.6371C54.9264 35.7368 55.0057 35.8489 55.063 35.9777C55.1204 36.1065 55.1468 36.2394 55.1468 36.3806Z" fill="black"/>
<path d="M50.7066 35.8822C50.7066 36.0192 50.6801 36.1563 50.6228 36.2851C50.5655 36.4138 50.4861 36.526 50.3803 36.6256C50.2745 36.7253 50.1554 36.8001 50.0143 36.8541C49.8777 36.9081 49.7366 36.9371 49.5866 36.9371C49.4367 36.9371 49.2956 36.9081 49.1589 36.8582C49.0223 36.8042 48.8988 36.7295 48.793 36.6298C48.6872 36.5301 48.6078 36.418 48.5505 36.2892C48.4931 36.1604 48.4623 36.0234 48.4623 35.8863C48.4623 35.7451 48.4931 35.6122 48.5505 35.4834C48.6078 35.3547 48.6872 35.2384 48.793 35.1428C48.8988 35.0432 49.0178 34.9684 49.1545 34.9144C49.2956 34.8604 49.4367 34.8355 49.5866 34.8355C49.8953 34.8355 50.1599 34.9352 50.3759 35.1387C50.5964 35.3464 50.7066 35.5914 50.7066 35.8822Z" fill="black"/>
<path d="M49.935 40.235C49.935 40.3721 49.9041 40.505 49.8512 40.6338C49.7939 40.7625 49.7101 40.8788 49.6087 40.9785C49.5029 41.074 49.3794 41.1529 49.2427 41.2069C49.106 41.2568 48.9649 41.2859 48.815 41.2859C48.6651 41.2859 48.524 41.2568 48.3873 41.2069C48.2506 41.1529 48.1272 41.0782 48.0214 40.9785C47.9199 40.8788 47.8362 40.7667 47.7788 40.6379C47.7259 40.5092 47.6951 40.3721 47.6951 40.235C47.6951 40.0938 47.7259 39.9609 47.7833 39.8321C47.8406 39.7034 47.9199 39.5912 48.0258 39.4915C48.1316 39.396 48.2506 39.3171 48.3873 39.2673C48.5284 39.2133 48.6695 39.1883 48.8194 39.1883C49.1281 39.1883 49.3882 39.288 49.6087 39.4957C49.8247 39.6992 49.935 39.9443 49.935 40.235Z" fill="black"/>
<path d="M52.607 37.9797C52.607 38.1209 52.5761 38.2538 52.5232 38.3826C52.4659 38.5113 52.3821 38.6235 52.2763 38.7232C52.1749 38.8187 52.0514 38.8935 51.9147 38.9474C51.778 39.0014 51.6325 39.0264 51.487 39.0264C51.3371 39.0264 51.196 39.0014 51.0593 38.9474C50.9226 38.8935 50.7992 38.8187 50.6934 38.719C50.5919 38.6193 50.5082 38.5072 50.4553 38.3784C50.3979 38.2497 50.3671 38.1167 50.3671 37.9755C50.3715 37.8385 50.3979 37.7014 50.4553 37.5726C50.5126 37.4439 50.5919 37.3317 50.6978 37.2362C50.8036 37.1365 50.927 37.0618 51.0637 37.0078C51.2004 36.9538 51.3415 36.9288 51.4914 36.9288C51.6413 36.9288 51.7824 36.9538 51.9191 37.0078C52.0558 37.0618 52.1793 37.1365 52.2807 37.2362C52.3865 37.3359 52.4659 37.448 52.5232 37.5768C52.5805 37.7056 52.607 37.8426 52.607 37.9797Z" fill="black"/>
<path d="M54.0311 35.3297C53.8812 35.3297 53.7401 35.3547 53.6034 35.4087C53.4623 35.4627 53.3433 35.5374 53.2375 35.6371C53.1316 35.7326 53.0479 35.8489 52.9905 35.9777C52.9332 36.1065 52.9068 36.2394 52.9068 36.3764C52.9068 36.5176 52.9332 36.6506 52.9905 36.7793C53.0479 36.9122 53.1272 37.0244 53.2331 37.1241C53.3389 37.2237 53.4579 37.2985 53.5946 37.3525C53.7357 37.4065 53.8768 37.4314 54.0267 37.4314C54.1766 37.4314 54.3177 37.4065 54.4544 37.3525C54.5911 37.2985 54.7146 37.2237 54.8204 37.1241C54.9262 37.0244 55.0056 36.9122 55.0629 36.7835C55.1202 36.6547 55.1467 36.5176 55.1467 36.3806C55.1467 36.0898 55.0409 35.8448 54.8204 35.6371C54.6043 35.4336 54.3398 35.3297 54.0311 35.3297ZM53.4976 38.9973C53.3477 38.9973 53.2022 39.0222 53.0655 39.0762C52.9288 39.1302 52.8098 39.205 52.7039 39.3046C52.5981 39.4002 52.5187 39.5165 52.4614 39.6452C52.4041 39.774 52.3732 39.9069 52.3732 40.0481C52.3732 40.1852 52.4041 40.3181 52.4614 40.4469C52.5143 40.5756 52.5981 40.6919 52.7039 40.7916C52.8054 40.8871 52.9288 40.966 53.0655 41.0159C53.2022 41.0699 53.3477 41.099 53.4932 41.099C53.6431 41.099 53.7886 41.0699 53.9253 41.0159C54.062 40.966 54.181 40.8871 54.2869 40.7916C54.3927 40.6919 54.4721 40.5798 54.5294 40.451C54.5867 40.3223 54.6176 40.1852 54.6176 40.0481C54.6176 39.7574 54.5073 39.5082 54.2869 39.3046C54.0708 39.097 53.8063 38.9973 53.4976 38.9973ZM51.4914 36.9288C51.3415 36.9288 51.2004 36.9538 51.0637 37.0078C50.927 37.0618 50.8035 37.1365 50.6977 37.2362C50.5919 37.3317 50.5125 37.4439 50.4552 37.5726C50.3979 37.7014 50.3714 37.8385 50.367 37.9755C50.367 38.1167 50.3979 38.2497 50.4552 38.3784C50.5081 38.5072 50.5919 38.6193 50.6933 38.719C50.7991 38.8187 50.9226 38.8934 51.0593 38.9474C51.196 39.0014 51.3371 39.0264 51.487 39.0264C51.6325 39.0264 51.778 39.0014 51.9147 38.9474C52.0514 38.8934 52.1748 38.8187 52.2762 38.7232C52.3821 38.6235 52.4658 38.5113 52.5232 38.3826C52.5761 38.2538 52.6069 38.1209 52.6069 37.9797C52.6069 37.6889 52.4967 37.4439 52.2806 37.2404C52.0646 37.0327 51.8 36.9288 51.4914 36.9288ZM49.5866 36.9288C49.8952 36.9288 50.1598 36.825 50.3758 36.6215C50.5919 36.4138 50.7021 36.1688 50.7021 35.878C50.7021 35.5873 50.5919 35.3422 50.3714 35.1387C50.1554 34.931 49.8908 34.8313 49.5822 34.8313C49.2735 34.8313 49.009 34.9352 48.7929 35.1387C48.5725 35.3422 48.4622 35.5914 48.4622 35.8822C48.4666 36.1688 48.5769 36.418 48.7929 36.6215C49.0134 36.825 49.2779 36.9288 49.5866 36.9288ZM48.8194 39.1883C48.6695 39.1883 48.5284 39.2133 48.3873 39.2673C48.2506 39.3171 48.1315 39.396 48.0257 39.4916C47.9199 39.5912 47.8405 39.7034 47.7832 39.8321C47.7259 39.9609 47.695 40.098 47.695 40.235C47.695 40.3762 47.7259 40.5092 47.7832 40.6379C47.8361 40.7667 47.9199 40.8788 48.0257 40.9785C48.1271 41.0782 48.2506 41.153 48.3873 41.2069C48.524 41.2568 48.6695 41.2859 48.815 41.2859C48.9649 41.2859 49.106 41.2568 49.2427 41.2069C49.3838 41.153 49.5028 41.074 49.6086 40.9785C49.7145 40.8788 49.7938 40.7625 49.8511 40.6338C49.9085 40.505 49.9349 40.3721 49.9349 40.235C49.9349 39.9443 49.8247 39.6992 49.6086 39.4957C49.3882 39.288 49.128 39.1883 48.8194 39.1883ZM61.9987 39.9858C65.31 38.9474 72.1268 36.3141 71.3155 32.4472C71.2537 32.0651 71.095 31.7245 70.8437 31.4172C70.5924 31.1139 70.2793 30.8855 69.9001 30.7277C67.2545 29.6104 61.4828 32.2188 58.7446 33.606C59.4986 30.3746 60.9405 23.16 59.2914 21.0625C58.9607 20.6181 58.5065 20.3772 57.9245 20.3481C54.5426 20.157 52.1616 23.8246 51.2533 30.2832C49.4896 26.4454 45.8343 20.0947 41.3457 21.3117C40.8518 21.4238 40.4197 21.6398 40.0493 21.9638C39.679 22.2878 39.4144 22.674 39.2601 23.1268C38.3033 25.9387 41.7645 30.9852 43.6782 33.4731C40.7328 33.0079 35.0184 32.4098 32.1523 34.1211C31.2264 34.6403 30.6488 35.3962 30.4239 36.3847C30.3137 36.825 30.3137 37.2653 30.4327 37.7014C30.5473 38.1417 30.7678 38.5279 31.0897 38.8685C33.0562 40.991 38.678 41.2526 41.9233 41.2153C39.0749 43.3709 34.2776 47.6449 36.3323 50.6977C36.7512 51.3207 37.3509 51.6738 38.1313 51.7527C41.1693 52.1348 46.5751 48.405 49.5469 46.133L50.367 45.3397C50.2744 46.3531 50.2392 47.3707 50.2568 48.3883C50.3758 51.167 50.927 54.4566 52.7083 55.8646C53.3124 56.3423 54.0091 56.579 54.7983 56.5749C55.1599 56.5707 55.5171 56.525 55.8698 56.4337C56.518 56.28 57.1044 56.01 57.6247 55.6154C58.1494 55.225 58.5595 54.7473 58.8593 54.1866C60.138 51.8939 59.6485 48.4839 59.0842 46.2036C61.474 48.2222 65.5217 51.192 68.1055 50.8348C68.5288 50.7808 68.908 50.6395 69.2519 50.4069C69.5959 50.1743 69.8604 49.8794 70.0456 49.5222C70.4865 48.7289 70.5438 47.9148 70.222 47.0717C69.2519 44.2224 64.4811 41.3274 61.9987 39.9858ZM68.789 48.9034C68.617 49.2647 68.3216 49.4724 67.9027 49.5222C65.6936 49.8255 60.7685 46.0375 58.1935 43.5786C58.0788 43.4664 57.9377 43.4 57.7702 43.3792C57.607 43.3626 57.4527 43.3917 57.3116 43.4748C57.1705 43.5578 57.0691 43.6741 57.0162 43.8237C56.9633 43.969 56.9633 44.1185 57.0206 44.2681C57.0471 44.3304 59.3399 50.4485 57.6026 53.5719C57.1617 54.4026 56.4606 54.9301 55.495 55.1502C55.1775 55.2541 54.8513 55.2831 54.5161 55.2292C54.1855 55.1752 53.8856 55.0464 53.6255 54.847C51.4164 53.1067 51.5443 46.4985 51.7824 44.1019C51.8089 43.8029 51.681 43.5827 51.39 43.4498C51.293 43.4 51.1872 43.3751 51.0725 43.3751C50.8917 43.3751 50.733 43.4332 50.6007 43.5454C48.1712 45.5889 41.2266 50.8015 38.3341 50.436C37.9858 50.4111 37.7212 50.2616 37.5405 49.9874C35.8693 47.512 42.2099 42.561 44.5644 41.02C44.6923 40.9328 44.7849 40.8207 44.8334 40.6753C44.8819 40.5341 44.8775 40.3929 44.8246 40.2516C44.7717 40.1104 44.6791 39.9983 44.5468 39.9152C44.4101 39.8321 44.2646 39.7989 44.1059 39.8072C41.4206 39.9858 34.0307 40.0066 32.1656 37.9963C31.7908 37.61 31.6761 37.1656 31.8216 36.663C31.9627 36.0358 32.3331 35.5665 32.9239 35.2467C36.297 33.2281 45.1112 35.0847 45.2038 35.1055C45.5301 35.1719 45.7814 35.0722 45.9578 34.8106C46.1385 34.5447 46.1209 34.2872 45.9181 34.0422C44.1588 31.9654 39.7715 26.0259 40.6181 23.5338C40.7989 23.0146 41.1781 22.699 41.7513 22.591C45.7285 21.5152 49.7806 29.9925 51.002 33.3527C51.0593 33.5064 51.1563 33.6227 51.3018 33.7057C51.4429 33.793 51.6016 33.822 51.7692 33.8013C51.9367 33.7805 52.0778 33.714 52.1969 33.5977C52.3115 33.4814 52.3732 33.3402 52.3865 33.1824C52.8671 26.0342 55.032 21.5277 57.8496 21.6772C57.9818 21.6897 58.0877 21.7478 58.1538 21.8558C59.3752 23.4134 58.0965 30.6031 57.003 34.7649C56.928 35.0515 57.0162 35.2841 57.2675 35.4585C57.5189 35.6371 57.779 35.6496 58.0524 35.5C61.3373 33.6767 67.303 31.0973 69.3225 31.9446C69.6796 32.09 69.8825 32.3434 69.9266 32.7047C70.5571 35.7368 62.7747 38.4573 59.9969 39.1717C59.6838 39.2507 59.5119 39.4459 59.481 39.7449C59.4457 40.0481 59.5736 40.2683 59.8646 40.4053C62.056 41.452 67.9468 44.7582 68.8727 47.4829C69.0667 47.9688 69.0403 48.4423 68.789 48.9034ZM54.0311 35.3297C53.8812 35.3297 53.7401 35.3547 53.6034 35.4087C53.4623 35.4627 53.3433 35.5374 53.2375 35.6371C53.1316 35.7326 53.0523 35.8489 52.995 35.9777C52.9376 36.1065 52.9068 36.2394 52.9068 36.3764C52.9068 36.5176 52.9332 36.6506 52.9905 36.7793C53.0479 36.9122 53.1272 37.0244 53.2331 37.1241C53.3389 37.2237 53.4579 37.2985 53.599 37.3525C53.7357 37.4065 53.8768 37.4314 54.0267 37.4314C54.1766 37.4314 54.3177 37.4065 54.4544 37.3525C54.5955 37.2985 54.7146 37.2237 54.8204 37.1241C54.9262 37.0244 55.0056 36.9122 55.0629 36.7835C55.1202 36.6547 55.1467 36.5176 55.1467 36.3806C55.1467 36.0898 55.0409 35.8448 54.8204 35.6371C54.6043 35.4336 54.3398 35.3297 54.0311 35.3297ZM53.4976 38.9973C53.3477 38.9973 53.2066 39.0222 53.0655 39.0762C52.9288 39.1302 52.8098 39.205 52.7039 39.3046C52.5981 39.4002 52.5187 39.5165 52.4614 39.6452C52.4041 39.774 52.3732 39.9069 52.3732 40.0481C52.3732 40.1852 52.4041 40.3181 52.4614 40.4469C52.5187 40.5756 52.5981 40.6919 52.7039 40.7916C52.8098 40.8871 52.9288 40.966 53.0655 41.0159C53.2022 41.0699 53.3477 41.099 53.4976 41.099C53.6431 41.099 53.7886 41.0699 53.9253 41.0159C54.062 40.966 54.1855 40.8871 54.2869 40.7916C54.3927 40.6919 54.4765 40.5798 54.5294 40.451C54.5867 40.3223 54.6176 40.1852 54.6176 40.0481C54.6176 39.7574 54.5073 39.5082 54.2869 39.3046C54.0708 39.097 53.8063 38.9973 53.4976 38.9973ZM51.4914 36.9288C51.3415 36.9288 51.2004 36.9538 51.0637 37.0078C50.927 37.0618 50.8035 37.1365 50.6977 37.2362C50.5963 37.3317 50.5125 37.4439 50.4552 37.5726C50.3979 37.7014 50.3714 37.8385 50.3714 37.9755C50.3714 38.1167 50.3979 38.2497 50.4552 38.3784C50.5125 38.5072 50.5919 38.6193 50.6977 38.719C50.7991 38.8187 50.9226 38.8934 51.0593 38.9474C51.196 39.0014 51.3371 39.0264 51.487 39.0264C51.6369 39.0264 51.778 39.0014 51.9147 38.9474C52.0514 38.8934 52.1748 38.8187 52.2806 38.7232C52.3821 38.6235 52.4658 38.5113 52.5232 38.3826C52.5805 38.2538 52.6069 38.1209 52.6069 37.9797C52.6069 37.6889 52.4967 37.4439 52.2806 37.2404C52.0646 37.0327 51.8 36.9288 51.4914 36.9288ZM49.5866 36.9288C49.8952 36.9288 50.1598 36.825 50.3758 36.6215C50.5963 36.4138 50.7021 36.1688 50.7021 35.878C50.7021 35.5873 50.5919 35.3422 50.3714 35.1345C50.1554 34.931 49.8908 34.8313 49.5822 34.8313C49.2735 34.8313 49.009 34.9352 48.7929 35.1387C48.5725 35.3422 48.4622 35.5914 48.4622 35.8822C48.4666 36.1688 48.5769 36.418 48.7929 36.6215C49.0134 36.825 49.2779 36.9288 49.5866 36.9288ZM48.8194 39.1883C48.6695 39.1883 48.5284 39.2133 48.3873 39.2673C48.2506 39.3171 48.1315 39.396 48.0257 39.4916C47.9199 39.5912 47.8405 39.7034 47.7832 39.8321C47.7259 39.9609 47.695 40.098 47.695 40.235C47.695 40.3762 47.7259 40.5092 47.7832 40.6379C47.8361 40.7667 47.9199 40.8788 48.0257 40.9785C48.1271 41.0782 48.2506 41.153 48.3873 41.2069C48.524 41.2568 48.6695 41.2859 48.815 41.2859C48.9649 41.2859 49.106 41.2568 49.2427 41.2069C49.3838 41.153 49.5028 41.074 49.6086 40.9785C49.7145 40.8788 49.7938 40.7625 49.8511 40.6338C49.9085 40.505 49.9349 40.3721 49.9349 40.235C49.9349 39.9443 49.8247 39.6992 49.6086 39.4957C49.3882 39.288 49.128 39.1883 48.8194 39.1883Z" fill="black"/>
<path d="M105.064 32.2977C105.064 32.4389 105.033 32.5718 104.976 32.7006C104.923 32.8293 104.839 32.9456 104.733 33.0412C104.632 33.1408 104.508 33.2156 104.372 33.2696C104.235 33.3236 104.09 33.3527 103.944 33.3527C103.794 33.3527 103.649 33.3236 103.512 33.2696C103.375 33.2198 103.256 33.1408 103.15 33.0453C103.045 32.9456 102.965 32.8293 102.908 32.7006C102.851 32.5718 102.82 32.4389 102.82 32.3018C102.82 32.1606 102.851 32.0277 102.908 31.899C102.961 31.7702 103.045 31.6539 103.15 31.5584C103.256 31.4587 103.375 31.3839 103.512 31.3299C103.649 31.2759 103.794 31.251 103.94 31.251C104.253 31.251 104.517 31.3507 104.733 31.5584C104.954 31.7619 105.064 32.0111 105.064 32.2977Z" fill="black"/>
<path d="M105.593 28.6343C105.593 28.925 105.483 29.1701 105.263 29.3736C105.046 29.5813 104.782 29.681 104.473 29.681C104.165 29.681 103.9 29.5771 103.684 29.3736C103.464 29.1659 103.353 28.9209 103.358 28.6301C103.358 28.3394 103.468 28.0943 103.684 27.8867C103.904 27.6831 104.169 27.5835 104.478 27.5835C104.623 27.5835 104.769 27.6084 104.905 27.6624C105.042 27.7164 105.161 27.7911 105.267 27.8908C105.373 27.9905 105.452 28.1027 105.509 28.2314C105.567 28.3602 105.593 28.4931 105.593 28.6343Z" fill="black"/>
<path d="M101.153 28.1317C101.153 28.2688 101.127 28.4059 101.069 28.5346C101.012 28.6634 100.933 28.7755 100.827 28.8752C100.721 28.9749 100.602 29.0497 100.465 29.1037C100.324 29.1576 100.183 29.1867 100.033 29.1867C99.8831 29.1867 99.742 29.1618 99.6054 29.1078C99.4687 29.0538 99.3452 28.979 99.2394 28.8794C99.1336 28.7797 99.0542 28.6675 98.9969 28.5388C98.9396 28.41 98.9087 28.2771 98.9087 28.1359C98.9087 27.9947 98.9396 27.8618 98.9969 27.733C99.0498 27.6042 99.1336 27.4921 99.2394 27.3924C99.3452 27.2927 99.4643 27.218 99.6009 27.164C99.7376 27.11 99.8831 27.0851 100.033 27.0851C100.342 27.0851 100.602 27.1847 100.822 27.3924C101.043 27.5959 101.153 27.841 101.153 28.1317Z" fill="black"/>
<path d="M100.381 32.4846C100.381 32.6258 100.351 32.7587 100.298 32.8875C100.24 33.0162 100.157 33.1325 100.055 33.2281C99.9493 33.3277 99.8258 33.4025 99.6891 33.4565C99.5524 33.5105 99.4113 33.5396 99.2614 33.5396C99.1159 33.5396 98.9704 33.5105 98.8337 33.4565C98.697 33.4067 98.5736 33.3277 98.4722 33.2322C98.3664 33.1325 98.2826 33.0204 98.2253 32.8916C98.1723 32.7629 98.1415 32.6258 98.1415 32.4887C98.1415 32.3475 98.1723 32.2146 98.2297 32.0858C98.2826 31.9571 98.3664 31.8449 98.4722 31.7453C98.578 31.6497 98.697 31.5708 98.8337 31.5168C98.9704 31.467 99.1159 31.4379 99.2614 31.4379C99.5701 31.4379 99.8346 31.5417 100.051 31.7453C100.271 31.9488 100.381 32.198 100.381 32.4846Z" fill="black"/>
<path d="M103.053 30.2334C103.053 30.3705 103.027 30.5075 102.97 30.6321C102.912 30.7609 102.829 30.8772 102.723 30.9727C102.621 31.0724 102.498 31.1472 102.361 31.2012C102.224 31.2552 102.083 31.2801 101.933 31.2801C101.784 31.2801 101.642 31.2552 101.506 31.2012C101.369 31.1472 101.246 31.0724 101.144 30.9727C101.038 30.873 100.955 30.7609 100.902 30.6321C100.844 30.5034 100.813 30.3705 100.813 30.2292C100.818 30.0922 100.844 29.9551 100.902 29.8263C100.959 29.7017 101.038 29.5854 101.144 29.4899C101.25 29.3902 101.369 29.3155 101.51 29.2615C101.647 29.2075 101.788 29.1826 101.938 29.1826C102.083 29.1826 102.229 29.2075 102.366 29.2615C102.502 29.3155 102.626 29.3902 102.727 29.4899C102.833 29.5896 102.912 29.7017 102.97 29.8305C103.027 29.9593 103.053 30.0922 103.053 30.2334Z" fill="black"/>
<path d="M104.478 27.5835C104.328 27.5835 104.187 27.6084 104.046 27.6624C103.909 27.7122 103.79 27.7912 103.684 27.8867C103.578 27.9864 103.495 28.0985 103.437 28.2273C103.38 28.356 103.353 28.4931 103.353 28.6302C103.353 28.7714 103.38 28.9043 103.437 29.033C103.495 29.1618 103.574 29.2781 103.68 29.3736C103.786 29.4733 103.905 29.5522 104.041 29.6021C104.178 29.6561 104.323 29.6851 104.473 29.6851C104.619 29.6851 104.764 29.6602 104.901 29.6062C105.038 29.5522 105.161 29.4775 105.267 29.3778C105.368 29.2781 105.452 29.166 105.51 29.0372C105.567 28.9084 105.593 28.7714 105.593 28.6343C105.593 28.3436 105.483 28.0985 105.267 27.8908C105.051 27.6873 104.786 27.5835 104.478 27.5835ZM103.94 31.251C103.794 31.251 103.649 31.2759 103.512 31.3299C103.375 31.3839 103.256 31.4587 103.151 31.5584C103.045 31.6539 102.961 31.7702 102.908 31.899C102.851 32.0277 102.82 32.1606 102.82 32.3019C102.82 32.4389 102.851 32.5718 102.908 32.7006C102.965 32.8293 103.045 32.9456 103.151 33.0453C103.256 33.1409 103.375 33.2198 103.512 33.2696C103.649 33.3236 103.794 33.3527 103.944 33.3527C104.09 33.3527 104.235 33.3236 104.372 33.2696C104.509 33.2156 104.632 33.1409 104.734 33.0412C104.839 32.9456 104.923 32.8293 104.976 32.7006C105.033 32.5718 105.064 32.4389 105.064 32.2977C105.064 32.0111 104.954 31.7619 104.734 31.5584C104.517 31.3507 104.253 31.251 103.94 31.251ZM101.938 29.1826C101.788 29.1826 101.647 29.2075 101.51 29.2615C101.369 29.3155 101.25 29.3902 101.144 29.4899C101.039 29.5855 100.959 29.7018 100.902 29.8264C100.845 29.9551 100.818 30.0922 100.814 30.2293C100.814 30.3705 100.845 30.5034 100.902 30.6321C100.955 30.7609 101.039 30.873 101.144 30.9727C101.246 31.0724 101.369 31.1472 101.506 31.2012C101.643 31.2552 101.784 31.2801 101.934 31.2801C102.084 31.2801 102.225 31.2552 102.361 31.2012C102.498 31.1472 102.621 31.0724 102.723 30.9727C102.829 30.8772 102.912 30.7609 102.97 30.6321C103.027 30.5075 103.054 30.3705 103.054 30.2334C103.054 29.9427 102.943 29.6976 102.727 29.4899C102.507 29.2864 102.247 29.1826 101.938 29.1826ZM100.033 29.1826C100.342 29.1826 100.602 29.0787 100.822 28.8752C101.039 28.6675 101.149 28.4225 101.149 28.1317C101.149 27.841 101.039 27.5959 100.822 27.3924C100.602 27.1847 100.337 27.0851 100.029 27.0851C99.7202 27.0851 99.4556 27.1847 99.2396 27.3883C99.0191 27.5959 98.9089 27.841 98.9089 28.1317C98.9089 28.2688 98.9397 28.4059 98.9971 28.5346C99.0544 28.6634 99.1337 28.7755 99.2396 28.8752C99.3454 28.9749 99.4644 29.0497 99.6011 29.1037C99.7378 29.1577 99.8833 29.1826 100.033 29.1826ZM99.2616 31.4379C99.1161 31.4379 98.9706 31.467 98.8339 31.5168C98.6972 31.5708 98.5782 31.6498 98.4724 31.7453C98.3665 31.845 98.2828 31.9571 98.2298 32.0859C98.1725 32.2146 98.1417 32.3475 98.1417 32.4888C98.1417 32.6258 98.1725 32.7629 98.2254 32.8916C98.2828 33.0204 98.3665 33.1326 98.4724 33.2322C98.5738 33.3278 98.6972 33.4067 98.8339 33.4565C98.9706 33.5105 99.1161 33.5396 99.2616 33.5396C99.4115 33.5396 99.5526 33.5105 99.6893 33.4565C99.826 33.4025 99.9495 33.3278 100.055 33.2281C100.157 33.1326 100.24 33.0163 100.298 32.8875C100.351 32.7587 100.382 32.6258 100.382 32.4846C100.382 32.198 100.271 31.9488 100.055 31.7453C99.8348 31.5418 99.5703 31.4379 99.2616 31.4379ZM112.445 32.2395C115.757 31.197 122.573 28.5679 121.762 24.6968C121.696 24.3188 121.537 23.9741 121.286 23.6709C121.035 23.3677 120.722 23.1351 120.347 22.9814C117.701 21.8641 111.929 24.4725 109.191 25.8598C109.945 22.6284 111.387 15.4096 109.738 13.3162C109.407 12.8676 108.953 12.6309 108.371 12.6018C104.989 12.4066 102.608 16.0783 101.7 22.537C99.9362 18.695 96.2809 12.3485 91.7923 13.5654C91.2985 13.6776 90.8664 13.8936 90.496 14.2175C90.1256 14.5415 89.861 14.9278 89.7067 15.3805C88.7499 18.1883 92.2112 23.2389 94.1248 25.7269C91.1794 25.2617 85.465 24.6636 82.599 26.3748C81.673 26.894 81.0954 27.6499 80.8705 28.6385C80.7603 29.0787 80.7603 29.5149 80.8794 29.9551C80.994 30.3954 81.2145 30.7817 81.5363 31.1223C83.5029 33.2405 89.1247 33.5022 92.3699 33.469C89.5215 35.6246 84.7242 39.8986 86.779 42.9473C87.1978 43.5744 87.7975 43.9275 88.5824 44.0064C91.6159 44.3885 97.0261 40.6587 99.9936 38.3867L100.818 37.5934C100.725 38.6069 100.686 39.6245 100.703 40.6421C100.827 43.4208 101.374 46.7103 103.159 48.1184C103.759 48.596 104.456 48.8328 105.245 48.8245C105.611 48.8245 105.968 48.7788 106.316 48.6874C106.965 48.5337 107.551 48.2596 108.071 47.8692C108.596 47.4787 109.006 47.0011 109.306 46.4404C110.585 44.1476 110.095 40.7376 109.531 38.4573C111.921 40.4718 115.968 43.4415 118.557 43.0885C118.975 43.0345 119.355 42.8933 119.699 42.6565C120.043 42.4239 120.307 42.129 120.492 41.7718C120.933 40.9827 120.991 40.1686 120.673 39.3296C119.699 36.4761 114.928 33.5811 112.445 32.2395ZM119.236 41.153C119.064 41.5185 118.768 41.7261 118.345 41.7718C116.136 42.075 111.215 38.2912 108.64 35.8282C108.525 35.716 108.384 35.6496 108.217 35.633C108.054 35.6122 107.899 35.6454 107.758 35.7285C107.617 35.8116 107.516 35.9279 107.463 36.0774C107.41 36.2228 107.41 36.3723 107.467 36.5177C107.489 36.5841 109.787 42.7022 108.049 45.8256C107.608 46.6563 106.903 47.1797 105.942 47.3998C105.624 47.5078 105.298 47.5369 104.963 47.4829C104.628 47.4289 104.332 47.3001 104.072 47.0966C101.863 45.3604 101.991 38.7522 102.229 36.3557C102.256 36.0525 102.128 35.8365 101.837 35.6994C101.735 35.6537 101.629 35.6288 101.519 35.6288C101.338 35.6288 101.18 35.6828 101.043 35.7991C98.6179 37.8426 91.6733 43.0553 88.7764 42.6897C88.4324 42.6648 88.1679 42.5153 87.9827 42.2412C86.316 39.7615 92.6565 34.8106 95.0067 33.2696C95.1389 33.1865 95.2271 33.0702 95.2756 32.929C95.3241 32.7878 95.3241 32.6466 95.2712 32.5054C95.2183 32.3642 95.1213 32.252 94.989 32.1689C94.8568 32.0859 94.7112 32.0526 94.5525 32.0609C91.8673 32.2395 84.4773 32.2603 82.6078 30.25C82.233 29.8637 82.1184 29.4193 82.2639 28.9168C82.4094 28.2896 82.7754 27.8161 83.3706 27.5004C86.7393 25.4818 95.5578 27.3384 95.6504 27.3592C95.9723 27.4256 96.228 27.3301 96.4044 27.0643C96.5808 26.7985 96.5676 26.541 96.3647 26.2959C94.601 24.2191 90.2138 18.2796 91.0604 15.7875C91.2412 15.2642 91.6203 14.9527 92.1936 14.8447C96.1707 13.7689 100.227 22.2462 101.449 25.6064C101.502 25.7601 101.603 25.8764 101.744 25.9595C101.89 26.0467 102.044 26.0758 102.216 26.055C102.383 26.0342 102.524 25.9678 102.639 25.8515C102.758 25.731 102.82 25.594 102.829 25.4361C103.309 18.288 105.479 13.7773 108.292 13.9309C108.428 13.9392 108.53 14.0015 108.6 14.1095C109.822 15.6671 108.543 22.8568 107.445 27.0228C107.375 27.3052 107.463 27.5378 107.71 27.7122C107.966 27.8908 108.226 27.9033 108.495 27.7538C111.784 25.9304 117.75 23.3511 119.765 24.1984C120.126 24.3438 120.329 24.5971 120.373 24.9585C121.004 27.9905 113.221 30.7111 110.444 31.4255C110.13 31.5044 109.954 31.6954 109.923 31.9986C109.888 32.306 110.02 32.5261 110.311 32.6591C112.503 33.7099 118.393 37.0119 119.319 39.7366C119.513 40.2226 119.483 40.6919 119.236 41.153ZM104.478 27.5835C104.328 27.5835 104.187 27.6084 104.046 27.6624C103.909 27.7122 103.79 27.7912 103.684 27.8867C103.578 27.9864 103.495 28.0985 103.437 28.2273C103.38 28.356 103.353 28.4931 103.353 28.6302C103.353 28.7714 103.38 28.9043 103.437 29.033C103.495 29.1618 103.574 29.2781 103.68 29.3736C103.786 29.4733 103.905 29.5522 104.041 29.6021C104.178 29.6561 104.323 29.6851 104.473 29.6851C104.619 29.6851 104.764 29.6602 104.901 29.6062C105.038 29.5522 105.161 29.4775 105.267 29.3778C105.368 29.2781 105.452 29.166 105.51 29.0372C105.567 28.9084 105.593 28.7714 105.593 28.6343C105.593 28.3436 105.483 28.0985 105.267 27.8908C105.051 27.6873 104.786 27.5835 104.478 27.5835ZM103.94 31.251C103.794 31.251 103.649 31.2759 103.512 31.3299C103.375 31.3839 103.256 31.4587 103.151 31.5584C103.045 31.6539 102.961 31.7702 102.908 31.899C102.851 32.0277 102.82 32.1606 102.82 32.3019C102.82 32.4389 102.851 32.5718 102.908 32.7006C102.965 32.8293 103.045 32.9456 103.151 33.0453C103.256 33.1409 103.375 33.2198 103.512 33.2696C103.649 33.3236 103.794 33.3527 103.944 33.3527C104.09 33.3527 104.235 33.3236 104.372 33.2696C104.509 33.2156 104.632 33.1409 104.734 33.0412C104.839 32.9456 104.923 32.8293 104.976 32.7006C105.033 32.5718 105.064 32.4389 105.064 32.2977C105.064 32.0111 104.954 31.7619 104.734 31.5584C104.517 31.3507 104.253 31.251 103.94 31.251ZM101.938 29.1826C101.788 29.1826 101.647 29.2075 101.51 29.2615C101.369 29.3155 101.25 29.3902 101.144 29.4899C101.039 29.5855 100.959 29.7018 100.902 29.8264C100.845 29.9551 100.818 30.0922 100.814 30.2293C100.814 30.3705 100.845 30.5034 100.902 30.6321C100.955 30.7609 101.039 30.873 101.144 30.9727C101.246 31.0724 101.369 31.1472 101.506 31.2012C101.643 31.2552 101.784 31.2801 101.934 31.2801C102.084 31.2801 102.225 31.2552 102.361 31.2012C102.498 31.1472 102.621 31.0724 102.723 30.9727C102.829 30.8772 102.912 30.7609 102.97 30.6321C103.027 30.5075 103.054 30.3705 103.054 30.2334C103.054 29.9427 102.943 29.6976 102.727 29.4899C102.507 29.2864 102.247 29.1826 101.938 29.1826ZM100.033 29.1826C100.342 29.1826 100.602 29.0787 100.822 28.8752C101.039 28.6675 101.149 28.4225 101.149 28.1317C101.149 27.841 101.039 27.5959 100.822 27.3924C100.602 27.1847 100.337 27.0851 100.029 27.0851C99.7202 27.0851 99.4556 27.1847 99.2396 27.3883C99.0191 27.5959 98.9089 27.841 98.9089 28.1317C98.9089 28.2688 98.9397 28.4059 98.9971 28.5346C99.0544 28.6634 99.1337 28.7755 99.2396 28.8752C99.3454 28.9749 99.4644 29.0497 99.6011 29.1037C99.7378 29.1577 99.8833 29.1826 100.033 29.1826ZM99.2616 31.4379C99.1161 31.4379 98.9706 31.467 98.8339 31.5168C98.6972 31.5708 98.5782 31.6498 98.4724 31.7453C98.3665 31.845 98.2828 31.9571 98.2298 32.0859C98.1725 32.2146 98.1417 32.3475 98.1417 32.4888C98.1417 32.6258 98.1725 32.7629 98.2254 32.8916C98.2828 33.0204 98.3665 33.1326 98.4724 33.2322C98.5738 33.3278 98.6972 33.4067 98.8339 33.4565C98.9706 33.5105 99.1161 33.5396 99.2616 33.5396C99.4115 33.5396 99.5526 33.5105 99.6893 33.4565C99.826 33.4025 99.9495 33.3278 100.055 33.2281C100.157 33.1326 100.24 33.0163 100.298 32.8875C100.351 32.7587 100.382 32.6258 100.382 32.4846C100.382 32.198 100.271 31.9488 100.055 31.7453C99.8348 31.5418 99.5703 31.4379 99.2616 31.4379Z" fill="black"/>
<path d="M155.246 41.8258C155.246 41.9629 155.22 42.1 155.162 42.2287C155.105 42.3575 155.026 42.4696 154.92 42.5693C154.814 42.669 154.695 42.7438 154.554 42.7978C154.417 42.8518 154.276 42.8767 154.126 42.8767C153.976 42.8767 153.835 42.8518 153.698 42.7978C153.562 42.7438 153.438 42.669 153.332 42.5693C153.227 42.4696 153.147 42.3575 153.09 42.2287C153.033 42.1 153.006 41.9671 153.006 41.8258C153.006 41.6846 153.033 41.5517 153.09 41.423C153.147 41.2942 153.227 41.1821 153.332 41.0824C153.438 40.9827 153.562 40.9079 153.698 40.8539C153.835 40.7999 153.976 40.775 154.126 40.775C154.435 40.775 154.699 40.8788 154.92 41.0824C155.136 41.2859 155.246 41.5351 155.246 41.8258Z" fill="black"/>
<path d="M155.779 38.1583C155.779 38.449 155.669 38.6941 155.449 38.9017C155.228 39.1053 154.968 39.2049 154.659 39.2049C154.346 39.2049 154.086 39.1011 153.866 38.8976C153.65 38.6941 153.539 38.4448 153.539 38.1541C153.539 37.8634 153.65 37.6183 153.87 37.4148C154.091 37.2113 154.351 37.1074 154.659 37.1074C154.809 37.1074 154.955 37.1365 155.092 37.1863C155.228 37.2403 155.347 37.3192 155.453 37.4148C155.559 37.5145 155.638 37.6266 155.696 37.7554C155.753 37.8841 155.779 38.0212 155.779 38.1583Z" fill="black"/>
<path d="M151.335 37.6557C151.335 37.7969 151.308 37.9298 151.251 38.0586C151.194 38.1873 151.114 38.3036 151.009 38.4033C150.907 38.4988 150.784 38.5778 150.647 38.6317C150.51 38.6857 150.365 38.7107 150.219 38.7107C150.069 38.7107 149.928 38.6857 149.787 38.6317C149.651 38.5778 149.531 38.503 149.426 38.4033C149.32 38.3078 149.236 38.1915 149.179 38.0627C149.121 37.934 149.095 37.801 149.095 37.6598C149.095 37.5228 149.121 37.3899 149.179 37.2611C149.236 37.1323 149.315 37.016 149.421 36.9164C149.527 36.8208 149.651 36.7419 149.787 36.6879C149.924 36.6381 150.065 36.609 150.215 36.609C150.524 36.609 150.788 36.7128 151.004 36.9164C151.225 37.1199 151.335 37.3691 151.335 37.6557Z" fill="black"/>
<path d="M150.563 42.0127C150.563 42.1498 150.537 42.2868 150.479 42.4156C150.422 42.5444 150.343 42.6565 150.237 42.7562C150.131 42.8517 150.012 42.9306 149.875 42.9846C149.739 43.0386 149.593 43.0635 149.448 43.0635C149.298 43.0635 149.157 43.0386 149.016 42.9846C148.879 42.9306 148.76 42.8559 148.654 42.7562C148.548 42.6565 148.469 42.5444 148.412 42.4156C148.354 42.2868 148.328 42.1539 148.328 42.0127C148.328 41.8757 148.354 41.7386 148.412 41.6098C148.469 41.4811 148.548 41.3689 148.654 41.2692C148.76 41.1737 148.883 41.0989 149.02 41.045C149.157 40.991 149.298 40.966 149.448 40.966C149.756 40.966 150.021 41.0699 150.237 41.2734C150.453 41.4769 150.563 41.722 150.563 42.0127Z" fill="black"/>
<path d="M153.24 39.7574C153.24 39.8986 153.209 40.0315 153.152 40.1603C153.094 40.289 153.015 40.4012 152.909 40.5009C152.803 40.5964 152.684 40.6753 152.547 40.7252C152.406 40.7792 152.265 40.8082 152.115 40.8041C151.97 40.8041 151.824 40.7792 151.688 40.7252C151.551 40.6712 151.432 40.5964 151.326 40.4967C151.22 40.4012 151.141 40.2849 151.084 40.1561C151.026 40.0274 151 39.8945 151 39.7532C151 39.6162 151.031 39.4833 151.084 39.3545C151.141 39.2257 151.225 39.1136 151.331 39.0139C151.432 38.9142 151.555 38.8395 151.692 38.7855C151.829 38.7356 151.974 38.7066 152.12 38.7066C152.27 38.7066 152.411 38.7356 152.547 38.7855C152.689 38.8395 152.808 38.9142 152.913 39.0139C153.019 39.1136 153.099 39.2257 153.156 39.3545C153.209 39.4833 153.24 39.6203 153.24 39.7574Z" fill="black"/>
<path d="M154.66 37.1075C154.514 37.1075 154.369 37.1324 154.232 37.1864C154.095 37.2404 153.972 37.3151 153.866 37.4148C153.76 37.5103 153.681 37.6266 153.623 37.7554C153.566 37.8842 153.535 38.0171 153.535 38.1583C153.535 38.2954 153.566 38.4283 153.619 38.5612C153.676 38.6899 153.76 38.8021 153.861 38.9018C153.967 39.0015 154.091 39.0762 154.227 39.1302C154.364 39.1842 154.51 39.2091 154.655 39.2091C154.805 39.2091 154.946 39.1842 155.087 39.1302C155.224 39.0762 155.343 39.0015 155.449 38.9018C155.555 38.8062 155.634 38.6899 155.691 38.5612C155.749 38.4324 155.779 38.2995 155.779 38.1583C155.779 37.8675 155.669 37.6225 155.453 37.419C155.233 37.2113 154.973 37.1075 154.66 37.1075ZM154.126 40.775C153.976 40.775 153.835 40.7999 153.698 40.8539C153.562 40.9079 153.438 40.9827 153.332 41.0824C153.227 41.182 153.147 41.2942 153.09 41.4229C153.033 41.5517 153.006 41.6846 153.006 41.8258C153.006 41.9671 153.033 42.1 153.09 42.2287C153.147 42.3575 153.227 42.4696 153.332 42.5693C153.438 42.669 153.562 42.7438 153.698 42.7978C153.835 42.8517 153.976 42.8767 154.126 42.8767C154.276 42.8767 154.417 42.8517 154.554 42.7978C154.695 42.7438 154.814 42.669 154.92 42.5693C155.026 42.4696 155.105 42.3575 155.162 42.2287C155.22 42.1 155.246 41.9629 155.246 41.8258C155.246 41.5351 155.136 41.2859 154.92 41.0824C154.699 40.8788 154.435 40.775 154.126 40.775ZM152.12 38.7066C151.974 38.7066 151.829 38.7356 151.692 38.7855C151.555 38.8395 151.432 38.9142 151.331 39.0139C151.225 39.1136 151.141 39.2257 151.084 39.3545C151.031 39.4833 151 39.6162 151 39.7532C151 39.8945 151.026 40.0274 151.084 40.1561C151.141 40.2849 151.22 40.4012 151.326 40.4967C151.432 40.5964 151.551 40.6712 151.688 40.7252C151.824 40.7792 151.97 40.8041 152.115 40.8041C152.265 40.8082 152.406 40.7792 152.547 40.7252C152.684 40.6753 152.803 40.5964 152.909 40.5009C153.015 40.4012 153.094 40.289 153.152 40.1603C153.209 40.0315 153.24 39.8986 153.24 39.7574C153.235 39.4708 153.13 39.2216 152.909 39.0181C152.693 38.8104 152.428 38.7107 152.12 38.7066ZM150.215 38.7066C150.524 38.7066 150.788 38.6069 151.004 38.3992C151.225 38.1957 151.335 37.9465 151.335 37.6599C151.335 37.3691 151.225 37.1199 151.004 36.9164C150.788 36.7129 150.524 36.609 150.215 36.609C149.906 36.609 149.642 36.7129 149.426 36.9164C149.205 37.1199 149.095 37.3691 149.095 37.6557C149.095 37.9465 149.205 38.1957 149.421 38.3992C149.642 38.6027 149.906 38.7066 150.215 38.7066ZM149.448 40.9619C149.298 40.9619 149.157 40.9868 149.02 41.0408C148.883 41.0948 148.76 41.1696 148.654 41.2693C148.548 41.3648 148.469 41.4811 148.412 41.6098C148.354 41.7386 148.328 41.8715 148.328 42.0086C148.328 42.1498 148.354 42.2827 148.412 42.4115C148.469 42.5402 148.548 42.6565 148.654 42.7521C148.76 42.8517 148.879 42.9265 149.016 42.9805C149.157 43.0345 149.298 43.0594 149.448 43.0594C149.593 43.0594 149.739 43.0345 149.875 42.9805C150.012 42.9265 150.131 42.8517 150.237 42.7521C150.343 42.6524 150.422 42.5402 150.48 42.4115C150.537 42.2827 150.563 42.1498 150.563 42.0086C150.563 41.722 150.453 41.4728 150.237 41.2693C150.017 41.0657 149.756 40.9661 149.448 40.9661V40.9619ZM162.627 41.7594C165.938 40.721 172.755 38.0877 171.948 34.2208C171.882 33.8387 171.723 33.4981 171.472 33.1949C171.221 32.8875 170.908 32.6591 170.533 32.5054C167.883 31.3881 162.111 33.9965 159.373 35.3796C160.127 32.1482 161.573 24.9336 159.924 22.8402C159.594 22.3916 159.135 22.1549 158.557 22.1216C155.175 21.9306 152.79 25.6023 151.882 32.061C150.122 28.219 146.463 21.8683 141.978 23.0894C141.485 23.2015 141.053 23.4175 140.682 23.7415C140.307 24.0613 140.043 24.4517 139.888 24.9045C138.936 27.7122 142.397 32.7587 144.311 35.2467C141.361 34.7857 135.647 34.1834 132.781 35.8988C131.855 36.418 131.282 37.1698 131.057 38.1583C130.942 38.5986 130.946 39.0388 131.061 39.4791C131.18 39.9152 131.396 40.3057 131.718 40.6421C133.689 42.7645 139.306 43.0303 142.556 42.9888C139.708 45.1445 134.906 49.4184 136.961 52.4712C137.38 53.0943 137.984 53.4473 138.764 53.5304C141.798 53.9125 147.208 50.1827 150.175 47.9107L151 47.1132C150.907 48.1308 150.868 49.1443 150.89 50.1619C151.009 52.9406 151.555 56.2302 153.341 57.6382C153.941 58.12 154.637 58.3568 155.427 58.3484C155.793 58.3443 156.15 58.2986 156.498 58.2072C157.146 58.0577 157.733 57.7836 158.258 57.3931C158.778 56.9986 159.188 56.5251 159.488 55.9643C160.766 53.6716 160.277 50.2616 159.713 47.9813C162.102 49.9958 166.15 52.9655 168.738 52.6125C169.157 52.5585 169.541 52.4131 169.885 52.1805C170.224 51.9479 170.489 51.653 170.674 51.2958C171.115 50.5025 171.177 49.6884 170.855 48.8494C169.885 46.0001 165.11 43.1051 162.627 41.7635V41.7594ZM169.417 50.6769C169.245 51.0424 168.95 51.246 168.531 51.2958C166.322 51.599 161.397 47.811 158.826 45.3522C158.707 45.24 158.566 45.1735 158.403 45.1528C158.235 45.1362 158.081 45.1694 157.94 45.2525C157.799 45.3355 157.702 45.4518 157.649 45.5972C157.592 45.7467 157.596 45.8921 157.649 46.0416C157.675 46.1039 159.973 52.222 158.231 55.3496C157.79 56.1803 157.089 56.7037 156.128 56.9238C155.81 57.0318 155.484 57.0609 155.149 57.0069C154.814 56.9487 154.518 56.8241 154.254 56.6206C152.045 54.8803 152.177 48.2762 152.411 45.8796C152.442 45.5764 152.309 45.3605 152.023 45.2234C151.921 45.1736 151.816 45.1486 151.701 45.1486C151.52 45.1486 151.361 45.2068 151.229 45.3189C148.8 47.3666 141.855 52.5751 138.963 52.2137C138.619 52.1888 138.354 52.0351 138.169 51.761C136.502 49.2855 142.838 44.3345 145.193 42.7936C145.325 42.7064 145.413 42.5942 145.462 42.453C145.51 42.3076 145.506 42.1664 145.453 42.0252C145.4 41.884 145.307 41.7718 145.175 41.6929C145.043 41.6098 144.893 41.5725 144.734 41.5849C142.049 41.7635 134.659 41.7801 132.794 39.774C132.419 39.3877 132.305 38.9433 132.45 38.4366C132.596 37.8136 132.962 37.3401 133.557 37.0202C136.925 35.0058 145.744 36.8624 145.832 36.8832C146.158 36.9496 146.41 36.8499 146.591 36.5841C146.767 36.3224 146.754 36.0649 146.546 35.8199C144.787 33.739 140.4 27.7995 141.247 25.3115C141.427 24.7882 141.807 24.4725 142.38 24.3687C146.357 23.2888 150.413 31.7661 151.63 35.1304C151.688 35.2799 151.785 35.3962 151.93 35.4834C152.076 35.5665 152.23 35.5956 152.398 35.5748C152.565 35.554 152.711 35.4876 152.825 35.3713C152.94 35.255 153.006 35.1179 153.015 34.9601C153.495 27.8078 155.665 23.3012 158.478 23.4549C158.615 23.4632 158.716 23.5214 158.787 23.6335C160.008 25.1911 158.725 32.3766 157.631 36.5426C157.556 36.8292 157.645 37.0576 157.896 37.2362C158.147 37.4148 158.412 37.4273 158.681 37.2736C161.97 35.4544 167.936 32.8709 169.951 33.7224C170.308 33.8636 170.511 34.1169 170.559 34.4783C171.19 37.5103 163.403 40.2309 160.63 40.9494C160.317 41.0284 160.14 41.2194 160.109 41.5226C160.074 41.8258 160.206 42.046 160.497 42.183C162.689 43.2297 168.58 46.5359 169.506 49.2606C169.7 49.7424 169.669 50.2201 169.417 50.6811V50.6769ZM154.66 37.1033C154.514 37.1033 154.369 37.1324 154.232 37.1822C154.095 37.2362 153.972 37.311 153.866 37.4107C153.76 37.5103 153.681 37.6225 153.623 37.7512C153.566 37.88 153.535 38.0129 153.535 38.1541C153.535 38.2912 153.566 38.4283 153.619 38.557C153.676 38.6858 153.76 38.7979 153.861 38.8976C153.967 38.9973 154.091 39.0721 154.227 39.1261C154.364 39.1801 154.51 39.205 154.655 39.205C154.805 39.2091 154.946 39.1801 155.087 39.1261C155.224 39.0721 155.343 38.9973 155.449 38.8976C155.555 38.8021 155.634 38.6858 155.691 38.557C155.749 38.4283 155.779 38.2954 155.779 38.1541C155.779 37.8675 155.669 37.6183 155.449 37.4148C155.233 37.2113 154.968 37.1075 154.66 37.1075V37.1033ZM154.126 40.7708C153.976 40.7708 153.835 40.7999 153.698 40.8498C153.562 40.9038 153.438 40.9827 153.332 41.0782C153.227 41.1779 153.147 41.29 153.09 41.4188C153.033 41.5475 153.006 41.6846 153.006 41.8217C153.006 41.9629 153.033 42.0958 153.09 42.2246C153.147 42.3533 153.227 42.4655 153.332 42.5652C153.438 42.6648 153.562 42.7396 153.698 42.7936C153.835 42.8476 153.976 42.8725 154.126 42.8725C154.276 42.8725 154.417 42.8476 154.554 42.7936C154.695 42.7396 154.814 42.6648 154.92 42.5652C155.026 42.4655 155.105 42.3533 155.162 42.2246C155.22 42.0958 155.246 41.9629 155.246 41.8217C155.246 41.5309 155.136 41.2859 154.915 41.0824C154.699 40.8788 154.435 40.775 154.126 40.775V40.7708ZM152.12 38.7066C151.974 38.7024 151.829 38.7315 151.692 38.7855C151.555 38.8353 151.432 38.9142 151.331 39.0098C151.225 39.1094 151.141 39.2216 151.084 39.3503C151.031 39.4791 151 39.612 151 39.7532C151 39.8903 151.026 40.0232 151.084 40.152C151.141 40.2807 151.22 40.397 151.326 40.4926C151.432 40.5922 151.551 40.667 151.688 40.721C151.824 40.775 151.97 40.8041 152.115 40.8041C152.265 40.8041 152.406 40.775 152.547 40.7252C152.684 40.6712 152.803 40.5964 152.909 40.4967C153.015 40.397 153.094 40.2849 153.152 40.1561C153.209 40.0274 153.24 39.8945 153.24 39.7532C153.235 39.4666 153.125 39.2216 152.909 39.0139C152.693 38.8104 152.428 38.7107 152.12 38.7066ZM150.215 38.7066C150.524 38.7024 150.788 38.6027 151.004 38.395C151.225 38.1915 151.335 37.9465 151.335 37.6557C151.335 37.365 151.225 37.1199 151.004 36.9122C150.788 36.7087 150.524 36.6049 150.215 36.6049C149.906 36.6049 149.642 36.7087 149.426 36.9122C149.205 37.1158 149.095 37.365 149.095 37.6516C149.095 37.7928 149.121 37.9257 149.179 38.0545C149.236 38.1874 149.316 38.2995 149.421 38.3992C149.527 38.4989 149.651 38.5736 149.787 38.6276C149.924 38.6816 150.065 38.7066 150.215 38.7066ZM149.448 40.9578C149.298 40.9578 149.157 40.9868 149.02 41.0367C148.883 41.0907 148.76 41.1654 148.654 41.2651C148.548 41.3648 148.469 41.4769 148.412 41.6057C148.354 41.7345 148.328 41.8674 148.328 42.0086C148.328 42.1457 148.354 42.2786 148.412 42.4073C148.469 42.5361 148.548 42.6524 148.654 42.7479C148.76 42.8476 148.879 42.9224 149.016 42.9764C149.157 43.0303 149.298 43.0553 149.448 43.0553C149.593 43.0553 149.739 43.0303 149.875 42.9764C150.012 42.9224 150.131 42.8476 150.237 42.7479C150.343 42.6482 150.422 42.5361 150.48 42.4073C150.537 42.2786 150.563 42.1457 150.563 42.0044C150.563 41.7178 150.453 41.4728 150.233 41.2693C150.017 41.0657 149.756 40.9661 149.448 40.9661V40.9578Z" fill="black"/>
<path d="M205.992 31.8242C205.992 31.9613 205.966 32.0983 205.908 32.2271C205.851 32.3559 205.772 32.468 205.666 32.5677C205.56 32.6674 205.441 32.7421 205.3 32.7961C205.163 32.8501 205.022 32.875 204.872 32.875C204.722 32.875 204.581 32.8501 204.445 32.7961C204.308 32.7421 204.184 32.6674 204.079 32.5677C203.973 32.468 203.893 32.3559 203.836 32.2271C203.779 32.0983 203.752 31.9654 203.752 31.8242C203.752 31.683 203.779 31.5501 203.836 31.4213C203.893 31.2926 203.973 31.1804 204.079 31.0807C204.184 30.9811 204.308 30.9063 204.445 30.8523C204.581 30.7983 204.722 30.7734 204.872 30.7734C205.181 30.7734 205.445 30.8772 205.666 31.0807C205.882 31.2843 205.992 31.5335 205.992 31.8242Z" fill="black"/>
<path d="M206.526 28.1525C206.526 28.4432 206.416 28.6883 206.195 28.8918C205.979 29.0995 205.714 29.1992 205.406 29.1992C205.097 29.1992 204.833 29.0953 204.612 28.8918C204.396 28.6841 204.286 28.4391 204.286 28.1483C204.286 27.8576 204.396 27.6125 204.617 27.409C204.837 27.2013 205.097 27.1016 205.41 27.1016C205.556 27.1016 205.701 27.1266 205.838 27.1806C205.975 27.2346 206.094 27.3093 206.2 27.409C206.305 27.5087 206.385 27.6208 206.442 27.7496C206.499 27.8783 206.526 28.0113 206.526 28.1525Z" fill="black"/>
<path d="M202.081 27.6499C202.086 27.7912 202.055 27.9241 202.002 28.057C201.945 28.1857 201.861 28.2979 201.759 28.3976C201.654 28.4972 201.53 28.572 201.393 28.626C201.257 28.68 201.116 28.7091 200.966 28.7091C200.816 28.7091 200.675 28.6842 200.534 28.6302C200.397 28.5762 200.273 28.5014 200.172 28.4017C200.066 28.302 199.982 28.1899 199.925 28.0611C199.868 27.9324 199.841 27.7953 199.841 27.6582C199.841 27.517 199.868 27.3841 199.925 27.2554C199.982 27.1266 200.066 27.0103 200.172 26.9148C200.278 26.8151 200.397 26.7403 200.538 26.6863C200.675 26.6323 200.816 26.6074 200.966 26.6074C201.274 26.6074 201.534 26.7112 201.755 26.9148C201.971 27.1183 202.081 27.3633 202.081 27.6499Z" fill="black"/>
<path d="M201.31 32.0069C201.31 32.1482 201.283 32.2811 201.226 32.4098C201.169 32.5386 201.089 32.6507 200.983 32.7504C200.878 32.8501 200.759 32.9249 200.622 32.9789C200.485 33.0329 200.34 33.0578 200.19 33.0578C200.044 33.0578 199.899 33.0329 199.762 32.9789C199.625 32.9249 199.506 32.8501 199.4 32.7504C199.295 32.6549 199.215 32.5386 199.158 32.4098C199.101 32.2811 199.07 32.1482 199.07 32.0069C199.07 31.8699 199.101 31.737 199.158 31.6082C199.215 31.4795 199.295 31.3632 199.4 31.2676C199.506 31.1679 199.625 31.0932 199.766 31.0392C199.903 30.9852 200.044 30.9603 200.194 30.9603C200.503 30.9603 200.763 31.0641 200.983 31.2676C201.199 31.4711 201.31 31.7162 201.31 32.0069Z" fill="black"/>
<path d="M203.986 29.7516C203.986 29.8928 203.955 30.0257 203.898 30.1545C203.841 30.2832 203.761 30.3954 203.655 30.4951C203.55 30.5947 203.43 30.6695 203.294 30.7235C203.157 30.7733 203.012 30.8024 202.862 30.8024C202.716 30.8024 202.571 30.7733 202.434 30.7194C202.297 30.6695 202.178 30.5906 202.072 30.4909C201.967 30.3954 201.887 30.2791 201.83 30.1503C201.773 30.0216 201.746 29.8887 201.746 29.7516C201.746 29.6104 201.777 29.4775 201.834 29.3487C201.892 29.2199 201.971 29.1078 202.077 29.0081C202.183 28.9126 202.302 28.8337 202.438 28.7838C202.575 28.7298 202.721 28.7008 202.866 28.7049C203.016 28.7008 203.157 28.7298 203.298 28.7838C203.435 28.8337 203.554 28.9126 203.66 29.0081C203.766 29.1078 203.845 29.2241 203.902 29.3529C203.96 29.4816 203.986 29.6145 203.986 29.7516Z" fill="black"/>
<path d="M205.41 27.1017C205.26 27.1017 205.115 27.1307 204.978 27.1806C204.841 27.2346 204.718 27.3093 204.612 27.409C204.506 27.5087 204.427 27.6208 204.37 27.7496C204.312 27.8784 204.282 28.0113 204.282 28.1525C204.282 28.2937 204.312 28.4266 204.37 28.5554C204.423 28.6841 204.506 28.7963 204.612 28.896C204.718 28.9957 204.837 29.0704 204.974 29.1244C205.11 29.1784 205.256 29.2033 205.406 29.2033C205.551 29.2033 205.697 29.1784 205.834 29.1244C205.97 29.0704 206.094 28.9957 206.2 28.896C206.301 28.7963 206.385 28.6841 206.442 28.5554C206.499 28.4266 206.526 28.2937 206.526 28.1525C206.526 27.8617 206.416 27.6167 206.2 27.4132C205.979 27.2055 205.719 27.1058 205.41 27.1017ZM204.872 30.7692C204.722 30.7692 204.581 30.7983 204.445 30.8481C204.308 30.9021 204.185 30.981 204.079 31.0766C203.973 31.1762 203.893 31.2884 203.836 31.4171C203.779 31.5459 203.752 31.683 203.752 31.82C203.752 31.9612 203.779 32.0942 203.836 32.2229C203.893 32.3517 203.973 32.4638 204.079 32.5635C204.185 32.6632 204.308 32.738 204.445 32.7919C204.581 32.8459 204.722 32.8709 204.872 32.8709C205.022 32.8709 205.163 32.8459 205.3 32.7919C205.441 32.738 205.56 32.6632 205.666 32.5635C205.772 32.4638 205.851 32.3517 205.909 32.2229C205.966 32.0942 205.992 31.9612 205.992 31.82C205.992 31.5293 205.882 31.2842 205.666 31.0766C205.446 30.873 205.181 30.7692 204.872 30.7692ZM202.866 28.7049C202.721 28.7008 202.575 28.7298 202.438 28.7838C202.302 28.8337 202.183 28.9126 202.077 29.0081C201.971 29.1078 201.892 29.2199 201.834 29.3487C201.777 29.4775 201.746 29.6104 201.746 29.7516C201.746 29.8887 201.773 30.0216 201.83 30.1503C201.887 30.2791 201.967 30.3954 202.072 30.4909C202.178 30.5906 202.297 30.6695 202.434 30.7194C202.571 30.7733 202.716 30.8024 202.862 30.8024C203.012 30.8024 203.157 30.7733 203.294 30.7235C203.431 30.6695 203.55 30.5947 203.655 30.4951C203.761 30.3954 203.841 30.2832 203.898 30.1545C203.955 30.0257 203.986 29.8928 203.986 29.7516C203.986 29.465 203.876 29.2158 203.655 29.0123C203.439 28.8087 203.175 28.7049 202.866 28.7049ZM200.961 28.7049C201.27 28.7008 201.535 28.6011 201.755 28.3934C201.971 28.1899 202.081 27.9407 202.081 27.6541C202.081 27.3633 201.971 27.1183 201.751 26.9106C201.535 26.7071 201.27 26.6032 200.961 26.6032C200.653 26.6032 200.388 26.7071 200.172 26.9106C199.952 27.1141 199.841 27.3633 199.841 27.6499C199.841 27.7911 199.872 27.924 199.93 28.0528C199.987 28.1857 200.066 28.2979 200.172 28.3975C200.278 28.4931 200.397 28.572 200.538 28.6218C200.675 28.6758 200.816 28.7049 200.966 28.7049H200.961ZM200.194 30.9603C200.044 30.9603 199.903 30.9852 199.766 31.0392C199.63 31.0932 199.506 31.1679 199.4 31.2676C199.295 31.3631 199.215 31.4794 199.158 31.604C199.101 31.7328 199.074 31.8699 199.07 32.0069C199.07 32.1482 199.101 32.2811 199.158 32.4098C199.215 32.5386 199.295 32.6507 199.4 32.7504C199.502 32.8501 199.625 32.9249 199.762 32.9789C199.899 33.0329 200.044 33.0578 200.19 33.0578C200.34 33.0578 200.481 33.0329 200.622 32.9789C200.759 32.9249 200.878 32.8501 200.983 32.7504C201.089 32.6507 201.169 32.5386 201.226 32.4098C201.283 32.2811 201.31 32.1482 201.31 32.0069C201.31 31.7203 201.199 31.4711 200.983 31.2676C200.767 31.0641 200.503 30.9603 200.194 30.9603ZM213.373 31.7577C216.689 30.7194 223.502 28.086 222.695 24.2191C222.628 23.837 222.47 23.4964 222.218 23.1932C221.967 22.8859 221.654 22.6574 221.279 22.5037C218.629 21.3864 212.862 23.9948 210.119 25.378C210.873 22.1465 212.32 14.9319 210.671 12.8385C210.34 12.39 209.886 12.1532 209.304 12.12C205.922 11.9289 203.536 15.6006 202.628 22.0593C200.869 18.2173 197.209 11.8666 192.725 13.0878C192.231 13.1999 191.799 13.4159 191.428 13.7399C191.054 14.0597 190.794 14.4501 190.635 14.9028C189.682 17.7106 193.144 22.7571 195.057 25.245C192.108 24.784 186.393 24.1817 183.531 25.8971C182.601 26.4163 182.028 27.1681 181.803 28.1566C181.688 28.5969 181.693 29.0372 181.807 29.4775C181.927 29.9136 182.147 30.304 182.464 30.6404C184.435 32.7629 190.053 33.0245 193.302 32.9872C190.454 35.1428 185.652 39.4168 187.707 42.4696C188.13 43.0926 188.73 43.4457 189.51 43.5287C192.544 43.9109 197.954 40.181 200.922 37.9091L201.746 37.1157C201.654 38.1292 201.618 39.1426 201.636 40.1603C201.755 42.9389 202.302 46.2285 204.088 47.6407C204.692 48.1184 205.384 48.3551 206.178 48.3468C206.539 48.3468 206.896 48.297 207.245 48.2056C207.897 48.0561 208.484 47.7819 209.004 47.3915C209.529 46.9969 209.939 46.5234 210.238 45.9627C211.517 43.67 211.028 40.2599 210.463 37.9755C212.853 39.99 216.901 42.9597 219.489 42.6067C219.908 42.5527 220.292 42.4073 220.631 42.1747C220.975 41.9421 221.24 41.6472 221.425 41.29C221.866 40.5008 221.923 39.6868 221.606 38.8477C220.631 35.9984 215.856 33.0993 213.373 31.7577ZM220.164 40.6753C219.996 41.0408 219.696 41.2443 219.277 41.2942C217.068 41.5974 212.148 37.8094 209.573 35.3505C209.458 35.2384 209.317 35.1719 209.149 35.1511C208.982 35.1345 208.827 35.1677 208.686 35.2508C208.545 35.3339 208.448 35.4502 208.395 35.5956C208.338 35.7451 208.342 35.8905 208.395 36.04C208.422 36.1023 210.719 42.2204 208.977 45.348C208.536 46.1787 207.835 46.702 206.874 46.9221C206.557 47.0301 206.23 47.0592 205.895 47.0052C205.56 46.9471 205.265 46.8225 205 46.6189C202.796 44.8786 202.923 38.2746 203.157 35.878C203.188 35.5748 203.056 35.3588 202.769 35.2217C202.668 35.1719 202.562 35.147 202.447 35.147C202.266 35.147 202.108 35.2051 201.975 35.3214C199.546 37.365 192.601 42.5734 189.709 42.2121C189.365 42.1872 189.1 42.0335 188.915 41.7593C187.248 39.2839 193.589 34.3329 195.939 32.7919C196.071 32.7047 196.16 32.5926 196.208 32.4514C196.257 32.306 196.252 32.1648 196.199 32.0236C196.146 31.8823 196.054 31.7743 195.922 31.6913C195.789 31.6082 195.644 31.5708 195.481 31.5833C192.795 31.7619 185.41 31.7785 183.54 29.7724C183.166 29.3861 183.051 28.9417 183.196 28.4391C183.342 27.8119 183.708 27.3384 184.303 27.0186C187.672 25.0041 196.49 26.8608 196.579 26.8815C196.905 26.948 197.156 26.8483 197.337 26.5825C197.513 26.3208 197.5 26.0633 197.293 25.8182C195.534 23.7373 191.146 17.7978 191.993 15.3099C192.174 14.7865 192.553 14.475 193.126 14.367C197.103 13.2871 201.16 21.7644 202.381 25.1287C202.434 25.2783 202.531 25.3946 202.677 25.4818C202.822 25.5649 202.976 25.5981 203.144 25.5732C203.316 25.5524 203.457 25.4859 203.572 25.3696C203.686 25.2533 203.752 25.1163 203.761 24.9585C204.242 17.8061 206.411 13.2996 209.224 13.4533C209.361 13.4616 209.462 13.5197 209.533 13.6319C210.754 15.1894 209.476 22.375 208.378 26.5409C208.303 26.8275 208.391 27.0601 208.642 27.2346C208.894 27.4132 209.158 27.4256 209.427 27.2719C212.716 25.4527 218.682 22.8692 220.697 23.7207C221.054 23.8619 221.257 24.1153 221.306 24.4766C221.936 27.5087 214.154 30.2334 211.376 30.9478C211.063 31.0267 210.887 31.2178 210.856 31.521C210.825 31.8242 210.953 32.0443 211.244 32.1814C213.435 33.2281 219.326 36.5343 220.252 39.2589C220.441 39.7408 220.415 40.2143 220.164 40.6753ZM205.41 27.1017C205.26 27.1017 205.115 27.1307 204.978 27.1806C204.841 27.2346 204.718 27.3093 204.612 27.409C204.506 27.5087 204.427 27.6208 204.37 27.7496C204.312 27.8784 204.282 28.0113 204.282 28.1525C204.282 28.2937 204.312 28.4266 204.37 28.5554C204.423 28.6841 204.506 28.7963 204.612 28.896C204.718 28.9957 204.837 29.0704 204.974 29.1244C205.11 29.1784 205.256 29.2033 205.406 29.2033C205.551 29.2033 205.697 29.1784 205.834 29.1244C205.97 29.0704 206.094 28.9957 206.2 28.896C206.301 28.7963 206.385 28.6841 206.442 28.5554C206.499 28.4266 206.526 28.2937 206.526 28.1525C206.526 27.8617 206.416 27.6167 206.2 27.4132C205.979 27.2055 205.719 27.1058 205.41 27.1017ZM204.872 30.7692C204.722 30.7692 204.581 30.7983 204.445 30.8481C204.308 30.9021 204.185 30.981 204.079 31.0766C203.973 31.1762 203.893 31.2884 203.836 31.4171C203.779 31.5459 203.752 31.683 203.752 31.82C203.752 31.9612 203.779 32.0942 203.836 32.2229C203.893 32.3517 203.973 32.4638 204.079 32.5635C204.185 32.6632 204.308 32.738 204.445 32.7919C204.581 32.8459 204.722 32.8709 204.872 32.8709C205.022 32.8709 205.163 32.8459 205.3 32.7919C205.441 32.738 205.56 32.6632 205.666 32.5635C205.772 32.4638 205.851 32.3517 205.909 32.2229C205.966 32.0942 205.992 31.9612 205.992 31.82C205.992 31.5293 205.882 31.2842 205.666 31.0766C205.446 30.873 205.181 30.7692 204.872 30.7692ZM202.866 28.7049C202.721 28.7008 202.575 28.7298 202.438 28.7838C202.302 28.8337 202.183 28.9126 202.077 29.0081C201.971 29.1078 201.887 29.2199 201.834 29.3487C201.777 29.4775 201.746 29.6104 201.746 29.7516C201.746 29.8887 201.773 30.0216 201.83 30.1503C201.887 30.2791 201.967 30.3954 202.072 30.4909C202.178 30.5906 202.297 30.6695 202.434 30.7194C202.571 30.7733 202.716 30.8024 202.862 30.8024C203.012 30.8024 203.157 30.7733 203.294 30.7235C203.431 30.6695 203.55 30.5947 203.655 30.4951C203.761 30.3954 203.841 30.2832 203.898 30.1545C203.955 30.0257 203.986 29.8928 203.986 29.7516C203.986 29.465 203.876 29.2158 203.655 29.0123C203.439 28.8087 203.175 28.7049 202.866 28.7049ZM200.961 28.7049C201.27 28.7008 201.535 28.6011 201.755 28.3934C201.971 28.1899 202.081 27.9407 202.081 27.6541C202.081 27.3633 201.971 27.1183 201.751 26.9106C201.535 26.7071 201.27 26.6032 200.961 26.6032C200.653 26.6032 200.388 26.7071 200.172 26.9106C199.952 27.1141 199.841 27.3633 199.841 27.6499C199.841 27.7911 199.872 27.924 199.93 28.0528C199.987 28.1857 200.066 28.2979 200.172 28.3975C200.278 28.4931 200.397 28.572 200.538 28.6218C200.675 28.6758 200.816 28.7049 200.966 28.7049H200.961ZM200.194 30.9603C200.044 30.9603 199.903 30.9852 199.766 31.0392C199.63 31.0932 199.506 31.1679 199.4 31.2676C199.295 31.3631 199.215 31.4794 199.158 31.604C199.101 31.7328 199.074 31.8699 199.07 32.0069C199.07 32.1482 199.101 32.2811 199.158 32.4098C199.215 32.5386 199.295 32.6507 199.4 32.7504C199.502 32.8501 199.625 32.9249 199.762 32.9789C199.899 33.0329 200.044 33.0578 200.19 33.0578C200.34 33.0578 200.481 33.0329 200.622 32.9789C200.759 32.9249 200.878 32.8501 200.983 32.7504C201.089 32.6507 201.169 32.5386 201.226 32.4098C201.283 32.2811 201.31 32.1482 201.31 32.0069C201.31 31.7203 201.199 31.4711 200.983 31.2676C200.767 31.0641 200.503 30.9603 200.194 30.9603Z" fill="black"/>
</svg>
