<svg width="260" height="71" viewBox="0 0 260 71" fill="none" xmlns="http://www.w3.org/2000/svg">
<path d="M18.7487 71C17.8464 71 16.9706 70.8932 16.1391 70.6837C6.95721 69.1845 0 61.6804 0 52.9235C0 49.7854 0.893425 46.8076 2.45913 44.2117C0.893425 41.6159 0 38.638 0 35.5C0 32.362 0.893425 29.3882 2.45913 26.7883C0.893425 24.1924 0 21.2187 0 18.0806C0 9.30319 6.98375 1.78671 16.1966 0.303945C17.0149 0.102685 17.8685 0 18.7487 0H240.491C251.247 0 260 8.11206 260 18.0806C260 21.2351 259.12 24.2047 257.581 26.7924C259.12 29.3759 260 32.3455 260 35.5C260 38.6545 259.12 41.6241 257.581 44.2117C259.12 46.7953 260 49.7649 260 52.9235C260 62.8921 251.247 71 240.491 71H18.7487Z" fill="#EEDCC7"/>
<path d="M251.083 35.5042C251.083 31.7172 248.752 28.4313 245.356 26.8006C248.752 25.1495 251.083 21.8636 251.083 18.0766C251.083 12.6754 246.329 8.26818 240.504 8.26818H18.7486C18.585 8.26818 18.4169 8.31337 18.2489 8.37908C12.9016 8.95412 8.92981 13.0738 8.92981 18.0766C8.92981 21.8882 11.2386 25.17 14.684 26.8006C11.2386 28.4107 8.92981 31.6925 8.92981 35.5042C8.92981 39.3158 11.2386 42.6017 14.684 44.2077C11.2386 45.8178 8.92981 49.0996 8.92981 52.9153C8.92981 57.914 12.9016 62.0131 18.2267 62.6087C18.3683 62.6991 18.5585 62.7401 18.7486 62.7401H240.504C246.329 62.7401 251.083 58.3329 251.083 52.9153C251.083 49.1447 248.752 45.8383 245.351 44.2077C248.752 42.5771 251.083 39.2747 251.083 35.5042ZM21.8889 60.5386H19.1777C19.0582 60.4934 18.9654 60.4729 18.8459 60.4729C14.5425 60.1402 11.3093 56.9036 11.3093 52.9112C11.3093 48.9476 14.5425 45.7069 18.8459 45.3783C19.4651 45.3331 19.9384 44.717 19.9384 44.142C19.9384 43.571 19.4651 43.0864 18.8459 43.0412C14.5425 42.7126 11.3093 39.4719 11.3093 35.5042C11.3093 31.5159 14.5425 28.2752 18.8459 27.9671C19.4651 27.9014 19.9384 27.2853 19.9384 26.7144C19.9384 26.1394 19.4651 25.6547 18.8459 25.6095C14.5425 25.3015 11.3093 22.0648 11.3093 18.0766C11.3093 14.1089 14.5425 10.8682 18.8459 10.5396C18.9654 10.5396 19.0582 10.5149 19.1555 10.4738H47.7805L21.8889 60.5345V60.5386ZM42.6455 60.5386H24.5294L50.3945 10.4738H68.5593L42.6455 60.5386ZM63.4022 60.5386H45.2816L71.1732 10.4738H89.3159L63.4022 60.5386ZM84.181 60.5386H66.0382L91.9299 10.4738H110.073L84.181 60.5386ZM104.938 60.5386H86.817L112.709 10.4738H130.851L104.938 60.5386ZM125.694 60.5386H107.574L133.465 10.4738H151.608L125.694 60.5386ZM146.473 60.5386H128.33L154.222 10.4738H172.365L146.473 60.5386ZM167.225 60.5386H149.109L175.001 10.4738H193.143L167.23 60.5386H167.225ZM187.982 60.5386H169.866L195.757 10.4738H213.9L187.982 60.5386ZM208.761 60.5386H190.622L216.514 10.4738H234.652L208.761 60.5386ZM240.504 43.1069C239.836 43.1069 239.314 43.5916 239.314 44.2077C239.314 44.8279 239.836 45.3126 240.504 45.3126C245.02 45.3126 248.704 48.7258 248.704 52.9153C248.704 57.1213 245.02 60.5386 240.504 60.5386H211.401L237.293 10.4738H240.504C245.02 10.4738 248.704 13.8871 248.704 18.0766C248.704 22.2866 245.02 25.6999 240.504 25.6999C239.836 25.6999 239.314 26.1845 239.314 26.8006C239.314 27.3962 239.836 27.9014 240.504 27.9014C245.02 27.9014 248.704 31.2982 248.704 35.5042C248.704 39.6937 245.02 43.1069 240.504 43.1069Z" fill="black"/>
</svg>
