<svg width="122" height="35" viewBox="0 0 122 35" fill="none" xmlns="http://www.w3.org/2000/svg">
<path d="M57.443 7.8042V23.3792H61.0224V11.6914H64.5984V28.5609H68.1778V7.8042H57.443Z" fill="#B54C90"/>
<path d="M50.2875 27.2292V35H53.8669V31.1128H68.1777V35H71.7537V27.2292H50.2875Z" fill="#B54C90"/>
<path d="M53.8568 23.3383H57.4361V27.9992H53.8568V23.3383Z" fill="#B54C90"/>
<path d="M36.0108 3.95791H32.4654V0H36.0108V3.95791ZM32.4654 3.95791H28.8247V7.80423H32.4654V3.95791ZM28.8247 7.80423H25.31V27.1958H28.8247V7.80423ZM32.4654 27.1958H28.8247V31.1834H32.4654V27.1958ZM36.0108 31.1834H32.4654V35H36.0108V31.1834Z" fill="#D27BA7"/>
<path d="M86.0952 0H89.6406V3.95791H86.0952V0ZM89.6406 7.80423H93.2846V3.95791H89.6406V7.80423ZM93.2846 27.1958H96.7959V7.80423H93.2846V27.1958ZM89.6406 31.1834H93.2846V27.1958H89.6406V31.1834ZM86.0952 35H89.6406V31.1834H86.0952V35Z" fill="#D27BA7"/>
<path d="M43.1254 7.8005H39.546V3.91327H43.1254V7.8005ZM46.7014 7.8005H43.1254V11.684H46.7014V7.8005Z" fill="#83327E"/>
<path d="M78.8955 3.91327H82.4749V7.8005H78.8955V3.91327ZM75.3195 11.684H78.8955V7.8005H75.3195V11.684Z" fill="#83327E"/>
<path d="M121.872 7.8042H118.327V11.7621H121.872V7.8042ZM118.327 11.7621H114.686V15.575H118.327V11.7621ZM114.686 15.575H111.171V19.425H114.686V15.575ZM111.171 19.425H107.531V23.3792H111.171V19.425ZM107.531 23.3792H103.985V27.1957H107.531V23.3792ZM103.985 27.1957H100.471V31.1834H103.985V27.1957ZM100.471 31.1834H96.796V35H100.471V31.1834Z" fill="#331866"/>
<path d="M0.237396 11.7621H3.78277V7.8042H0.237396V11.7621ZM3.78277 15.575H7.4234V11.7621H3.78277V15.575ZM7.4234 19.425H10.9382V15.575H7.4234V19.425ZM10.9382 23.3792H14.5788V19.425H10.9382V23.3792ZM14.5788 27.1957H18.1242V23.3792H14.5788V27.1957ZM18.1242 31.1834H21.6355V27.1957H18.1242V31.1834ZM21.6355 35H25.3102V31.1834H21.6355V35Z" fill="#331866"/>
</svg>
