<svg width="129" height="42" viewBox="0 0 129 42" fill="none" xmlns="http://www.w3.org/2000/svg">
<path d="M7.93298 0H13.0897V5.31469H7.93298V0Z" fill="black"/>
<path d="M8.53058 0.00378418H12.6835V4.665H8.53058V0.00378418Z" fill="#331866"/>
<path d="M4.38434 4.66498H8.53722V9.32619H4.38434V4.66498Z" fill="#331866"/>
<path d="M0.234833 9.18268H4.49514V33.3575H0.234833V9.18268Z" fill="black"/>
<path d="M0.234833 9.32239H4.38435V32.6171H0.234833V9.32239Z" fill="#331866"/>
<path d="M4.38434 32.6171H8.53722V37.2783H4.38434V32.6171Z" fill="#331866"/>
<path d="M7.93298 37.2255H13.0897V42H7.93298V37.2255Z" fill="black"/>
<path d="M8.53058 37.2783H12.6835V41.9395H8.53058V37.2783Z" fill="#331866"/>
<path d="M82.7049 0H87.8616V5.31469H82.7049V0Z" fill="black"/>
<path d="M83.2253 0.064209H87.3749V4.72542H83.2253V0.064209Z" fill="#331866"/>
<path d="M87.3749 4.72162H91.5278V9.38283H87.3749V4.72162Z" fill="#331866"/>
<path d="M91.5244 9.38287H95.6739V32.6776H91.5244V9.38287Z" fill="#331866"/>
<path d="M87.3749 32.6776H91.5278V37.335H87.3749V32.6776Z" fill="#331866"/>
<path d="M82.7049 37.2255H87.8616V42H82.7049V37.2255Z" fill="black"/>
<path d="M83.2253 37.3312H87.3749V41.9924H83.2253V37.3312Z" fill="#331866"/>
<path d="M20.9824 27.8728H25.1319V32.534H20.9824V27.8728Z" fill="#E6BDC5"/>
<path d="M16.8329 32.4698H20.9858V37.1311H16.8329V32.4698Z" fill="#E6BDC5"/>
<path d="M29.2814 27.8426H33.431V32.5038H29.2814V27.8426Z" fill="#E6BDC5"/>
<path d="M25.132 32.4698H29.2849V37.1311H25.132V32.4698Z" fill="#E6BDC5"/>
<path d="M70.7767 27.8728H74.9296V32.534H70.7767V27.8728Z" fill="#E6BDC5"/>
<path d="M66.6272 32.4698H70.7767V37.1311H66.6272V32.4698Z" fill="#E6BDC5"/>
<path d="M79.0758 27.9257H83.2287V32.5869H79.0758V27.9257Z" fill="#E6BDC5"/>
<path d="M74.9296 32.4698H79.0791V37.1311H74.9296V32.4698Z" fill="#E6BDC5"/>
<path d="M45.8796 27.8728H50.0291V32.534H45.8796V27.8728Z" fill="#B54C90"/>
<path d="M50.0291 32.5303H54.182V37.1877H50.0291V32.5303Z" fill="#B54C90"/>
<path d="M54.1752 27.8728H58.3281V32.534H54.1752V27.8728Z" fill="#B54C90"/>
<path d="M62.4742 23.1814H66.6271V27.8426H62.4742V23.1814Z" fill="#B54C90"/>
<path d="M37.5806 23.1814H41.7301V27.8426H37.5806V23.1814Z" fill="#B54C90"/>
<path d="M99.8267 14.0403H103.976V18.7015H99.8267V14.0403Z" fill="#83327E"/>
<path d="M103.973 9.38287H108.122V14.0403H103.973V9.38287Z" fill="#83327E"/>
<path d="M108.122 14.0403H112.275V28.1637H108.122V14.0403Z" fill="#83327E"/>
<path d="M103.973 28.0164H108.122V32.6776H103.973V28.0164Z" fill="#83327E"/>
<path d="M99.8267 32.6171H103.976V37.2783H99.8267V32.6171Z" fill="#83327E"/>
<path d="M95.5966 37.2255H99.8939V42H95.5966V37.2255Z" fill="black"/>
<path d="M95.6739 37.3312H99.8268V41.9924H95.6739V37.3312Z" fill="#83327E"/>
<path d="M112.275 4.63855H116.425V9.29598H112.275V4.63855Z" fill="#D27BA7"/>
<path d="M116.421 9.29218H120.574V13.9534H116.421V9.29218Z" fill="#D27BA7"/>
<path d="M120.574 4.63855H124.724V9.29598H120.574V4.63855Z" fill="#D27BA7"/>
<path d="M123.958 9.18268H128.873V14.0176H123.958V9.18268Z" fill="black"/>
<path d="M124.721 9.29218H128.874V13.9534H124.721V9.29218Z" fill="#D27BA7"/>
</svg>
