<svg width="92" height="34" viewBox="0 0 92 34" fill="none" xmlns="http://www.w3.org/2000/svg">
<path d="M6.19672 29.86H10.5456V33.9732H6.19672V29.86Z" fill="black"/>
<path d="M6.99515 30.2004H10.3961V33.973H6.99515V30.2004Z" fill="#83327E"/>
<path d="M80.9968 29.86H85.3457V33.9732H80.9968V29.86Z" fill="black"/>
<path d="M81.8089 30.2004H85.2098V33.973H81.8089V30.2004Z" fill="#83327E"/>
<path d="M6.23166 0H10.5715V3.96289H6.23166V0Z" fill="black"/>
<path d="M7.02841 0H10.4223V3.78259H7.02841V0Z" fill="#83327E"/>
<path d="M3.63449 3.78271H7.02838V7.56531H3.63449V3.78271Z" fill="#83327E"/>
<path d="M0.237274 6.84778H4.49574V27.0416H0.237274V6.84778Z" fill="black"/>
<path d="M0.240753 7.56519H3.63464V26.4857H0.240753V7.56519Z" fill="#83327E"/>
<path d="M3.63449 26.4857H7.02838V30.2683H3.63449V26.4857Z" fill="#83327E"/>
<path d="M80.8768 0H85.2167V3.96289H80.8768V0Z" fill="black"/>
<path d="M81.6872 0H85.0811V3.78259H81.6872V0Z" fill="#83327E"/>
<path d="M85.081 3.78271H88.4749V7.56531H85.081V3.78271Z" fill="#83327E"/>
<path d="M87.8206 6.84778H91.8722V27.0416H87.8206V6.84778Z" fill="black"/>
<path d="M88.4749 7.56519H91.8688V26.4857H88.4749V7.56519Z" fill="#83327E"/>
<path d="M85.081 26.4857H88.4749V30.2683H85.081V26.4857Z" fill="#83327E"/>
<path d="M13.8128 7.56531H17.2067V11.3479H13.8128V7.56531Z" fill="#331866"/>
<path d="M17.2101 3.78271H20.604V7.56531H17.2101V3.78271Z" fill="#331866"/>
<path d="M20.604 7.56531H23.9979V11.3479H20.604V7.56531Z" fill="#331866"/>
<path d="M10.4223 11.3478H13.8128V15.1341H10.4223V11.3478Z" fill="#331866"/>
<path d="M23.9978 11.3478H27.3883V15.1341H23.9978V11.3478Z" fill="#331866"/>
<path d="M68.1115 7.56531H71.5054V11.3479H68.1115V7.56531Z" fill="#331866"/>
<path d="M71.5055 3.78271H74.8993V7.56531H71.5055V3.78271Z" fill="#331866"/>
<path d="M74.8994 7.56531H78.2933V11.3479H74.8994V7.56531Z" fill="#331866"/>
<path d="M64.7177 11.3478H68.1116V15.1341H64.7177V11.3478Z" fill="#331866"/>
<path d="M78.2933 11.3478H81.6872V15.1341H78.2933V11.3478Z" fill="#331866"/>
<path d="M40.9639 3.78271H44.3578V7.56531H40.9639V3.78271Z" fill="#B54C90"/>
<path d="M37.57 7.56531H40.9639V11.3479H37.57V7.56531Z" fill="#B54C90"/>
<path d="M34.1761 11.3478H37.57V15.1341H34.1761V11.3478Z" fill="#B54C90"/>
<path d="M30.7823 15.1342H34.1761V18.9167H30.7823V15.1342Z" fill="#B54C90"/>
<path d="M27.3883 18.9204H30.7822V22.703H27.3883V18.9204Z" fill="#B54C90"/>
<path d="M23.9978 22.7031H27.3883V26.4857H23.9978V22.7031Z" fill="#B54C90"/>
<path d="M20.604 26.4857H23.9979V30.2683H20.604V26.4857Z" fill="#B54C90"/>
<path d="M51.1455 3.78271H54.5394V7.56531H51.1455V3.78271Z" fill="#B54C90"/>
<path d="M47.7517 7.56531H51.1456V11.3479H47.7517V7.56531Z" fill="#B54C90"/>
<path d="M44.3578 11.3478H47.7483V15.1341H44.3578V11.3478Z" fill="#B54C90"/>
<path d="M40.9639 15.1342H44.3578V18.9167H40.9639V15.1342Z" fill="#B54C90"/>
<path d="M37.57 18.9204H40.9639V22.703H37.57V18.9204Z" fill="#B54C90"/>
<path d="M34.1761 22.7031H37.57V26.4857H34.1761V22.7031Z" fill="#B54C90"/>
<path d="M30.7823 26.4857H34.1761V30.2683H30.7823V26.4857Z" fill="#B54C90"/>
<path d="M61.3238 3.78271H64.7177V7.56531H61.3238V3.78271Z" fill="#B54C90"/>
<path d="M57.9333 7.56531H61.3238V11.3479H57.9333V7.56531Z" fill="#B54C90"/>
<path d="M54.5394 11.3478H57.9333V15.1341H54.5394V11.3478Z" fill="#B54C90"/>
<path d="M51.1455 15.1342H54.5394V18.9167H51.1455V15.1342Z" fill="#B54C90"/>
<path d="M47.7517 18.9204H51.1456V22.703H47.7517V18.9204Z" fill="#B54C90"/>
<path d="M44.3578 22.7031H47.7483V26.4857H44.3578V22.7031Z" fill="#B54C90"/>
<path d="M40.9639 26.4857H44.3578V30.2683H40.9639V26.4857Z" fill="#B54C90"/>
</svg>
