<svg width="133" height="160" viewBox="0 0 133 160" fill="none" xmlns="http://www.w3.org/2000/svg">
<path d="M87.7976 108.77L103.245 111.11L130.742 7.98386L103.158 5.75409L87.7976 108.77Z" stroke="black" stroke-width="3.96593" stroke-miterlimit="1.5" stroke-linecap="round" stroke-linejoin="round"/>
<path d="M100.876 144.134C100.876 144.838 100.827 145.526 100.715 146.215C100.61 146.903 100.448 147.568 100.238 148.218C100.02 148.867 99.7601 149.477 99.4562 150.064C99.1461 150.643 98.7926 151.183 98.402 151.676C98.0113 152.177 97.5834 152.615 97.1183 153.006C96.6594 153.397 96.1695 153.726 95.661 153.992C95.1463 154.258 94.6191 154.461 94.0734 154.602C93.5277 154.735 92.9758 154.805 92.4238 154.805C91.8657 154.805 91.3138 154.735 90.7743 154.602C90.2285 154.461 89.6953 154.258 89.1867 153.992C88.672 153.726 88.1821 153.397 87.7232 153.006C87.2643 152.615 86.8364 152.177 86.4396 151.676C86.0489 151.183 85.6954 150.643 85.3915 150.064C85.0815 149.477 84.821 148.867 84.6101 148.218C84.3931 147.568 84.238 146.903 84.1264 146.215C84.021 145.526 83.9652 144.838 83.9652 144.134C83.9652 143.43 84.021 142.741 84.1264 142.053C84.238 141.364 84.3931 140.699 84.6101 140.05C84.821 139.4 85.0815 138.79 85.3915 138.203C85.6954 137.624 86.0489 137.085 86.4396 136.592C86.8364 136.091 87.2643 135.653 87.7232 135.262C88.1821 134.87 88.672 134.542 89.1867 134.276C89.6953 134.01 90.2285 133.806 90.7743 133.666C91.3138 133.533 91.8657 133.462 92.4238 133.462C92.9758 133.462 93.5277 133.533 94.0734 133.666C94.6191 133.806 95.1463 134.01 95.661 134.276C96.1695 134.542 96.6594 134.87 97.1183 135.262C97.5834 135.653 98.0113 136.091 98.402 136.592C98.7926 137.085 99.1461 137.624 99.4562 138.203C99.7601 138.79 100.02 139.4 100.238 140.05C100.448 140.699 100.61 141.364 100.715 142.053C100.827 142.741 100.876 143.43 100.876 144.134Z" stroke="black" stroke-width="3.96593" stroke-miterlimit="1.5" stroke-linecap="round" stroke-linejoin="round"/>
<path d="M48.0282 108.77H62.7378L76.8397 1.98297H50.4716L48.0282 108.77Z" stroke="black" stroke-width="3.96593" stroke-miterlimit="1.5" stroke-linecap="round" stroke-linejoin="round"/>
<path d="M64.9455 144.134C64.9455 144.838 64.8896 145.526 64.7842 146.215C64.6726 146.903 64.5114 147.568 64.3005 148.218C64.0897 148.867 63.8292 149.477 63.5191 150.064C63.2091 150.643 62.8618 151.183 62.4712 151.676C62.0743 152.177 61.6464 152.615 61.1875 153.006C60.7224 153.397 60.2386 153.726 59.7239 153.992C59.2092 154.258 58.6821 154.461 58.1364 154.602C57.5907 154.735 57.0449 154.805 56.4868 154.805C55.9349 154.805 55.383 154.735 54.8373 154.602C54.2915 154.461 53.7644 154.258 53.2497 153.992C52.7412 153.726 52.2513 153.397 51.7924 153.006C51.3273 152.615 50.8994 152.177 50.5087 151.676C50.1181 151.183 49.7646 150.643 49.4545 150.064C49.1506 149.477 48.8902 148.867 48.6731 148.218C48.4623 147.568 48.301 146.903 48.1956 146.215C48.084 145.526 48.0282 144.838 48.0282 144.134C48.0282 143.43 48.084 142.741 48.1956 142.053C48.301 141.364 48.4623 140.699 48.6731 140.05C48.8902 139.4 49.1506 138.79 49.4545 138.203C49.7646 137.624 50.1181 137.085 50.5087 136.592C50.8994 136.091 51.3273 135.653 51.7924 135.262C52.2513 134.87 52.7412 134.542 53.2497 134.276C53.7644 134.01 54.2915 133.806 54.8373 133.666C55.383 133.533 55.9349 133.462 56.4868 133.462C57.0449 133.462 57.5907 133.533 58.1364 133.666C58.6821 133.806 59.2092 134.01 59.7239 134.276C60.2386 134.542 60.7224 134.87 61.1875 135.262C61.6464 135.653 62.0743 136.091 62.4712 136.592C62.8618 137.085 63.2091 137.624 63.5191 138.203C63.8292 138.79 64.0897 139.4 64.3005 140.05C64.5114 140.699 64.6726 141.364 64.7842 142.053C64.8896 142.741 64.9455 143.43 64.9455 144.134Z" stroke="black" stroke-width="3.96593" stroke-miterlimit="1.5" stroke-linecap="round" stroke-linejoin="round"/>
<path d="M9.20141 108.77H24.0537L29.3744 1.98297H1.98303L9.20141 108.77Z" stroke="black" stroke-width="3.96593" stroke-miterlimit="1.5" stroke-linecap="round" stroke-linejoin="round"/>
<path d="M26.1992 146.864C26.1992 147.561 26.1497 148.257 26.038 148.945C25.9326 149.634 25.7714 150.299 25.5605 150.948C25.3435 151.59 25.083 152.208 24.7791 152.787C24.4691 153.374 24.1156 153.914 23.725 154.406C23.3343 154.899 22.9064 155.345 22.4413 155.736C21.9824 156.128 21.4924 156.456 20.9839 156.722C20.4692 156.988 19.9421 157.192 19.3964 157.325C18.8507 157.466 18.2987 157.536 17.7468 157.536C17.1887 157.536 16.6368 157.466 16.0973 157.325C15.5515 157.192 15.0245 156.988 14.5097 156.722C13.995 156.456 13.5113 156.128 13.0462 155.736C12.5873 155.345 12.1594 154.899 11.7626 154.406C11.3719 153.914 11.0246 153.374 10.7145 152.787C10.4044 152.208 10.144 151.59 9.93312 150.948C9.72228 150.299 9.56105 149.634 9.44942 148.945C9.344 148.257 9.28821 147.561 9.28821 146.864C9.28821 146.16 9.344 145.472 9.44942 144.783C9.56105 144.095 9.72228 143.43 9.93312 142.78C10.144 142.131 10.4044 141.521 10.7145 140.934C11.0246 140.355 11.3719 139.815 11.7626 139.314C12.1594 138.821 12.5873 138.383 13.0462 137.992C13.5113 137.601 13.995 137.272 14.5097 137.006C15.0245 136.732 15.5515 136.537 16.0973 136.396C16.6368 136.263 17.1887 136.193 17.7468 136.193C18.2987 136.193 18.8507 136.263 19.3964 136.396C19.9421 136.537 20.4692 136.732 20.9839 137.006C21.4924 137.272 21.9824 137.601 22.4413 137.992C22.9064 138.383 23.3343 138.821 23.725 139.314C24.1156 139.815 24.4691 140.355 24.7791 140.934C25.083 141.521 25.3435 142.131 25.5605 142.78C25.7714 143.43 25.9326 144.095 26.038 144.783C26.1497 145.472 26.1992 146.16 26.1992 146.864Z" stroke="black" stroke-width="3.96593" stroke-miterlimit="1.5" stroke-linecap="round" stroke-linejoin="round"/>
</svg>
