<svg width="192" height="200" viewBox="0 0 192 200" fill="none" xmlns="http://www.w3.org/2000/svg">
<path d="M108.444 129.713C78.5175 133.454 84.978 175.141 110.564 155.908C116.168 151.288 119.226 147.065 116.793 139.964C108.925 131.051 97.5115 143.572 108.444 145.727C124.167 151.202 140.653 137.592 151.254 115.784C162.38 92.8951 156.507 61.7233 132.085 64.8032C122.209 66.0476 114.811 72.7206 110.564 86.2688C118.613 75.1549 121.059 65.1609 116.793 56.5124C108.162 65.3009 100.395 97.5616 103.284 110.161C111.314 145.182 141.21 121.329 141.672 102.352C142.035 87.7697 125.105 79.028 116.793 90.6707C108.444 102.352 125.23 102.352 131.466 74.9839C136.581 52.5461 131.465 29.6805 116.793 24.5085C81.3568 12.018 2.42261 51.4961 2.42261 90.6707C2.42261 139.964 32.5491 151.661 47.8281 115.784C52.919 103.853 53.0253 100.042 37.9965 90.6707C-3.4626 64.8032 33.3183 -12.7528 83.4895 5.06513C103.284 12.0959 110.564 33.1181 103.284 64.8032C99.7192 80.3346 93.2336 94.1317 83.4895 90.6707C77.2228 88.4464 80.6188 63.8465 93.2336 56.5124C105.773 49.2328 136.2 36.8823 155.794 63.8465C163.881 74.9837 165.889 91.3162 151.254 102.352C160.723 88.7186 166.814 74.9837 163.881 56.5124C158.803 24.5085 141.672 5.06513 116.793 5.06513C98.7373 5.06513 80.3937 24.5086 83.4895 52.5538C84.7279 63.8466 88.7618 68.9874 98.7373 64.8032C108.444 60.7278 105.173 52.2972 98.7373 46.5653C107.356 38.539 116.443 34.4482 125.912 40.0634C141.71 49.4507 98.7373 102.352 77.6481 102.352C63.7263 102.352 53.3756 90.6707 53.3756 63.8465C53.3756 24.5085 77.6481 -1.39787 103.284 17.4234C122.084 31.2282 110.564 73.2883 77.6481 96.0294C70.2181 101.155 64.827 98.0671 53.3756 96.0294C44.2444 94.3961 39.4037 101.559 37.9965 115.784C36.3516 132.435 47.8281 148.939 58.4415 151.085C71.4189 153.706 82.3137 148.2 93.2336 132.435C98.7373 124.495 98.7373 115.784 93.2336 115.784C86.9168 115.784 62.1189 139.248 77.6481 167.698C98.7373 206.352 181.286 155.907 159.397 115.784C154.6 106.996 148.783 106.257 141.672 115.784C164.713 99.4514 185.708 94.9095 189.311 115.784C193.482 139.964 141.672 212.348 116.793 167.698C123.029 217.792 33.4622 204.742 33.4622 124.845C33.4622 102.352 58.4415 64.8032 73.3077 86.2688C65.3836 98.4948 56.7653 86.2688 43.8379 110.161" stroke="black" stroke-width="4.84504" stroke-miterlimit="1.5" stroke-linecap="round" stroke-linejoin="round"/>
</svg>
