<svg width="258" height="71" viewBox="0 0 258 71" fill="none" xmlns="http://www.w3.org/2000/svg">
<path d="M18.6039 70.9958C17.7222 71 16.8583 70.8919 16.012 70.6799C14.9 70.497 13.8189 70.2227 12.76 69.861C11.7011 69.4994 10.6865 69.0546 9.71177 68.5266C8.73705 67.9987 7.8155 67.4001 6.95154 66.7225C6.08758 66.045 5.29451 65.305 4.5679 64.5027C3.84572 63.6963 3.19886 62.84 2.63175 61.9296C2.06464 61.0193 1.58614 60.0715 1.19625 59.0821C0.810791 58.097 0.513944 57.0868 0.310139 56.0518C0.110763 55.0167 0.00443027 53.9733 0 52.9174C0 49.8164 0.810791 46.9149 2.4368 44.2087C1.6393 42.8785 1.03232 41.4776 0.620278 40.0019C0.203806 38.5262 0 37.0256 0 35.5C0 33.9744 0.203806 32.4738 0.620278 30.9981C1.03232 29.5224 1.6393 28.1173 2.4368 26.7871C0.810791 24.0851 0 21.1836 0 18.0826C0.00443027 17.0267 0.110763 15.9792 0.314569 14.9441C0.513944 13.9049 0.810791 12.8947 1.20068 11.9054C1.595 10.916 2.0735 9.96411 2.64061 9.05375C3.21215 8.14338 3.85901 7.2829 4.58562 6.47646C5.31666 5.67002 6.11416 4.93009 6.97812 4.25667C7.84651 3.5791 8.76807 2.97635 9.74722 2.45258C10.7264 1.92465 11.7454 1.48402 12.8043 1.12237C13.8676 0.760714 14.9531 0.490516 16.0652 0.307611C16.8981 0.103923 17.7399 0 18.5995 0H238.638C239.059 0 239.476 0.0124713 239.892 0.0374122C240.313 0.0623542 240.73 0.103923 241.142 0.153806C241.558 0.203689 241.97 0.266043 242.382 0.340867C242.79 0.415691 243.198 0.502986 243.601 0.602752C244.008 0.702518 244.407 0.814755 244.806 0.939461C245.2 1.06417 245.594 1.20135 245.98 1.351C246.365 1.49649 246.746 1.65861 247.123 1.82904C247.5 1.99947 247.872 2.18238 248.235 2.37359C248.598 2.56897 248.953 2.77266 249.303 2.98882C249.653 3.20498 249.994 3.42945 250.326 3.66224C250.659 3.89918 250.986 4.14444 251.301 4.40217C251.62 4.65574 251.926 4.92178 252.223 5.19614C252.524 5.47049 252.812 5.75316 253.087 6.04415C253.366 6.33513 253.636 6.63443 253.893 6.94204C254.15 7.24965 254.398 7.56557 254.633 7.88981C254.868 8.2099 255.094 8.54245 255.306 8.87916C255.519 9.21171 255.718 9.55673 255.909 9.90591C256.099 10.2509 256.277 10.6084 256.44 10.9659C256.604 11.3234 256.755 11.6892 256.897 12.055C257.034 12.425 257.163 12.7991 257.273 13.1732C257.389 13.5515 257.486 13.9298 257.575 14.3122C257.663 14.6947 257.734 15.0771 257.796 15.4637C257.858 15.8503 257.903 16.2369 257.938 16.6276C257.969 17.0184 257.991 17.4091 257.996 17.7999C258.004 18.1906 257.996 18.5772 257.978 18.968C257.956 19.3587 257.92 19.7495 257.872 20.1361C257.827 20.5268 257.765 20.9093 257.69 21.2958C257.615 21.6783 257.526 22.0607 257.428 22.439C257.327 22.8214 257.211 23.1955 257.083 23.5697C256.959 23.9396 256.817 24.3096 256.666 24.6713C256.511 25.0371 256.347 25.3946 256.17 25.7479C255.993 26.1012 255.802 26.4504 255.599 26.7913C256.387 28.1256 256.985 29.5307 257.389 31.0064C257.796 32.4779 258 33.9786 258 35.5C258 37.0256 257.796 38.5221 257.389 39.9978C256.985 41.4735 256.387 42.8744 255.599 44.2087C255.802 44.5537 255.993 44.8988 256.17 45.2521C256.347 45.6096 256.511 45.9671 256.666 46.3287C256.817 46.6946 256.959 47.0604 257.083 47.4345C257.211 47.8044 257.327 48.1827 257.428 48.561C257.526 48.9393 257.615 49.3217 257.69 49.7083C257.765 50.0907 257.827 50.4773 257.872 50.8639C257.92 51.2547 257.956 51.6413 257.978 52.032C257.996 52.4228 258.004 52.8135 257.996 53.2043C257.991 53.595 257.969 53.9858 257.938 54.3724C257.903 54.7631 257.858 55.1497 257.796 55.5363C257.734 55.9229 257.663 56.3095 257.575 56.6919C257.486 57.0744 257.389 57.4526 257.273 57.8268C257.163 58.205 257.034 58.575 256.897 58.945C256.755 59.3149 256.604 59.6766 256.44 60.0341C256.277 60.3957 256.099 60.7491 255.909 61.0982C255.718 61.4474 255.519 61.7883 255.306 62.125C255.094 62.4617 254.868 62.7901 254.633 63.1143C254.398 63.4344 254.15 63.7504 253.893 64.058C253.636 64.3656 253.366 64.6649 253.087 64.9558C252.812 65.251 252.524 65.5337 252.223 65.808C251.926 66.0824 251.62 66.3443 251.301 66.602C250.986 66.8556 250.659 67.1008 250.326 67.3378C249.994 67.5747 249.653 67.7992 249.303 68.0153C248.953 68.2273 248.598 68.4352 248.235 68.6264C247.872 68.8218 247.5 69.0047 247.123 69.1751C246.746 69.3456 246.365 69.5035 245.98 69.6532C245.594 69.7987 245.2 69.9358 244.806 70.0605C244.407 70.1852 244.008 70.2975 243.601 70.3972C243.198 70.497 242.79 70.5843 242.382 70.6591C241.97 70.7381 241.558 70.8005 241.142 70.8503C240.73 70.9002 240.313 70.9376 239.892 70.9626C239.476 70.9875 239.059 71 238.638 71L18.6039 70.9958Z" fill="#FFF5EC"/>
<path d="M32.5026 26.7248C32.5026 26.8952 32.4671 27.0615 32.4007 27.2153C32.3298 27.3733 32.2323 27.5146 32.1038 27.6352C31.9709 27.7516 31.8247 27.8472 31.6564 27.9095C31.488 27.976 31.3108 28.0093 31.1291 28.0093C30.9475 28.0093 30.7747 27.976 30.6063 27.9095C30.438 27.8472 30.2873 27.7516 30.1588 27.6352C30.0303 27.5146 29.9329 27.3733 29.862 27.2153C29.7911 27.0615 29.7556 26.8952 29.7556 26.7248C29.7556 26.5544 29.7911 26.3922 29.862 26.2343C29.9329 26.0763 30.0303 25.9391 30.1588 25.8186C30.2873 25.698 30.438 25.6066 30.6063 25.5401C30.7747 25.4777 30.9475 25.4445 31.1291 25.4445C31.3108 25.4445 31.488 25.4777 31.6564 25.5401C31.8247 25.6066 31.9709 25.698 32.1038 25.8186C32.2323 25.9391 32.3298 26.0763 32.4007 26.2343C32.4671 26.3922 32.5026 26.5544 32.5026 26.7248Z" fill="#1D1D1B"/>
<path d="M47.5089 26.7248C47.5089 26.8952 47.4735 27.0615 47.4026 27.2153C47.3317 27.3733 47.2342 27.5146 47.1057 27.6352C46.9772 27.7516 46.8266 27.8472 46.6582 27.9095C46.4899 27.976 46.3171 28.0093 46.1354 28.0093C45.9538 28.0093 45.7766 27.976 45.6082 27.9095C45.4398 27.8472 45.2892 27.7516 45.1607 27.6352C45.0322 27.5146 44.9348 27.3733 44.8639 27.2153C44.793 27.0615 44.762 26.8952 44.762 26.7248C44.762 26.5544 44.793 26.3922 44.8639 26.2343C44.9348 26.0763 45.0322 25.9391 45.1607 25.8186C45.2892 25.698 45.4398 25.6066 45.6082 25.5401C45.7766 25.4777 45.9538 25.4445 46.1354 25.4445C46.3171 25.4445 46.4899 25.4777 46.6582 25.5401C46.8266 25.6066 46.9772 25.698 47.1057 25.8186C47.2342 25.9391 47.3317 26.0763 47.4026 26.2343C47.4735 26.3922 47.5089 26.5544 47.5089 26.7248Z" fill="#1D1D1B"/>
<path d="M62.5108 26.7248C62.5108 26.8952 62.4754 27.0615 62.4045 27.2153C62.338 27.3733 62.2361 27.5146 62.1076 27.6352C61.9792 27.7516 61.833 27.8472 61.6646 27.9095C61.4962 27.976 61.319 28.0093 61.1374 28.0093C60.9557 28.0093 60.7785 27.976 60.6101 27.9095C60.4418 27.8472 60.2956 27.7516 60.1671 27.6352C60.0386 27.5146 59.9367 27.3733 59.8702 27.2153C59.7993 27.0615 59.7639 26.8952 59.7639 26.7248C59.7639 26.5544 59.7993 26.3922 59.8702 26.2343C59.9367 26.0763 60.0386 25.9391 60.1671 25.8186C60.2956 25.698 60.4418 25.6066 60.6101 25.5401C60.7785 25.4777 60.9557 25.4445 61.1374 25.4445C61.319 25.4445 61.4962 25.4777 61.6646 25.5401C61.833 25.6066 61.9792 25.698 62.1076 25.8186C62.2361 25.9391 62.338 26.0763 62.4045 26.2343C62.4754 26.3922 62.5108 26.5544 62.5108 26.7248Z" fill="#1D1D1B"/>
<path d="M77.5127 26.7248C77.5127 26.8952 77.4773 27.0615 77.4108 27.2153C77.3399 27.3733 77.2425 27.5146 77.114 27.6352C76.9811 27.7516 76.8348 27.8472 76.6665 27.9095C76.4981 27.976 76.3209 28.0093 76.1392 28.0093C75.9576 28.0093 75.7848 27.976 75.6164 27.9095C75.4481 27.8472 75.2974 27.7516 75.169 27.6352C75.0405 27.5146 74.943 27.3733 74.8721 27.2153C74.8012 27.0615 74.7658 26.8952 74.7658 26.7248C74.7658 26.5544 74.8012 26.3922 74.8721 26.2343C74.943 26.0763 75.0405 25.9391 75.169 25.8186C75.2974 25.698 75.4481 25.6066 75.6164 25.5401C75.7848 25.4777 75.9576 25.4445 76.1392 25.4445C76.3209 25.4445 76.4981 25.4777 76.6665 25.5401C76.8348 25.6066 76.9811 25.698 77.114 25.8186C77.2425 25.9391 77.3399 26.0763 77.4108 26.2343C77.4773 26.3922 77.5127 26.5544 77.5127 26.7248Z" fill="#1D1D1B"/>
<path d="M92.5189 26.7248C92.5189 26.8952 92.4834 27.0615 92.4125 27.2153C92.3416 27.3733 92.2442 27.5146 92.1157 27.6352C91.9872 27.7516 91.8365 27.8472 91.6682 27.9095C91.4998 27.976 91.327 28.0093 91.1454 28.0093C90.9637 28.0093 90.7865 27.976 90.6181 27.9095C90.4498 27.8472 90.2991 27.7516 90.1707 27.6352C90.0422 27.5146 89.9447 27.3733 89.8738 27.2153C89.8029 27.0615 89.7719 26.8952 89.7719 26.7248C89.7719 26.5544 89.8029 26.3922 89.8738 26.2343C89.9447 26.0763 90.0422 25.9391 90.1707 25.8186C90.2991 25.698 90.4498 25.6066 90.6181 25.5401C90.7865 25.4777 90.9637 25.4445 91.1454 25.4445C91.327 25.4445 91.4998 25.4777 91.6682 25.5401C91.8365 25.6066 91.9872 25.698 92.1157 25.8186C92.2442 25.9391 92.3416 26.0763 92.4125 26.2343C92.4834 26.3922 92.5189 26.5544 92.5189 26.7248Z" fill="#1D1D1B"/>
<path d="M107.521 26.7248C107.521 26.8952 107.485 27.0615 107.414 27.2153C107.348 27.3733 107.246 27.5146 107.118 27.6352C106.989 27.7516 106.843 27.8472 106.675 27.9095C106.506 27.976 106.329 28.0093 106.147 28.0093C105.966 28.0093 105.788 27.976 105.62 27.9095C105.452 27.8472 105.305 27.7516 105.177 27.6352C105.048 27.5146 104.947 27.3733 104.88 27.2153C104.809 27.0615 104.774 26.8952 104.774 26.7248C104.774 26.5544 104.809 26.3922 104.88 26.2343C104.947 26.0763 105.048 25.9391 105.177 25.8186C105.305 25.698 105.452 25.6066 105.62 25.5401C105.788 25.4777 105.966 25.4445 106.147 25.4445C106.329 25.4445 106.506 25.4777 106.675 25.5401C106.843 25.6066 106.989 25.698 107.118 25.8186C107.246 25.9391 107.348 26.0763 107.414 26.2343C107.485 26.3922 107.521 26.5544 107.521 26.7248Z" fill="#1D1D1B"/>
<path d="M122.523 26.7248C122.523 26.8952 122.487 27.0615 122.421 27.2153C122.35 27.3733 122.252 27.5146 122.124 27.6352C121.991 27.7516 121.845 27.8472 121.676 27.9095C121.508 27.976 121.331 28.0093 121.149 28.0093C120.968 28.0093 120.795 27.976 120.626 27.9095C120.458 27.8472 120.307 27.7516 120.179 27.6352C120.05 27.5146 119.953 27.3733 119.882 27.2153C119.811 27.0615 119.776 26.8952 119.776 26.7248C119.776 26.5544 119.811 26.3922 119.882 26.2343C119.953 26.0763 120.05 25.9391 120.179 25.8186C120.307 25.698 120.458 25.6066 120.626 25.5401C120.795 25.4777 120.968 25.4445 121.149 25.4445C121.331 25.4445 121.508 25.4777 121.676 25.5401C121.845 25.6066 121.991 25.698 122.124 25.8186C122.252 25.9391 122.35 26.0763 122.421 26.2343C122.492 26.3922 122.523 26.5544 122.523 26.7248Z" fill="#1D1D1B"/>
<path d="M137.529 26.7248C137.529 26.8952 137.494 27.0615 137.423 27.2153C137.356 27.3733 137.254 27.5146 137.126 27.6352C136.997 27.7516 136.847 27.8472 136.678 27.9095C136.51 27.976 136.337 28.0093 136.156 28.0093C135.974 28.0093 135.797 27.976 135.628 27.9095C135.46 27.8472 135.314 27.7516 135.185 27.6352C135.057 27.5146 134.955 27.3733 134.884 27.2153C134.817 27.0615 134.782 26.8952 134.782 26.7248C134.782 26.5544 134.817 26.3922 134.884 26.2343C134.955 26.0763 135.057 25.9391 135.185 25.8186C135.314 25.698 135.46 25.6066 135.628 25.5401C135.797 25.4777 135.974 25.4445 136.156 25.4445C136.337 25.4445 136.51 25.4777 136.678 25.5401C136.847 25.6066 136.997 25.698 137.126 25.8186C137.254 25.9391 137.356 26.0763 137.423 26.2343C137.494 26.3922 137.529 26.5544 137.529 26.7248Z" fill="#1D1D1B"/>
<path d="M152.531 26.7248C152.531 26.8952 152.495 27.0615 152.429 27.2153C152.358 27.3733 152.256 27.5146 152.128 27.6352C151.999 27.7516 151.853 27.8472 151.684 27.9095C151.516 27.976 151.339 28.0093 151.157 28.0093C150.976 28.0093 150.803 27.976 150.634 27.9095C150.466 27.8472 150.315 27.7516 150.187 27.6352C150.058 27.5146 149.957 27.3733 149.89 27.2153C149.819 27.0615 149.784 26.8952 149.784 26.7248C149.784 26.5544 149.819 26.3922 149.89 26.2343C149.957 26.0763 150.058 25.9391 150.187 25.8186C150.315 25.698 150.466 25.6066 150.634 25.5401C150.803 25.4777 150.976 25.4445 151.157 25.4445C151.339 25.4445 151.516 25.4777 151.684 25.5401C151.853 25.6066 151.999 25.698 152.128 25.8186C152.256 25.9391 152.358 26.0763 152.429 26.2343C152.495 26.3922 152.531 26.5544 152.531 26.7248Z" fill="#1D1D1B"/>
<path d="M167.537 26.7248C167.537 26.8952 167.502 27.0615 167.431 27.2153C167.36 27.3733 167.262 27.5146 167.134 27.6352C167.005 27.7516 166.855 27.8472 166.686 27.9095C166.518 27.976 166.345 28.0093 166.164 28.0093C165.977 28.0093 165.805 27.976 165.636 27.9095C165.468 27.8472 165.317 27.7516 165.189 27.6352C165.06 27.5146 164.963 27.3733 164.892 27.2153C164.821 27.0615 164.786 26.8952 164.786 26.7248C164.786 26.5544 164.821 26.3922 164.892 26.2343C164.963 26.0763 165.06 25.9391 165.189 25.8186C165.317 25.698 165.468 25.6066 165.636 25.5401C165.805 25.4777 165.977 25.4445 166.164 25.4445C166.345 25.4445 166.518 25.4777 166.686 25.5401C166.855 25.6066 167.005 25.698 167.134 25.8186C167.262 25.9391 167.36 26.0763 167.431 26.2343C167.502 26.3922 167.537 26.5544 167.537 26.7248Z" fill="#1D1D1B"/>
<path d="M182.539 26.7248C182.539 26.8952 182.503 27.0615 182.433 27.2153C182.366 27.3733 182.264 27.5146 182.136 27.6352C182.007 27.7516 181.857 27.8472 181.688 27.9095C181.524 27.976 181.347 28.0093 181.165 28.0093C180.984 28.0093 180.807 27.976 180.638 27.9095C180.47 27.8472 180.324 27.7516 180.195 27.6352C180.067 27.5146 179.965 27.3733 179.894 27.2153C179.827 27.0615 179.792 26.8952 179.792 26.7248C179.792 26.5544 179.827 26.3922 179.894 26.2343C179.965 26.0763 180.067 25.9391 180.195 25.8186C180.324 25.698 180.47 25.6066 180.638 25.5401C180.807 25.4777 180.984 25.4445 181.165 25.4445C181.347 25.4445 181.524 25.4777 181.688 25.5401C181.857 25.6066 182.007 25.698 182.136 25.8186C182.264 25.9391 182.366 26.0763 182.433 26.2343C182.503 26.3922 182.539 26.5544 182.539 26.7248Z" fill="#1D1D1B"/>
<path d="M197.541 26.7248C197.541 26.8952 197.505 27.0615 197.439 27.2153C197.368 27.3733 197.271 27.5146 197.138 27.6352C197.009 27.7516 196.863 27.8472 196.695 27.9095C196.526 27.976 196.349 28.0093 196.167 28.0093C195.986 28.0093 195.813 27.976 195.645 27.9095C195.476 27.8472 195.326 27.7516 195.197 27.6352C195.069 27.5146 194.967 27.3733 194.9 27.2153C194.829 27.0615 194.794 26.8952 194.794 26.7248C194.794 26.5544 194.829 26.3922 194.9 26.2343C194.967 26.0763 195.069 25.9391 195.197 25.8186C195.326 25.698 195.476 25.6066 195.645 25.5401C195.813 25.4777 195.986 25.4445 196.167 25.4445C196.349 25.4445 196.526 25.4777 196.695 25.5401C196.863 25.6066 197.009 25.698 197.138 25.8186C197.271 25.9391 197.368 26.0763 197.439 26.2343C197.505 26.3922 197.541 26.5544 197.541 26.7248Z" fill="#1D1D1B"/>
<path d="M212.547 26.7248C212.547 26.8952 212.512 27.0615 212.441 27.2153C212.37 27.3733 212.272 27.5146 212.144 27.6352C212.015 27.7516 211.865 27.8472 211.696 27.9095C211.528 27.976 211.355 28.0093 211.174 28.0093C210.987 28.0093 210.815 27.976 210.646 27.9095C210.478 27.8472 210.327 27.7516 210.199 27.6352C210.07 27.5146 209.973 27.3733 209.902 27.2153C209.831 27.0615 209.796 26.8952 209.796 26.7248C209.796 26.5544 209.831 26.3922 209.902 26.2343C209.973 26.0763 210.07 25.9391 210.199 25.8186C210.327 25.698 210.478 25.6066 210.646 25.5401C210.815 25.4777 210.987 25.4445 211.174 25.4445C211.355 25.4445 211.528 25.4777 211.696 25.5401C211.865 25.6066 212.015 25.698 212.144 25.8186C212.272 25.9391 212.37 26.0763 212.441 26.2343C212.512 26.3922 212.547 26.5544 212.547 26.7248Z" fill="#1D1D1B"/>
<path d="M227.549 26.7248C227.549 26.8952 227.514 27.0615 227.443 27.2153C227.376 27.3733 227.274 27.5146 227.146 27.6352C227.017 27.7516 226.871 27.8472 226.703 27.9095C226.534 27.976 226.357 28.0093 226.175 28.0093C225.994 28.0093 225.817 27.976 225.648 27.9095C225.48 27.8472 225.334 27.7516 225.205 27.6352C225.077 27.5146 224.975 27.3733 224.904 27.2153C224.837 27.0615 224.802 26.8952 224.802 26.7248C224.802 26.5544 224.837 26.3922 224.904 26.2343C224.975 26.0763 225.077 25.9391 225.205 25.8186C225.334 25.698 225.48 25.6066 225.648 25.5401C225.817 25.4777 225.994 25.4445 226.175 25.4445C226.357 25.4445 226.534 25.4777 226.703 25.5401C226.871 25.6066 227.017 25.698 227.146 25.8186C227.274 25.9391 227.376 26.0763 227.443 26.2343C227.514 26.3922 227.549 26.5544 227.549 26.7248Z" fill="#1D1D1B"/>
<path d="M32.8527 45.0776C32.8527 45.248 32.8173 45.4101 32.7464 45.5681C32.6755 45.726 32.5781 45.8632 32.4496 45.9838C32.3211 46.1043 32.1704 46.1958 32.0021 46.2623C31.8337 46.3288 31.6609 46.3579 31.4793 46.3579C31.2976 46.3579 31.1204 46.3288 30.952 46.2623C30.7837 46.1958 30.6375 46.1043 30.5046 45.9838C30.3761 45.8632 30.2786 45.726 30.2077 45.5681C30.1412 45.4101 30.1058 45.248 30.1058 45.0776C30.1058 44.9071 30.1412 44.745 30.2077 44.587C30.2786 44.4291 30.3761 44.2919 30.5046 44.1714C30.6375 44.0508 30.7837 43.9552 30.952 43.8928C31.1204 43.8263 31.2976 43.7931 31.4793 43.7931C31.6609 43.7931 31.8337 43.8263 32.0021 43.8928C32.1704 43.9552 32.3211 44.0508 32.4496 44.1714C32.5781 44.2919 32.6755 44.4291 32.7464 44.587C32.8173 44.745 32.8527 44.9071 32.8527 45.0776Z" fill="#1D1D1B"/>
<path d="M47.8545 45.0776C47.8545 45.248 47.819 45.4101 47.7526 45.5681C47.6817 45.726 47.5798 45.8632 47.4513 45.9838C47.3228 46.1043 47.1766 46.1958 47.0082 46.2623C46.8399 46.3288 46.6626 46.3579 46.481 46.3579C46.2993 46.3579 46.1221 46.3288 45.9537 46.2623C45.7854 46.1958 45.6392 46.1043 45.5107 45.9838C45.3822 45.8632 45.2803 45.726 45.2138 45.5681C45.143 45.4101 45.1075 45.248 45.1075 45.0776C45.1075 44.9071 45.143 44.745 45.2138 44.587C45.2803 44.4291 45.3822 44.2919 45.5107 44.1714C45.6392 44.0508 45.7854 43.9552 45.9537 43.8928C46.1221 43.8263 46.2993 43.7931 46.481 43.7931C46.6626 43.7931 46.8399 43.8263 47.0082 43.8928C47.1766 43.9552 47.3228 44.0508 47.4513 44.1714C47.5798 44.2919 47.6817 44.4291 47.7526 44.587C47.819 44.745 47.8545 44.9071 47.8545 45.0776Z" fill="#1D1D1B"/>
<path d="M62.8563 45.0776C62.8563 45.248 62.8253 45.4101 62.7544 45.5681C62.6836 45.726 62.5861 45.8632 62.4576 45.9838C62.3291 46.1043 62.1785 46.1958 62.0101 46.2623C61.8418 46.3288 61.669 46.3579 61.4829 46.3579C61.3012 46.3579 61.1284 46.3288 60.9601 46.2623C60.7917 46.1958 60.6411 46.1043 60.5126 45.9838C60.3841 45.8632 60.2866 45.726 60.2157 45.5681C60.1448 45.4101 60.1094 45.248 60.1094 45.0776C60.1094 44.9071 60.1448 44.745 60.2157 44.587C60.2866 44.4291 60.3841 44.2919 60.5126 44.1714C60.6411 44.0508 60.7917 43.9552 60.9601 43.8928C61.1284 43.8263 61.3012 43.7931 61.4829 43.7931C61.669 43.7931 61.8418 43.8263 62.0101 43.8928C62.1785 43.9552 62.3291 44.0508 62.4576 44.1714C62.5861 44.2919 62.6836 44.4291 62.7544 44.587C62.8253 44.745 62.8563 44.9071 62.8563 45.0776Z" fill="#1D1D1B"/>
<path d="M77.8627 45.0776C77.8627 45.248 77.8273 45.4101 77.7564 45.5681C77.6855 45.726 77.588 45.8632 77.4595 45.9838C77.331 46.1043 77.1804 46.1958 77.012 46.2623C76.8437 46.3288 76.6709 46.3579 76.4892 46.3579C76.3076 46.3579 76.1304 46.3288 75.962 46.2623C75.7936 46.1958 75.6474 46.1043 75.5189 45.9838C75.386 45.8632 75.2885 45.726 75.2177 45.5681C75.1512 45.4101 75.1158 45.248 75.1158 45.0776C75.1158 44.9071 75.1512 44.745 75.2177 44.587C75.2885 44.4291 75.386 44.2919 75.5189 44.1714C75.6474 44.0508 75.7936 43.9552 75.962 43.8928C76.1304 43.8263 76.3076 43.7931 76.4892 43.7931C76.6709 43.7931 76.8437 43.8263 77.012 43.8928C77.1804 43.9552 77.331 44.0508 77.4595 44.1714C77.588 44.2919 77.6855 44.4291 77.7564 44.587C77.8273 44.745 77.8627 44.9071 77.8627 45.0776Z" fill="#1D1D1B"/>
<path d="M92.8646 45.0776C92.8646 45.248 92.8291 45.4101 92.7627 45.5681C92.6918 45.726 92.5899 45.8632 92.4614 45.9838C92.3329 46.1043 92.1867 46.1958 92.0184 46.2623C91.85 46.3288 91.6728 46.3579 91.4911 46.3579C91.3095 46.3579 91.1322 46.3288 90.9639 46.2623C90.7955 46.1958 90.6493 46.1043 90.5208 45.9838C90.3923 45.8632 90.2904 45.726 90.224 45.5681C90.1531 45.4101 90.1176 45.248 90.1176 45.0776C90.1176 44.9071 90.1531 44.745 90.224 44.587C90.2904 44.4291 90.3923 44.2919 90.5208 44.1714C90.6493 44.0508 90.7955 43.9552 90.9639 43.8928C91.1322 43.8263 91.3095 43.7931 91.4911 43.7931C91.6728 43.7931 91.85 43.8263 92.0184 43.8928C92.1867 43.9552 92.3329 44.0508 92.4614 44.1714C92.5899 44.2919 92.6918 44.4291 92.7627 44.587C92.8291 44.745 92.8646 44.9071 92.8646 45.0776Z" fill="#1D1D1B"/>
<path d="M107.866 45.0776C107.866 45.248 107.835 45.4101 107.764 45.5681C107.694 45.726 107.596 45.8632 107.468 45.9838C107.339 46.1043 107.188 46.1958 107.02 46.2623C106.852 46.3288 106.679 46.3579 106.493 46.3579C106.311 46.3579 106.138 46.3288 105.97 46.2623C105.802 46.1958 105.651 46.1043 105.523 45.9838C105.394 45.8632 105.297 45.726 105.226 45.5681C105.155 45.4101 105.119 45.248 105.119 45.0776C105.119 44.9071 105.155 44.745 105.226 44.587C105.297 44.4291 105.394 44.2919 105.523 44.1714C105.651 44.0508 105.802 43.9552 105.97 43.8928C106.138 43.8263 106.311 43.7931 106.493 43.7931C106.679 43.7931 106.852 43.8263 107.02 43.8928C107.188 43.9552 107.339 44.0508 107.468 44.1714C107.596 44.2919 107.694 44.4291 107.764 44.587C107.835 44.745 107.866 44.9071 107.866 45.0776Z" fill="#1D1D1B"/>
<path d="M122.873 45.0776C122.873 45.248 122.837 45.4101 122.766 45.5681C122.695 45.726 122.598 45.8632 122.469 45.9838C122.341 46.1043 122.19 46.1958 122.022 46.2623C121.854 46.3288 121.681 46.3579 121.499 46.3579C121.318 46.3579 121.14 46.3288 120.972 46.2623C120.804 46.1958 120.657 46.1043 120.529 45.9838C120.396 45.8632 120.298 45.726 120.228 45.5681C120.161 45.4101 120.126 45.248 120.126 45.0776C120.126 44.9071 120.161 44.745 120.228 44.587C120.298 44.4291 120.396 44.2919 120.529 44.1714C120.657 44.0508 120.804 43.9552 120.972 43.8928C121.14 43.8263 121.318 43.7931 121.499 43.7931C121.681 43.7931 121.854 43.8263 122.022 43.8928C122.19 43.9552 122.341 44.0508 122.469 44.1714C122.598 44.2919 122.695 44.4291 122.766 44.587C122.837 44.745 122.873 44.9071 122.873 45.0776Z" fill="#1D1D1B"/>
<path d="M137.875 45.0776C137.875 45.248 137.839 45.4101 137.773 45.5681C137.702 45.726 137.604 45.8632 137.476 45.9838C137.343 46.1043 137.197 46.1958 137.028 46.2623C136.86 46.3288 136.683 46.3579 136.501 46.3579C136.319 46.3579 136.147 46.3288 135.978 46.2623C135.81 46.1958 135.659 46.1043 135.531 45.9838C135.402 45.8632 135.305 45.726 135.234 45.5681C135.163 45.4101 135.128 45.248 135.128 45.0776C135.128 44.9071 135.163 44.745 135.234 44.587C135.305 44.4291 135.402 44.2919 135.531 44.1714C135.659 44.0508 135.81 43.9552 135.978 43.8928C136.147 43.8263 136.319 43.7931 136.501 43.7931C136.683 43.7931 136.86 43.8263 137.028 43.8928C137.197 43.9552 137.343 44.0508 137.476 44.1714C137.604 44.2919 137.702 44.4291 137.773 44.587C137.839 44.745 137.875 44.9071 137.875 45.0776Z" fill="#1D1D1B"/>
<path d="M152.881 45.0776C152.881 45.248 152.845 45.4101 152.775 45.5681C152.704 45.726 152.606 45.8632 152.478 45.9838C152.349 46.1043 152.199 46.1958 152.03 46.2623C151.862 46.3288 151.689 46.3579 151.507 46.3579C151.321 46.3579 151.149 46.3288 150.98 46.2623C150.812 46.1958 150.661 46.1043 150.533 45.9838C150.404 45.8632 150.307 45.726 150.236 45.5681C150.165 45.4101 150.134 45.248 150.134 45.0776C150.134 44.9071 150.165 44.745 150.236 44.587C150.307 44.4291 150.404 44.2919 150.533 44.1714C150.661 44.0508 150.812 43.9552 150.98 43.8928C151.149 43.8263 151.321 43.7931 151.507 43.7931C151.689 43.7931 151.862 43.8263 152.03 43.8928C152.199 43.9552 152.349 44.0508 152.478 44.1714C152.606 44.2919 152.704 44.4291 152.775 44.587C152.845 44.745 152.881 44.9071 152.881 45.0776Z" fill="#1D1D1B"/>
<path d="M167.883 45.0776C167.883 45.248 167.847 45.4101 167.776 45.5681C167.71 45.726 167.608 45.8632 167.479 45.9838C167.351 46.1043 167.205 46.1958 167.036 46.2623C166.868 46.3288 166.691 46.3579 166.509 46.3579C166.327 46.3579 166.15 46.3288 165.982 46.2623C165.813 46.1958 165.667 46.1043 165.539 45.9838C165.41 45.8632 165.308 45.726 165.242 45.5681C165.171 45.4101 165.136 45.248 165.136 45.0776C165.136 44.9071 165.171 44.745 165.242 44.587C165.308 44.4291 165.41 44.2919 165.539 44.1714C165.667 44.0508 165.813 43.9552 165.982 43.8928C166.15 43.8263 166.327 43.7931 166.509 43.7931C166.691 43.7931 166.868 43.8263 167.036 43.8928C167.205 43.9552 167.351 44.0508 167.479 44.1714C167.608 44.2919 167.71 44.4291 167.776 44.587C167.847 44.745 167.883 44.9071 167.883 45.0776Z" fill="#1D1D1B"/>
<path d="M182.884 45.0776C182.884 45.248 182.849 45.4101 182.783 45.5681C182.712 45.726 182.614 45.8632 182.486 45.9838C182.353 46.1043 182.207 46.1958 182.038 46.2623C181.87 46.3288 181.693 46.3579 181.511 46.3579C181.329 46.3579 181.157 46.3288 180.988 46.2623C180.82 46.1958 180.669 46.1043 180.541 45.9838C180.412 45.8632 180.315 45.726 180.244 45.5681C180.173 45.4101 180.138 45.248 180.138 45.0776C180.138 44.9071 180.173 44.745 180.244 44.587C180.315 44.4291 180.412 44.2919 180.541 44.1714C180.669 44.0508 180.82 43.9552 180.988 43.8928C181.157 43.8263 181.329 43.7931 181.511 43.7931C181.693 43.7931 181.87 43.8263 182.038 43.8928C182.207 43.9552 182.353 44.0508 182.486 44.1714C182.614 44.2919 182.712 44.4291 182.783 44.587C182.849 44.745 182.884 44.9071 182.884 45.0776Z" fill="#1D1D1B"/>
<path d="M197.891 45.0776C197.891 45.248 197.855 45.4101 197.784 45.5681C197.714 45.726 197.616 45.8632 197.488 45.9838C197.359 46.1043 197.208 46.1958 197.04 46.2623C196.872 46.3288 196.699 46.3579 196.517 46.3579C196.336 46.3579 196.158 46.3288 195.99 46.2623C195.822 46.1958 195.671 46.1043 195.543 45.9838C195.414 45.8632 195.317 45.726 195.246 45.5681C195.175 45.4101 195.144 45.248 195.144 45.0776C195.144 44.9071 195.175 44.745 195.246 44.587C195.317 44.4291 195.414 44.2919 195.543 44.1714C195.671 44.0508 195.822 43.9552 195.99 43.8928C196.158 43.8263 196.336 43.7931 196.517 43.7931C196.699 43.7931 196.872 43.8263 197.04 43.8928C197.208 43.9552 197.359 44.0508 197.488 44.1714C197.616 44.2919 197.714 44.4291 197.784 44.587C197.855 44.745 197.891 44.9071 197.891 45.0776Z" fill="#1D1D1B"/>
<path d="M212.893 45.0776C212.893 45.248 212.857 45.4101 212.786 45.5681C212.72 45.726 212.618 45.8632 212.49 45.9838C212.361 46.1043 212.215 46.1958 212.046 46.2623C211.878 46.3288 211.701 46.3579 211.519 46.3579C211.338 46.3579 211.16 46.3288 210.992 46.2623C210.824 46.1958 210.677 46.1043 210.549 45.9838C210.42 45.8632 210.319 45.726 210.252 45.5681C210.181 45.4101 210.146 45.248 210.146 45.0776C210.146 44.9071 210.181 44.745 210.252 44.587C210.319 44.4291 210.42 44.2919 210.549 44.1714C210.677 44.0508 210.824 43.9552 210.992 43.8928C211.16 43.8263 211.338 43.7931 211.519 43.7931C211.701 43.7931 211.878 43.8263 212.046 43.8928C212.215 43.9552 212.361 44.0508 212.49 44.1714C212.618 44.2919 212.72 44.4291 212.786 44.587C212.857 44.745 212.893 44.9071 212.893 45.0776Z" fill="#1D1D1B"/>
<path d="M227.895 45.0776C227.895 45.248 227.864 45.4101 227.793 45.5681C227.722 45.726 227.624 45.8632 227.496 45.9838C227.363 46.1043 227.217 46.1958 227.048 46.2623C226.88 46.3288 226.703 46.3579 226.521 46.3579C226.339 46.3579 226.167 46.3288 225.998 46.2623C225.83 46.1958 225.679 46.1043 225.551 45.9838C225.422 45.8632 225.325 45.726 225.254 45.5681C225.183 45.4101 225.148 45.248 225.148 45.0776C225.148 44.9071 225.183 44.745 225.254 44.587C225.325 44.4291 225.422 44.2919 225.551 44.1714C225.679 44.0508 225.83 43.9552 225.998 43.8928C226.167 43.8263 226.339 43.7931 226.521 43.7931C226.703 43.7931 226.88 43.8263 227.048 43.8928C227.217 43.9552 227.363 44.0508 227.496 44.1714C227.624 44.2919 227.722 44.4291 227.793 44.587C227.864 44.745 227.895 44.9071 227.895 45.0776Z" fill="#1D1D1B"/>
<path d="M249.148 35.5041C249.148 34.6187 249.024 33.7541 248.771 32.9019C248.523 32.0539 248.155 31.2475 247.673 30.4909C247.19 29.7302 246.605 29.0485 245.927 28.4332C245.245 27.8222 244.487 27.3067 243.658 26.8869C243.601 26.8495 243.539 26.8162 243.477 26.7913C244.469 26.3132 245.351 25.698 246.126 24.9539C246.853 24.2639 247.46 23.4948 247.938 22.6385C248.421 21.7822 248.762 20.8801 248.957 19.9324C249.152 18.9804 249.197 18.0285 249.09 17.0641C248.984 16.1039 248.731 15.1769 248.333 14.2873C247.934 13.3936 247.402 12.5746 246.747 11.8306C246.086 11.0865 245.324 10.4463 244.465 9.91006C243.601 9.37382 242.675 8.96644 241.682 8.68793C240.694 8.40942 239.68 8.26808 238.643 8.26808H18.604C18.4312 8.26808 18.2673 8.30549 18.1122 8.37616C17.1419 8.48424 16.2027 8.71287 15.2944 9.06621C14.3906 9.41539 13.5532 9.88096 12.7867 10.4505C12.0202 11.0241 11.3556 11.6809 10.7885 12.4291C10.2214 13.1732 9.77392 13.9797 9.44606 14.8443C9.12263 15.7089 8.92768 16.5985 8.87008 17.513C8.81249 18.4234 8.89224 19.3296 9.1049 20.2234C9.31757 21.1171 9.65872 21.9651 10.1284 22.7715C10.598 23.5738 11.1784 24.3013 11.8651 24.9539C12.6582 25.7063 13.562 26.3174 14.5678 26.7913C14.5057 26.8204 14.4437 26.8495 14.3817 26.8869C13.5487 27.3026 12.7867 27.818 12.1 28.4249C11.4177 29.036 10.8284 29.7177 10.341 30.4784C9.85367 31.235 9.48593 32.0414 9.23339 32.8936C8.98085 33.7458 8.85236 34.6146 8.85236 35.5C8.85236 36.3854 8.98085 37.2542 9.23339 38.1064C9.48593 38.9585 9.85367 39.765 10.341 40.5215C10.8284 41.2781 11.4177 41.964 12.1 42.575C12.7867 43.182 13.5487 43.6974 14.3817 44.1131C14.4437 44.1505 14.5057 44.1796 14.5678 44.2087C13.562 44.6826 12.6582 45.2937 11.8651 46.0461C11.1784 46.6945 10.6024 47.422 10.1328 48.2243C9.66315 49.0266 9.322 49.8746 9.10933 50.7642C8.89224 51.6579 8.81249 52.5599 8.87008 53.4703C8.92768 54.3848 9.1182 55.2744 9.44163 56.1349C9.76506 56.9995 10.2081 57.8018 10.7708 58.55C11.3379 59.2941 12.0025 59.9551 12.7645 60.5287C13.5266 61.1024 14.3595 61.5638 15.2634 61.9171C16.1628 62.2746 17.1021 62.5033 18.0723 62.6155C18.2407 62.6945 18.4179 62.7319 18.604 62.7319H238.643C239.68 62.7319 240.694 62.5906 241.682 62.312C242.675 62.0335 243.601 61.6262 244.465 61.0899C245.324 60.5537 246.086 59.9135 246.747 59.1694C247.402 58.4212 247.934 57.6064 248.333 56.7127C248.731 55.8231 248.984 54.8961 249.09 53.9317C249.197 52.9715 249.152 52.0154 248.957 51.0676C248.762 50.1198 248.421 49.2136 247.938 48.3615C247.46 47.5051 246.853 46.732 246.126 46.0461C245.351 45.2978 244.469 44.6868 243.477 44.2087C243.539 44.1796 243.601 44.1464 243.658 44.1131C244.487 43.6933 245.245 43.1778 245.922 42.5667C246.605 41.9557 247.185 41.2698 247.668 40.5132C248.151 39.7567 248.519 38.9502 248.771 38.1022C249.019 37.25 249.148 36.3854 249.148 35.5041ZM238.643 45.3103C239.179 45.3103 239.711 45.3602 240.234 45.4599C240.756 45.5555 241.266 45.701 241.758 45.8923C242.254 46.0835 242.724 46.3204 243.167 46.5948C243.61 46.8733 244.022 47.1892 244.398 47.5426C244.779 47.8959 245.116 48.2783 245.413 48.694C245.71 49.1097 245.962 49.5462 246.166 50.0076C246.37 50.469 246.525 50.9429 246.631 51.4334C246.733 51.9239 246.786 52.4186 246.791 52.9174C246.791 53.1752 246.773 53.4329 246.747 53.6906C246.698 54.1562 246.6 54.6093 246.459 55.0582C246.321 55.5072 246.135 55.9395 245.909 56.3552C245.683 56.7709 245.422 57.1658 245.116 57.5399C244.81 57.9099 244.474 58.2507 244.106 58.5625C243.734 58.8784 243.335 59.157 242.91 59.4022C242.484 59.6475 242.037 59.8512 241.572 60.0216C241.102 60.1879 240.623 60.3126 240.132 60.3999C239.64 60.4872 239.144 60.5287 238.643 60.5287H19.0161C18.9142 60.4913 18.8078 60.4664 18.7015 60.4581C17.935 60.404 17.1907 60.2544 16.4729 60.005C15.7507 59.7556 15.0817 59.4147 14.4659 58.9865C13.85 58.5584 13.3095 58.0595 12.8487 57.4859C12.3835 56.9122 12.0158 56.2928 11.7411 55.6236C11.4885 54.9959 11.3246 54.3516 11.2537 53.6906C11.1695 52.905 11.2138 52.1235 11.3866 51.3544C11.5639 50.5813 11.8607 49.8496 12.2816 49.1637C12.7025 48.482 13.2209 47.8709 13.8456 47.3389C14.4703 46.8068 15.1659 46.3745 15.9368 46.0461C16.8141 45.6719 17.7356 45.4475 18.7015 45.3726C19.0161 45.3186 19.2775 45.1731 19.4813 44.9403C19.6851 44.7075 19.787 44.4373 19.7825 44.138V44.1131C19.7737 43.8304 19.6673 43.5852 19.4635 43.3815C19.2553 43.1778 19.0028 43.0614 18.7015 43.0365C17.7711 42.9741 16.8805 42.7663 16.0254 42.4129C15.1703 42.0637 14.4083 41.5857 13.7304 40.9871C13.0525 40.3885 12.5031 39.6985 12.0822 38.9253C11.6613 38.1479 11.3911 37.3249 11.2759 36.4602C11.2316 36.1443 11.2094 35.8242 11.2138 35.5C11.2094 35.1758 11.2316 34.8515 11.2803 34.5314C11.3955 33.6668 11.6658 32.8437 12.0867 32.0705C12.5076 31.2932 13.057 30.6032 13.7348 30.0046C14.4083 29.406 15.1748 28.9321 16.0254 28.5829C16.8805 28.2296 17.7711 28.0217 18.7015 27.9594C18.985 27.9095 19.2287 27.7848 19.4237 27.5894C19.623 27.3899 19.7382 27.1529 19.7692 26.8869C19.7781 26.8287 19.7825 26.7746 19.7825 26.7164C19.7825 26.4296 19.6762 26.1844 19.4724 25.9724C19.2642 25.7645 19.0072 25.6481 18.7015 25.6232C17.7356 25.5483 16.8141 25.328 15.9368 24.9539C15.1659 24.6255 14.4703 24.1932 13.8456 23.6611C13.2253 23.1249 12.7025 22.518 12.2816 21.8321C11.8607 21.1462 11.5639 20.4187 11.3866 19.6455C11.2138 18.8724 11.1695 18.095 11.2537 17.3094C11.3202 16.6443 11.4841 15.9999 11.7411 15.3764C12.0158 14.7071 12.3835 14.0836 12.8487 13.5141C13.3095 12.9404 13.85 12.4416 14.4659 12.0093C15.0817 11.5811 15.7507 11.2444 16.4729 10.995C17.1907 10.7414 17.935 10.5918 18.7015 10.5419C18.8078 10.5336 18.9053 10.5087 19.0028 10.4712H238.643C239.472 10.4712 240.278 10.5876 241.067 10.8163C241.851 11.0449 242.586 11.3816 243.264 11.8181C243.946 12.2546 244.54 12.7783 245.05 13.3852C245.555 13.9921 245.958 14.6573 246.25 15.3764C246.507 15.9999 246.676 16.6443 246.747 17.3094C246.773 17.5671 246.791 17.8248 246.791 18.0825C246.791 18.5814 246.738 19.076 246.631 19.5666C246.529 20.0571 246.374 20.531 246.171 20.9924C245.962 21.4538 245.714 21.8903 245.417 22.306C245.121 22.7217 244.779 23.1041 244.403 23.4574C244.026 23.8108 243.614 24.1267 243.171 24.4052C242.724 24.6837 242.254 24.9165 241.762 25.1077C241.266 25.2989 240.756 25.4444 240.234 25.54C239.711 25.6398 239.179 25.6855 238.643 25.6855C238.488 25.6855 238.337 25.7146 238.196 25.7728C238.049 25.8269 237.921 25.9058 237.81 26.0098C237.699 26.1137 237.615 26.2301 237.553 26.3673C237.496 26.5003 237.465 26.6416 237.465 26.7871C237.465 26.8204 237.469 26.8536 237.473 26.8869C237.496 27.1695 237.62 27.4106 237.846 27.6019C238.072 27.7972 238.337 27.8928 238.643 27.8887C239.135 27.8887 239.622 27.9303 240.105 28.0134C240.588 28.0965 241.058 28.2212 241.518 28.3834C241.979 28.5455 242.418 28.745 242.839 28.982C243.26 29.2147 243.654 29.4849 244.022 29.7884C244.389 30.0919 244.726 30.4244 245.032 30.7819C245.333 31.1435 245.603 31.526 245.834 31.9292C246.064 32.3366 246.255 32.7564 246.401 33.1929C246.552 33.6294 246.658 34.0742 246.72 34.5314C246.769 34.8515 246.791 35.1758 246.791 35.5C246.791 35.8242 246.769 36.1443 246.72 36.4602C246.658 36.9175 246.552 37.3623 246.405 37.7988C246.255 38.2352 246.064 38.6592 245.834 39.0625C245.603 39.4698 245.338 39.8523 245.032 40.2098C244.731 40.5714 244.394 40.904 244.026 41.2074C243.654 41.5109 243.26 41.7811 242.839 42.018C242.418 42.255 241.979 42.4545 241.518 42.6166C241.062 42.7787 240.588 42.8993 240.105 42.9824C239.622 43.0656 239.135 43.1071 238.643 43.1071C238.337 43.1071 238.072 43.2027 237.846 43.394C237.62 43.5893 237.496 43.8263 237.473 44.1131C237.469 44.1422 237.465 44.1755 237.465 44.2087C237.465 44.3542 237.496 44.4955 237.553 44.6327C237.615 44.7657 237.699 44.8863 237.81 44.9902C237.921 45.09 238.049 45.1731 238.191 45.2272C238.337 45.2854 238.488 45.3103 238.643 45.3103Z" fill="black"/>
<path d="M246.791 17.3136H11.2095C10.9259 17.3136 10.6823 17.218 10.4785 17.0309C10.2791 16.8397 10.1772 16.6152 10.1772 16.345C10.1772 16.079 10.2791 15.8503 10.4785 15.6633C10.6823 15.4762 10.9259 15.3806 11.2095 15.3806H246.791C247.074 15.3806 247.318 15.4762 247.522 15.6633C247.726 15.8503 247.823 16.079 247.823 16.345C247.823 16.6152 247.726 16.8397 247.522 17.0309C247.318 17.218 247.074 17.3136 246.791 17.3136Z" fill="black"/>
<path d="M246.791 36.4644H11.2095C10.9259 36.4644 10.6823 36.373 10.4785 36.1817C10.2791 35.9947 10.1772 35.7661 10.1772 35.5C10.1772 35.234 10.2791 35.0053 10.4785 34.8183C10.6823 34.6271 10.9259 34.5356 11.2095 34.5356H246.791C247.074 34.5356 247.318 34.6271 247.522 34.8183C247.726 35.0053 247.823 35.234 247.823 35.5C247.823 35.7661 247.726 35.9947 247.522 36.1817C247.318 36.373 247.074 36.4644 246.791 36.4644Z" fill="black"/>
<path d="M246.791 55.6195H11.2095C10.9259 55.6195 10.6823 55.5239 10.4785 55.3368C10.2791 55.1497 10.1772 54.9211 10.1772 54.6551C10.1772 54.3849 10.2791 54.1604 10.4785 53.9692C10.6823 53.7821 10.9259 53.6865 11.2095 53.6865H246.791C247.074 53.6865 247.318 53.7821 247.522 53.9692C247.726 54.1604 247.823 54.3849 247.823 54.6551C247.823 54.9211 247.726 55.1497 247.522 55.3368C247.318 55.5239 247.074 55.6195 246.791 55.6195Z" fill="black"/>
</svg>
