<svg width="259" height="72" viewBox="0 0 259 72" fill="none" xmlns="http://www.w3.org/2000/svg">
<path d="M18.6765 72C17.7777 72 16.9054 71.8917 16.0771 71.6793C6.93046 70.159 0 62.5491 0 53.6647C0 50.4866 0.889989 47.4669 2.44967 44.8344C0.889989 42.202 0 39.1822 0 36C0 32.8178 0.889989 29.798 2.44967 27.1656C0.889989 24.5331 0 21.5175 0 18.3353C0 9.43422 6.95689 1.81187 16.1343 0.308226C16.9494 0.104131 17.7998 0 18.6765 0H239.566C250.281 0 259 8.22215 259 18.3353C259 21.5342 258.123 24.5456 256.59 27.1656C258.123 29.7897 259 32.8011 259 36C259 39.1989 258.123 42.2103 256.59 44.8344C258.123 47.4544 259 50.4658 259 53.6647C259 63.7779 250.281 72 239.566 72H18.6765Z" fill="#E1E0D7"/>
<path d="M35.3749 19.8555C35.3749 20.2054 35.3044 20.5386 35.1634 20.8635C35.0224 21.1843 34.8198 21.4675 34.5598 21.7132C34.2955 21.959 33.9959 22.1506 33.6566 22.2839C33.313 22.4172 32.9561 22.4838 32.5904 22.4838C32.2203 22.4838 31.8634 22.4172 31.5242 22.2839C31.1805 22.1506 30.8809 21.959 30.6166 21.7132C30.3566 21.4675 30.1539 21.1843 30.0129 20.8635C29.872 20.5386 29.8015 20.2054 29.8015 19.8555C29.8015 19.5057 29.872 19.1725 30.0129 18.8476C30.1539 18.5268 30.3566 18.2436 30.6166 17.9979C30.8809 17.7521 31.1805 17.5605 31.5242 17.4272C31.8634 17.2939 32.2203 17.2273 32.5904 17.2273C32.9561 17.2273 33.313 17.2939 33.6566 17.4272C33.9959 17.5605 34.2955 17.7521 34.5598 17.9979C34.8198 18.2436 35.0224 18.5268 35.1634 18.8476C35.3044 19.1725 35.3749 19.5057 35.3749 19.8555Z" fill="#1D1D1B"/>
<path d="M55.7257 52.1444C55.7257 52.4942 55.6552 52.8275 55.5142 53.1524C55.3732 53.4731 55.1706 53.7563 54.9106 54.0021C54.6507 54.2478 54.3467 54.4394 54.0074 54.5727C53.6638 54.706 53.3113 54.7726 52.9412 54.7726C52.5711 54.7726 52.2142 54.706 51.875 54.5727C51.5313 54.4394 51.2317 54.2478 50.9718 54.0021C50.7074 53.7563 50.5091 53.4731 50.3638 53.1524C50.2228 52.8275 50.1523 52.4942 50.1523 52.1444C50.1523 51.7945 50.2228 51.4613 50.3638 51.1364C50.5091 50.8157 50.7074 50.5324 50.9718 50.2867C51.2317 50.0409 51.5313 49.8493 51.875 49.716C52.2142 49.5828 52.5711 49.5161 52.9412 49.5161C53.3113 49.5161 53.6638 49.5828 54.0074 49.716C54.3467 49.8493 54.6507 50.0409 54.9106 50.2867C55.1706 50.5324 55.3732 50.8157 55.5142 51.1364C55.6552 51.4613 55.7257 51.7945 55.7257 52.1444Z" fill="#1D1D1B"/>
<path d="M86.1528 19.8555C86.1528 20.2054 86.0823 20.5386 85.9413 20.8635C85.8003 21.1843 85.5976 21.4675 85.3377 21.7132C85.0733 21.959 84.7737 22.1506 84.4301 22.2839C84.0908 22.4172 83.7339 22.4838 83.3638 22.4838C82.9937 22.4838 82.6413 22.4172 82.2976 22.2839C81.9583 22.1506 81.6543 21.959 81.3944 21.7132C81.1344 21.4675 80.9318 21.1843 80.7908 20.8635C80.6498 20.5386 80.5793 20.2054 80.5793 19.8555C80.5793 19.5057 80.6498 19.1725 80.7908 18.8476C80.9318 18.5268 81.1344 18.2436 81.3944 17.9979C81.6543 17.7521 81.9583 17.5605 82.2976 17.4272C82.6413 17.2939 82.9937 17.2273 83.3638 17.2273C83.7339 17.2273 84.0908 17.2939 84.4301 17.4272C84.7737 17.5605 85.0733 17.7521 85.3377 17.9979C85.5976 18.2436 85.8003 18.5268 85.9413 18.8476C86.0823 19.1725 86.1528 19.5057 86.1528 19.8555Z" fill="#1D1D1B"/>
<path d="M108.623 52.1444C108.623 52.4942 108.552 52.8275 108.411 53.1524C108.27 53.4731 108.068 53.7563 107.808 54.0021C107.548 54.2478 107.244 54.4394 106.904 54.5727C106.561 54.706 106.208 54.7726 105.838 54.7726C105.468 54.7726 105.111 54.706 104.772 54.5727C104.428 54.4394 104.129 54.2478 103.869 54.0021C103.604 53.7563 103.406 53.4731 103.261 53.1524C103.12 52.8275 103.049 52.4942 103.049 52.1444C103.049 51.7945 103.12 51.4613 103.261 51.1364C103.406 50.8157 103.604 50.5324 103.869 50.2867C104.129 50.0409 104.428 49.8493 104.772 49.716C105.111 49.5828 105.468 49.5161 105.838 49.5161C106.208 49.5161 106.561 49.5828 106.904 49.716C107.244 49.8493 107.548 50.0409 107.808 50.2867C108.068 50.5324 108.27 50.8157 108.411 51.1364C108.552 51.4613 108.623 51.7945 108.623 52.1444Z" fill="#1D1D1B"/>
<path d="M136.75 19.8555C136.75 20.2054 136.679 20.5386 136.538 20.8635C136.393 21.1843 136.195 21.4675 135.93 21.7132C135.671 21.959 135.371 22.1506 135.027 22.2839C134.688 22.4172 134.331 22.4838 133.961 22.4838C133.591 22.4838 133.238 22.4172 132.895 22.2839C132.556 22.1506 132.252 21.959 131.992 21.7132C131.732 21.4675 131.529 21.1843 131.388 20.8635C131.247 20.5386 131.177 20.2054 131.177 19.8555C131.177 19.5057 131.247 19.1725 131.388 18.8476C131.529 18.5268 131.732 18.2436 131.992 17.9979C132.252 17.7521 132.556 17.5605 132.895 17.4272C133.238 17.2939 133.591 17.2273 133.961 17.2273C134.331 17.2273 134.688 17.2939 135.027 17.4272C135.371 17.5605 135.671 17.7521 135.93 17.9979C136.195 18.2436 136.393 18.5268 136.538 18.8476C136.679 19.1725 136.75 19.5057 136.75 19.8555Z" fill="#1D1D1B"/>
<path d="M159.079 52.1444C159.079 52.4942 159.008 52.8275 158.867 53.1524C158.722 53.4731 158.524 53.7563 158.259 54.0021C157.999 54.2478 157.7 54.4394 157.356 54.5727C157.017 54.706 156.66 54.7726 156.29 54.7726C155.92 54.7726 155.567 54.706 155.224 54.5727C154.885 54.4394 154.58 54.2478 154.321 54.0021C154.061 53.7563 153.858 53.4731 153.717 53.1524C153.576 52.8275 153.505 52.4942 153.505 52.1444C153.505 51.7945 153.576 51.4613 153.717 51.1364C153.858 50.8157 154.061 50.5324 154.321 50.2867C154.58 50.0409 154.885 49.8493 155.224 49.716C155.567 49.5828 155.92 49.5161 156.29 49.5161C156.66 49.5161 157.017 49.5828 157.356 49.716C157.7 49.8493 157.999 50.0409 158.259 50.2867C158.524 50.5324 158.722 50.8157 158.867 51.1364C159.008 51.4613 159.079 51.7945 159.079 52.1444Z" fill="#1D1D1B"/>
<path d="M182.025 19.8555C182.025 20.2054 181.95 20.5386 181.809 20.8635C181.668 21.1843 181.47 21.4675 181.205 21.7132C180.945 21.959 180.646 22.1506 180.302 22.2839C179.963 22.4172 179.606 22.4838 179.236 22.4838C178.866 22.4838 178.513 22.4172 178.17 22.2839C177.83 22.1506 177.526 21.959 177.266 21.7132C177.006 21.4675 176.804 21.1843 176.663 20.8635C176.522 20.5386 176.451 20.2054 176.451 19.8555C176.451 19.5057 176.522 19.1725 176.663 18.8476C176.804 18.5268 177.006 18.2436 177.266 17.9979C177.526 17.7521 177.83 17.5605 178.17 17.4272C178.513 17.2939 178.866 17.2273 179.236 17.2273C179.606 17.2273 179.963 17.2939 180.302 17.4272C180.646 17.5605 180.945 17.7521 181.205 17.9979C181.47 18.2436 181.668 18.5268 181.809 18.8476C181.95 19.1725 182.025 19.5057 182.025 19.8555Z" fill="#1D1D1B"/>
<path d="M204.631 52.1444C204.631 52.4942 204.556 52.8275 204.415 53.1524C204.274 53.4731 204.076 53.7563 203.812 54.0021C203.552 54.2478 203.252 54.4394 202.909 54.5727C202.569 54.706 202.212 54.7726 201.842 54.7726C201.472 54.7726 201.12 54.706 200.776 54.5727C200.437 54.4394 200.133 54.2478 199.873 54.0021C199.613 53.7563 199.41 53.4731 199.269 53.1524C199.128 52.8275 199.058 52.4942 199.058 52.1444C199.058 51.7945 199.128 51.4613 199.269 51.1364C199.41 50.8157 199.613 50.5324 199.873 50.2867C200.133 50.0409 200.437 49.8493 200.776 49.716C201.12 49.5828 201.472 49.5161 201.842 49.5161C202.212 49.5161 202.569 49.5828 202.909 49.716C203.252 49.8493 203.552 50.0409 203.812 50.2867C204.076 50.5324 204.274 50.8157 204.415 51.1364C204.556 51.4613 204.631 51.7945 204.631 52.1444Z" fill="#1D1D1B"/>
<path d="M227.538 19.8555C227.538 20.2054 227.467 20.5386 227.326 20.8635C227.185 21.1843 226.982 21.4675 226.722 21.7132C226.462 21.959 226.158 22.1506 225.819 22.2839C225.476 22.4172 225.123 22.4838 224.753 22.4838C224.383 22.4838 224.026 22.4172 223.687 22.2839C223.343 22.1506 223.044 21.959 222.784 21.7132C222.519 21.4675 222.321 21.1843 222.18 20.8635C222.035 20.5386 221.964 20.2054 221.964 19.8555C221.964 19.5057 222.035 19.1725 222.18 18.8476C222.321 18.5268 222.519 18.2436 222.784 17.9979C223.044 17.7521 223.343 17.5605 223.687 17.4272C224.026 17.2939 224.383 17.2273 224.753 17.2273C225.123 17.2273 225.476 17.2939 225.819 17.4272C226.158 17.5605 226.462 17.7521 226.722 17.9979C226.982 18.2436 227.185 18.5268 227.326 18.8476C227.467 19.1725 227.538 19.5057 227.538 19.8555Z" fill="#1D1D1B"/>
<path d="M59.6161 35.6376C59.6161 35.8084 59.5808 35.975 59.5103 36.1333C59.4398 36.2957 59.3429 36.4332 59.2107 36.5581C59.083 36.6789 58.9332 36.7705 58.7657 36.8372C58.5939 36.9038 58.4177 36.9372 58.237 36.9372C58.052 36.9372 57.8802 36.9038 57.7083 36.8372C57.5409 36.7705 57.3911 36.6789 57.2633 36.5581C57.1312 36.4332 57.0342 36.2957 56.9637 36.1333C56.8932 35.975 56.858 35.8084 56.858 35.6376C56.858 35.4627 56.8932 35.2961 56.9637 35.1378C57.0342 34.9795 57.1312 34.8379 57.2633 34.7171C57.3911 34.5963 57.5409 34.5005 57.7083 34.4339C57.8802 34.3672 58.052 34.3339 58.237 34.3339C58.4177 34.3339 58.5939 34.3672 58.7657 34.4339C58.9332 34.5005 59.083 34.5963 59.2107 34.7171C59.3429 34.8379 59.4398 34.9795 59.5103 35.1378C59.5808 35.2961 59.6161 35.4627 59.6161 35.6376Z" fill="#1D1D1B"/>
<path d="M112.795 35.6376C112.795 35.8084 112.76 35.975 112.694 36.1333C112.623 36.2957 112.522 36.4332 112.394 36.5581C112.262 36.6789 112.117 36.7705 111.945 36.8372C111.777 36.9038 111.601 36.9372 111.416 36.9372C111.235 36.9372 111.059 36.9038 110.892 36.8372C110.72 36.7705 110.57 36.6789 110.442 36.5581C110.315 36.4332 110.213 36.2957 110.143 36.1333C110.072 35.975 110.037 35.8084 110.037 35.6376C110.037 35.4627 110.072 35.2961 110.143 35.1378C110.213 34.9795 110.315 34.8379 110.442 34.7171C110.57 34.5963 110.72 34.5005 110.892 34.4339C111.059 34.3672 111.235 34.3339 111.416 34.3339C111.601 34.3339 111.777 34.3672 111.945 34.4339C112.117 34.5005 112.262 34.5963 112.394 34.7171C112.522 34.8379 112.623 34.9795 112.694 35.1378C112.76 35.2961 112.795 35.4627 112.795 35.6376Z" fill="#1D1D1B"/>
<path d="M160.458 35.6376C160.458 35.8084 160.423 35.975 160.352 36.1333C160.282 36.2957 160.18 36.4332 160.053 36.5581C159.925 36.6789 159.775 36.7705 159.603 36.8372C159.436 36.9038 159.26 36.9372 159.079 36.9372C158.894 36.9372 158.718 36.9038 158.55 36.8372C158.383 36.7705 158.233 36.6789 158.101 36.5581C157.973 36.4332 157.872 36.2957 157.806 36.1333C157.735 35.975 157.7 35.8084 157.7 35.6376C157.7 35.4627 157.735 35.2961 157.806 35.1378C157.872 34.9795 157.973 34.8379 158.101 34.7171C158.233 34.5963 158.383 34.5005 158.55 34.4339C158.718 34.3672 158.894 34.3339 159.079 34.3339C159.26 34.3339 159.436 34.3672 159.603 34.4339C159.775 34.5005 159.925 34.5963 160.053 34.7171C160.18 34.8379 160.282 34.9795 160.352 35.1378C160.423 35.2961 160.458 35.4627 160.458 35.6376Z" fill="#1D1D1B"/>
<path d="M203.222 35.6376C203.222 35.8084 203.186 35.975 203.116 36.1333C203.045 36.2957 202.948 36.4332 202.816 36.5581C202.688 36.6789 202.539 36.7705 202.371 36.8372C202.204 36.9038 202.028 36.9372 201.842 36.9372C201.662 36.9372 201.486 36.9038 201.314 36.8372C201.146 36.7705 200.997 36.6789 200.869 36.5581C200.737 36.4332 200.64 36.2957 200.569 36.1333C200.499 35.975 200.463 35.8084 200.463 35.6376C200.463 35.4627 200.499 35.2961 200.569 35.1378C200.64 34.9795 200.737 34.8379 200.869 34.7171C200.997 34.5963 201.146 34.5005 201.314 34.4339C201.486 34.3672 201.662 34.3339 201.842 34.3339C202.028 34.3339 202.204 34.3672 202.371 34.4339C202.539 34.5005 202.688 34.5963 202.816 34.7171C202.948 34.8379 203.045 34.9795 203.116 35.1378C203.186 35.2961 203.222 35.4627 203.222 35.6376Z" fill="#1D1D1B"/>
<path d="M239.566 63.6153H18.6766C18.4872 63.6153 18.3065 63.5737 18.1479 63.4987C12.8388 62.8947 8.88673 58.7378 8.88673 53.6688C8.88673 49.8034 11.1822 46.4671 14.6276 44.8343C11.1822 43.1974 8.88673 39.8611 8.88673 35.9999C8.88673 32.1387 11.1822 28.8024 14.6276 27.1655C11.1822 25.5327 8.88673 22.1964 8.88673 18.331C8.88673 13.2536 12.8608 9.08841 18.1876 8.49695C18.3374 8.42614 18.5004 8.38449 18.6766 8.38449H239.566C245.381 8.38449 250.113 12.8454 250.113 18.331C250.113 22.1672 247.8 25.5035 244.421 27.1655C247.8 28.8274 250.113 32.1637 250.113 35.9999C250.113 39.8361 247.8 43.1724 244.421 44.8343C247.8 46.4921 250.113 49.8284 250.113 53.6646C250.113 59.1544 245.381 63.6153 239.566 63.6153ZM19.0952 61.3828H239.566C244.077 61.3828 247.743 57.9215 247.743 53.6688C247.743 49.4161 244.077 45.9506 239.566 45.9506C238.914 45.9506 238.385 45.4508 238.385 44.8343C238.385 44.2179 238.914 43.7181 239.566 43.7181C244.077 43.7181 247.743 40.2568 247.743 35.9999C247.743 31.743 244.077 28.2859 239.566 28.2859C238.914 28.2859 238.385 27.7861 238.385 27.1655C238.385 26.549 238.914 26.0492 239.566 26.0492C244.077 26.0492 247.743 22.5879 247.743 18.331C247.743 14.0783 244.077 10.617 239.566 10.617H19.0775C18.9806 10.6545 18.8793 10.6795 18.7735 10.6879C14.4866 11.0169 11.2571 14.3033 11.2571 18.331C11.2571 22.363 14.4866 25.6535 18.7735 25.9825C19.386 26.0284 19.8618 26.5115 19.8618 27.0947C19.8618 27.6778 19.386 28.3067 18.7735 28.3526C14.4866 28.6858 11.2571 31.9721 11.2571 35.9999C11.2571 40.0318 14.4866 43.3182 18.7735 43.6514C19.386 43.6972 19.8618 44.1804 19.8618 44.7635C19.8618 45.3467 19.386 45.9714 18.7735 46.0214C14.4866 46.3505 11.2571 49.6368 11.2571 53.6688C11.2571 57.7007 14.4866 60.9871 18.7735 61.3161C18.8881 61.3244 18.9938 61.3453 19.0952 61.3828Z" fill="black"/>
</svg>
