<svg width="257" height="71" viewBox="0 0 257 71" fill="none" xmlns="http://www.w3.org/2000/svg">
<path d="M18.5322 70.9999C17.6547 71.004 16.7949 70.896 15.9483 70.6842C14.846 70.4973 13.7657 70.2232 12.7119 69.8618C11.6581 69.5005 10.644 69.0561 9.67394 68.5286C8.7039 68.0052 7.78677 67.403 6.92697 66.7259C6.06716 66.0489 5.2779 65.3096 4.55478 64.5038C3.83166 63.698 3.1879 62.8424 2.62352 61.9328C2.05913 61.0232 1.58293 60.072 1.19491 59.0877C0.806897 58.0991 0.511475 57.0898 0.313058 56.0514C0.110232 55.0172 0.00881798 53.9747 0 52.9197C0 49.8212 0.811307 46.9179 2.42951 44.214C1.63143 42.8849 1.02736 41.481 0.617298 40.0023C0.207236 38.5278 0 37.0284 0 35.5041C0 33.9756 0.207236 32.4762 0.617298 31.0017C1.02736 29.5231 1.63143 28.1233 2.42951 26.7901C0.811307 24.0861 0 21.1828 0 18.0843C0.00881798 17.0293 0.110232 15.9827 0.313058 14.9443C0.515885 13.9059 0.811306 12.8925 1.19932 11.9039C1.58734 10.9154 2.06795 9.96424 2.63233 9.05462C3.20113 8.14085 3.84488 7.28523 4.57241 6.47946C5.29553 5.67368 6.0892 4.9302 6.95342 4.25734C7.81764 3.58031 8.73477 2.97806 9.70922 2.45056C10.6837 1.92722 11.7022 1.4828 12.756 1.12144C13.8142 0.76009 14.8989 0.490113 16.0057 0.307359C16.8302 0.103838 17.6724 0 18.5278 0H237.717C238.132 0 238.55 0.01246 238.965 0.0373815C239.379 0.0623019 239.794 0.103838 240.208 0.153679C240.623 0.203522 241.033 0.265823 241.443 0.340587C241.849 0.415349 242.254 0.502573 242.66 0.602257C243.061 0.706094 243.458 0.818238 243.855 0.93869C244.252 1.06329 244.64 1.20036 245.028 1.34989C245.411 1.49526 245.79 1.65725 246.165 1.82754C246.54 1.99783 246.91 2.18059 247.272 2.3758C247.633 2.56686 247.986 2.77454 248.335 2.98636C248.683 3.20235 249.022 3.42664 249.358 3.66338C249.688 3.90013 250.01 4.14519 250.328 4.40271C250.641 4.65607 250.949 4.9219 251.245 5.19603C251.545 5.47016 251.831 5.75259 252.109 6.04334C252.382 6.33408 252.651 6.63729 252.907 6.94465C253.163 7.25201 253.41 7.56767 253.643 7.88749C253.881 8.21146 254.102 8.53959 254.318 8.87602C254.53 9.21246 254.728 9.5572 254.918 9.90609C255.103 10.255 255.279 10.608 255.447 10.9652C255.61 11.3266 255.76 11.6879 255.901 12.0576C256.038 12.4273 256.165 12.7969 256.276 13.1749C256.39 13.5487 256.487 13.9308 256.576 14.313C256.664 14.6951 256.739 15.0772 256.796 15.4635C256.858 15.8497 256.902 16.2402 256.937 16.6306C256.972 17.0169 256.99 17.4073 256.999 17.7977C257.003 18.1882 256.994 18.5786 256.977 18.969C256.955 19.3595 256.919 19.7499 256.875 20.1403C256.827 20.5266 256.765 20.9129 256.69 21.2991C256.615 21.6813 256.527 22.0634 256.43 22.4413C256.329 22.8235 256.214 23.1973 256.086 23.5711C255.963 23.9408 255.822 24.3104 255.667 24.6718C255.517 25.0373 255.354 25.3945 255.178 25.7517C254.997 26.1047 254.812 26.4536 254.609 26.7942C255.394 28.1275 255.985 29.5314 256.39 31.0059C256.796 32.4804 256.999 33.9798 256.999 35.5041C256.999 37.0284 256.796 38.5237 256.39 40.0023C255.985 41.4768 255.394 42.8807 254.609 44.214C254.812 44.5546 254.997 44.9035 255.173 45.2565C255.35 45.6096 255.517 45.9709 255.667 46.3323C255.822 46.6978 255.958 47.0674 256.086 47.4371C256.214 47.8109 256.324 48.1847 256.426 48.5627C256.527 48.9448 256.615 49.3269 256.69 49.7091C256.761 50.0953 256.822 50.4816 256.871 50.8679C256.919 51.2583 256.95 51.6446 256.972 52.035C256.994 52.4254 256.999 52.8159 256.994 53.2063C256.986 53.5967 256.968 53.9872 256.933 54.3776C256.902 54.768 256.853 55.1543 256.792 55.5406C256.734 55.9268 256.659 56.3131 256.571 56.6952C256.487 57.0774 256.386 57.4553 256.271 57.8291C256.161 58.2071 256.033 58.5768 255.896 58.9464C255.755 59.3161 255.605 59.6775 255.442 60.0388C255.279 60.396 255.103 60.7491 254.913 61.0979C254.724 61.4468 254.525 61.7916 254.314 62.128C254.102 62.4603 253.877 62.7926 253.643 63.1124C253.405 63.4364 253.163 63.752 252.903 64.0594C252.647 64.3668 252.382 64.6658 252.104 64.9607C251.827 65.2514 251.54 65.5339 251.24 65.808C250.945 66.0821 250.641 66.3438 250.323 66.6013C250.01 66.8547 249.684 67.1039 249.353 67.3365C249.022 67.5732 248.683 67.7975 248.335 68.0135C247.986 68.2295 247.629 68.433 247.268 68.6282C246.906 68.8193 246.54 69.0021 246.165 69.1723C245.79 69.3468 245.411 69.5046 245.023 69.6542C244.64 69.7995 244.247 69.9366 243.855 70.0612C243.458 70.1858 243.061 70.2979 242.655 70.3976C242.254 70.4973 241.849 70.5845 241.438 70.6593C241.033 70.7382 240.618 70.8005 240.208 70.8504C239.794 70.9002 239.379 70.9376 238.965 70.9625C238.546 70.9874 238.132 70.9999 237.717 70.9999H18.5322Z" fill="#EEDCC7"/>
<path d="M40.0581 26.4661C39.8024 26.0673 39.4629 25.7433 39.044 25.49C38.6251 25.2408 38.171 25.0871 37.6771 25.0331C37.1789 24.9625 36.685 24.9957 36.2044 25.1328C35.7194 25.2698 35.2961 25.4983 34.9257 25.8223C34.4231 26.275 34.0439 26.8066 33.7881 27.4131C33.5324 26.8233 33.162 26.3041 32.6726 25.8596C32.2361 25.49 31.7378 25.2325 31.1735 25.0829C30.6047 24.9334 30.0359 24.9126 29.4582 25.0123C28.9027 25.0497 28.3912 25.2075 27.9282 25.49C27.4608 25.7724 27.0993 26.1421 26.8391 26.6031C26.4599 27.4172 26.3629 28.2562 26.5437 29.1284C25.8735 28.5719 25.1107 28.1773 24.2465 27.953C23.2985 27.7287 22.4122 27.8658 21.5877 28.3642C21.1379 28.6591 20.794 29.0371 20.5559 29.5023C20.3222 29.9716 20.2252 30.4617 20.2693 30.9726C20.2164 34.9433 24.8065 42.1455 32.3507 46.9802C32.3992 47.3581 32.5183 47.7195 32.7079 48.0601C32.8975 48.3965 33.1444 48.6956 33.453 48.9489C33.7573 49.2023 34.1012 49.3975 34.4848 49.5346C34.864 49.6716 35.2608 49.7381 35.6665 49.7423C35.6797 49.7423 35.6885 49.7381 35.6974 49.7381C36.1956 49.7215 36.6718 49.6177 37.126 49.4224C37.3464 49.3228 37.5493 49.2065 37.7433 49.0652C37.9329 48.924 38.1048 48.7662 38.2591 48.5876C38.4135 48.4131 38.5458 48.2262 38.6516 48.0227C38.7618 47.8192 38.85 47.6074 38.9073 47.3872C38.969 47.1671 39.0043 46.9428 39.0131 46.7144C39.022 46.4901 39.0043 46.2616 38.9602 46.0415C38.9161 45.8172 38.85 45.6012 38.753 45.3894C38.6604 45.1817 38.5413 44.9823 38.4047 44.7954C39.1322 42.5401 42.8316 30.4991 40.0581 26.4661ZM35.6709 48.3674C35.5122 48.3674 35.3623 48.3508 35.2123 48.3176C35.058 48.2802 34.9169 48.2262 34.7802 48.1598C34.6435 48.0892 34.5157 48.0061 34.401 47.9106C34.2864 47.8109 34.185 47.7029 34.1012 47.5824C34.013 47.462 33.9469 47.3332 33.894 47.1962C33.8411 47.0591 33.8058 46.9179 33.7926 46.7725C33.7793 46.6271 33.7837 46.4818 33.8058 46.3405C33.8278 46.1952 33.8719 46.0539 33.9292 45.921C33.991 45.7881 34.0659 45.6635 34.1585 45.5472C34.2511 45.4309 34.3569 45.3229 34.4804 45.2316C34.5995 45.1402 34.7273 45.0654 34.8684 45.0031C35.0095 44.9408 35.155 44.8951 35.3093 44.8702C35.4593 44.8411 35.6136 44.8328 35.7679 44.8411C35.9266 44.8453 36.0766 44.8744 36.2265 44.9159C36.372 44.9574 36.5131 45.0197 36.6454 45.0945C36.7776 45.1693 36.9011 45.2565 37.0069 45.3603C37.0157 45.3728 37.0201 45.3811 37.029 45.3852C37.2891 45.6428 37.4523 45.9418 37.5228 46.2907C37.5889 46.6396 37.5493 46.976 37.3993 47.3C37.2538 47.624 37.0201 47.8815 36.7071 48.0767C36.3896 48.2719 36.0457 48.3674 35.6709 48.3674ZM37.1877 43.8111C36.7688 43.6075 36.3279 43.4954 35.8561 43.4705C35.3887 43.4456 34.9301 43.5079 34.4936 43.6657C34.0527 43.8194 33.6647 44.052 33.3296 44.3593C32.9945 44.6708 32.7387 45.028 32.5668 45.4392C25.4326 40.6336 21.6935 34.0586 21.7376 30.9934C21.6627 30.3953 21.8743 29.9093 22.3725 29.5272C22.8487 29.2323 23.3602 29.1534 23.9114 29.2863C25.6266 29.6726 27.3727 31.8947 27.9018 32.7212C28.0032 32.8874 28.1531 32.9954 28.3471 33.041C28.5411 33.0909 28.7263 33.0701 28.9027 32.9746C29.079 32.8791 29.1893 32.742 29.2422 32.5592C29.2951 32.3765 29.2731 32.202 29.1716 32.0359C28.6469 31.147 27.4432 28.5428 28.1531 27.2137C28.4926 26.6696 28.9953 26.3913 29.6655 26.3705C30.4283 26.221 31.0985 26.3871 31.6805 26.8689C32.7432 27.7869 33.0121 29.7681 33.043 30.9435C33.0253 31.3256 33.0342 31.5749 33.0342 31.6164C33.043 31.7991 33.1135 31.957 33.2546 32.0857C33.3957 32.2145 33.5633 32.281 33.7573 32.281C33.9469 32.2726 34.1144 32.2062 34.2511 32.0857C34.3922 31.9611 34.4716 31.8158 34.498 31.6372C34.5024 31.5956 34.5157 31.3506 34.5069 30.9643C34.5686 29.7556 34.8772 27.7246 35.9178 26.8357C36.372 26.4494 36.9011 26.3041 37.5052 26.3996C38.0916 26.4577 38.5325 26.7277 38.8279 27.2095C40.8518 30.1544 38.5546 39.4457 37.1877 43.8111Z" fill="black"/>
<path d="M66.4345 24.8628C66.4124 24.3769 66.2581 23.9324 65.9715 23.5296C65.6893 23.1267 65.3101 22.8193 64.8427 22.6158C63.9035 22.1589 62.9379 22.1008 61.9414 22.4372C61.2227 22.6864 60.5789 23.0561 60.0101 23.5462C60.31 22.5867 60.3144 21.6273 60.0278 20.6636C59.8206 20.1403 59.4369 19.779 58.8814 19.5796C58.4184 19.4051 57.9378 19.3304 57.444 19.3594C56.9457 19.3885 56.4783 19.5173 56.0418 19.7457C55.0189 20.348 54.2472 21.1621 53.7225 22.1838C53.555 20.6013 53.1185 19.0064 52.0867 18.2962C51.7163 18.0553 51.3018 17.9223 50.8521 17.9016C50.3979 17.8808 49.9747 17.9722 49.5778 18.1757C48.7753 18.5952 48.0963 19.1518 47.5451 19.8371C46.994 20.5266 46.6104 21.2908 46.3987 22.1298C45.001 27.2636 49.181 34.4906 50.1995 36.1479C50.032 36.5051 49.9482 36.8831 49.9482 37.2735C49.9482 37.7844 50.0849 38.2579 50.3583 38.6981C50.6272 39.1343 50.9976 39.4831 51.4694 39.7365C51.9059 39.9691 52.3777 40.0937 52.8848 40.1103C52.92 40.1103 52.9465 40.1186 52.9774 40.1186C53.3477 40.1145 53.7005 40.0563 54.0444 39.9317C54.3883 39.8113 54.697 39.6368 54.9748 39.4084C55.2481 39.1841 55.473 38.9183 55.645 38.6151C55.8213 38.3119 55.9316 37.9879 55.9801 37.6473C62.206 33.4647 66.6902 28.007 66.4345 24.8628ZM52.9774 38.7438C52.7701 38.7438 52.5717 38.7064 52.3821 38.6317C52.1881 38.5569 52.0206 38.4531 51.875 38.316C51.7251 38.1748 51.6149 38.017 51.5355 37.8384C51.4562 37.6598 51.4165 37.4729 51.4165 37.2776C51.4165 37.0824 51.4562 36.8955 51.5355 36.7169C51.6149 36.5342 51.7251 36.3763 51.875 36.2393C52.0206 36.1022 52.1881 35.9984 52.3821 35.9236C52.5717 35.8488 52.7701 35.8115 52.9774 35.8115C53.1846 35.8115 53.3874 35.8488 53.577 35.9194C53.771 35.9942 53.9386 36.1022 54.0841 36.2393C54.234 36.3763 54.3442 36.5342 54.4236 36.7128C54.503 36.8955 54.5427 37.0824 54.5471 37.2735C54.5427 37.4687 54.503 37.6556 54.4236 37.8384C54.3442 38.017 54.234 38.1748 54.0841 38.3119C53.9386 38.4531 53.771 38.5569 53.577 38.6317C53.3874 38.7064 53.1846 38.7438 52.9774 38.7438ZM55.7376 36.1105C55.6494 35.9194 55.5347 35.7367 55.3981 35.5664C55.2614 35.3961 55.1115 35.2466 54.9395 35.1095C54.7675 34.9724 54.5779 34.852 54.3795 34.7565C54.1811 34.6568 53.9694 34.582 53.7534 34.528C53.5329 34.474 53.3125 34.4408 53.0876 34.4366C52.8583 34.4283 52.6378 34.445 52.413 34.4865C52.1925 34.5239 51.9809 34.5862 51.7736 34.6734C51.5664 34.7565 51.3724 34.8603 51.1872 34.9891C49.9306 32.8334 46.6721 26.6696 47.8229 22.4663C47.9773 21.8183 48.2639 21.2327 48.6827 20.6969C49.1016 20.1652 49.6175 19.7333 50.226 19.4051C50.8653 19.1559 51.1255 19.3345 51.2269 19.401C52.316 20.1486 52.4835 23.6999 52.2542 25.9718C52.2366 26.1546 52.2895 26.3166 52.4086 26.4578C52.5232 26.599 52.6775 26.6862 52.8715 26.7153C53.0611 26.7444 53.2375 26.707 53.3962 26.6031C53.555 26.5035 53.6564 26.3622 53.6961 26.1878C53.9694 25.0248 55.0409 21.8183 56.7517 20.9502C57.2764 20.672 57.8187 20.647 58.3743 20.8672C58.5242 20.9212 58.6256 21.0208 58.6697 21.1704C59.1768 22.3707 57.9157 25.598 56.9722 27.4048C56.9501 27.4505 56.9369 27.4795 56.9325 27.4878C56.8487 27.6581 56.8399 27.8284 56.9104 28.007C56.9766 28.1815 57.1 28.3102 57.2764 28.3933C57.4572 28.4764 57.6424 28.4847 57.832 28.4265C58.0216 28.3684 58.1627 28.2562 58.2509 28.0901C58.2597 28.0735 58.2641 28.0569 58.2729 28.0444C58.4669 27.6748 60.2394 24.4392 62.422 23.7331C63.0305 23.5254 63.6213 23.5628 64.1945 23.8411C64.4282 23.9408 64.6178 24.0944 64.7589 24.298C64.9044 24.5015 64.975 24.7216 64.9838 24.9667C65.1778 27.4878 61.1036 32.3599 55.7376 36.1105Z" fill="black"/>
<path d="M43.8104 16.6265C43.8104 16.7968 43.7751 16.9629 43.709 17.1166C43.6384 17.2744 43.5414 17.4156 43.4092 17.5361C43.2813 17.6565 43.1358 17.7479 42.9682 17.8144C42.8007 17.8767 42.6243 17.9099 42.4435 17.9099C42.2628 17.9099 42.0864 17.8767 41.9188 17.8144C41.7513 17.7479 41.6058 17.6565 41.4779 17.5361C41.35 17.4156 41.2486 17.2744 41.1781 17.1166C41.1119 16.9629 41.0767 16.7968 41.0767 16.6265C41.0767 16.4562 41.1119 16.2942 41.1781 16.1364C41.2486 15.9785 41.35 15.8415 41.4779 15.721C41.6058 15.6005 41.7513 15.5092 41.9188 15.4427C42.0864 15.3763 42.2628 15.343 42.4435 15.343C42.6243 15.343 42.8007 15.3763 42.9682 15.4427C43.1358 15.5092 43.2813 15.6005 43.4092 15.721C43.5414 15.8415 43.6384 15.9785 43.709 16.1364C43.7751 16.2942 43.8104 16.4562 43.8104 16.6265Z" fill="#1D1D1B"/>
<path d="M66.3506 38.7438C66.3506 38.9141 66.3154 39.0761 66.2492 39.2339C66.1787 39.3918 66.0773 39.533 65.9494 39.6534C65.8215 39.7739 65.676 39.8653 65.5085 39.9317C65.3409 39.994 65.1645 40.0272 64.9838 40.0272C64.803 40.0272 64.6266 39.994 64.4591 39.9276C64.2915 39.8653 64.146 39.7739 64.0181 39.6534C63.8858 39.533 63.7888 39.3918 63.7183 39.2339C63.6522 39.0761 63.6169 38.9141 63.6169 38.7438C63.6169 38.5735 63.6522 38.4115 63.7183 38.2537C63.7888 38.0959 63.8858 37.9588 64.0181 37.8384C64.146 37.7179 64.2915 37.6224 64.4591 37.5601C64.6266 37.4936 64.803 37.4604 64.9838 37.4604C65.1645 37.4604 65.3409 37.4936 65.5085 37.5601C65.676 37.6224 65.8215 37.7179 65.9494 37.8384C66.0773 37.9588 66.1787 38.0959 66.2492 38.2537C66.3154 38.4115 66.3506 38.5735 66.3506 38.7438Z" fill="#1D1D1B"/>
<path d="M48.9473 48.3674C48.9473 48.5377 48.912 48.7039 48.8459 48.8576C48.7753 49.0154 48.6739 49.1566 48.5461 49.2771C48.4182 49.3975 48.2727 49.4889 48.1051 49.5553C47.9376 49.6177 47.7612 49.6509 47.5804 49.6509C47.3997 49.6509 47.2233 49.6177 47.0557 49.5553C46.8882 49.4889 46.7427 49.3975 46.6104 49.2771C46.4825 49.1566 46.3855 49.0154 46.315 48.8576C46.2444 48.7039 46.2136 48.5377 46.2136 48.3674C46.2136 48.1972 46.2444 48.0352 46.315 47.8773C46.3855 47.7195 46.4825 47.5824 46.6104 47.462C46.7427 47.3415 46.8882 47.2502 47.0557 47.1837C47.2233 47.1172 47.3997 47.084 47.5804 47.084C47.7612 47.084 47.9376 47.1172 48.1051 47.1837C48.2727 47.2502 48.4182 47.3415 48.5461 47.462C48.6739 47.5824 48.7753 47.7195 48.8459 47.8773C48.912 48.0352 48.9473 48.1972 48.9473 48.3674Z" fill="#1D1D1B"/>
<path d="M25.5253 20.5598C25.5253 20.7301 25.49 20.8921 25.4194 21.0499C25.3489 21.2077 25.2519 21.3448 25.124 21.4653C24.9962 21.5857 24.8462 21.6771 24.6787 21.7435C24.5111 21.81 24.3348 21.8432 24.154 21.8432C23.9732 21.8432 23.8012 21.81 23.6293 21.7435C23.4617 21.6771 23.3162 21.5857 23.1884 21.4653C23.0605 21.3448 22.9591 21.2077 22.8929 21.0499C22.8224 20.8921 22.7871 20.7301 22.7871 20.5598C22.7871 20.3895 22.8224 20.2234 22.8929 20.0697C22.9591 19.9119 23.0605 19.7706 23.1884 19.6502C23.3162 19.5297 23.4617 19.4384 23.6337 19.3719C23.8012 19.3096 23.9732 19.2764 24.154 19.2764C24.3348 19.2764 24.5111 19.3096 24.6787 19.3719C24.8462 19.4384 24.9962 19.5297 25.124 19.6502C25.2519 19.7706 25.3489 19.9119 25.4194 20.0697C25.49 20.2234 25.5253 20.3895 25.5253 20.5598Z" fill="#1D1D1B"/>
<path d="M63.7625 53.09C63.7625 53.2602 63.7272 53.4222 63.6611 53.5801C63.5905 53.7379 63.4891 53.875 63.3613 53.9954C63.2334 54.1159 63.0879 54.2114 62.9203 54.2737C62.7528 54.3402 62.5764 54.3734 62.3956 54.3734C62.2148 54.3734 62.0385 54.3402 61.8709 54.2737C61.7034 54.2114 61.5579 54.1159 61.43 53.9954C61.2977 53.875 61.2007 53.7379 61.1302 53.5801C61.064 53.4222 61.0287 53.2602 61.0287 53.09C61.0287 52.9197 61.064 52.7577 61.1302 52.5998C61.2007 52.442 61.2977 52.3049 61.43 52.1845C61.5579 52.064 61.7034 51.9685 61.8709 51.9062C62.0385 51.8398 62.2148 51.8065 62.3956 51.8065C62.5764 51.8065 62.7528 51.8398 62.9203 51.9062C63.0879 51.9685 63.2334 52.064 63.3613 52.1845C63.4891 52.3049 63.5905 52.442 63.6611 52.5998C63.7272 52.7577 63.7625 52.9197 63.7625 53.09Z" fill="#1D1D1B"/>
<path d="M29.4759 54.3734C29.4759 54.5437 29.4451 54.7057 29.3745 54.8635C29.304 55.0214 29.207 55.1584 29.0791 55.2789C28.9468 55.3993 28.8013 55.4949 28.6338 55.5572C28.4662 55.6236 28.2898 55.6569 28.1091 55.6569C27.9283 55.6569 27.7519 55.6236 27.5844 55.5572C27.4168 55.4949 27.2713 55.3993 27.1434 55.2789C27.0156 55.1584 26.9141 55.0214 26.8436 54.8635C26.7775 54.7057 26.7422 54.5437 26.7422 54.3734C26.7422 54.2031 26.7775 54.0411 26.8436 53.8833C26.9141 53.7255 27.0156 53.5843 27.1434 53.4638C27.2713 53.3475 27.4168 53.252 27.5844 53.1897C27.7519 53.1232 27.9283 53.09 28.1091 53.09C28.2898 53.09 28.4662 53.1232 28.6338 53.1897C28.8013 53.252 28.9468 53.3475 29.0791 53.4638C29.207 53.5843 29.304 53.7255 29.3745 53.8833C29.4451 54.0411 29.4759 54.2031 29.4759 54.3734Z" fill="#1D1D1B"/>
<path d="M63.7625 16.6265C63.7625 16.7968 63.7272 16.9629 63.6611 17.1166C63.5905 17.2744 63.4891 17.4156 63.3613 17.5361C63.2334 17.6565 63.0879 17.7479 62.9203 17.8144C62.7528 17.8767 62.5764 17.9099 62.3956 17.9099C62.2148 17.9099 62.0385 17.8767 61.8709 17.8144C61.7034 17.7479 61.5579 17.6565 61.43 17.5361C61.2977 17.4156 61.2007 17.2744 61.1302 17.1166C61.064 16.9629 61.0287 16.7968 61.0287 16.6265C61.0287 16.4562 61.064 16.2942 61.1302 16.1364C61.2007 15.9785 61.2977 15.8415 61.43 15.721C61.5579 15.6005 61.7034 15.5092 61.8709 15.4427C62.0385 15.3763 62.2148 15.343 62.3956 15.343C62.5764 15.343 62.7528 15.3763 62.9203 15.4427C63.0879 15.5092 63.2334 15.6005 63.3613 15.721C63.4891 15.8415 63.5905 15.9785 63.6611 16.1364C63.7272 16.2942 63.7625 16.4562 63.7625 16.6265Z" fill="#1D1D1B"/>
<path d="M96.2808 26.4661C96.0251 26.0673 95.6856 25.7433 95.2667 25.49C94.8478 25.2408 94.3936 25.0871 93.8998 25.0331C93.4016 24.9625 92.9077 24.9957 92.4271 25.1328C91.9465 25.2698 91.5188 25.4983 91.1484 25.8223C90.6458 26.275 90.2666 26.8066 90.0108 27.4131C89.7551 26.8233 89.3847 26.3041 88.8953 25.8596C88.4588 25.49 87.9605 25.2325 87.3961 25.0829C86.8273 24.9334 86.2585 24.9126 85.6809 25.0123C85.1254 25.0497 84.6183 25.2075 84.1509 25.49C83.6835 25.7724 83.322 26.1421 83.0618 26.6031C82.6826 27.4172 82.5856 28.2562 82.7664 29.1284C82.0962 28.5719 81.3334 28.1773 80.4692 27.953C79.5212 27.7287 78.6349 27.8658 77.8148 28.3642C77.3606 28.6591 77.0167 29.0371 76.783 29.5023C76.5449 29.9716 76.4523 30.4617 76.4964 30.9726C76.4391 34.9433 81.0336 42.1455 88.5734 46.9802C88.6219 47.3581 88.7454 47.7195 88.935 48.0601C89.1246 48.3965 89.3715 48.6956 89.6757 48.9489C89.98 49.2023 90.3239 49.3975 90.7075 49.5346C91.0867 49.6716 91.4835 49.7381 91.8936 49.7423C91.9024 49.7423 91.9112 49.7381 91.92 49.7381C92.4227 49.7215 92.8989 49.6177 93.3531 49.4224C93.5691 49.3228 93.7719 49.2065 93.9659 49.0652C94.1555 48.924 94.3275 48.7662 94.4818 48.5876C94.6362 48.4131 94.7684 48.2262 94.8787 48.0227C94.9845 47.8192 95.0727 47.6074 95.1344 47.3872C95.1917 47.1671 95.227 46.9428 95.2358 46.7144C95.2446 46.4901 95.227 46.2616 95.1829 46.0415C95.1388 45.8172 95.0727 45.6012 94.9757 45.3894C94.8831 45.1817 94.7684 44.9823 94.6273 44.7954C95.3549 42.5401 99.0498 30.4991 96.2808 26.4661ZM91.8936 48.3674C91.7349 48.3674 91.5849 48.3508 91.435 48.3176C91.2807 48.2802 91.1396 48.2304 91.0029 48.1598C90.8662 48.0892 90.7384 48.0061 90.6237 47.9106C90.5091 47.8109 90.4077 47.7029 90.3239 47.5824C90.2357 47.462 90.1696 47.3332 90.1167 47.1962C90.0637 47.0591 90.0285 46.9179 90.0152 46.7725C90.002 46.6271 90.0064 46.4818 90.0285 46.3405C90.0505 46.1952 90.0946 46.0539 90.1519 45.921C90.2137 45.7881 90.2886 45.6635 90.3812 45.5472C90.4738 45.4309 90.5796 45.3229 90.7031 45.2316C90.8221 45.1402 90.95 45.0654 91.0911 45.0031C91.2322 44.9408 91.3777 44.8951 91.532 44.8702C91.6819 44.8411 91.8363 44.8328 91.9906 44.8411C92.1493 44.8453 92.2992 44.8744 92.4492 44.9159C92.5947 44.9574 92.7358 45.0197 92.868 45.0945C93.0003 45.1693 93.1238 45.2565 93.2296 45.3603C93.2384 45.3728 93.2428 45.3811 93.2516 45.3852C93.5118 45.6428 93.6793 45.9418 93.7455 46.2907C93.8116 46.6396 93.7719 46.976 93.622 47.3C93.4765 47.624 93.2428 47.8856 92.9298 48.0767C92.6123 48.2719 92.2684 48.3674 91.8936 48.3674ZM93.4104 43.8111C92.9915 43.6075 92.5506 43.4954 92.0788 43.4705C91.6114 43.4456 91.1528 43.5079 90.7163 43.6657C90.2754 43.8194 89.8874 44.052 89.5523 44.3593C89.2172 44.6708 88.9614 45.028 88.7895 45.4392C81.6553 40.6336 77.9162 34.0586 77.9603 30.9934C77.8853 30.3953 78.097 29.9093 78.5908 29.5272C79.067 29.2364 79.5785 29.1534 80.1296 29.2863C81.8449 29.6767 83.5909 31.8988 84.1244 32.7254C84.2259 32.8832 84.3758 32.987 84.5654 33.0327C84.7594 33.0784 84.9402 33.0535 85.1121 32.9621C85.2841 32.8666 85.3987 32.7295 85.4516 32.5509C85.5046 32.3723 85.4869 32.202 85.3899 32.0359C84.8652 31.147 83.6615 28.5428 84.3714 27.2137C84.7109 26.6737 85.2179 26.3913 85.8882 26.3705C86.6466 26.221 87.3168 26.3871 87.8988 26.8689C88.9658 27.7869 89.2348 29.7681 89.2657 30.9477C89.248 31.3256 89.2524 31.5749 89.2524 31.6164C89.2613 31.7991 89.3318 31.957 89.4729 32.0857C89.614 32.2145 89.7815 32.281 89.98 32.281C90.1696 32.2726 90.3327 32.2062 90.4694 32.0857C90.6105 31.9653 90.6943 31.8158 90.7207 31.6372C90.7251 31.5998 90.7339 31.3506 90.7251 30.9643C90.7869 29.7556 91.0955 27.7246 92.1361 26.8357C92.5903 26.4494 93.1194 26.3041 93.7234 26.3996C94.3099 26.4577 94.7508 26.7277 95.0462 27.2095C97.0745 30.1544 94.7773 39.4457 93.4104 43.8111Z" fill="black"/>
<path d="M122.662 24.8628C122.635 24.3769 122.481 23.9324 122.199 23.5296C121.912 23.1267 121.533 22.8193 121.07 22.6158C120.126 22.1589 119.161 22.1008 118.164 22.4372C117.445 22.6864 116.802 23.0561 116.233 23.5462C116.533 22.5867 116.537 21.6273 116.251 20.6636C116.043 20.1403 115.66 19.779 115.104 19.5796C114.641 19.4051 114.165 19.3304 113.667 19.3594C113.168 19.3885 112.701 19.5173 112.269 19.7457C111.246 20.348 110.47 21.1621 109.945 22.1838C109.778 20.6013 109.346 19.0064 108.314 18.2962C107.939 18.0553 107.525 17.9223 107.075 17.9016C106.621 17.8808 106.197 17.9722 105.801 18.1757C104.998 18.5952 104.319 19.1518 103.768 19.8371C103.217 20.5266 102.833 21.2908 102.621 22.1298C101.224 27.2636 105.404 34.4906 106.422 36.1479C106.255 36.5051 106.171 36.8831 106.171 37.2735C106.171 37.7844 106.308 38.2579 106.581 38.6981C106.85 39.1343 107.22 39.4831 107.692 39.7365C108.129 39.9691 108.605 40.0937 109.107 40.1103C109.143 40.1103 109.174 40.1186 109.2 40.1186C109.57 40.1145 109.923 40.0563 110.267 39.9317C110.611 39.8113 110.92 39.6368 111.197 39.4084C111.471 39.1841 111.696 38.9183 111.872 38.6151C112.044 38.3119 112.154 37.9879 112.203 37.6473C118.429 33.4647 122.909 28.007 122.662 24.8628ZM109.2 38.7438C108.993 38.7438 108.794 38.7064 108.605 38.6317C108.411 38.5569 108.243 38.4531 108.098 38.3119C107.952 38.1748 107.838 38.017 107.758 37.8384C107.679 37.6598 107.639 37.4729 107.639 37.2776C107.639 37.0824 107.679 36.8955 107.758 36.7169C107.838 36.5342 107.952 36.3763 108.098 36.2393C108.243 36.1022 108.415 35.9984 108.605 35.9236C108.799 35.8488 108.997 35.8115 109.204 35.8115C109.412 35.8115 109.61 35.8488 109.804 35.9194C109.994 35.9942 110.161 36.1022 110.311 36.2393C110.457 36.3763 110.571 36.5342 110.651 36.7128C110.73 36.8955 110.77 37.0824 110.77 37.2735C110.77 37.4687 110.73 37.6598 110.651 37.8384C110.571 38.017 110.457 38.1748 110.311 38.316C110.161 38.4531 109.994 38.5569 109.8 38.6317C109.61 38.7064 109.407 38.7438 109.2 38.7438ZM111.965 36.1105C111.872 35.9194 111.757 35.7367 111.621 35.5664C111.488 35.3961 111.334 35.2466 111.162 35.1095C110.99 34.9724 110.801 34.852 110.602 34.7565C110.404 34.6568 110.192 34.582 109.976 34.528C109.756 34.474 109.535 34.4408 109.31 34.4366C109.085 34.4283 108.861 34.445 108.64 34.4865C108.415 34.5239 108.204 34.5862 107.996 34.6734C107.789 34.7565 107.595 34.8603 107.414 34.9891C106.153 32.8334 102.899 26.6696 104.046 22.4663C104.2 21.8183 104.487 21.2327 104.905 20.6969C105.324 20.1652 105.84 19.7333 106.453 19.4051C107.088 19.1559 107.348 19.3345 107.45 19.401C108.539 20.1486 108.706 23.6999 108.477 25.9718C108.459 26.1546 108.512 26.3166 108.631 26.4578C108.75 26.599 108.905 26.6862 109.094 26.7153C109.284 26.7444 109.46 26.707 109.619 26.6031C109.778 26.5035 109.879 26.3622 109.923 26.1878C110.192 25.0248 111.264 21.8183 112.974 20.9502C113.499 20.672 114.041 20.647 114.597 20.8672C114.747 20.9212 114.848 21.0208 114.897 21.1704C115.4 22.3707 114.138 25.598 113.195 27.4048C113.173 27.4505 113.16 27.4795 113.155 27.4878C113.067 27.6581 113.058 27.8326 113.124 28.0112C113.19 28.1898 113.314 28.3227 113.495 28.4058C113.675 28.4888 113.865 28.4971 114.055 28.4348C114.249 28.3767 114.385 28.2604 114.474 28.0901C114.482 28.0735 114.487 28.0569 114.496 28.0444C114.69 27.6748 116.462 24.4392 118.645 23.7331C119.253 23.5254 119.844 23.5628 120.417 23.8411C120.651 23.9408 120.841 24.0944 120.982 24.298C121.127 24.5015 121.198 24.7216 121.207 24.9667C121.401 27.4878 117.322 32.3599 111.96 36.1105H111.965Z" fill="black"/>
<path d="M100.033 16.6265C100.033 16.7968 99.9978 16.9629 99.9273 17.1166C99.8611 17.2744 99.7597 17.4156 99.6318 17.5361C99.504 17.6565 99.3541 17.7479 99.1865 17.8144C99.0189 17.8767 98.847 17.9099 98.6662 17.9099C98.4854 17.9099 98.3091 17.8767 98.1415 17.8144C97.9739 17.7479 97.824 17.6565 97.6962 17.5361C97.5683 17.4156 97.4713 17.2744 97.4007 17.1166C97.3302 16.9629 97.2949 16.7968 97.2949 16.6265C97.2949 16.4562 97.3302 16.2942 97.4007 16.1364C97.4713 15.9785 97.5683 15.8415 97.6962 15.721C97.824 15.6005 97.9739 15.5092 98.1415 15.4427C98.3091 15.3763 98.4854 15.343 98.6662 15.343C98.847 15.343 99.0189 15.3763 99.1865 15.4427C99.3585 15.5092 99.504 15.6005 99.6318 15.721C99.7597 15.8415 99.8611 15.9785 99.9273 16.1364C99.9978 16.2942 100.033 16.4562 100.033 16.6265Z" fill="#1D1D1B"/>
<path d="M122.573 51.8066C122.573 51.9769 122.538 52.1389 122.467 52.2967C122.401 52.4545 122.3 52.5916 122.172 52.712C122.044 52.8325 121.894 52.928 121.727 52.9903C121.559 53.0568 121.387 53.09 121.206 53.09C121.026 53.09 120.849 53.0568 120.682 52.9903C120.514 52.928 120.364 52.8325 120.236 52.712C120.109 52.5916 120.012 52.4545 119.941 52.2967C119.87 52.1389 119.835 51.9769 119.835 51.8066C119.835 51.6363 119.87 51.4743 119.941 51.3165C120.012 51.1586 120.109 51.0216 120.236 50.9011C120.364 50.7807 120.514 50.6851 120.682 50.6228C120.849 50.5564 121.026 50.5232 121.206 50.5232C121.387 50.5232 121.559 50.5564 121.727 50.6228C121.894 50.6851 122.044 50.7807 122.172 50.9011C122.3 51.0216 122.401 51.1586 122.467 51.3165C122.538 51.4743 122.573 51.6363 122.573 51.8066Z" fill="#1D1D1B"/>
<path d="M174.836 53.09C174.836 53.2602 174.801 53.4222 174.735 53.5801C174.664 53.7379 174.567 53.875 174.435 53.9954C174.307 54.1159 174.162 54.2114 173.994 54.2737C173.827 54.3402 173.65 54.3734 173.47 54.3734C173.289 54.3734 173.112 54.3402 172.945 54.2737C172.777 54.2114 172.632 54.1159 172.504 53.9954C172.376 53.875 172.275 53.7379 172.204 53.5801C172.138 53.4222 172.103 53.2602 172.103 53.09C172.103 52.9197 172.138 52.7577 172.204 52.5998C172.275 52.442 172.376 52.3049 172.504 52.1845C172.632 52.064 172.777 51.9685 172.945 51.9062C173.112 51.8398 173.289 51.8065 173.47 51.8065C173.65 51.8065 173.827 51.8398 173.994 51.9062C174.162 51.9685 174.307 52.064 174.435 52.1845C174.567 52.3049 174.664 52.442 174.735 52.5998C174.801 52.7577 174.836 52.9197 174.836 53.09Z" fill="#1D1D1B"/>
<path d="M231.059 54.3734C231.059 54.5437 231.024 54.7057 230.953 54.8635C230.887 55.0214 230.786 55.1584 230.658 55.2789C230.53 55.3993 230.38 55.4949 230.212 55.5572C230.045 55.6236 229.873 55.6569 229.692 55.6569C229.511 55.6569 229.335 55.6236 229.167 55.5572C229 55.4949 228.85 55.3993 228.722 55.2789C228.594 55.1584 228.497 55.0214 228.427 54.8635C228.356 54.7057 228.321 54.5437 228.321 54.3734C228.321 54.2031 228.356 54.0411 228.427 53.8833C228.497 53.7255 228.594 53.5843 228.722 53.4638C228.85 53.3475 229 53.252 229.167 53.1897C229.335 53.1232 229.511 53.09 229.692 53.09C229.873 53.09 230.045 53.1232 230.212 53.1897C230.38 53.252 230.53 53.3475 230.658 53.4638C230.786 53.5843 230.887 53.7255 230.953 53.8833C231.024 54.0411 231.059 54.2031 231.059 54.3734Z" fill="#1D1D1B"/>
<path d="M122.573 38.7438C122.573 38.9141 122.538 39.0761 122.467 39.2339C122.401 39.3918 122.3 39.533 122.172 39.6534C122.044 39.7739 121.894 39.8653 121.727 39.9317C121.559 39.994 121.387 40.0272 121.206 40.0272C121.026 40.0272 120.849 39.994 120.682 39.9276C120.514 39.8653 120.364 39.7739 120.236 39.6534C120.109 39.533 120.012 39.3918 119.941 39.2339C119.87 39.0761 119.835 38.9141 119.835 38.7438C119.835 38.5735 119.87 38.4115 119.941 38.2537C120.012 38.0959 120.109 37.9588 120.236 37.8384C120.364 37.7179 120.514 37.6224 120.682 37.5601C120.849 37.4936 121.026 37.4604 121.206 37.4604C121.387 37.4604 121.559 37.4936 121.727 37.5601C121.894 37.6224 122.044 37.7179 122.172 37.8384C122.3 37.9588 122.401 38.0959 122.467 38.2537C122.538 38.4115 122.573 38.5735 122.573 38.7438Z" fill="#1D1D1B"/>
<path d="M105.17 48.3674C105.17 48.5377 105.135 48.7039 105.064 48.8576C104.998 49.0154 104.896 49.1566 104.769 49.2771C104.641 49.3975 104.491 49.4889 104.323 49.5553C104.156 49.6177 103.984 49.6509 103.803 49.6509C103.622 49.6509 103.446 49.6177 103.278 49.5553C103.111 49.4889 102.961 49.3975 102.833 49.2771C102.705 49.1566 102.608 49.0154 102.538 48.8576C102.467 48.7039 102.432 48.5377 102.432 48.3674C102.432 48.1972 102.467 48.0352 102.538 47.8773C102.608 47.7195 102.705 47.5824 102.833 47.462C102.961 47.3415 103.111 47.2502 103.278 47.1837C103.446 47.1172 103.622 47.084 103.803 47.084C103.984 47.084 104.156 47.1172 104.323 47.1837C104.491 47.2502 104.641 47.3415 104.769 47.462C104.896 47.5824 104.998 47.7195 105.064 47.8773C105.135 48.0352 105.17 48.1972 105.17 48.3674Z" fill="#1D1D1B"/>
<path d="M81.7435 20.5598C81.7435 20.7301 81.7082 20.8921 81.6421 21.0499C81.5716 21.2077 81.4701 21.3448 81.3423 21.4653C81.2144 21.5857 81.0689 21.6771 80.9013 21.7435C80.7338 21.81 80.5574 21.8432 80.3766 21.8432C80.1959 21.8432 80.0195 21.81 79.8519 21.7435C79.6844 21.6771 79.5389 21.5857 79.411 21.4653C79.2787 21.3448 79.1817 21.2077 79.1112 21.0499C79.0406 20.8921 79.0098 20.7301 79.0098 20.5598C79.0098 20.3895 79.0406 20.2234 79.1112 20.0697C79.1817 19.9119 79.2787 19.7706 79.411 19.6502C79.5389 19.5297 79.6844 19.4384 79.8519 19.3719C80.0195 19.3096 80.1959 19.2764 80.3766 19.2764C80.5574 19.2764 80.7338 19.3096 80.9013 19.3719C81.0689 19.4384 81.2144 19.5297 81.3423 19.6502C81.4701 19.7706 81.5716 19.9119 81.6421 20.0697C81.7082 20.2234 81.7435 20.3895 81.7435 20.5598Z" fill="#1D1D1B"/>
<path d="M76.492 40.1186C76.492 40.2889 76.4567 40.4509 76.3906 40.6087C76.32 40.7665 76.2186 40.9036 76.0908 41.0241C75.9629 41.1445 75.8174 41.2359 75.6498 41.3023C75.4823 41.3688 75.3059 41.3979 75.1251 41.3979C74.9443 41.3979 74.768 41.3688 74.6004 41.3023C74.4329 41.2359 74.283 41.1445 74.1551 41.0241C74.0272 40.9036 73.9302 40.7665 73.8597 40.6087C73.7891 40.4509 73.7538 40.2889 73.7538 40.1186C73.7538 39.9483 73.7891 39.7822 73.8597 39.6243C73.9302 39.4706 74.0272 39.3294 74.1551 39.209C74.283 39.0885 74.4329 38.9971 74.6004 38.9307C74.768 38.8684 74.9443 38.8352 75.1251 38.8352C75.3059 38.8352 75.4823 38.8684 75.6498 38.9307C75.8174 38.9971 75.9629 39.0885 76.0908 39.209C76.2186 39.3294 76.32 39.4706 76.3906 39.6243C76.4567 39.7822 76.492 39.9483 76.492 40.1186Z" fill="#1D1D1B"/>
<path d="M85.6986 54.3734C85.6986 54.5437 85.6633 54.7057 85.5972 54.8635C85.5266 55.0214 85.4252 55.1584 85.2974 55.2789C85.1695 55.3993 85.024 55.4949 84.8564 55.5572C84.6889 55.6236 84.5125 55.6569 84.3317 55.6569C84.151 55.6569 83.9746 55.6236 83.807 55.5572C83.6395 55.4949 83.4896 55.3993 83.3617 55.2789C83.2338 55.1584 83.1368 55.0214 83.0663 54.8635C82.9957 54.7057 82.9604 54.5437 82.9604 54.3734C82.9604 54.2031 82.9957 54.0411 83.0663 53.8833C83.1368 53.7255 83.2338 53.5843 83.3617 53.4638C83.4896 53.3475 83.6395 53.252 83.807 53.1897C83.9746 53.1232 84.151 53.09 84.3317 53.09C84.5125 53.09 84.6889 53.1232 84.8564 53.1897C85.024 53.252 85.1695 53.3475 85.2974 53.4638C85.4252 53.5843 85.5266 53.7255 85.5972 53.8833C85.6633 54.0411 85.6986 54.2031 85.6986 54.3734Z" fill="#1D1D1B"/>
<path d="M119.985 16.6265C119.985 16.7968 119.95 16.9629 119.879 17.1166C119.813 17.2744 119.712 17.4156 119.584 17.5361C119.456 17.6565 119.306 17.7479 119.138 17.8144C118.971 17.8767 118.799 17.9099 118.618 17.9099C118.437 17.9099 118.261 17.8767 118.093 17.8144C117.926 17.7479 117.776 17.6565 117.648 17.5361C117.52 17.4156 117.423 17.2744 117.353 17.1166C117.282 16.9629 117.247 16.7968 117.247 16.6265C117.247 16.4562 117.282 16.2942 117.353 16.1364C117.423 15.9785 117.52 15.8415 117.648 15.721C117.776 15.6005 117.926 15.5092 118.093 15.4427C118.261 15.3763 118.437 15.343 118.618 15.343C118.799 15.343 118.971 15.3763 119.138 15.4427C119.306 15.5092 119.456 15.6005 119.584 15.721C119.712 15.8415 119.813 15.9785 119.879 16.1364C119.95 16.2942 119.985 16.4562 119.985 16.6265Z" fill="#1D1D1B"/>
<path d="M152.504 26.4661C152.248 26.0673 151.908 25.7433 151.489 25.49C151.07 25.2408 150.612 25.0871 150.118 25.0331C149.62 24.9625 149.13 24.9957 148.645 25.1328C148.165 25.2698 147.737 25.4983 147.367 25.8223C146.864 26.275 146.485 26.8066 146.234 27.4131C145.978 26.8233 145.603 26.3041 145.114 25.8596C144.681 25.49 144.179 25.2325 143.614 25.0829C143.05 24.9334 142.477 24.9126 141.899 25.0123C141.348 25.0497 140.837 25.2075 140.369 25.49C139.902 25.7724 139.54 26.1421 139.28 26.6031C138.905 27.4172 138.804 28.2562 138.985 29.1284C138.319 28.5719 137.552 28.1773 136.692 27.953C135.739 27.7287 134.858 27.8658 134.033 28.3642C133.579 28.6591 133.235 29.0371 133.001 29.5023C132.768 29.9716 132.671 30.4617 132.715 30.9726C132.662 34.9433 137.252 42.1455 144.796 46.9802C144.845 47.3581 144.964 47.7195 145.153 48.0601C145.343 48.3965 145.59 48.6956 145.894 48.9489C146.203 49.2023 146.547 49.3975 146.926 49.5346C147.309 49.6716 147.702 49.7381 148.112 49.7423C148.125 49.7423 148.134 49.7381 148.143 49.7381C148.641 49.7215 149.117 49.6177 149.571 49.4224C149.787 49.3228 149.995 49.2065 150.184 49.0652C150.374 48.924 150.546 48.7662 150.7 48.5876C150.854 48.4131 150.987 48.2262 151.097 48.0227C151.207 47.8192 151.291 47.6074 151.353 47.3872C151.414 47.1671 151.45 46.9428 151.459 46.7144C151.467 46.4901 151.45 46.2616 151.406 46.0415C151.362 45.8172 151.291 45.6012 151.198 45.3894C151.106 45.1817 150.987 44.9823 150.846 44.7954C151.578 42.5401 155.273 30.4991 152.504 26.4661ZM148.112 48.3674C147.958 48.3674 147.803 48.3508 147.653 48.3135C147.503 48.2802 147.358 48.2262 147.221 48.1598C147.085 48.0892 146.961 48.0061 146.846 47.9106C146.732 47.8109 146.63 47.7029 146.542 47.5824C146.458 47.462 146.388 47.3332 146.335 47.1962C146.286 47.0591 146.251 46.9179 146.238 46.7725C146.22 46.6271 146.225 46.4818 146.247 46.3405C146.273 46.1952 146.313 46.0539 146.375 45.921C146.432 45.7881 146.511 45.6635 146.604 45.5472C146.696 45.4268 146.802 45.3229 146.921 45.2316C147.04 45.1402 147.173 45.0654 147.314 45.0031C147.455 44.9408 147.6 44.8951 147.755 44.8702C147.905 44.8411 148.059 44.8328 148.213 44.8411C148.368 44.8453 148.522 44.8744 148.667 44.9159C148.817 44.9574 148.958 45.0197 149.091 45.0945C149.223 45.1693 149.342 45.2565 149.452 45.3603C149.457 45.3728 149.466 45.3811 149.474 45.3852C149.734 45.6428 149.898 45.9418 149.964 46.2907C150.034 46.6396 149.99 46.976 149.845 47.3C149.695 47.624 149.466 47.8856 149.148 48.0767C148.835 48.2719 148.487 48.3674 148.112 48.3674ZM149.633 43.8111C149.214 43.6075 148.769 43.4954 148.297 43.4705C147.83 43.4456 147.376 43.5079 146.935 43.6657C146.494 43.8194 146.106 44.052 145.771 44.3593C145.435 44.6708 145.18 45.028 145.008 45.4392C137.878 40.6336 134.134 34.0586 134.179 30.9934C134.104 30.3953 134.315 29.9093 134.814 29.5272C135.285 29.2364 135.797 29.1534 136.348 29.2863C138.068 29.6767 139.814 31.8988 140.343 32.7254C140.444 32.8874 140.594 32.9954 140.788 33.041C140.982 33.0909 141.167 33.066 141.339 32.9746C141.516 32.8791 141.63 32.742 141.683 32.5592C141.736 32.3765 141.71 32.202 141.608 32.0359C141.088 31.147 139.88 28.5428 140.59 27.2137C140.929 26.6737 141.436 26.3913 142.106 26.3705C142.865 26.221 143.535 26.3871 144.117 26.8689C145.184 27.7869 145.453 29.7681 145.484 30.9477C145.466 31.3256 145.475 31.5749 145.475 31.6164C145.48 31.7991 145.554 31.957 145.696 32.0857C145.832 32.2145 146 32.281 146.198 32.281C146.388 32.2726 146.551 32.2062 146.692 32.0857C146.829 31.9653 146.913 31.8158 146.939 31.6372C146.943 31.5998 146.957 31.3506 146.948 30.9643C147.005 29.7556 147.314 27.7246 148.354 26.8357C148.809 26.4494 149.338 26.3041 149.942 26.3996C150.533 26.4577 150.973 26.7277 151.269 27.2095C153.297 30.1544 150.996 39.4457 149.633 43.8111Z" fill="black"/>
<path d="M178.88 24.8628C178.858 24.3769 178.703 23.9324 178.417 23.5296C178.13 23.1267 177.755 22.8193 177.288 22.6158C176.349 22.1589 175.379 22.1008 174.387 22.4372C173.664 22.6864 173.02 23.0561 172.455 23.5462C172.751 22.5867 172.755 21.6273 172.473 20.6636C172.261 20.1403 171.878 19.779 171.322 19.5796C170.864 19.4051 170.383 19.3304 169.885 19.3594C169.387 19.3885 168.919 19.5173 168.487 19.7457C167.464 20.348 166.693 21.1621 166.168 22.1838C166 20.6013 165.564 19.0064 164.532 18.2962C164.157 18.0553 163.747 17.9223 163.293 17.9016C162.839 17.8808 162.416 17.9722 162.019 18.1757C161.216 18.5952 160.542 19.1518 159.986 19.8371C159.435 20.5266 159.051 21.2908 158.844 22.1298C157.442 27.2636 161.626 34.4906 162.645 36.1479C162.473 36.5051 162.389 36.8831 162.389 37.2735C162.393 37.7844 162.526 38.2579 162.799 38.6981C163.073 39.1343 163.443 39.4831 163.91 39.7365C164.351 39.9691 164.823 40.0937 165.326 40.1103C165.361 40.1103 165.392 40.1186 165.423 40.1186C165.789 40.1145 166.141 40.0563 166.485 39.9317C166.829 39.8113 167.138 39.6368 167.416 39.4084C167.693 39.1841 167.914 38.9183 168.09 38.6151C168.262 38.3119 168.372 37.9879 168.421 37.6473C174.651 33.4647 179.131 28.007 178.88 24.8628ZM165.423 38.7438C165.215 38.7438 165.013 38.7064 164.823 38.6317C164.633 38.5569 164.461 38.4531 164.316 38.3119C164.17 38.1748 164.056 38.017 163.976 37.8384C163.897 37.6598 163.857 37.4729 163.857 37.2776C163.857 37.0824 163.897 36.8955 163.976 36.7169C164.056 36.5342 164.17 36.3763 164.316 36.2393C164.461 36.1022 164.633 35.9984 164.823 35.9236C165.017 35.8488 165.215 35.8115 165.423 35.8115C165.63 35.8115 165.828 35.8488 166.022 35.9194C166.212 35.9942 166.384 36.1022 166.529 36.2393C166.675 36.3763 166.79 36.5342 166.869 36.7128C166.948 36.8955 166.988 37.0824 166.988 37.2735C166.988 37.4687 166.948 37.6556 166.869 37.8384C166.79 38.017 166.675 38.1748 166.529 38.316C166.384 38.4531 166.212 38.5569 166.022 38.6317C165.828 38.7064 165.63 38.7438 165.423 38.7438ZM168.183 36.1105C168.09 35.9194 167.976 35.7367 167.843 35.5664C167.707 35.3961 167.552 35.2466 167.38 35.1095C167.208 34.9724 167.023 34.852 166.82 34.7565C166.622 34.6568 166.415 34.582 166.194 34.528C165.978 34.474 165.753 34.4408 165.528 34.4366C165.304 34.4283 165.079 34.445 164.858 34.4865C164.638 34.5239 164.422 34.5862 164.215 34.6734C164.007 34.7565 163.813 34.8603 163.632 34.9891C162.376 32.8334 159.117 26.6696 160.268 22.4663C160.423 21.8183 160.709 21.2327 161.128 20.6969C161.542 20.1652 162.058 19.7333 162.671 19.4051C163.311 19.1559 163.571 19.3345 163.668 19.401C164.761 20.1486 164.929 23.6999 164.7 25.9718C164.682 26.1546 164.73 26.3166 164.849 26.4578C164.968 26.6031 165.123 26.6862 165.312 26.7153C165.506 26.7444 165.678 26.707 165.837 26.6031C166 26.5035 166.097 26.3622 166.141 26.1878C166.41 25.0248 167.486 21.8183 169.193 20.9502C169.722 20.672 170.26 20.647 170.815 20.8672C170.97 20.9212 171.071 21.0208 171.115 21.1704C171.622 22.3707 170.361 25.598 169.417 27.4048C169.395 27.4505 169.382 27.4795 169.378 27.4878C169.29 27.6581 169.276 27.8326 169.342 28.0112C169.409 28.1898 169.532 28.3227 169.717 28.4058C169.898 28.4888 170.083 28.4971 170.277 28.4348C170.467 28.3767 170.608 28.2604 170.696 28.0901C170.701 28.0735 170.709 28.0569 170.718 28.0444C170.908 27.6748 172.68 24.4392 174.863 23.7331C175.471 23.5254 176.062 23.5628 176.635 23.8411C176.874 23.9449 177.063 24.0944 177.204 24.298C177.345 24.5015 177.42 24.7216 177.425 24.9667C177.619 27.4878 173.545 32.3599 168.183 36.1105Z" fill="black"/>
<path d="M156.256 16.6265C156.256 16.7968 156.22 16.9629 156.15 17.1166C156.079 17.2744 155.982 17.4156 155.854 17.5361C155.727 17.6565 155.577 17.7479 155.409 17.8144C155.242 17.8767 155.07 17.9099 154.884 17.9099C154.704 17.9099 154.532 17.8767 154.364 17.8144C154.197 17.7479 154.047 17.6565 153.919 17.5361C153.791 17.4156 153.689 17.2744 153.623 17.1166C153.553 16.9629 153.518 16.7968 153.518 16.6265C153.518 16.4562 153.553 16.2942 153.623 16.1364C153.689 15.9785 153.791 15.8415 153.919 15.721C154.047 15.6005 154.197 15.5092 154.364 15.4427C154.532 15.3763 154.704 15.343 154.884 15.343C155.07 15.343 155.242 15.3763 155.409 15.4427C155.577 15.5092 155.727 15.6005 155.854 15.721C155.982 15.8415 156.079 15.9785 156.15 16.1364C156.22 16.2942 156.256 16.4562 156.256 16.6265Z" fill="#1D1D1B"/>
<path d="M178.796 38.7438C178.796 38.9141 178.761 39.0761 178.69 39.2339C178.62 39.3918 178.523 39.533 178.395 39.6534C178.267 39.7739 178.117 39.8653 177.949 39.9317C177.782 39.994 177.61 40.0272 177.425 40.0272C177.244 40.0272 177.072 39.994 176.904 39.9276C176.737 39.8653 176.587 39.7739 176.459 39.6534C176.331 39.533 176.23 39.3918 176.164 39.2339C176.093 39.0761 176.058 38.9141 176.058 38.7438C176.058 38.5735 176.093 38.4115 176.164 38.2537C176.23 38.0959 176.331 37.9588 176.459 37.8384C176.587 37.7179 176.737 37.6224 176.904 37.5601C177.072 37.4936 177.244 37.4604 177.425 37.4604C177.61 37.4604 177.782 37.4936 177.949 37.5601C178.117 37.6224 178.267 37.7179 178.395 37.8384C178.523 37.9588 178.62 38.0959 178.69 38.2537C178.761 38.4115 178.796 38.5735 178.796 38.7438Z" fill="#1D1D1B"/>
<path d="M161.393 48.3674C161.393 48.5377 161.357 48.7039 161.287 48.8576C161.216 49.0154 161.119 49.1566 160.991 49.2771C160.863 49.3975 160.714 49.4889 160.546 49.5553C160.378 49.6177 160.206 49.6509 160.021 49.6509C159.841 49.6509 159.669 49.6177 159.501 49.5553C159.333 49.4889 159.184 49.3975 159.056 49.2771C158.928 49.1566 158.826 49.0154 158.76 48.8576C158.69 48.7039 158.654 48.5377 158.654 48.3674C158.654 48.1972 158.69 48.0352 158.76 47.8773C158.826 47.7195 158.928 47.5824 159.056 47.462C159.184 47.3415 159.333 47.2502 159.501 47.1837C159.669 47.1172 159.841 47.084 160.021 47.084C160.206 47.084 160.378 47.1172 160.546 47.1837C160.714 47.2502 160.863 47.3415 160.991 47.462C161.119 47.5824 161.216 47.7195 161.287 47.8773C161.357 48.0352 161.393 48.1972 161.393 48.3674Z" fill="#1D1D1B"/>
<path d="M137.966 20.5598C137.966 20.7301 137.931 20.8921 137.86 21.0499C137.794 21.2077 137.693 21.3448 137.565 21.4653C137.437 21.5857 137.287 21.6771 137.12 21.7435C136.952 21.81 136.78 21.8432 136.599 21.8432C136.414 21.8432 136.242 21.81 136.075 21.7435C135.907 21.6771 135.757 21.5857 135.629 21.4653C135.501 21.3448 135.404 21.2077 135.334 21.0499C135.263 20.8921 135.228 20.7301 135.228 20.5598C135.228 20.3895 135.263 20.2234 135.334 20.0697C135.404 19.9119 135.501 19.7706 135.629 19.6502C135.757 19.5297 135.907 19.4384 136.075 19.3719C136.242 19.3096 136.414 19.2764 136.599 19.2764C136.78 19.2764 136.952 19.3096 137.12 19.3719C137.287 19.4384 137.437 19.5297 137.565 19.6502C137.693 19.7706 137.794 19.9119 137.86 20.0697C137.931 20.2234 137.966 20.3895 137.966 20.5598Z" fill="#1D1D1B"/>
<path d="M132.715 40.1186C132.715 40.2889 132.679 40.4509 132.609 40.6087C132.538 40.7665 132.441 40.9036 132.313 41.0241C132.186 41.1445 132.036 41.2359 131.868 41.3023C131.701 41.3688 131.529 41.3979 131.348 41.3979C131.163 41.3979 130.991 41.3688 130.823 41.3023C130.656 41.2359 130.506 41.1445 130.378 41.0241C130.25 40.9036 130.153 40.7665 130.082 40.6087C130.012 40.4509 129.977 40.2889 129.977 40.1186C129.977 39.9483 130.012 39.7822 130.082 39.6243C130.153 39.4706 130.25 39.3294 130.378 39.209C130.506 39.0885 130.656 38.9971 130.823 38.9307C130.991 38.8684 131.163 38.8352 131.348 38.8352C131.529 38.8352 131.701 38.8684 131.868 38.9307C132.036 38.9971 132.186 39.0885 132.313 39.209C132.441 39.3294 132.538 39.4706 132.609 39.6243C132.679 39.7822 132.715 39.9483 132.715 40.1186Z" fill="#1D1D1B"/>
<path d="M141.921 54.3734C141.921 54.5437 141.886 54.7057 141.815 54.8635C141.745 55.0214 141.648 55.1584 141.52 55.2789C141.392 55.3993 141.242 55.4949 141.075 55.5572C140.907 55.6236 140.735 55.6569 140.554 55.6569C140.369 55.6569 140.197 55.6236 140.03 55.5572C139.862 55.4949 139.712 55.3993 139.584 55.2789C139.456 55.1584 139.359 55.0214 139.289 54.8635C139.218 54.7057 139.183 54.5437 139.183 54.3734C139.183 54.2031 139.218 54.0411 139.289 53.8833C139.359 53.7255 139.456 53.5843 139.584 53.4638C139.712 53.3475 139.862 53.252 140.03 53.1897C140.197 53.1232 140.369 53.09 140.554 53.09C140.735 53.09 140.907 53.1232 141.075 53.1897C141.242 53.252 141.392 53.3475 141.52 53.4638C141.648 53.5843 141.745 53.7255 141.815 53.8833C141.886 54.0411 141.921 54.2031 141.921 54.3734Z" fill="#1D1D1B"/>
<path d="M176.208 16.6265C176.208 16.7968 176.172 16.9629 176.102 17.1166C176.031 17.2744 175.934 17.4156 175.807 17.5361C175.679 17.6565 175.529 17.7479 175.361 17.8144C175.194 17.8767 175.022 17.9099 174.836 17.9099C174.656 17.9099 174.484 17.8767 174.316 17.8144C174.149 17.7479 173.999 17.6565 173.871 17.5361C173.743 17.4156 173.642 17.2744 173.575 17.1166C173.505 16.9629 173.47 16.7968 173.47 16.6265C173.47 16.4562 173.505 16.2942 173.575 16.1364C173.642 15.9785 173.743 15.8415 173.871 15.721C173.999 15.6005 174.149 15.5092 174.316 15.4427C174.484 15.3763 174.656 15.343 174.836 15.343C175.022 15.343 175.194 15.3763 175.361 15.4427C175.529 15.5092 175.679 15.6005 175.807 15.721C175.934 15.8415 176.031 15.9785 176.102 16.1364C176.172 16.2942 176.208 16.4562 176.208 16.6265Z" fill="#1D1D1B"/>
<path d="M208.726 26.4661C208.47 26.0673 208.131 25.7433 207.712 25.49C207.293 25.2408 206.839 25.0871 206.345 25.0331C205.847 24.9625 205.353 24.9957 204.872 25.1328C204.387 25.2698 203.964 25.4983 203.594 25.8223C203.091 26.275 202.712 26.8066 202.456 27.4131C202.2 26.8233 201.83 26.3041 201.34 25.8596C200.904 25.49 200.406 25.2325 199.841 25.0829C199.273 24.9334 198.704 24.9126 198.126 25.0123C197.571 25.0497 197.063 25.2075 196.596 25.49C196.129 25.7724 195.767 26.1421 195.507 26.6031C195.128 27.4172 195.031 28.2562 195.212 29.1284C194.541 28.5719 193.779 28.1773 192.914 27.953C191.966 27.7287 191.08 27.8658 190.26 28.3642C189.806 28.6591 189.462 29.0371 189.228 29.5023C188.99 29.9716 188.898 30.4617 188.942 30.9726C188.884 34.9433 193.474 42.1455 201.019 46.9802C201.067 47.3581 201.186 47.7195 201.376 48.0601C201.565 48.3965 201.817 48.6956 202.121 48.9489C202.425 49.2023 202.769 49.3975 203.153 49.5346C203.532 49.6716 203.929 49.7381 204.334 49.7423C204.348 49.7423 204.356 49.7381 204.365 49.7381C204.863 49.7215 205.344 49.6177 205.794 49.4224C206.014 49.3228 206.217 49.2065 206.411 49.0652C206.601 48.924 206.773 48.7662 206.927 48.5917C207.081 48.4131 207.214 48.2262 207.324 48.0227C207.43 47.8192 207.518 47.6074 207.58 47.3872C207.637 47.1671 207.672 46.9428 207.681 46.7144C207.69 46.4901 207.672 46.2616 207.628 46.0415C207.584 45.8172 207.518 45.5971 207.421 45.3894C207.328 45.1817 207.209 44.9823 207.073 44.7954C207.796 42.5401 211.495 30.4991 208.726 26.4661ZM204.33 48.3674C204.176 48.3674 204.026 48.3508 203.871 48.3135C203.721 48.2802 203.58 48.2262 203.444 48.1598C203.307 48.0892 203.179 48.0061 203.064 47.9106C202.95 47.8109 202.848 47.7029 202.765 47.5824C202.676 47.462 202.61 47.3332 202.557 47.1962C202.505 47.0591 202.474 46.9179 202.456 46.7725C202.443 46.6271 202.447 46.4818 202.469 46.3405C202.491 46.1952 202.535 46.0539 202.593 45.921C202.654 45.7881 202.729 45.6635 202.822 45.5472C202.915 45.4268 203.02 45.3229 203.144 45.2316C203.263 45.1402 203.395 45.0654 203.532 45.0031C203.673 44.9408 203.823 44.8951 203.973 44.8702C204.127 44.8411 204.277 44.8328 204.436 44.8411C204.59 44.8453 204.74 44.8744 204.89 44.9159C205.035 44.9574 205.177 45.0197 205.309 45.0945C205.441 45.1693 205.565 45.2565 205.67 45.3603C205.679 45.3728 205.684 45.3811 205.692 45.3852C205.953 45.6428 206.12 45.9418 206.186 46.2907C206.252 46.6396 206.213 46.976 206.063 47.3C205.917 47.624 205.684 47.8856 205.371 48.0767C205.053 48.2719 204.709 48.3674 204.33 48.3674ZM205.851 43.8111C205.432 43.6075 204.991 43.4954 204.52 43.4705C204.052 43.4456 203.598 43.5079 203.157 43.6657C202.716 43.8194 202.328 44.052 201.993 44.3593C201.658 44.6708 201.402 45.028 201.23 45.4392C194.096 40.6336 190.357 34.0586 190.401 30.9934C190.326 30.3953 190.538 29.9093 191.032 29.5272C191.508 29.2364 192.019 29.1534 192.57 29.2863C194.286 29.6767 196.032 31.8988 196.565 32.7254C196.662 32.8874 196.812 32.9954 197.006 33.0452C197.205 33.0909 197.39 33.0701 197.562 32.9746C197.738 32.8791 197.853 32.742 197.906 32.5592C197.954 32.3765 197.932 32.202 197.831 32.0359C197.31 31.147 196.102 28.5428 196.812 27.2137C197.152 26.6696 197.659 26.3913 198.329 26.3705C199.087 26.221 199.758 26.3871 200.34 26.8689C201.407 27.7869 201.676 29.7681 201.702 30.9477C201.689 31.3256 201.698 31.5749 201.698 31.6164C201.702 31.7991 201.773 31.957 201.914 32.0857C202.055 32.2145 202.222 32.281 202.421 32.281C202.61 32.2726 202.773 32.2062 202.91 32.0857C203.051 31.9653 203.135 31.8158 203.161 31.6372C203.161 31.5998 203.175 31.3506 203.17 30.9643C203.228 29.7556 203.536 27.7246 204.577 26.8357C205.031 26.4494 205.56 26.3041 206.164 26.3996C206.755 26.4577 207.196 26.7277 207.491 27.2095C209.515 30.1544 207.218 39.4457 205.851 43.8111Z" fill="black"/>
<path d="M235.102 24.8628C235.076 24.3769 234.922 23.9324 234.639 23.5296C234.353 23.1267 233.974 22.8193 233.506 22.6158C232.567 22.1589 231.601 22.1008 230.605 22.4372C229.886 22.6864 229.243 23.0561 228.674 23.5462C228.974 22.5867 228.978 21.6273 228.691 20.6636C228.484 20.1403 228.101 19.779 227.545 19.5796C227.082 19.4051 226.606 19.3304 226.108 19.3594C225.609 19.3885 225.142 19.5173 224.71 19.7457C223.687 20.348 222.911 21.1621 222.386 22.1838C222.223 20.6013 221.782 19.0064 220.75 18.2962C220.38 18.0553 219.965 17.9223 219.516 17.9016C219.062 17.8808 218.638 17.9722 218.241 18.1757C217.439 18.5952 216.76 19.1518 216.209 19.8371C215.658 20.5266 215.274 21.2908 215.062 22.1298C213.665 27.2636 217.845 34.4906 218.863 36.1479C218.696 36.5051 218.612 36.8831 218.612 37.2735C218.612 37.7844 218.748 38.2579 219.022 38.6981C219.291 39.1343 219.661 39.4831 220.133 39.7365C220.569 39.9691 221.041 40.0937 221.548 40.1103C221.584 40.1103 221.614 40.1186 221.645 40.1186C222.011 40.1145 222.364 40.0563 222.708 39.9317C223.052 39.8113 223.361 39.6368 223.638 39.4084C223.912 39.1841 224.137 38.9183 224.313 38.6151C224.485 38.3119 224.595 37.9879 224.644 37.6473C230.874 33.4647 235.354 28.007 235.102 24.8628ZM221.641 38.7438C221.434 38.7438 221.235 38.7064 221.046 38.6317C220.852 38.5569 220.684 38.4531 220.534 38.316C220.389 38.1748 220.278 38.017 220.199 37.8384C220.12 37.6598 220.08 37.4729 220.08 37.2776C220.08 37.0824 220.12 36.8955 220.199 36.7169C220.278 36.5342 220.389 36.3763 220.539 36.2393C220.684 36.1022 220.852 35.9984 221.046 35.9236C221.235 35.8488 221.434 35.8115 221.641 35.8115C221.848 35.8115 222.051 35.8488 222.241 35.9194C222.435 35.9942 222.602 36.1022 222.748 36.2393C222.898 36.3763 223.008 36.5342 223.087 36.7128C223.167 36.8955 223.206 37.0824 223.206 37.2735C223.206 37.4687 223.167 37.6556 223.087 37.8384C223.008 38.017 222.898 38.1748 222.748 38.3119C222.602 38.4531 222.435 38.5569 222.241 38.6317C222.051 38.7064 221.848 38.7438 221.641 38.7438ZM224.401 36.1105C224.309 35.9194 224.198 35.7367 224.062 35.5664C223.925 35.4003 223.775 35.2466 223.603 35.1095C223.431 34.9724 223.242 34.8561 223.043 34.7565C222.845 34.6609 222.633 34.582 222.417 34.528C222.197 34.474 221.976 34.445 221.751 34.4366C221.526 34.4283 221.301 34.445 221.081 34.4865C220.86 34.5239 220.644 34.5862 220.437 34.6734C220.23 34.7565 220.036 34.8603 219.855 34.9891C218.599 32.8334 215.34 26.6696 216.491 22.4663C216.645 21.8183 216.932 21.2327 217.351 20.6969C217.77 20.1652 218.281 19.7333 218.894 19.4051C219.533 19.1559 219.793 19.3345 219.89 19.401C220.984 20.1486 221.152 23.6999 220.922 25.9718C220.905 26.1546 220.953 26.3166 221.072 26.4578C221.191 26.599 221.346 26.6862 221.535 26.7153C221.729 26.7444 221.901 26.707 222.064 26.6031C222.223 26.5035 222.324 26.3622 222.364 26.1878C222.633 25.0248 223.709 21.8183 225.415 20.9502C225.944 20.672 226.482 20.647 227.038 20.8672C227.192 20.9212 227.294 21.0208 227.338 21.1704C227.845 22.3707 226.584 25.598 225.64 27.4048C225.618 27.4505 225.605 27.4795 225.6 27.4878C225.517 27.6581 225.508 27.8284 225.574 28.007C225.645 28.1815 225.764 28.3102 225.944 28.3933C226.125 28.4764 226.31 28.4847 226.5 28.4265C226.69 28.3684 226.826 28.2562 226.919 28.0901C226.923 28.0735 226.932 28.0569 226.941 28.0444C227.135 27.6748 228.907 24.4392 231.09 23.7331C231.694 23.5254 232.285 23.5628 232.863 23.8411C233.096 23.9449 233.286 24.0944 233.427 24.298C233.568 24.5015 233.643 24.7216 233.647 24.9667C233.841 27.4878 229.767 32.3599 224.406 36.1105H224.401Z" fill="black"/>
<path d="M212.478 16.6265C212.478 16.7968 212.443 16.9629 212.373 17.1166C212.302 17.2744 212.205 17.4156 212.077 17.5361C211.949 17.6565 211.799 17.7479 211.632 17.8144C211.464 17.8767 211.288 17.9099 211.107 17.9099C210.926 17.9099 210.754 17.8767 210.587 17.8144C210.419 17.7479 210.269 17.6565 210.141 17.5361C210.014 17.4156 209.912 17.2744 209.846 17.1166C209.776 16.9629 209.74 16.7968 209.74 16.6265C209.74 16.4562 209.776 16.2942 209.846 16.1364C209.912 15.9785 210.014 15.8415 210.141 15.721C210.269 15.6005 210.419 15.5092 210.587 15.4427C210.754 15.3763 210.926 15.343 211.107 15.343C211.288 15.343 211.464 15.3763 211.632 15.4427C211.799 15.5092 211.949 15.6005 212.077 15.721C212.205 15.8415 212.302 15.9785 212.373 16.1364C212.443 16.2942 212.478 16.4562 212.478 16.6265Z" fill="#1D1D1B"/>
<path d="M235.019 38.7438C235.019 38.9141 234.983 39.0761 234.913 39.2339C234.842 39.3918 234.745 39.533 234.617 39.6534C234.49 39.7739 234.34 39.8653 234.172 39.9317C234.005 39.994 233.828 40.0272 233.647 40.0272C233.467 40.0272 233.29 39.994 233.123 39.9276C232.955 39.8653 232.81 39.7739 232.682 39.6534C232.554 39.533 232.452 39.3918 232.386 39.2339C232.316 39.0761 232.281 38.9141 232.281 38.7438C232.281 38.5735 232.316 38.4115 232.386 38.2537C232.452 38.0959 232.554 37.9588 232.682 37.8384C232.81 37.7179 232.955 37.6224 233.123 37.5601C233.29 37.4936 233.467 37.4604 233.647 37.4604C233.828 37.4604 234.005 37.4936 234.172 37.5601C234.34 37.6224 234.49 37.7179 234.617 37.8384C234.745 37.9588 234.842 38.0959 234.913 38.2537C234.983 38.4115 235.019 38.5735 235.019 38.7438Z" fill="#1D1D1B"/>
<path d="M217.611 48.3674C217.611 48.5377 217.58 48.7039 217.509 48.8576C217.439 49.0154 217.342 49.1566 217.214 49.2771C217.082 49.3975 216.936 49.4889 216.769 49.5553C216.601 49.6177 216.425 49.6509 216.244 49.6509C216.063 49.6509 215.887 49.6177 215.719 49.5553C215.552 49.4889 215.406 49.3975 215.278 49.2771C215.15 49.1566 215.049 49.0154 214.978 48.8576C214.912 48.7039 214.877 48.5377 214.877 48.3674C214.877 48.1972 214.912 48.0352 214.978 47.8773C215.049 47.7195 215.15 47.5824 215.278 47.462C215.406 47.3415 215.552 47.2502 215.719 47.1837C215.887 47.1172 216.063 47.084 216.244 47.084C216.425 47.084 216.601 47.1172 216.769 47.1837C216.936 47.2502 217.082 47.3415 217.214 47.462C217.342 47.5824 217.439 47.7195 217.509 47.8773C217.58 48.0352 217.611 48.1972 217.611 48.3674Z" fill="#1D1D1B"/>
<path d="M194.189 20.5598C194.189 20.7301 194.153 20.8921 194.083 21.0499C194.012 21.2077 193.915 21.3448 193.787 21.4653C193.66 21.5857 193.51 21.6771 193.342 21.7435C193.175 21.81 192.998 21.8432 192.817 21.8432C192.637 21.8432 192.465 21.81 192.297 21.7435C192.13 21.6771 191.98 21.5857 191.852 21.4653C191.724 21.3448 191.623 21.2077 191.556 21.0499C191.486 20.8921 191.451 20.7301 191.451 20.5598C191.451 20.3895 191.486 20.2234 191.556 20.0697C191.623 19.9119 191.724 19.7706 191.852 19.6502C191.98 19.5297 192.13 19.4384 192.297 19.3719C192.465 19.3096 192.637 19.2764 192.817 19.2764C192.998 19.2764 193.175 19.3096 193.342 19.3719C193.51 19.4384 193.66 19.5297 193.787 19.6502C193.915 19.7706 194.012 19.9119 194.083 20.0697C194.153 20.2234 194.189 20.3895 194.189 20.5598Z" fill="#1D1D1B"/>
<path d="M188.937 40.1186C188.937 40.2889 188.902 40.4509 188.831 40.6087C188.761 40.7665 188.664 40.9036 188.536 41.0241C188.408 41.1445 188.258 41.2359 188.091 41.3023C187.923 41.3688 187.751 41.3979 187.566 41.3979C187.385 41.3979 187.213 41.3688 187.046 41.3023C186.878 41.2359 186.728 41.1445 186.6 41.0241C186.472 40.9036 186.371 40.7665 186.305 40.6087C186.234 40.4509 186.199 40.2889 186.199 40.1186C186.199 39.9483 186.234 39.7822 186.305 39.6243C186.371 39.4706 186.472 39.3294 186.6 39.209C186.728 39.0885 186.878 38.9971 187.046 38.9307C187.213 38.8684 187.385 38.8352 187.566 38.8352C187.751 38.8352 187.923 38.8684 188.091 38.9307C188.258 38.9971 188.408 39.0885 188.536 39.209C188.664 39.3294 188.761 39.4706 188.831 39.6243C188.902 39.7822 188.937 39.9483 188.937 40.1186Z" fill="#1D1D1B"/>
<path d="M198.144 54.3734C198.144 54.5437 198.109 54.7057 198.038 54.8635C197.967 55.0214 197.87 55.1584 197.743 55.2789C197.615 55.3993 197.465 55.4949 197.297 55.5572C197.13 55.6236 196.958 55.6569 196.773 55.6569C196.592 55.6569 196.42 55.6236 196.252 55.5572C196.085 55.4949 195.935 55.3993 195.807 55.2789C195.679 55.1584 195.578 55.0214 195.511 54.8635C195.441 54.7057 195.406 54.5437 195.406 54.3734C195.406 54.2031 195.441 54.0411 195.511 53.8833C195.578 53.7255 195.679 53.5843 195.807 53.4638C195.935 53.3475 196.085 53.252 196.252 53.1897C196.42 53.1232 196.592 53.09 196.773 53.09C196.958 53.09 197.13 53.1232 197.297 53.1897C197.465 53.252 197.615 53.3475 197.743 53.4638C197.87 53.5843 197.967 53.7255 198.038 53.8833C198.109 54.0411 198.144 54.2031 198.144 54.3734Z" fill="#1D1D1B"/>
<path d="M232.43 16.6265C232.43 16.7968 232.395 16.9629 232.324 17.1166C232.254 17.2744 232.157 17.4156 232.029 17.5361C231.901 17.6565 231.751 17.7479 231.584 17.8144C231.416 17.8767 231.24 17.9099 231.059 17.9099C230.878 17.9099 230.702 17.8767 230.534 17.8144C230.367 17.7479 230.221 17.6565 230.093 17.5361C229.966 17.4156 229.864 17.2744 229.798 17.1166C229.727 16.9629 229.692 16.7968 229.692 16.6265C229.692 16.4562 229.727 16.2942 229.798 16.1364C229.864 15.9785 229.966 15.8415 230.093 15.721C230.221 15.6005 230.367 15.5092 230.534 15.4427C230.702 15.3763 230.878 15.343 231.059 15.343C231.24 15.343 231.416 15.3763 231.584 15.4427C231.751 15.5092 231.901 15.6005 232.029 15.721C232.157 15.8415 232.254 15.9785 232.324 16.1364C232.395 16.2942 232.43 16.4562 232.43 16.6265Z" fill="#1D1D1B"/>
<path d="M237.717 62.7344H18.5321C18.347 62.7344 18.1706 62.697 18.0074 62.6181C16.8963 62.4935 15.8337 62.2111 14.824 61.7667C13.8098 61.3222 12.8971 60.7407 12.0858 60.0222C11.2745 59.3036 10.5999 58.4812 10.0708 57.5592C9.53723 56.6371 9.17567 55.661 8.97726 54.6268C8.78325 53.5967 8.76561 52.5625 8.92435 51.5241C9.08308 50.4899 9.41377 49.5014 9.90761 48.5627C10.4059 47.624 11.0496 46.785 11.8389 46.0374C12.6237 45.2939 13.5144 44.6833 14.5109 44.2098C13.6555 43.8028 12.8751 43.2919 12.1652 42.6772C11.4597 42.0666 10.8556 41.3771 10.3529 40.6087C9.85029 39.8403 9.47109 39.0221 9.21095 38.154C8.94639 37.2859 8.81852 36.4012 8.81852 35.4999C8.81852 34.5986 8.94639 33.7139 9.21095 32.8459C9.47109 31.9778 9.85029 31.1595 10.3529 30.3911C10.8556 29.6227 11.4597 28.9333 12.1652 28.3227C12.8751 27.7121 13.6555 27.2013 14.5109 26.7901C13.5144 26.3166 12.6193 25.7018 11.8345 24.9584C11.0452 24.2107 10.4059 23.3676 9.90761 22.4289C9.40937 21.4902 9.07867 20.5017 8.92435 19.4633C8.76561 18.4208 8.78766 17.3865 8.98167 16.3523C9.18008 15.3222 9.54605 14.342 10.084 13.4199C10.6175 12.4979 11.2921 11.6796 12.1078 10.9611C12.9236 10.2425 13.8407 9.66519 14.8548 9.22076C15.8689 8.78049 16.9316 8.49805 18.0471 8.3776C18.197 8.30284 18.3602 8.26546 18.5321 8.26546H237.717C238.299 8.26546 238.877 8.31115 239.45 8.40252C240.023 8.4939 240.583 8.62681 241.134 8.80541C241.685 8.98401 242.214 9.20415 242.726 9.46582C243.237 9.72749 243.722 10.0265 244.181 10.363C244.635 10.6994 245.063 11.0691 245.455 11.4761C245.843 11.879 246.2 12.311 246.514 12.7678C246.831 13.2247 247.1 13.7065 247.329 14.2091C247.559 14.7117 247.744 15.2267 247.88 15.7542C248.021 16.2859 248.11 16.8217 248.154 17.3658C248.193 17.9099 248.189 18.454 248.132 18.9981C248.079 19.5422 247.977 20.078 247.827 20.6055C247.678 21.133 247.484 21.6439 247.241 22.1423C246.999 22.6366 246.716 23.1101 246.39 23.5628C246.068 24.0155 245.702 24.4392 245.301 24.8379C244.9 25.2325 244.468 25.5938 244.005 25.922C243.537 26.2501 243.048 26.5408 242.532 26.7901C243.383 27.2054 244.159 27.7163 244.86 28.331C245.561 28.9457 246.156 29.6352 246.655 30.4036C247.153 31.172 247.532 31.9861 247.792 32.8542C248.052 33.7181 248.18 34.6028 248.18 35.4999C248.18 36.3971 248.052 37.2818 247.792 38.1457C247.532 39.0138 247.153 39.8279 246.655 40.5963C246.156 41.3647 245.561 42.0542 244.86 42.6689C244.159 43.2836 243.383 43.7945 242.532 44.2098C243.048 44.459 243.537 44.7498 244.005 45.0779C244.468 45.406 244.9 45.7674 245.301 46.162C245.702 46.5607 246.068 46.9844 246.39 47.4371C246.716 47.8898 246.999 48.3633 247.241 48.8617C247.484 49.356 247.678 49.8669 247.827 50.3944C247.977 50.9219 248.079 51.4577 248.132 52.0018C248.189 52.5459 248.193 53.09 248.154 53.6341C248.11 54.1782 248.021 54.714 247.88 55.2457C247.744 55.7732 247.559 56.2924 247.329 56.7908C247.1 57.2933 246.831 57.7751 246.514 58.232C246.2 58.6931 245.843 59.1209 245.455 59.5279C245.063 59.9308 244.635 60.3005 244.181 60.6369C243.722 60.9733 243.237 61.2724 242.726 61.5341C242.214 61.7957 241.685 62.0159 241.134 62.1945C240.583 62.3731 240.023 62.506 239.45 62.5974C238.877 62.6887 238.299 62.7344 237.717 62.7344ZM18.9466 60.5289H237.717C238.246 60.5289 238.775 60.4791 239.3 60.3835C239.82 60.2839 240.327 60.1426 240.821 59.9516C241.315 59.7605 241.782 59.5238 242.223 59.2455C242.669 58.9714 243.079 58.6557 243.453 58.3026C243.828 57.9496 244.168 57.5633 244.463 57.148C244.759 56.7326 245.01 56.2924 245.213 55.8313C245.416 55.3703 245.57 54.8968 245.676 54.4067C245.777 53.9165 245.83 53.4223 245.83 52.9197C245.83 52.4213 245.777 51.927 245.676 51.4369C245.57 50.9468 245.416 50.4691 245.213 50.0081C245.01 49.5471 244.759 49.1068 244.463 48.6914C244.168 48.2761 243.828 47.894 243.453 47.5409C243.079 47.1879 242.669 46.8722 242.223 46.5939C241.782 46.3156 241.315 46.083 240.821 45.892C240.327 45.7009 239.82 45.5556 239.3 45.46C238.775 45.3603 238.246 45.3105 237.717 45.3105C237.558 45.3105 237.408 45.2856 237.267 45.2274C237.122 45.1734 236.994 45.0904 236.884 44.9907C236.773 44.8868 236.69 44.7664 236.628 44.6335C236.571 44.4964 236.54 44.3552 236.54 44.2098C236.54 44.0645 236.571 43.9232 236.628 43.7862C236.69 43.6533 236.773 43.5328 236.884 43.429C236.994 43.3293 237.122 43.2462 237.267 43.1922C237.408 43.1341 237.558 43.1091 237.717 43.1091C238.251 43.1133 238.784 43.0676 239.309 42.9721C239.833 42.8807 240.345 42.7395 240.843 42.5484C241.341 42.3615 241.813 42.1248 242.259 41.8506C242.708 41.5724 243.118 41.2567 243.502 40.9036C243.881 40.5506 244.221 40.1643 244.521 39.749C244.82 39.3336 245.072 38.8933 245.279 38.4282C245.486 37.963 245.64 37.4853 245.746 36.991C245.852 36.5009 245.905 36.0025 245.905 35.4999C245.905 34.9974 245.852 34.4989 245.746 34.0088C245.64 33.5146 245.486 33.0369 245.279 32.5717C245.072 32.1065 244.82 31.6663 244.521 31.2509C244.221 30.8356 243.881 30.4493 243.502 30.0962C243.118 29.7432 242.708 29.4275 242.259 29.1492C241.813 28.8751 241.341 28.6384 240.843 28.4515C240.345 28.2604 239.833 28.1192 239.309 28.0278C238.784 27.9323 238.251 27.8866 237.717 27.8907C237.558 27.8949 237.404 27.87 237.258 27.816C237.109 27.762 236.981 27.6831 236.866 27.5792C236.751 27.4754 236.663 27.3549 236.601 27.2179C236.544 27.0808 236.513 26.9396 236.513 26.7901C236.513 26.6405 236.544 26.4993 236.601 26.3622C236.663 26.2252 236.751 26.1047 236.866 26.0009C236.981 25.8971 237.109 25.8181 237.258 25.7641C237.404 25.7101 237.558 25.6852 237.717 25.6894C238.246 25.6852 238.771 25.6312 239.287 25.5315C239.807 25.4319 240.31 25.2823 240.799 25.0913C241.284 24.8961 241.752 24.6593 242.188 24.381C242.629 24.1027 243.035 23.7871 243.405 23.434C243.78 23.081 244.11 22.6989 244.406 22.2835C244.697 21.8723 244.944 21.4362 245.147 20.9752C245.349 20.5141 245.499 20.0448 245.601 19.5547C245.707 19.0687 245.755 18.5744 245.755 18.0802C245.755 17.5818 245.707 17.0916 245.601 16.6015C245.499 16.1156 245.349 15.6421 245.147 15.1852C244.944 14.7241 244.697 14.288 244.406 13.8727C244.11 13.4615 243.78 13.0752 243.405 12.7222C243.035 12.3691 242.629 12.0534 242.188 11.7752C241.752 11.4969 241.284 11.2643 240.799 11.0691C240.31 10.878 239.807 10.7285 239.287 10.6288C238.771 10.5291 238.246 10.4751 237.717 10.471H18.929C18.832 10.5083 18.7306 10.5291 18.6247 10.5333C18.1221 10.5706 17.6282 10.6496 17.1432 10.7742C16.6538 10.8946 16.1864 11.0608 15.7323 11.2643C15.2781 11.4678 14.846 11.7129 14.4403 11.9953C14.0347 12.2736 13.6643 12.5892 13.3204 12.934C12.9765 13.2829 12.6722 13.6525 12.4033 14.0554C12.1343 14.4542 11.9094 14.8737 11.7242 15.3139C11.539 15.7542 11.4024 16.2069 11.3098 16.6721C11.2172 17.1373 11.1687 17.6025 11.1687 18.076C11.1687 18.5495 11.2172 19.0189 11.3098 19.4841C11.4024 19.9451 11.539 20.3978 11.7242 20.8381C11.9094 21.2784 12.1343 21.6979 12.4033 22.1008C12.6722 22.4995 12.9765 22.8733 13.3204 23.218C13.6643 23.5669 14.0347 23.8785 14.4403 24.1609C14.846 24.4433 15.2781 24.6842 15.7323 24.8919C16.1864 25.0954 16.6538 25.2574 17.1432 25.382C17.6282 25.5025 18.1221 25.5855 18.6247 25.6188C18.929 25.6437 19.1891 25.76 19.3964 25.9677C19.6036 26.1795 19.705 26.4287 19.705 26.7153C19.7094 27.0143 19.6124 27.2843 19.4052 27.5169C19.2024 27.7537 18.9422 27.899 18.6247 27.953C18.1221 27.9904 17.6282 28.0693 17.1432 28.1898C16.6538 28.3144 16.182 28.4764 15.7279 28.6841C15.2737 28.8876 14.846 29.1285 14.4403 29.4109C14.0347 29.6933 13.6599 30.0049 13.316 30.3538C12.9765 30.6985 12.6678 31.0723 12.3989 31.471C12.1343 31.8739 11.905 32.2934 11.7242 32.7337C11.539 33.174 11.3979 33.6267 11.3054 34.0878C11.2128 34.5529 11.1643 35.0223 11.1643 35.4958C11.1643 35.9693 11.2128 36.4345 11.3054 36.8997C11.3979 37.3649 11.539 37.8176 11.7242 38.2579C11.905 38.6981 12.1343 39.1176 12.3989 39.5164C12.6678 39.9193 12.9765 40.2931 13.316 40.6378C13.6599 40.9867 14.0347 41.2982 14.4403 41.5807C14.846 41.8589 15.2737 42.104 15.7279 42.3075C16.182 42.5152 16.6538 42.6772 17.1432 42.7976C17.6282 42.9222 18.1221 43.0012 18.6247 43.0344C18.929 43.0593 19.1891 43.1756 19.3964 43.3874C19.6036 43.5951 19.705 43.8443 19.705 44.1309C19.7094 44.4341 19.6124 44.6999 19.4052 44.9367C19.2024 45.1693 18.9422 45.3147 18.6247 45.3687C18.1221 45.406 17.6282 45.4849 17.1432 45.6096C16.6582 45.73 16.1864 45.8961 15.7323 46.0997C15.2781 46.3073 14.8504 46.5482 14.4448 46.8307C14.0391 47.1131 13.6643 47.4246 13.3204 47.7735C12.9809 48.1183 12.6722 48.4921 12.4077 48.8908C12.1387 49.2937 11.9138 49.7132 11.7286 50.1535C11.5435 50.5896 11.4068 51.0423 11.3142 51.5075C11.2172 51.9727 11.1731 52.4421 11.1731 52.9114C11.1731 53.3849 11.2172 53.8542 11.3142 54.3194C11.4068 54.7805 11.5435 55.2332 11.7286 55.6735C11.9138 56.1138 12.1387 56.5333 12.4077 56.9361C12.6722 57.3349 12.9809 57.7087 13.3204 58.0534C13.6643 58.4023 14.0391 58.7138 14.4448 58.9963C14.8504 59.2746 15.2781 59.5196 15.7323 59.7231C16.1864 59.9308 16.6582 60.0928 17.1432 60.2174C17.6282 60.342 18.1221 60.4209 18.6247 60.4542C18.735 60.4666 18.8452 60.4915 18.9466 60.5289Z" fill="black"/>
</svg>
