<svg width="256" height="71" viewBox="0 0 256 71" fill="none" xmlns="http://www.w3.org/2000/svg">
<path d="M18.4593 71C17.5888 71 16.7316 70.8919 15.8875 70.6841C14.7885 70.497 13.7115 70.2227 12.6652 69.861C11.6145 69.4994 10.6034 69.0546 9.63627 68.5266C8.66912 67.9987 7.75913 67.4001 6.90189 66.7225C6.04465 66.0491 5.25774 65.305 4.53678 64.5027C3.81582 63.6963 3.17399 62.84 2.61129 61.9296C2.05298 61.0193 1.5782 60.0715 1.19134 59.0863C0.804488 58.097 0.509949 57.0868 0.312124 56.0518C0.109903 55.0167 0.00879278 53.9733 0 52.9216C0 49.8205 0.808883 46.9149 2.42225 44.2129C1.62656 42.8827 1.02429 41.4776 0.615455 40.0019C0.206616 38.5262 0 37.0256 0 35.5C0 33.9744 0.206616 32.4738 0.615455 30.9981C1.02429 29.5224 1.62656 28.1215 2.42225 26.7913C0.808883 24.0851 0 21.1836 0 18.0784C0.00879278 17.0267 0.109903 15.9792 0.312124 14.9441C0.514345 13.9049 0.804488 12.8906 1.19574 11.9012C1.5826 10.9119 2.05738 9.96411 2.62448 9.05375C3.18718 8.13923 3.82901 7.2829 4.55437 6.47646C5.27533 5.67002 6.06663 4.93009 6.92826 4.25252C7.7855 3.5791 8.69989 2.97635 9.67143 2.45258C10.643 1.92465 11.6541 1.47986 12.7091 1.12237C13.7598 0.760715 14.8369 0.490514 15.9403 0.307611C16.7668 0.0997653 17.6064 0 18.4549 0H236.792C237.205 0 237.618 0.0124713 238.036 0.0374122C238.449 0.0623542 238.862 0.0997658 239.276 0.149649C239.685 0.203688 240.093 0.266042 240.502 0.340867C240.911 0.41569 241.315 0.502986 241.716 0.602752C242.116 0.702518 242.511 0.814754 242.907 0.939461C243.298 1.06417 243.689 1.20135 244.072 1.34684C244.459 1.49649 244.837 1.65445 245.21 1.82904C245.584 1.99947 245.949 2.18238 246.309 2.37359C246.67 2.56897 247.022 2.77266 247.369 2.98882C247.716 3.20082 248.055 3.42945 248.384 3.66224C248.719 3.89918 249.039 4.14444 249.352 4.40217C249.668 4.65574 249.971 4.92178 250.27 5.19614C250.565 5.47049 250.851 5.75316 251.128 6.04415C251.405 6.33513 251.668 6.63443 251.923 6.94204C252.178 7.24965 252.424 7.56557 252.657 7.88566C252.895 8.2099 253.115 8.53829 253.326 8.875C253.537 9.21171 253.739 9.55673 253.924 9.90176C254.113 10.2509 254.288 10.6043 254.451 10.9659C254.614 11.3234 254.768 11.6892 254.904 12.055C255.04 12.425 255.168 12.795 255.282 13.1732C255.392 13.5474 255.493 13.9298 255.576 14.3081C255.664 14.6905 255.739 15.0771 255.796 15.4637C255.858 15.8503 255.906 16.2369 255.937 16.6276C255.972 17.0184 255.99 17.405 255.998 17.7957C256.003 18.1865 255.998 18.5772 255.977 18.968C255.955 19.3587 255.919 19.7495 255.875 20.1361C255.827 20.5227 255.765 20.9092 255.691 21.2958C255.62 21.6783 255.532 22.0607 255.431 22.439C255.33 22.8173 255.216 23.1955 255.093 23.5655C254.965 23.9396 254.825 24.3054 254.675 24.6713C254.521 25.0329 254.359 25.3946 254.183 25.7479C254.007 26.1012 253.818 26.4504 253.62 26.7913C254.398 28.1256 254.992 29.5307 255.392 31.0022C255.796 32.4779 255.998 33.9786 255.998 35.5C255.998 37.0214 255.796 38.5221 255.392 39.9978C254.992 41.4693 254.398 42.8744 253.62 44.2087C253.818 44.5496 254.007 44.8988 254.183 45.2521C254.359 45.6054 254.521 45.9671 254.675 46.3287C254.825 46.6946 254.965 47.0604 255.093 47.4345C255.216 47.8044 255.33 48.1827 255.431 48.561C255.532 48.9393 255.616 49.3217 255.691 49.7042C255.765 50.0907 255.827 50.4773 255.875 50.8639C255.919 51.2505 255.955 51.6413 255.977 52.032C255.994 52.4228 256.003 52.8135 255.998 53.2043C255.99 53.595 255.972 53.9816 255.937 54.3724C255.902 54.7631 255.858 55.1497 255.796 55.5363C255.739 55.9229 255.664 56.3053 255.576 56.6878C255.493 57.0702 255.392 57.4485 255.278 57.8268C255.168 58.2009 255.04 58.575 254.904 58.945C254.763 59.3108 254.614 59.6766 254.451 60.0341C254.288 60.3916 254.113 60.7491 253.924 61.0941C253.734 61.4433 253.537 61.7883 253.326 62.1208C253.115 62.4576 252.89 62.7901 252.657 63.1102C252.424 63.4344 252.178 63.7503 251.923 64.058C251.668 64.3656 251.4 64.6649 251.128 64.9558C250.851 65.2468 250.565 65.5295 250.266 65.8039C249.971 66.0782 249.668 66.3443 249.352 66.5978C249.039 66.8556 248.719 67.1008 248.384 67.3336C248.055 67.5705 247.716 67.795 247.369 68.0112C247.022 68.2273 246.67 68.431 246.309 68.6264C245.949 68.8176 245.58 69.0005 245.21 69.171C244.837 69.3414 244.459 69.5035 244.072 69.649C243.689 69.7987 243.298 69.9358 242.907 70.0605C242.511 70.1811 242.116 70.2933 241.716 70.3972C241.311 70.497 240.911 70.5843 240.502 70.6591C240.093 70.734 239.685 70.7963 239.271 70.8462C238.862 70.8961 238.449 70.9335 238.036 70.9626C237.618 70.9875 237.205 71 236.792 71H18.4593Z" fill="#E1E0D7"/>
<path d="M42.9938 23.4574C42.9938 23.6278 42.9587 23.79 42.8927 23.9479C42.8224 24.1059 42.7213 24.2431 42.5938 24.3636C42.4663 24.4842 42.3212 24.5756 42.1542 24.6421C41.9871 24.7086 41.8113 24.7377 41.631 24.7377C41.4508 24.7377 41.275 24.7086 41.1079 24.6421C40.9409 24.5756 40.7958 24.4842 40.6683 24.3636C40.5408 24.2431 40.4397 24.1059 40.3738 23.9479C40.3034 23.79 40.2682 23.6278 40.2682 23.4574C40.2682 23.287 40.3034 23.1249 40.3738 22.9669C40.4397 22.8089 40.5408 22.6718 40.6683 22.5512C40.7958 22.4307 40.9409 22.335 41.1079 22.2727C41.275 22.2062 41.4508 22.1729 41.631 22.1729C41.8113 22.1729 41.9871 22.2062 42.1542 22.2727C42.3212 22.335 42.4663 22.4307 42.5938 22.5512C42.7213 22.6718 42.8224 22.8089 42.8927 22.9669C42.9587 23.1249 42.9938 23.287 42.9938 23.4574Z" fill="#1D1D1B"/>
<path d="M66.8296 47.5425C66.8296 47.713 66.7945 47.8751 66.7285 48.0331C66.6582 48.191 66.5615 48.3282 66.4296 48.4487C66.3021 48.5693 66.157 48.6607 65.99 48.7273C65.8229 48.7938 65.6471 48.8229 65.4668 48.8229C65.2866 48.8229 65.1151 48.7938 64.9481 48.7273C64.781 48.6607 64.6316 48.5693 64.5041 48.4487C64.3766 48.3282 64.2799 48.191 64.2095 48.0331C64.1392 47.8751 64.104 47.713 64.104 47.5425C64.104 47.3721 64.1392 47.21 64.2095 47.052C64.2799 46.8941 64.3766 46.7569 64.5041 46.6363C64.6316 46.5158 64.781 46.4202 64.9481 46.3578C65.1151 46.2913 65.2866 46.2581 65.4668 46.2581C65.6471 46.2581 65.8229 46.2913 65.99 46.3578C66.157 46.4202 66.3021 46.5158 66.4296 46.6363C66.5615 46.7569 66.6582 46.8941 66.7285 47.052C66.7945 47.21 66.8296 47.3721 66.8296 47.5425Z" fill="#1D1D1B"/>
<path d="M96.1165 23.4574C96.1165 23.6278 96.0857 23.79 96.0154 23.9479C95.945 24.1059 95.8483 24.2431 95.7208 24.3636C95.5933 24.4842 95.4439 24.5756 95.2768 24.6421C95.1098 24.7086 94.9383 24.7377 94.7537 24.7377C94.5734 24.7377 94.402 24.7086 94.2349 24.6421C94.0679 24.5756 93.9184 24.4842 93.7909 24.3636C93.6635 24.2431 93.5667 24.1059 93.4964 23.9479C93.4261 23.79 93.3909 23.6278 93.3909 23.4574C93.3909 23.287 93.4261 23.1249 93.4964 22.9669C93.5667 22.8089 93.6635 22.6718 93.7909 22.5512C93.9184 22.4307 94.0679 22.335 94.2349 22.2727C94.402 22.2062 94.5734 22.1729 94.7537 22.1729C94.9383 22.1729 95.1098 22.2062 95.2768 22.2727C95.4439 22.335 95.5933 22.4307 95.7208 22.5512C95.8483 22.6718 95.945 22.8089 96.0154 22.9669C96.0857 23.1249 96.1165 23.287 96.1165 23.4574Z" fill="#1D1D1B"/>
<path d="M120.427 47.5425C120.427 47.713 120.392 47.8751 120.321 48.0331C120.255 48.191 120.154 48.3282 120.027 48.4487C119.899 48.5693 119.754 48.6607 119.587 48.7273C119.42 48.7938 119.244 48.8229 119.064 48.8229C118.884 48.8229 118.708 48.7938 118.541 48.7273C118.374 48.6607 118.229 48.5693 118.101 48.4487C117.974 48.3282 117.873 48.191 117.807 48.0331C117.737 47.8751 117.701 47.713 117.701 47.5425C117.701 47.3721 117.737 47.21 117.807 47.052C117.873 46.8941 117.974 46.7569 118.101 46.6363C118.229 46.5158 118.374 46.4202 118.541 46.3578C118.708 46.2913 118.884 46.2581 119.064 46.2581C119.244 46.2581 119.42 46.2913 119.587 46.3578C119.754 46.4202 119.899 46.5158 120.027 46.6363C120.154 46.7569 120.255 46.8941 120.321 47.052C120.392 47.21 120.427 47.3721 120.427 47.5425Z" fill="#1D1D1B"/>
<path d="M144.746 23.4574C144.746 23.6278 144.711 23.79 144.641 23.9479C144.57 24.1059 144.474 24.2431 144.346 24.3636C144.219 24.4842 144.069 24.5756 143.902 24.6421C143.735 24.7086 143.564 24.7377 143.383 24.7377C143.199 24.7377 143.027 24.7086 142.86 24.6421C142.693 24.5756 142.544 24.4842 142.416 24.3636C142.289 24.2431 142.192 24.1059 142.122 23.9479C142.051 23.79 142.021 23.6278 142.021 23.4574C142.021 23.287 142.051 23.1249 142.122 22.9669C142.192 22.8089 142.289 22.6718 142.416 22.5512C142.544 22.4307 142.693 22.335 142.86 22.2727C143.027 22.2062 143.199 22.1729 143.383 22.1729C143.564 22.1729 143.735 22.2062 143.902 22.2727C144.069 22.335 144.219 22.4307 144.346 22.5512C144.474 22.6718 144.57 22.8089 144.641 22.9669C144.711 23.1249 144.746 23.287 144.746 23.4574Z" fill="#1D1D1B"/>
<path d="M167.439 47.5259C167.439 47.6963 167.404 47.8626 167.333 48.0164C167.263 48.1744 167.166 48.3157 167.039 48.4321C166.911 48.5527 166.762 48.6483 166.595 48.7106C166.428 48.7771 166.256 48.8104 166.076 48.8104C165.896 48.8104 165.72 48.7771 165.553 48.7106C165.386 48.6483 165.236 48.5527 165.109 48.4321C164.981 48.3157 164.885 48.1744 164.814 48.0164C164.744 47.8626 164.713 47.6963 164.713 47.5259C164.713 47.3555 164.744 47.1933 164.814 47.0354C164.885 46.8774 164.981 46.7402 165.109 46.6197C165.236 46.4991 165.386 46.4077 165.553 46.3412C165.72 46.2747 165.896 46.2456 166.076 46.2456C166.256 46.2456 166.428 46.2747 166.595 46.3412C166.762 46.4077 166.911 46.4991 167.039 46.6197C167.166 46.7402 167.263 46.8774 167.333 47.0354C167.404 47.1933 167.439 47.3555 167.439 47.5259Z" fill="#1D1D1B"/>
<path d="M191.494 23.4574C191.494 23.6278 191.459 23.79 191.389 23.9479C191.323 24.1059 191.222 24.2431 191.094 24.3636C190.967 24.4842 190.822 24.5756 190.655 24.6421C190.488 24.7086 190.312 24.7377 190.132 24.7377C189.951 24.7377 189.776 24.7086 189.609 24.6421C189.441 24.5756 189.296 24.4842 189.169 24.3636C189.041 24.2431 188.94 24.1059 188.87 23.9479C188.804 23.79 188.769 23.6278 188.769 23.4574C188.769 23.287 188.804 23.1249 188.87 22.9669C188.94 22.8089 189.041 22.6718 189.169 22.5512C189.296 22.4307 189.441 22.335 189.609 22.2727C189.776 22.2062 189.951 22.1729 190.132 22.1729C190.312 22.1729 190.488 22.2062 190.655 22.2727C190.822 22.335 190.967 22.4307 191.094 22.5512C191.222 22.6718 191.323 22.8089 191.389 22.9669C191.459 23.1249 191.494 23.287 191.494 23.4574Z" fill="#1D1D1B"/>
<path d="M215.73 47.5259C215.73 47.6963 215.695 47.8626 215.625 48.0164C215.559 48.1744 215.457 48.3157 215.33 48.4321C215.203 48.5527 215.057 48.6483 214.89 48.7106C214.723 48.7771 214.548 48.8104 214.367 48.8104C214.187 48.8104 214.011 48.7771 213.844 48.7106C213.677 48.6483 213.532 48.5527 213.405 48.4321C213.277 48.3157 213.176 48.1744 213.11 48.0164C213.04 47.8626 213.004 47.6963 213.004 47.5259C213.004 47.3555 213.04 47.1933 213.11 47.0354C213.176 46.8774 213.277 46.7402 213.405 46.6197C213.532 46.4991 213.677 46.4077 213.844 46.3412C214.011 46.2747 214.187 46.2456 214.367 46.2456C214.548 46.2456 214.723 46.2747 214.89 46.3412C215.057 46.4077 215.203 46.4991 215.33 46.6197C215.457 46.7402 215.559 46.8774 215.625 47.0354C215.695 47.1933 215.73 47.3555 215.73 47.5259Z" fill="#1D1D1B"/>
<path d="M236.792 62.7319H18.4593C18.2747 62.7319 18.0988 62.6945 17.9362 62.6155C16.8327 62.4908 15.7733 62.2081 14.7666 61.7633C13.7555 61.3186 12.8499 60.7366 12.041 60.0175C11.2277 59.2983 10.5595 58.4794 10.032 57.5566C9.50003 56.6337 9.13955 55.6569 8.94612 54.6259C8.74829 53.595 8.73071 52.56 8.88897 51.5249C9.04723 50.4857 9.37694 49.5005 9.8693 48.561C10.3661 47.6215 11.0079 46.7819 11.7904 46.0378C12.5729 45.2937 13.4609 44.6826 14.4544 44.2087C13.6016 43.8013 12.8235 43.2901 12.1201 42.679C11.4167 42.0679 10.8145 41.3737 10.3133 40.6088C9.81215 39.8398 9.43408 39.0209 9.17471 38.1521C8.91534 37.2875 8.78346 36.4021 8.78346 35.5C8.78346 34.598 8.91534 33.7125 9.17471 32.8479C9.43408 31.9791 9.81215 31.1602 10.3133 30.3912C10.8145 29.6221 11.4167 28.9321 12.1201 28.321C12.8235 27.71 13.6016 27.1987 14.4544 26.7913C13.4609 26.3132 12.5729 25.7022 11.786 24.9581C11.0035 24.214 10.3617 23.3701 9.8693 22.4307C9.37254 21.4912 9.04723 20.5019 8.88897 19.4627C8.73071 18.4234 8.75269 17.3884 8.95051 16.3533C9.14834 15.3224 9.51321 14.3455 10.0451 13.4227C10.5771 12.4998 11.2497 11.6809 12.0586 10.9618C12.8718 10.2426 13.7862 9.66482 14.7973 9.22419C15.8084 8.78355 16.8679 8.50088 17.9757 8.38033C18.1252 8.30551 18.2878 8.2681 18.4593 8.2681H236.792C237.372 8.2681 237.948 8.31382 238.52 8.40527C239.091 8.49673 239.649 8.62975 240.199 8.8085C240.744 8.98724 241.276 9.20756 241.782 9.46529C242.291 9.72717 242.775 10.0265 243.232 10.3632C243.685 10.6999 244.111 11.074 244.498 11.4772C244.89 11.8805 245.241 12.3086 245.558 12.77C245.87 13.2273 246.142 13.7095 246.371 14.2083C246.6 14.7113 246.78 15.2268 246.921 15.7588C247.057 16.2868 247.145 16.823 247.189 17.3676C247.228 17.9121 247.224 18.4567 247.171 19.0012C247.114 19.5416 247.013 20.0779 246.863 20.6058C246.714 21.1337 246.521 21.645 246.279 22.1397C246.041 22.6385 245.76 23.1124 245.435 23.5655C245.109 24.0186 244.749 24.4426 244.349 24.8375C243.949 25.2324 243.518 25.5941 243.056 25.9225C242.59 26.2509 242.102 26.5377 241.588 26.7913C242.437 27.2028 243.21 27.7183 243.905 28.3293C244.604 28.9446 245.202 29.6346 245.698 30.4036C246.195 31.1727 246.569 31.9874 246.828 32.8521C247.088 33.7208 247.215 34.6021 247.215 35.5C247.215 36.3979 247.088 37.2792 246.828 38.148C246.569 39.0126 246.195 39.8273 245.698 40.5964C245.202 41.3654 244.604 42.0554 243.905 42.6707C243.21 43.2817 242.437 43.7972 241.588 44.2087C242.102 44.4623 242.59 44.7491 243.056 45.0775C243.518 45.4059 243.949 45.7676 244.349 46.1625C244.749 46.5574 245.109 46.9814 245.435 47.4345C245.756 47.8876 246.041 48.3615 246.279 48.8603C246.521 49.355 246.714 49.8663 246.863 50.3942C247.013 50.9221 247.114 51.4584 247.167 51.9988C247.224 52.5433 247.228 53.0879 247.189 53.6324C247.145 54.177 247.057 54.7132 246.916 55.2412C246.78 55.7732 246.6 56.2887 246.371 56.7917C246.142 57.2905 245.87 57.7727 245.553 58.23C245.241 58.6914 244.89 59.1196 244.498 59.5228C244.107 59.926 243.685 60.3001 243.228 60.6368C242.775 60.9735 242.291 61.2728 241.782 61.5347C241.276 61.7924 240.744 62.0128 240.199 62.1915C239.649 62.3703 239.091 62.5033 238.52 62.5947C237.948 62.6862 237.372 62.7319 236.792 62.7319ZM18.8725 60.5287H236.792C237.319 60.5287 237.847 60.4789 238.366 60.3833C238.889 60.2835 239.394 60.138 239.882 59.9468C240.375 59.7556 240.841 59.5228 241.28 59.2443C241.724 58.9658 242.133 58.654 242.507 58.3006C242.881 57.9473 243.219 57.5607 243.514 57.145C243.808 56.7293 244.054 56.2929 244.261 55.8314C244.463 55.37 244.617 54.892 244.718 54.4015C244.824 53.9151 244.876 53.4204 244.876 52.9174C244.876 52.4186 244.824 51.9239 244.718 51.4334C244.617 50.9429 244.463 50.469 244.261 50.0076C244.054 49.5462 243.808 49.1097 243.514 48.694C243.219 48.2783 242.881 47.8917 242.507 47.5384C242.133 47.1851 241.724 46.8691 241.28 46.5948C240.841 46.3163 240.375 46.0793 239.882 45.8881C239.394 45.6969 238.889 45.5556 238.366 45.4558C237.847 45.3602 237.319 45.3103 236.792 45.3103C236.634 45.3103 236.484 45.2812 236.344 45.2272C236.198 45.1731 236.071 45.09 235.961 44.9902C235.851 44.8863 235.768 44.7658 235.71 44.6327C235.649 44.4956 235.618 44.3542 235.618 44.2087C235.618 44.0632 235.649 43.9219 235.71 43.7889C235.768 43.6517 235.851 43.5353 235.961 43.4314C236.071 43.3275 236.198 43.2485 236.344 43.1903C236.484 43.1362 236.634 43.1071 236.792 43.1071C237.324 43.1113 237.856 43.0656 238.379 42.9741C238.902 42.8785 239.412 42.7372 239.909 42.5501C240.401 42.3589 240.871 42.1261 241.316 41.8476C241.764 41.5732 242.173 41.2573 242.555 40.904C242.933 40.5506 243.272 40.1641 243.571 39.7484C243.87 39.3327 244.12 38.892 244.327 38.4265C244.529 37.9651 244.687 37.487 244.788 36.9923C244.894 36.5018 244.947 36.003 244.947 35.5C244.947 34.997 244.894 34.4982 244.788 34.0077C244.687 33.513 244.529 33.035 244.327 32.5735C244.12 32.108 243.87 31.6673 243.571 31.2516C243.272 30.836 242.933 30.4494 242.555 30.096C242.173 29.7427 241.764 29.4268 241.316 29.1524C240.871 28.8739 240.401 28.6411 239.909 28.4499C239.412 28.2628 238.902 28.1215 238.379 28.0259C237.856 27.9344 237.324 27.8887 236.792 27.8929C236.634 27.897 236.48 27.8721 236.335 27.818C236.19 27.764 236.058 27.685 235.943 27.5811C235.834 27.4772 235.746 27.3566 235.684 27.2194C235.623 27.0823 235.592 26.9409 235.592 26.7913C235.592 26.6416 235.623 26.5003 235.684 26.3631C235.746 26.2259 235.834 26.1054 235.943 26.0015C236.058 25.8975 236.19 25.8186 236.335 25.7645C236.48 25.7105 236.634 25.6855 236.792 25.6897C237.319 25.6855 237.843 25.6315 238.357 25.5317C238.876 25.432 239.377 25.2823 239.86 25.0911C240.348 24.8957 240.81 24.6629 241.245 24.3844C241.685 24.1059 242.089 23.79 242.459 23.4367C242.832 23.0833 243.162 22.7009 243.452 22.2852C243.747 21.8737 243.993 21.4372 244.191 20.9758C244.393 20.5185 244.547 20.0446 244.648 19.5583C244.749 19.0677 244.802 18.5772 244.802 18.0826C244.802 17.5837 244.749 17.0932 244.648 16.6069C244.547 16.1163 244.393 15.6466 244.191 15.1852C243.993 14.7279 243.747 14.2915 243.452 13.8758C243.162 13.4601 242.832 13.0776 242.459 12.7243C242.089 12.371 241.685 12.055 241.245 11.7807C240.81 11.5022 240.348 11.2652 239.86 11.0699C239.377 10.8786 238.876 10.7331 238.357 10.6292C237.843 10.5295 237.319 10.4754 236.792 10.4713H18.8549C18.7582 10.5087 18.6571 10.5295 18.556 10.5378C18.0548 10.571 17.5625 10.65 17.0745 10.7747C16.5909 10.8953 16.1206 11.0615 15.6678 11.2652C15.2194 11.4731 14.7885 11.7142 14.3841 11.9968C13.9841 12.2754 13.6104 12.5913 13.2675 12.9363C12.9246 13.2813 12.6213 13.6555 12.3575 14.0545C12.0893 14.4577 11.8651 14.8776 11.6805 15.3182C11.4959 15.7547 11.3596 16.2078 11.2629 16.6734C11.1705 17.1389 11.1266 17.6045 11.1266 18.0784C11.1266 18.5523 11.1705 19.0179 11.2629 19.4834C11.3596 19.949 11.4959 20.4021 11.6805 20.8386C11.8651 21.2792 12.0893 21.6991 12.3575 22.1023C12.6213 22.5014 12.9246 22.8755 13.2675 23.2205C13.6104 23.5655 13.9841 23.8814 14.3841 24.16C14.7885 24.4426 15.2194 24.6837 15.6678 24.8916C16.1206 25.0953 16.5909 25.2615 17.0745 25.3821C17.5625 25.5068 18.0548 25.5858 18.556 25.619C18.8593 25.644 19.1143 25.7604 19.3209 25.9682C19.5275 26.1802 19.6287 26.4296 19.6287 26.7165C19.6331 27.0158 19.5363 27.286 19.3297 27.5187C19.1275 27.7515 18.8681 27.897 18.556 27.9552C18.0548 27.9885 17.5581 28.0675 17.0745 28.1922C16.5909 28.3127 16.1206 28.479 15.6678 28.6827C15.215 28.8864 14.7885 29.1316 14.3841 29.4101C13.9797 29.6928 13.606 30.0046 13.2675 30.3538C12.9246 30.6988 12.6213 31.0729 12.3531 31.472C12.0849 31.871 11.8607 32.2909 11.6761 32.7315C11.4915 33.1721 11.3552 33.6252 11.2629 34.0908C11.1705 34.5522 11.1222 35.022 11.1222 35.4958C11.1222 35.9697 11.1705 36.4353 11.2629 36.9009C11.3552 37.3665 11.4915 37.8154 11.6761 38.256C11.8607 38.6967 12.0849 39.1165 12.3531 39.5197C12.6213 39.9188 12.9246 40.2929 13.2675 40.6379C13.606 40.983 13.9797 41.2989 14.3841 41.5774C14.7885 41.8601 15.215 42.1012 15.6678 42.309C16.1206 42.5127 16.5909 42.6748 17.0745 42.7995C17.5581 42.9201 18.0548 42.9991 18.556 43.0365C18.8593 43.0573 19.1143 43.1737 19.3209 43.3857C19.5275 43.5977 19.6287 43.8429 19.6287 44.1297C19.6331 44.4332 19.5363 44.6992 19.3297 44.9362C19.1275 45.169 18.8681 45.3145 18.556 45.3685C18.0548 45.4059 17.5625 45.4849 17.0745 45.6096C16.5909 45.7302 16.125 45.8964 15.6722 46.1001C15.2194 46.3038 14.7929 46.5491 14.3885 46.8276C13.9841 47.1102 13.6104 47.422 13.2719 47.7712C12.929 48.1162 12.6257 48.4903 12.3575 48.8894C12.0937 49.2926 11.8651 49.7125 11.6849 50.1489C11.5003 50.5896 11.364 51.0427 11.2673 51.5083C11.1749 51.9697 11.131 52.4394 11.131 52.9133C11.131 53.383 11.1749 53.8528 11.2673 54.3183C11.364 54.7797 11.5003 55.2328 11.6849 55.6735C11.8651 56.1141 12.0937 56.534 12.3575 56.933C12.6257 57.3321 12.929 57.7062 13.2719 58.0512C13.6104 58.4004 13.9841 58.7122 14.3885 58.9949C14.7929 59.2734 15.2194 59.5186 15.6722 59.7223C16.125 59.9302 16.5909 60.0923 17.0745 60.217C17.5625 60.3375 18.0548 60.4165 18.556 60.4539C18.6659 60.4622 18.7714 60.4872 18.8725 60.5287Z" fill="black"/>
<path d="M42.3741 56.5381L44.9063 47.4927L49.1881 45.5181L45.0821 43.5436L42.3741 35.978L39.7541 43.5436L35.6921 45.5181L39.9299 47.5052L42.3741 56.5381Z" fill="#1D1D1B"/>
<path d="M68.1132 35.0178L70.6453 25.9723L74.9271 24.002L70.8212 22.0274L68.1132 14.4619L65.4931 22.0274L61.4311 24.002L65.6689 25.989L68.1132 35.0178Z" fill="#1D1D1B"/>
<path d="M89.2366 56.5215L91.7732 47.4761L96.055 45.5015L91.949 43.5311L89.2366 35.9656L86.6165 43.5311L82.5545 45.5015L86.7968 47.4927L89.2366 56.5215Z" fill="#1D1D1B"/>
<path d="M115.815 35.0178L118.348 25.9723L122.629 24.002L118.523 22.0274L115.815 14.4619L113.195 22.0274L109.133 24.002L113.376 25.989L115.815 35.0178Z" fill="#1D1D1B"/>
<path d="M141.955 56.5215L144.487 47.4761L148.769 45.5015L144.663 43.5311L141.955 35.9656L139.33 43.5311L135.268 45.5015L139.51 47.4927L141.955 56.5215Z" fill="#1D1D1B"/>
<path d="M168.032 33.7333L170.564 24.692L174.846 22.7175L170.74 20.743L168.032 13.1774L165.412 20.743L161.35 22.7175L165.592 24.7045L168.032 33.7333Z" fill="#1D1D1B"/>
<path d="M190.066 56.5215L192.598 47.4761L196.88 45.5015L192.774 43.5311L190.066 35.9656L187.446 43.5311L183.384 45.5015L187.626 47.4927L190.066 56.5215Z" fill="#1D1D1B"/>
<path d="M215.664 33.7333L218.196 24.692L222.478 22.7175L218.372 20.743L215.664 13.1774L213.044 20.743L208.982 22.7175L213.224 24.7045L215.664 33.7333Z" fill="#1D1D1B"/>
</svg>
