<svg width="98" height="46" viewBox="0 0 98 46" fill="none" xmlns="http://www.w3.org/2000/svg">
<path d="M51.3763 10.2557H56.027V15.3652H51.3763V10.2557Z" fill="#B54C90"/>
<path d="M46.7289 5.1499H51.3762V10.2557H46.7289V5.1499Z" fill="#B54C90"/>
<path d="M42.0782 10.2557H46.7289V15.3652H42.0782V10.2557Z" fill="#B54C90"/>
<path d="M56.0269 15.3652H60.6742V20.4747H56.0269V15.3652Z" fill="#B54C90"/>
<path d="M37.431 15.3652H42.0783V20.4747H37.431V15.3652Z" fill="#B54C90"/>
<path d="M8.80096 0H14.8532V5.17947H8.80096V0Z" fill="black"/>
<path d="M9.53384 0.00732422H14.1811V5.1168H9.53384V0.00732422Z" fill="#83327E"/>
<path d="M4.88315 5.11682H9.53381V10.2263H4.88315V5.11682Z" fill="#83327E"/>
<path d="M0.235901 9.89478H5.34251V36.3005H0.235901V9.89478Z" fill="black"/>
<path d="M0.235901 10.2263H4.88319V35.7774H0.235901V10.2263Z" fill="#83327E"/>
<path d="M4.88315 35.7773H9.53381V40.8868H4.88315V35.7773Z" fill="#83327E"/>
<path d="M8.80096 40.0728H14.8532V46H8.80096V40.0728Z" fill="black"/>
<path d="M9.53384 40.8868H14.1811V45.9926H9.53384V40.8868Z" fill="#83327E"/>
<path d="M83.1575 0H89.2098V5.17947H83.1575V0Z" fill="black"/>
<path d="M83.9242 0.00732422H88.5749V5.1168H83.9242V0.00732422Z" fill="#83327E"/>
<path d="M88.5749 5.11682H93.2222V10.2263H88.5749V5.11682Z" fill="#83327E"/>
<path d="M92.6682 9.89478H97.8728V36.3005H92.6682V9.89478Z" fill="black"/>
<path d="M93.2223 10.2263H97.8729V35.7774H93.2223V10.2263Z" fill="#83327E"/>
<path d="M88.5749 35.7773H93.2222V40.8868H88.5749V35.7773Z" fill="#83327E"/>
<path d="M83.1575 40.0728H89.2098V46H83.1575V40.0728Z" fill="black"/>
<path d="M83.9242 40.8868H88.5749V45.9926H83.9242V40.8868Z" fill="#83327E"/>
<path d="M32.7364 5.15735H18.8013V10.2153H23.4891V40.8905H28.1736V10.2153H32.7364V5.15735Z" fill="#331866"/>
<path d="M79.3107 5.15735H65.3756V10.2153H69.9351V40.8905H74.6229V10.2153H79.3107V5.15735Z" fill="#331866"/>
</svg>
