<svg width="145" height="185" viewBox="0 0 145 185" fill="none" xmlns="http://www.w3.org/2000/svg">
<path d="M57.5206 54.5373C75.6132 40.7867 88.9574 81.8679 57.6395 86.1722" stroke="black" stroke-width="4.43784" stroke-miterlimit="1.5" stroke-linecap="round" stroke-linejoin="round"/>
<path d="M60.0969 112.955C60.0969 113.242 60.0469 113.521 59.9593 113.793C59.8717 114.057 59.7404 114.297 59.5777 114.499C59.4088 114.7 59.2211 114.863 59.0022 114.972C58.7894 115.08 58.5643 115.134 58.3265 115.134C58.0951 115.134 57.8698 115.08 57.6508 114.972C57.4381 114.863 57.2441 114.7 57.0815 114.499C56.9126 114.297 56.7875 114.057 56.6999 113.793C56.6061 113.521 56.5623 113.242 56.5623 112.955C56.5623 112.668 56.6061 112.389 56.6999 112.118C56.7875 111.854 56.9126 111.614 57.0815 111.412C57.2441 111.202 57.4381 111.047 57.6508 110.939C57.8698 110.83 58.0951 110.768 58.3265 110.768C58.5643 110.768 58.7894 110.83 59.0022 110.939C59.2211 111.047 59.4088 111.202 59.5777 111.412C59.7404 111.614 59.8717 111.854 59.9593 112.118C60.0469 112.389 60.0969 112.668 60.0969 112.955Z" fill="black" stroke="black" stroke-width="4.4387" stroke-miterlimit="1.5" stroke-linecap="round" stroke-linejoin="round"/>
<path d="M87.9177 117.322C87.9177 117.609 87.8677 117.888 87.7801 118.159C87.6925 118.423 87.5612 118.664 87.3985 118.865C87.2296 119.067 87.0419 119.23 86.823 119.338C86.6102 119.447 86.385 119.501 86.1472 119.509C85.9157 119.501 85.6906 119.447 85.4716 119.338C85.2589 119.23 85.0649 119.067 84.9023 118.865C84.7334 118.664 84.6083 118.423 84.5207 118.159C84.4269 117.888 84.3831 117.609 84.3831 117.322C84.3831 117.035 84.4269 116.756 84.5207 116.484C84.6083 116.221 84.7334 115.98 84.9023 115.778C85.0649 115.569 85.2589 115.414 85.4716 115.305C85.6906 115.197 85.9157 115.135 86.1472 115.135C86.385 115.135 86.6102 115.197 86.823 115.305C87.0419 115.414 87.2296 115.569 87.3985 115.778C87.5612 115.98 87.6925 116.221 87.7801 116.484C87.8677 116.756 87.9177 117.035 87.9177 117.322Z" fill="black" stroke="black" stroke-width="4.4387" stroke-miterlimit="1.5" stroke-linecap="round" stroke-linejoin="round"/>
<path d="M105.261 58.5934L93.2678 93.3537" stroke="black" stroke-width="4.43784" stroke-miterlimit="1.5" stroke-linecap="round" stroke-linejoin="round"/>
<path d="M27.9482 154.429L27.4977 182.07L50.6452 157.919C91.6913 180.294 131.962 164.976 140.826 102.009C146.801 59.6018 135.634 22.639 98.0224 7.41488C73.6613 -2.44241 53.1914 1.24145 32.0146 22.639C-7.20469 62.262 -8.21817 96.2157 32.0146 145.991" stroke="black" stroke-width="4.43784" stroke-miterlimit="1.5" stroke-linecap="round" stroke-linejoin="round"/>
</svg>
