<svg width="258" height="70" viewBox="0 0 258 70" fill="none" xmlns="http://www.w3.org/2000/svg">
<path d="M18.6043 70C17.7234 70 16.8603 69.8976 16.0104 69.6888C14.9038 69.5045 13.8193 69.2343 12.7614 68.878C11.7035 68.5218 10.6854 68.0836 9.71158 67.5636C8.73777 67.0436 7.81707 66.4498 6.95392 65.7865C6.09077 65.119 5.29843 64.3902 4.5725 63.5958C3.84657 62.8014 3.20031 61.9579 2.63372 61.0611C2.06714 60.1644 1.58909 59.2267 1.19956 58.2521C0.810036 57.2817 0.513465 56.2825 0.314276 55.2629C0.110661 54.2433 0.00885229 53.2115 0 52.1755C0 49.1167 0.814464 46.2545 2.43896 43.5888C1.63778 42.2784 1.03136 40.8944 0.6197 39.4408C0.208042 37.983 0 36.5048 0 35.002C0 33.4952 0.208042 32.017 0.6197 30.5633C1.03136 29.1056 1.63778 27.7257 2.43896 26.4112C0.814464 23.7455 0 20.8833 0 17.8286C0.00885229 16.7885 0.110661 15.7567 0.314276 14.733C0.517893 13.7093 0.814463 12.7101 1.20399 11.7356C1.59351 10.761 2.07599 9.82334 2.64258 8.92659C3.21359 8.02983 3.85985 7.18222 4.59021 6.38783C5.31614 5.59345 6.1129 4.86049 6.98048 4.19713C7.84806 3.52969 8.76875 2.93595 9.74699 2.41591C10.7252 1.89997 11.7477 1.46183 12.8057 1.10559C13.868 0.753436 14.9569 0.483182 16.0679 0.303013C16.8957 0.102369 17.7411 0 18.5999 0H238.642C239.058 0 239.479 0.0122838 239.895 0.0368529C240.311 0.0655154 240.727 0.10237 241.143 0.151506C241.559 0.200645 241.971 0.262064 242.382 0.335771C242.79 0.409476 243.197 0.495467 243.604 0.597836C244.007 0.69611 244.405 0.806668 244.804 0.929512C245.202 1.05236 245.592 1.18339 245.981 1.3308C246.366 1.47821 246.747 1.63381 247.123 1.8017C247.499 1.96958 247.871 2.14975 248.234 2.34221C248.597 2.53466 248.951 2.7353 249.301 2.94823C249.651 3.15706 249.991 3.38228 250.328 3.61158C250.66 3.84498 250.983 4.08658 251.302 4.34045C251.616 4.59023 251.926 4.8523 252.222 5.12255C252.523 5.3928 252.811 5.67125 253.09 5.95788C253.364 6.24861 253.634 6.54343 253.891 6.84645C254.148 7.14946 254.396 7.46066 254.63 7.78005C254.869 8.09535 255.091 8.42293 255.308 8.75461C255.52 9.08628 255.719 9.42205 255.91 9.76601C256.095 10.11 256.272 10.458 256.441 10.8102C256.604 11.1664 256.755 11.5268 256.897 11.8871C257.034 12.2515 257.162 12.6201 257.273 12.9886C257.388 13.3612 257.485 13.7338 257.574 14.1106C257.662 14.4873 257.738 14.864 257.795 15.2489C257.857 15.6297 257.901 16.0105 257.937 16.3954C257.972 16.7803 257.99 17.1612 257.999 17.5502C258.003 17.9351 257.994 18.32 257.977 18.7049C257.955 19.0857 257.919 19.4706 257.875 19.8555C257.826 20.2363 257.764 20.6171 257.689 20.998C257.614 21.3747 257.525 21.7514 257.428 22.124C257.326 22.5007 257.211 22.8693 257.083 23.2378C256.959 23.6022 256.817 23.9667 256.662 24.327C256.512 24.6832 256.348 25.0395 256.171 25.3875C255.989 25.7356 255.803 26.0796 255.6 26.4153C256.388 27.7297 256.981 29.1138 257.388 30.5674C257.795 32.0252 257.999 33.4993 257.999 35.002C257.999 36.5048 257.795 37.983 257.388 39.4367C256.981 40.8903 256.388 42.2743 255.6 43.5888C255.803 43.9245 255.989 44.2685 256.166 44.6166C256.348 44.9687 256.512 45.3209 256.662 45.6812C256.817 46.0374 256.954 46.4019 257.083 46.7663C257.211 47.1348 257.326 47.5034 257.423 47.8801C257.525 48.2527 257.614 48.6294 257.689 49.0061C257.764 49.387 257.822 49.7678 257.87 50.1486C257.919 50.5335 257.955 50.9184 257.972 51.2992C257.994 51.6841 258.003 52.069 257.994 52.4539C257.99 52.8388 257.968 53.2238 257.937 53.6087C257.901 53.9936 257.853 54.3744 257.795 54.7552C257.733 55.136 257.658 55.5168 257.574 55.8935C257.485 56.2703 257.384 56.6429 257.273 57.0155C257.158 57.384 257.034 57.7526 256.892 58.117C256.755 58.4773 256.6 58.8377 256.436 59.1898C256.272 59.5461 256.095 59.8941 255.905 60.2381C255.719 60.582 255.516 60.9178 255.303 61.2495C255.091 61.5812 254.865 61.9047 254.63 62.224C254.396 62.5434 254.148 62.8546 253.891 63.1576C253.634 63.4607 253.364 63.7555 253.085 64.0421C252.807 64.3288 252.519 64.6072 252.222 64.8774C251.926 65.1477 251.616 65.4098 251.302 65.6636C250.983 65.9134 250.66 66.155 250.323 66.3884C249.991 66.6218 249.651 66.8429 249.301 67.0559C248.951 67.2688 248.597 67.4694 248.234 67.6619C247.867 67.8503 247.499 68.0304 247.123 68.1983C246.747 68.3662 246.366 68.5259 245.977 68.6733C245.592 68.8166 245.198 68.9517 244.804 69.0746C244.405 69.1974 244.007 69.308 243.604 69.4063C243.197 69.5045 242.79 69.5905 242.378 69.6642C241.971 69.7379 241.559 69.8035 241.143 69.8526C240.727 69.9017 240.311 69.9386 239.895 69.9632C239.479 69.9877 239.058 70 238.642 70H18.6043Z" fill="#FFF5EC"/>
<path d="M43.3304 23.1272C43.3304 23.2951 43.2949 23.4548 43.2241 23.6104C43.1577 23.766 43.0559 23.9011 42.9275 24.0198C42.7992 24.1386 42.6487 24.2328 42.4805 24.2942C42.3123 24.3597 42.1396 24.3925 41.9582 24.3925C41.7767 24.3925 41.5996 24.3597 41.4314 24.2942C41.2632 24.2328 41.1127 24.1386 40.9843 24.0198C40.856 23.9011 40.7586 23.766 40.6878 23.6104C40.617 23.4548 40.5815 23.2951 40.5815 23.1272C40.5815 22.9593 40.617 22.7996 40.6878 22.644C40.7586 22.4884 40.856 22.3533 40.9843 22.2345C41.1127 22.1158 41.2632 22.0216 41.4314 21.9602C41.5996 21.8947 41.7767 21.8619 41.9582 21.8619C42.1396 21.8619 42.3123 21.8947 42.4805 21.9602C42.6487 22.0216 42.7992 22.1158 42.9275 22.2345C43.0559 22.3533 43.1577 22.4884 43.2241 22.644C43.2949 22.7996 43.3304 22.9593 43.3304 23.1272Z" fill="#1D1D1B"/>
<path d="M67.3525 46.8728C67.3525 47.0407 67.3171 47.2044 67.2463 47.3559C67.1799 47.5115 67.0781 47.6508 66.9497 47.7695C66.8213 47.8883 66.6753 47.9784 66.5026 48.0439C66.3344 48.1053 66.1618 48.138 65.9803 48.138C65.7988 48.138 65.6218 48.1053 65.4536 48.0439C65.2854 47.9784 65.1349 47.8883 65.0065 47.7695C64.8781 47.6508 64.7808 47.5115 64.7099 47.3559C64.6391 47.2044 64.6037 47.0407 64.6037 46.8728C64.6037 46.7049 64.6391 46.5452 64.7099 46.3896C64.7808 46.234 64.8781 46.0989 65.0065 45.9801C65.1349 45.8614 65.2854 45.7713 65.4536 45.7058C65.6218 45.6402 65.7988 45.6075 65.9803 45.6075C66.1618 45.6075 66.3344 45.6402 66.5026 45.7058C66.6753 45.7713 66.8213 45.8614 66.9497 45.9801C67.0781 46.0989 67.1799 46.234 67.2463 46.3896C67.3171 46.5452 67.3525 46.7049 67.3525 46.8728Z" fill="#1D1D1B"/>
<path d="M96.868 23.1272C96.868 23.2951 96.8325 23.4548 96.7661 23.6104C96.6953 23.766 96.5979 23.9011 96.4651 24.0198C96.3368 24.1386 96.1907 24.2328 96.0225 24.2942C95.8543 24.3597 95.6772 24.3925 95.4958 24.3925C95.3143 24.3925 95.1372 24.3597 94.969 24.2942C94.8008 24.2328 94.6547 24.1386 94.5264 24.0198C94.3936 23.9011 94.2962 23.766 94.2254 23.6104C94.159 23.4548 94.1236 23.2951 94.1236 23.1272C94.1236 22.9593 94.159 22.7996 94.2254 22.644C94.2962 22.4884 94.3936 22.3533 94.5264 22.2345C94.6547 22.1158 94.8008 22.0216 94.969 21.9602C95.1372 21.8947 95.3143 21.8619 95.4958 21.8619C95.6772 21.8619 95.8543 21.8947 96.0225 21.9602C96.1907 22.0216 96.3368 22.1158 96.4651 22.2345C96.5979 22.3533 96.6953 22.4884 96.7661 22.644C96.8325 22.7996 96.868 22.9593 96.868 23.1272Z" fill="#1D1D1B"/>
<path d="M121.368 46.8728C121.368 47.0407 121.333 47.2044 121.262 47.3559C121.191 47.5115 121.094 47.6508 120.965 47.7695C120.837 47.8883 120.687 47.9784 120.518 48.0439C120.35 48.1053 120.177 48.138 119.996 48.138C119.81 48.138 119.637 48.1053 119.469 48.0439C119.301 47.9784 119.151 47.8883 119.022 47.7695C118.894 47.6508 118.796 47.5115 118.726 47.3559C118.655 47.2044 118.619 47.0407 118.619 46.8728C118.619 46.7049 118.655 46.5452 118.726 46.3896C118.796 46.234 118.894 46.0989 119.022 45.9801C119.151 45.8614 119.301 45.7713 119.469 45.7058C119.637 45.6402 119.81 45.6075 119.996 45.6075C120.177 45.6075 120.35 45.6402 120.518 45.7058C120.687 45.7713 120.837 45.8614 120.965 45.9801C121.094 46.0989 121.191 46.234 121.262 46.3896C121.333 46.5452 121.368 46.7049 121.368 46.8728Z" fill="#1D1D1B"/>
<path d="M145.873 23.1272C145.873 23.2951 145.842 23.4548 145.771 23.6104C145.7 23.766 145.603 23.9011 145.475 24.0198C145.342 24.1386 145.196 24.2328 145.027 24.2942C144.859 24.3597 144.682 24.3925 144.501 24.3925C144.319 24.3925 144.142 24.3597 143.974 24.2942C143.806 24.2328 143.66 24.1386 143.531 24.0198C143.403 23.9011 143.301 23.766 143.23 23.6104C143.164 23.4548 143.129 23.2951 143.129 23.1272C143.129 22.9593 143.164 22.7996 143.23 22.644C143.301 22.4884 143.403 22.3533 143.531 22.2345C143.66 22.1158 143.806 22.0216 143.974 21.9602C144.142 21.8947 144.319 21.8619 144.501 21.8619C144.682 21.8619 144.859 21.8947 145.027 21.9602C145.196 22.0216 145.342 22.1158 145.475 22.2345C145.603 22.3533 145.7 22.4884 145.771 22.644C145.842 22.7996 145.873 22.9593 145.873 23.1272Z" fill="#1D1D1B"/>
<path d="M168.744 46.8605C168.744 47.0284 168.709 47.1881 168.643 47.3437C168.572 47.4993 168.47 47.6344 168.342 47.7532C168.213 47.8719 168.067 47.962 167.899 48.0275C167.731 48.093 167.554 48.1258 167.372 48.1258C167.191 48.1258 167.014 48.093 166.845 48.0275C166.677 47.962 166.531 47.8719 166.398 47.7532C166.27 47.6344 166.173 47.4993 166.102 47.3437C166.031 47.1881 166 47.0284 166 46.8605C166 46.6926 166.031 46.5288 166.102 46.3732C166.173 46.2217 166.27 46.0825 166.398 45.9637C166.531 45.845 166.677 45.7549 166.845 45.6894C167.014 45.628 167.191 45.5952 167.372 45.5952C167.554 45.5952 167.731 45.628 167.899 45.6894C168.067 45.7549 168.213 45.845 168.342 45.9637C168.47 46.0825 168.572 46.2217 168.643 46.3732C168.709 46.5288 168.744 46.6926 168.744 46.8605Z" fill="#1D1D1B"/>
<path d="M192.988 23.1272C192.988 23.2951 192.957 23.4548 192.886 23.6104C192.815 23.766 192.718 23.9011 192.589 24.0198C192.457 24.1386 192.311 24.2328 192.142 24.2942C191.974 24.3597 191.797 24.3925 191.616 24.3925C191.434 24.3925 191.257 24.3597 191.089 24.2942C190.921 24.2328 190.775 24.1386 190.646 24.0198C190.518 23.9011 190.416 23.766 190.345 23.6104C190.279 23.4548 190.243 23.2951 190.243 23.1272C190.243 22.9593 190.279 22.7996 190.345 22.644C190.416 22.4884 190.518 22.3533 190.646 22.2345C190.775 22.1158 190.921 22.0216 191.089 21.9602C191.257 21.8947 191.434 21.8619 191.616 21.8619C191.797 21.8619 191.974 21.8947 192.142 21.9602C192.311 22.0216 192.457 22.1158 192.589 22.2345C192.718 22.3533 192.815 22.4884 192.886 22.644C192.957 22.7996 192.988 22.9593 192.988 23.1272Z" fill="#1D1D1B"/>
<path d="M217.417 46.8605C217.417 47.0284 217.382 47.1881 217.311 47.3437C217.24 47.4993 217.143 47.6344 217.015 47.7532C216.886 47.8719 216.736 47.962 216.567 48.0275C216.399 48.093 216.222 48.1258 216.041 48.1258C215.859 48.1258 215.682 48.093 215.514 48.0275C215.346 47.962 215.2 47.8719 215.071 47.7532C214.943 47.6344 214.841 47.4993 214.775 47.3437C214.704 47.1881 214.669 47.0284 214.669 46.8605C214.669 46.6926 214.704 46.5288 214.775 46.3732C214.841 46.2217 214.943 46.0825 215.071 45.9637C215.2 45.845 215.346 45.7549 215.514 45.6894C215.682 45.628 215.859 45.5952 216.041 45.5952C216.222 45.5952 216.399 45.628 216.567 45.6894C216.736 45.7549 216.886 45.845 217.015 45.9637C217.143 46.0825 217.24 46.2217 217.311 46.3732C217.382 46.5288 217.417 46.6926 217.417 46.8605Z" fill="#1D1D1B"/>
<path d="M238.642 61.8514H18.6043C18.4184 61.8514 18.2414 61.8104 18.0776 61.7326C16.9621 61.6139 15.8954 61.3314 14.8817 60.8973C13.8636 60.4592 12.9474 59.8859 12.1329 59.1734C11.3184 58.465 10.6412 57.6583 10.11 56.7493C9.57443 55.8403 9.21146 54.878 9.01227 53.8584C8.81751 52.8429 8.7998 51.8233 8.95916 50.7996C9.11851 49.7759 9.45049 48.8055 9.94625 47.8801C10.4464 46.9546 11.0927 46.1234 11.885 45.3904C12.6729 44.6575 13.5671 44.0555 14.5674 43.5887C13.7087 43.1834 12.9252 42.6797 12.2126 42.0778C11.5044 41.4758 10.8979 40.7961 10.3933 40.0386C9.88871 39.281 9.50803 38.4744 9.24687 37.6186C8.98129 36.7628 8.85292 35.8906 8.85292 35.002C8.85292 34.1135 8.98129 33.2413 9.24687 32.3855C9.50803 31.5297 9.88871 30.723 10.3933 29.9655C10.8979 29.2079 11.5044 28.5282 12.2126 27.9263C12.9252 27.3202 13.7087 26.8166 14.5674 26.4153C13.5671 25.9444 12.6685 25.3425 11.8806 24.6095C11.0883 23.8724 10.4464 23.0412 9.94625 22.1158C9.44606 21.1904 9.11408 20.2117 8.95916 19.188C8.7998 18.1643 8.82194 17.1448 9.0167 16.1252C9.21589 15.1056 9.58328 14.1433 10.1233 13.2343C10.6589 12.3252 11.3361 11.5185 12.155 10.8102C12.9739 10.1018 13.8946 9.52849 14.9127 9.09444C15.9308 8.6604 16.9975 8.38196 18.1174 8.26321C18.2679 8.1895 18.4317 8.15265 18.6043 8.15265H238.642C239.226 8.15265 239.806 8.19769 240.382 8.28778C240.957 8.37786 241.519 8.50889 242.073 8.68497C242.626 8.86104 243.157 9.07807 243.67 9.33604C244.184 9.59401 244.671 9.88883 245.131 10.2205C245.587 10.5522 246.016 10.9166 246.41 11.3138C246.8 11.711 247.159 12.1369 247.473 12.5914C247.791 13.0418 248.062 13.5168 248.292 14.0123C248.522 14.5036 248.708 15.0114 248.845 15.5355C248.987 16.0596 249.075 16.5879 249.119 17.1243C249.159 17.6607 249.155 18.1971 249.097 18.7335C249.044 19.2699 248.942 19.7982 248.792 20.3182C248.641 20.8341 248.447 21.3419 248.203 21.8292C247.96 22.3205 247.676 22.7873 247.349 23.2337C247.026 23.68 246.658 24.0977 246.256 24.4867C245.853 24.8798 245.419 25.236 244.954 25.5595C244.485 25.883 243.994 26.1655 243.476 26.4153C244.33 26.8207 245.109 27.3284 245.813 27.9345C246.517 28.5364 247.114 29.2202 247.614 29.9777C248.115 30.7353 248.495 31.5378 248.756 32.3937C249.018 33.2454 249.146 34.1135 249.146 35.002C249.146 35.8865 249.018 36.7587 248.756 37.6104C248.495 38.4621 248.115 39.2688 247.614 40.0263C247.114 40.7838 246.517 41.4636 245.813 42.0696C245.109 42.6756 244.33 43.1793 243.476 43.5887C243.994 43.8344 244.485 44.1211 244.954 44.4445C245.419 44.768 245.853 45.1243 246.256 45.5133C246.658 45.9023 247.026 46.324 247.349 46.7663C247.676 47.2126 247.96 47.6835 248.203 48.1708C248.447 48.6622 248.641 49.1658 248.792 49.6858C248.942 50.2059 249.044 50.7341 249.097 51.2705C249.155 51.8069 249.159 52.3392 249.119 52.8798C249.075 53.4162 248.987 53.9444 248.845 54.4685C248.708 54.9886 248.522 55.4963 248.292 55.9918C248.062 56.4872 247.791 56.9581 247.473 57.4127C247.159 57.8631 246.8 58.2889 246.41 58.6861C246.016 59.0874 245.587 59.4519 245.131 59.7835C244.671 60.1152 244.184 60.41 243.67 60.668C243.157 60.926 242.626 61.143 242.073 61.3191C241.519 61.4951 240.957 61.6262 240.382 61.7163C239.806 61.8063 239.226 61.8514 238.642 61.8514ZM19.0204 59.6771H238.642C239.173 59.6771 239.704 59.6279 240.227 59.5297C240.753 59.4355 241.263 59.2922 241.754 59.1038C242.25 58.9154 242.719 58.682 243.161 58.4077C243.604 58.1333 244.016 57.8262 244.392 57.4741C244.773 57.126 245.109 56.7493 245.406 56.3398C245.702 55.9304 245.95 55.5004 246.158 55.0418C246.362 54.5873 246.517 54.1205 246.618 53.6373C246.725 53.1541 246.778 52.6668 246.778 52.1755C246.778 51.6841 246.725 51.1968 246.618 50.7136C246.517 50.2304 246.362 49.7636 246.158 49.3091C245.95 48.8505 245.702 48.4206 245.406 48.0111C245.109 47.6016 244.773 47.2249 244.392 46.8768C244.016 46.5247 243.604 46.2176 243.161 45.9432C242.719 45.6689 242.25 45.4355 241.754 45.2471C241.263 45.0588 240.753 44.9154 240.227 44.8213C239.704 44.723 239.173 44.6739 238.642 44.6739C238.483 44.6739 238.332 44.6452 238.191 44.592C238.044 44.5346 237.921 44.4568 237.81 44.3545C237.699 44.2521 237.615 44.1333 237.553 44.0023C237.496 43.8713 237.465 43.7321 237.465 43.5887C237.465 43.4454 237.496 43.3062 237.553 43.1711C237.615 43.04 237.699 42.9213 237.81 42.823C237.921 42.7206 238.044 42.6388 238.191 42.5855C238.332 42.5282 238.483 42.5036 238.642 42.4995C239.178 42.5077 239.713 42.4627 240.24 42.3685C240.767 42.2784 241.28 42.1351 241.78 41.9508C242.281 41.7625 242.754 41.5332 243.201 41.2629C243.653 40.9886 244.069 40.6774 244.45 40.3293C244.83 39.9812 245.171 39.6004 245.472 39.191C245.773 38.7774 246.025 38.3433 246.233 37.8888C246.441 37.4302 246.596 36.9593 246.703 36.472C246.809 35.9889 246.862 35.4975 246.862 35.002C246.862 34.5066 246.809 34.0152 246.703 33.5279C246.596 33.0447 246.441 32.5738 246.233 32.1152C246.025 31.6566 245.773 31.2226 245.472 30.8131C245.171 30.3995 244.83 30.0228 244.45 29.6747C244.069 29.3226 243.653 29.0114 243.201 28.7411C242.754 28.4668 242.281 28.2375 241.78 28.0532C241.28 27.8648 240.767 27.7256 240.24 27.6314C239.713 27.5414 239.178 27.4963 238.642 27.5004C238.483 27.5045 238.328 27.4799 238.182 27.4267C238.031 27.3735 237.903 27.2957 237.788 27.1933C237.673 27.0909 237.584 26.9722 237.527 26.8371C237.465 26.7019 237.434 26.5627 237.434 26.4153C237.434 26.2679 237.465 26.1287 237.527 25.9935C237.584 25.8584 237.673 25.7397 237.788 25.6373C237.903 25.5349 238.031 25.4571 238.182 25.4039C238.328 25.3507 238.483 25.3261 238.642 25.3302C239.173 25.3261 239.7 25.2729 240.218 25.1746C240.74 25.0722 241.245 24.9289 241.736 24.7364C242.223 24.5481 242.692 24.3147 243.13 24.0403C243.573 23.766 243.98 23.4548 244.352 23.1067C244.728 22.7587 245.06 22.382 245.357 21.9725C245.649 21.5671 245.897 21.1331 246.101 20.6826C246.304 20.2281 246.455 19.7613 246.557 19.2822C246.663 18.8031 246.711 18.3159 246.711 17.8286C246.711 17.3372 246.663 16.854 246.557 16.3708C246.455 15.8918 246.304 15.425 246.101 14.9704C245.897 14.52 245.649 14.0901 245.357 13.6806C245.06 13.2711 244.728 12.8944 244.352 12.5463C243.98 12.1983 243.573 11.8871 243.13 11.6127C242.692 11.3384 242.223 11.105 241.736 10.9166C241.245 10.7242 240.74 10.5808 240.218 10.4826C239.7 10.3802 239.173 10.3311 238.642 10.327H19.0027C18.9053 10.3638 18.8035 10.3843 18.6973 10.3884C18.1927 10.4252 17.6969 10.503 17.21 10.6218C16.7187 10.7446 16.2495 10.9043 15.7936 11.1091C15.3376 11.3097 14.9038 11.5513 14.4966 11.8257C14.0894 12.1041 13.7176 12.4112 13.3723 12.7552C13.027 13.095 12.7216 13.4636 12.4516 13.8608C12.1816 14.2538 11.9558 14.6674 11.7699 15.1015C11.584 15.5355 11.4468 15.9818 11.3539 16.4405C11.2609 16.895 11.2122 17.3577 11.2122 17.8245C11.2122 18.2913 11.2609 18.754 11.3539 19.2085C11.4468 19.6671 11.584 20.1135 11.7699 20.5475C11.9558 20.9815 12.1816 21.3951 12.4516 21.7882C12.7216 22.1854 13.027 22.5539 13.3723 22.8938C13.7176 23.2378 14.0894 23.5449 14.4966 23.8233C14.9038 24.0977 15.3376 24.3393 15.7936 24.5399C16.2495 24.7446 16.7187 24.9043 17.21 25.0272C17.6969 25.1459 18.1927 25.2237 18.6973 25.2606C19.0027 25.281 19.2639 25.3957 19.4719 25.6045C19.68 25.8134 19.7818 26.055 19.7818 26.3375C19.7862 26.6364 19.6888 26.9026 19.4808 27.1319C19.2772 27.3612 19.016 27.5045 18.6973 27.5618C18.1927 27.5946 17.6969 27.6724 17.21 27.7952C16.7187 27.914 16.2451 28.0778 15.7891 28.2784C15.3332 28.4832 14.9038 28.7206 14.4966 28.9991C14.0894 29.2734 13.7131 29.5846 13.3679 29.9245C13.027 30.2685 12.7172 30.637 12.4472 31.0301C12.1816 31.4232 11.9514 31.8409 11.7699 32.2708C11.584 32.7049 11.4424 33.1512 11.3494 33.6098C11.2565 34.0684 11.2078 34.5311 11.2078 34.9979C11.2078 35.4606 11.2565 35.9233 11.3494 36.382C11.4424 36.8406 11.584 37.2869 11.7699 37.7209C11.9514 38.155 12.1816 38.5686 12.4472 38.9617C12.7172 39.3588 13.027 39.7233 13.3679 40.0672C13.7131 40.4071 14.0894 40.7183 14.4966 40.9927C14.9038 41.2711 15.3332 41.5127 15.7891 41.7133C16.2451 41.914 16.7187 42.0778 17.21 42.1965C17.6969 42.3194 18.1927 42.3972 18.6973 42.4299C19.0027 42.4545 19.2639 42.5691 19.4719 42.7739C19.68 42.9827 19.7818 43.2284 19.7818 43.5109C19.7862 43.8099 19.6888 44.0719 19.4808 44.3012C19.2772 44.5346 19.016 44.6779 18.6973 44.7312C18.1927 44.768 17.6969 44.8458 17.21 44.9687C16.7231 45.0874 16.2495 45.2512 15.7936 45.4519C15.3376 45.6566 14.9083 45.8941 14.501 46.1725C14.0938 46.4469 13.7176 46.7581 13.3723 47.0979C13.0315 47.4419 12.7216 47.8104 12.456 48.2035C12.186 48.5966 11.9603 49.0102 11.7744 49.4443C11.5885 49.8783 11.4512 50.3246 11.3583 50.7832C11.2609 51.2419 11.2166 51.7005 11.2166 52.1673C11.2166 52.6341 11.2609 53.0968 11.3583 53.5513C11.4512 54.0099 11.5885 54.4562 11.7744 54.8903C11.9603 55.3243 12.186 55.7379 12.456 56.131C12.7216 56.5282 13.0315 56.8967 13.3723 57.2366C13.7176 57.5765 14.0938 57.8877 14.501 58.1661C14.9083 58.4404 15.3376 58.682 15.7936 58.8827C16.2495 59.0874 16.7231 59.2471 17.21 59.37C17.6969 59.4887 18.1927 59.5665 18.6973 59.6034C18.808 59.6156 18.9186 59.6361 19.0204 59.6771Z" fill="black"/>
<path d="M70.1235 22.4597C70.1235 22.7218 70.0217 22.947 69.8181 23.1313C69.6145 23.3196 69.371 23.4138 69.0877 23.4138C68.8 23.4138 68.5566 23.3196 68.3529 23.1313C68.1537 22.947 68.0519 22.7218 68.0519 22.4597C68.0519 22.1977 68.1537 21.9724 68.3529 21.7841C68.5566 21.5998 68.8 21.5056 69.0877 21.5056C69.371 21.5056 69.6145 21.5998 69.8181 21.7841C70.0217 21.9724 70.1235 22.1977 70.1235 22.4597Z" fill="black"/>
<path d="M67.388 28.3603C66.8125 28.3522 66.3123 28.1679 65.883 27.8116C64.648 26.833 64.9667 25.3589 65.6307 24.1755C65.1305 24.2451 64.6391 24.2083 64.1567 24.069C63.6698 23.9339 63.2448 23.7046 62.873 23.3893C62.541 23.0699 62.3507 22.6891 62.3064 22.251C62.2577 21.8087 62.3595 21.4033 62.6163 21.0266C62.7668 20.7768 62.9527 20.5598 63.1828 20.3674C63.413 20.179 63.6698 20.0275 63.953 19.9128C64.2363 19.8023 64.5329 19.7368 64.8383 19.7204C65.1482 19.6999 65.4536 19.7286 65.7502 19.8023C65.2854 18.9137 64.8516 17.7181 65.2234 16.7599C65.3562 16.4364 65.5643 16.1579 65.852 15.9286C66.1353 15.6993 66.4628 15.5478 66.8346 15.47C67.1799 15.3595 67.5385 15.3308 67.9014 15.3881C68.26 15.4414 68.5875 15.5765 68.8797 15.7853C69.6322 16.4937 70.0394 17.3413 70.1102 18.3282C70.6989 17.4847 71.4868 16.6616 72.3633 16.5797C72.6952 16.5633 73.0051 16.6288 73.2972 16.7804C73.5894 16.9278 73.8107 17.1407 73.9656 17.4109C74.4702 18.0497 74.6252 18.754 74.4304 19.5238C74.1825 20.3018 73.7222 20.957 73.0494 21.4852C73.6336 21.6122 74.125 21.8783 74.5322 22.2837C74.8199 22.6195 75.0058 22.9921 75.0899 23.4098C75.1785 23.8315 75.1519 24.241 75.0147 24.6464C74.9616 25.0272 74.8111 25.3671 74.5588 25.6701C74.3109 25.9731 73.9966 26.2024 73.6159 26.3539C72.5226 26.7511 71.1725 26.2638 70.3492 25.8625C70.0172 26.9026 69.3312 27.6724 68.2865 28.1761C68.0032 28.2948 67.7022 28.3563 67.388 28.3603ZM66.9365 22.7751C67.1799 22.7751 67.3525 22.8734 67.4543 23.074C67.5562 23.2746 67.534 23.463 67.3791 23.635C67.357 23.6555 65.3385 25.9936 66.6266 27.0091C66.786 27.1606 66.9719 27.2548 67.1932 27.2916C67.4189 27.3285 67.6314 27.3039 67.835 27.2138C68.2688 26.9845 68.6229 26.6733 68.8929 26.2843C69.1674 25.8994 69.3267 25.4735 69.3754 25.0149C69.3843 24.8061 69.4905 24.6546 69.6897 24.5604C69.8933 24.4662 70.0881 24.4785 70.274 24.5973C70.7565 24.9044 72.3234 25.6987 73.2043 25.3753C73.3326 25.3302 73.7266 25.1869 73.9081 24.4253C74.0984 23.9052 74.0232 23.4262 73.6823 22.9798C73.0759 22.5171 72.3854 22.3206 71.6019 22.3861C71.4691 22.3984 71.3496 22.3656 71.2389 22.296C71.1283 22.2264 71.053 22.1322 71.0176 22.0135C70.9778 21.8988 70.9822 21.7801 71.0309 21.6654C71.084 21.5548 71.1637 21.4648 71.2788 21.4033C71.2965 21.3952 73.0184 20.4779 73.3238 19.2823C73.4345 18.8114 73.3371 18.3855 73.0228 18.0006C72.8325 17.7385 72.6643 17.6075 72.4828 17.6321C71.7568 17.6935 70.6635 19.401 70.1545 20.5312C70.1014 20.654 70.0128 20.7441 69.8889 20.8014C69.7649 20.8628 69.6322 20.8792 69.4949 20.8505C69.3577 20.8219 69.2471 20.7523 69.1629 20.6499C69.0788 20.5434 69.0434 20.4288 69.0523 20.2978C69.132 19.1881 68.9593 17.198 68.1582 16.6002C67.8439 16.3791 67.5075 16.3422 67.1489 16.4814C66.7328 16.5429 66.4495 16.7517 66.2991 17.112C65.9228 18.0825 67.0383 19.876 67.4588 20.4288C67.627 20.654 67.6137 20.8669 67.4189 21.0758C67.2242 21.2805 66.994 21.3214 66.7284 21.1945C66.6355 21.1495 64.4222 20.1258 63.6255 21.518C63.4883 21.6941 63.4263 21.8865 63.4396 22.0995C63.4529 22.3165 63.537 22.5007 63.6919 22.6604C64.2142 23.16 65.4757 23.3606 66.693 22.8283C66.7683 22.7915 66.8524 22.7751 66.9365 22.7751Z" fill="black"/>
<path d="M144.536 47.7736C144.536 48.0357 144.439 48.2609 144.235 48.4492C144.032 48.6335 143.788 48.7277 143.505 48.7277C143.217 48.7277 142.974 48.6335 142.77 48.4492C142.571 48.2609 142.469 48.0357 142.469 47.7736C142.469 47.5115 142.571 47.2863 142.77 47.098C142.974 46.9137 143.217 46.8195 143.505 46.8195C143.788 46.8195 144.032 46.9137 144.235 47.098C144.439 47.2863 144.536 47.5115 144.536 47.7736Z" fill="black"/>
<path d="M141.805 53.6741C141.23 53.6619 140.725 53.4776 140.3 53.1214C139.061 52.1468 139.384 50.6686 140.048 49.4893C139.548 49.5548 139.056 49.518 138.569 49.3828C138.087 49.2436 137.662 49.0184 137.29 48.699C136.958 48.3796 136.768 47.9988 136.724 47.5607C136.675 47.1184 136.777 46.713 137.033 46.3404C137.179 46.0906 137.37 45.8695 137.6 45.6771C137.826 45.4887 138.082 45.3372 138.37 45.2266C138.653 45.1161 138.95 45.0506 139.255 45.0301C139.565 45.0096 139.866 45.0383 140.167 45.112C139.703 44.2234 139.269 43.0318 139.641 42.0737C139.773 41.7461 139.981 41.4676 140.269 41.2383C140.552 41.009 140.88 40.8575 141.252 40.7838C141.597 40.6692 141.951 40.6446 142.314 40.6978C142.677 40.7552 143.005 40.8862 143.292 41.095C144.049 41.8034 144.461 42.6551 144.527 43.6461C145.116 42.8025 145.908 41.9795 146.785 41.8976C147.117 41.8812 147.427 41.9467 147.719 42.0941C148.006 42.2457 148.232 42.4545 148.387 42.7247C148.892 43.3676 149.042 44.0678 148.848 44.8376C148.6 45.6197 148.144 46.2708 147.471 46.799C148.051 46.926 148.547 47.1962 148.954 47.6016C149.241 47.9333 149.427 48.31 149.511 48.7277C149.6 49.1453 149.573 49.5589 149.436 49.9643C149.383 50.341 149.228 50.6809 148.98 50.9839C148.732 51.291 148.418 51.5162 148.037 51.6677C146.94 52.0649 145.594 51.5776 144.771 51.1804C144.439 52.2205 143.748 52.9903 142.708 53.4899C142.42 53.6086 142.119 53.6701 141.805 53.6741ZM141.354 48.0848C141.593 48.0848 141.765 48.1872 141.867 48.3878C141.973 48.5884 141.947 48.7727 141.792 48.9447C141.774 48.9693 139.756 51.3033 141.044 52.3188C141.199 52.4703 141.389 52.5645 141.61 52.6013C141.832 52.6382 142.044 52.6136 142.248 52.5276C142.681 52.2942 143.036 51.9871 143.31 51.5981C143.58 51.2091 143.744 50.7832 143.793 50.3246C143.801 50.1158 143.903 49.9643 144.107 49.8701C144.31 49.78 144.505 49.7923 144.691 49.9111C145.174 50.2141 146.741 51.0085 147.621 50.6891C147.75 50.6399 148.139 50.4966 148.325 49.735C148.511 49.219 148.436 48.7359 148.095 48.2895C147.493 47.8309 146.798 47.6303 146.019 47.6958C145.886 47.7081 145.762 47.6794 145.652 47.6098C145.541 47.5361 145.47 47.4419 145.43 47.3273C145.395 47.2085 145.399 47.0939 145.448 46.9792C145.497 46.8645 145.581 46.7786 145.696 46.7171C145.714 46.7089 147.435 45.7917 147.736 44.592C147.852 44.1252 147.75 43.6952 147.44 43.3103C147.25 43.0523 147.081 42.9213 146.9 42.9418C146.17 43.0073 145.081 44.7107 144.572 45.8409C144.518 45.9637 144.43 46.0497 144.302 46.1111C144.178 46.1684 144.049 46.1848 143.912 46.1562C143.775 46.1275 143.664 46.0579 143.584 45.9555C143.5 45.8531 143.465 45.7344 143.474 45.6075C143.554 44.4937 143.381 42.5077 142.575 41.9099C142.265 41.6888 141.929 41.6478 141.566 41.7911C141.15 41.8526 140.867 42.0614 140.716 42.4217C140.344 43.3922 141.46 45.1857 141.876 45.7344C142.049 45.9596 142.035 46.1766 141.836 46.3814C141.641 46.5902 141.411 46.6311 141.146 46.5042C141.053 46.4592 138.839 45.4355 138.043 46.8277C137.905 46.9997 137.848 47.1962 137.857 47.4092C137.87 47.6221 137.954 47.8104 138.113 47.9701C138.631 48.4697 139.897 48.6662 141.11 48.138C141.185 48.1053 141.265 48.0889 141.354 48.0889V48.0848Z" fill="black"/>
<path d="M170.156 22.1035C170.156 22.3656 170.055 22.5908 169.851 22.7751C169.652 22.9634 169.408 23.0535 169.121 23.0535C168.837 23.0535 168.589 22.9634 168.39 22.7751C168.187 22.5908 168.085 22.3656 168.085 22.1035C168.085 21.8374 168.187 21.6162 168.39 21.4279C168.589 21.2436 168.837 21.1494 169.121 21.1494C169.408 21.1494 169.652 21.2436 169.851 21.4279C170.055 21.6162 170.156 21.8374 170.156 22.1035Z" fill="black"/>
<path d="M167.425 28C166.845 27.9918 166.345 27.8075 165.92 27.4513C164.681 26.4726 165 24.9985 165.664 23.8151C165.163 23.8848 164.672 23.8479 164.19 23.7087C163.707 23.5736 163.278 23.3442 162.906 23.029C162.578 22.7096 162.388 22.3287 162.339 21.8906C162.291 21.4484 162.397 21.043 162.649 20.6704C162.8 20.4206 162.99 20.1995 163.216 20.007C163.446 19.8187 163.703 19.6671 163.986 19.5566C164.269 19.4419 164.566 19.3764 164.876 19.36C165.181 19.3396 165.486 19.3682 165.783 19.4419C165.318 18.5534 164.889 17.3618 165.256 16.4036C165.389 16.076 165.597 15.7976 165.885 15.5683C166.173 15.339 166.5 15.1875 166.872 15.1097C167.217 14.9991 167.571 14.9705 167.934 15.0278C168.297 15.081 168.625 15.2161 168.913 15.425C169.669 16.1334 170.081 16.9851 170.147 17.976C170.736 17.1325 171.529 16.3094 172.401 16.2275C172.733 16.2071 173.047 16.2726 173.335 16.4241C173.627 16.5756 173.848 16.7844 174.003 17.0547C174.508 17.6935 174.662 18.3978 174.468 19.1676C174.22 19.9497 173.759 20.6008 173.087 21.129C173.671 21.2559 174.167 21.5262 174.569 21.9316C174.857 22.2632 175.043 22.6399 175.127 23.0576C175.216 23.4753 175.189 23.8889 175.056 24.2942C174.999 24.671 174.848 25.0108 174.596 25.3138C174.348 25.6209 174.034 25.8461 173.653 25.9977C172.56 26.3948 171.21 25.9076 170.387 25.5104C170.055 26.5504 169.368 27.3203 168.324 27.8198C168.041 27.9386 167.74 28 167.425 28ZM166.969 22.4147C167.213 22.4147 167.385 22.513 167.487 22.7137C167.589 22.9143 167.562 23.1027 167.412 23.2746C167.39 23.2992 165.371 25.6332 166.659 26.6487C166.819 26.8002 167.005 26.8944 167.23 26.9313C167.452 26.9681 167.664 26.9435 167.868 26.8535C168.302 26.6242 168.656 26.313 168.926 25.928C169.2 25.539 169.36 25.1132 169.413 24.6546C169.417 24.4457 169.523 24.2942 169.727 24.2001C169.926 24.1059 170.121 24.1182 170.307 24.241C170.789 24.544 172.356 25.3384 173.237 25.0149C173.366 24.9699 173.759 24.8266 173.941 24.0649C174.131 23.5449 174.056 23.0658 173.715 22.6195C173.109 22.1568 172.418 21.9602 171.635 22.0257C171.502 22.038 171.382 22.0053 171.272 21.9356C171.161 21.866 171.086 21.7719 171.05 21.6531C171.011 21.5385 171.015 21.4197 171.064 21.3051C171.117 21.1945 171.197 21.1044 171.312 21.043C171.329 21.0348 173.051 20.1176 173.357 18.9219C173.472 18.451 173.37 18.0251 173.056 17.6402C172.865 17.3782 172.697 17.2471 172.516 17.2717C171.79 17.3372 170.696 19.0406 170.187 20.1708C170.134 20.2896 170.046 20.3796 169.922 20.437C169.798 20.4943 169.665 20.5107 169.532 20.482C169.395 20.4533 169.284 20.3837 169.2 20.2814C169.121 20.179 169.081 20.0643 169.09 19.9333C169.169 18.8236 168.997 16.8377 168.195 16.2398C167.881 16.0187 167.545 15.9778 167.182 16.1211C166.77 16.1784 166.487 16.3913 166.336 16.7517C165.96 17.718 167.076 19.5115 167.496 20.0643C167.664 20.2896 167.651 20.5066 167.456 20.7113C167.261 20.9161 167.031 20.957 166.766 20.8342C166.668 20.7891 164.46 19.7613 163.663 21.1535C163.526 21.3296 163.464 21.5221 163.477 21.7391C163.49 21.952 163.574 22.1404 163.729 22.296C164.251 22.7955 165.513 22.9962 166.726 22.4639C166.806 22.4311 166.885 22.4147 166.969 22.4147Z" fill="black"/>
<path d="M217.453 22.1035C217.453 22.3656 217.351 22.5908 217.147 22.7751C216.948 22.9634 216.705 23.0535 216.417 23.0535C216.129 23.0535 215.886 22.9634 215.687 22.7751C215.483 22.5908 215.381 22.3656 215.381 22.1035C215.381 21.8374 215.483 21.6162 215.687 21.4279C215.886 21.2436 216.129 21.1494 216.417 21.1494C216.705 21.1494 216.948 21.2436 217.147 21.4279C217.351 21.6162 217.453 21.8374 217.453 22.1035Z" fill="black"/>
<path d="M214.717 28C214.142 27.9918 213.642 27.8075 213.212 27.4513C211.977 26.4726 212.296 24.9985 212.96 23.8151C212.46 23.8848 211.968 23.8479 211.486 23.7087C211.003 23.5736 210.574 23.3442 210.202 23.029C209.87 22.7096 209.684 22.3287 209.636 21.8906C209.587 21.4484 209.693 21.043 209.946 20.6704C210.096 20.4206 210.282 20.1995 210.512 20.007C210.742 19.8187 210.999 19.6671 211.282 19.5566C211.566 19.4419 211.862 19.3764 212.172 19.36C212.477 19.3396 212.783 19.3682 213.079 19.4419C212.615 18.5534 212.185 17.3618 212.553 16.4036C212.685 16.076 212.894 15.7976 213.181 15.5683C213.469 15.339 213.796 15.1875 214.164 15.1097C214.514 14.9991 214.868 14.9705 215.231 15.0278C215.594 15.081 215.917 15.2161 216.209 15.425C216.961 16.1334 217.373 16.9851 217.444 17.976C218.033 17.1325 218.82 16.3094 219.697 16.2275C220.029 16.2071 220.339 16.2726 220.631 16.4241C220.923 16.5756 221.144 16.7844 221.299 17.0547C221.804 17.6935 221.959 18.3978 221.764 19.1676C221.516 19.9497 221.056 20.6008 220.383 21.129C220.967 21.2559 221.459 21.5262 221.866 21.9316C222.154 22.2632 222.34 22.6399 222.424 23.0576C222.512 23.4753 222.486 23.8889 222.348 24.2942C222.295 24.671 222.145 25.0108 221.892 25.3138C221.645 25.6209 221.33 25.8461 220.95 25.9977C219.856 26.3948 218.506 25.9076 217.683 25.5104C217.351 26.5504 216.665 27.3203 215.62 27.8198C215.332 27.9386 215.031 28 214.717 28ZM214.266 22.4147C214.509 22.4147 214.677 22.513 214.784 22.7137C214.885 22.9143 214.859 23.1027 214.708 23.2746C214.686 23.2992 212.668 25.6332 213.956 26.6487C214.115 26.8002 214.301 26.8944 214.522 26.9313C214.744 26.9681 214.961 26.9435 215.164 26.8535C215.598 26.6242 215.952 26.313 216.222 25.928C216.497 25.539 216.656 25.1132 216.705 24.6546C216.714 24.4457 216.82 24.2942 217.019 24.2001C217.223 24.11 217.417 24.1223 217.603 24.241C218.086 24.544 219.653 25.3384 220.534 25.0149C220.662 24.9699 221.051 24.8266 221.237 24.0649C221.428 23.5449 221.352 23.0658 221.007 22.6195C220.405 22.1568 219.71 21.9602 218.931 22.0257C218.798 22.038 218.674 22.0053 218.564 21.9356C218.458 21.866 218.382 21.7719 218.347 21.6531C218.307 21.5385 218.311 21.4197 218.36 21.3051C218.409 21.1945 218.493 21.1044 218.608 21.043C218.626 21.0348 220.348 20.1176 220.649 18.9219C220.764 18.451 220.666 18.0251 220.352 17.6402C220.162 17.3782 219.993 17.2471 219.812 17.2717C219.086 17.3372 217.993 19.0406 217.484 20.1708C217.431 20.2896 217.342 20.3796 217.218 20.437C217.09 20.4943 216.961 20.5107 216.824 20.482C216.691 20.4533 216.581 20.3837 216.497 20.2814C216.413 20.179 216.377 20.0643 216.386 19.9333C216.466 18.8236 216.293 16.8377 215.487 16.2398C215.178 16.0187 214.841 15.9778 214.478 16.1211C214.062 16.1784 213.783 16.3913 213.628 16.7517C213.256 17.718 214.372 19.5115 214.788 20.0643C214.961 20.2896 214.947 20.5066 214.753 20.7113C214.553 20.9161 214.323 20.957 214.062 20.8342C213.965 20.7891 211.751 19.7613 210.955 21.1535C210.822 21.3296 210.76 21.5221 210.773 21.7391C210.787 21.952 210.871 22.1404 211.026 22.296C211.548 22.7955 212.809 22.9962 214.022 22.4639C214.102 22.4311 214.182 22.4147 214.266 22.4147Z" fill="black"/>
<path d="M91.4102 48.3714C91.4102 48.6335 91.3128 48.8587 91.1092 49.043C90.9056 49.2313 90.6621 49.3214 90.3788 49.3214C90.0911 49.3214 89.8477 49.2313 89.644 49.043C89.4449 48.8587 89.343 48.6335 89.343 48.3714C89.343 48.1053 89.4449 47.8842 89.644 47.6958C89.8477 47.5115 90.0911 47.4174 90.3788 47.4174C90.6621 47.4174 90.9056 47.5115 91.1092 47.6958C91.3128 47.8842 91.4102 48.1053 91.4102 48.3714Z" fill="black"/>
<path d="M88.6791 54.2679C88.1037 54.2597 87.6035 54.0754 87.1741 53.7151C85.9392 52.7405 86.2579 51.2664 86.9218 50.083C86.4216 50.1486 85.9303 50.1158 85.4434 49.9766C84.9609 49.8373 84.536 49.6121 84.1642 49.2968C83.8322 48.9734 83.6419 48.5966 83.5932 48.1544C83.5489 47.7163 83.6507 47.3068 83.9074 46.9342C84.0535 46.6844 84.2438 46.4633 84.474 46.2749C84.7042 46.0825 84.9565 45.9309 85.2442 45.8204C85.5275 45.7098 85.8241 45.6443 86.1295 45.6238C86.4394 45.6034 86.7403 45.632 87.0413 45.7057C86.5766 44.8172 86.1428 43.6256 86.5146 42.6674C86.6474 42.3398 86.8554 42.0614 87.1432 41.8321C87.4264 41.6069 87.754 41.4513 88.1258 41.3776C88.4711 41.267 88.8296 41.2383 89.1882 41.2916C89.5511 41.3489 89.8787 41.4799 90.1664 41.6888C90.9233 42.3972 91.335 43.2489 91.4014 44.2398C91.9901 43.3963 92.7824 42.5732 93.6589 42.4913C93.9908 42.475 94.3007 42.5405 94.5928 42.692C94.8806 42.8394 95.1063 43.0523 95.2612 43.3226C95.7614 43.9614 95.9163 44.6657 95.7216 45.4355C95.4781 46.2135 95.0178 46.8686 94.345 47.3928C94.9292 47.5238 95.4206 47.79 95.8278 48.1953C96.1155 48.5311 96.3014 48.9037 96.3855 49.3214C96.4696 49.7391 96.4475 50.1526 96.3103 50.558C96.2572 50.9347 96.1022 51.2787 95.8544 51.5817C95.6065 51.8847 95.2922 52.114 94.9115 52.2655C93.8138 52.6627 92.4681 52.1755 91.6448 51.7742C91.3128 52.8142 90.6223 53.5841 89.5821 54.0877C89.2944 54.2065 88.9934 54.2638 88.6791 54.2679ZM88.2276 48.6785C88.4667 48.6785 88.6393 48.7809 88.7455 48.9815C88.8473 49.1822 88.8208 49.3665 88.6703 49.5384C88.6481 49.563 86.6297 51.897 87.9178 52.9166C88.0727 53.064 88.263 53.1582 88.4844 53.1951C88.7057 53.236 88.9182 53.2073 89.1218 53.1214C89.5556 52.8879 89.9097 52.5808 90.1841 52.1918C90.4541 51.8028 90.6179 51.3811 90.6666 50.9184C90.6754 50.7136 90.7773 50.5621 90.9809 50.4679C91.1845 50.3738 91.3792 50.386 91.5652 50.5048C92.0476 50.8078 93.6146 51.6063 94.4955 51.2828C94.6238 51.2378 95.0133 51.0903 95.1993 50.3287C95.3852 49.8128 95.3099 49.3296 94.9691 48.8833C94.3671 48.4247 93.6721 48.2281 92.8931 48.2936C92.7603 48.3018 92.6364 48.2731 92.5257 48.2035C92.415 48.1339 92.3442 48.0397 92.3044 47.921C92.269 47.8023 92.2734 47.6876 92.3221 47.5729C92.3708 47.4583 92.4549 47.3723 92.57 47.3109C92.5877 47.3027 94.3095 46.3855 94.6105 45.1857C94.7256 44.7189 94.6282 44.293 94.314 43.9081C94.1236 43.6461 93.9554 43.515 93.7739 43.5355C93.0436 43.601 91.9547 45.3085 91.4456 46.4387C91.3925 46.5574 91.2996 46.6434 91.1756 46.7008C91.0517 46.7622 90.9233 46.7745 90.7861 46.7458C90.6533 46.7171 90.5427 46.6516 90.4585 46.5493C90.3744 46.4469 90.339 46.3281 90.3479 46.2012C90.4276 45.0874 90.2549 43.1015 89.4493 42.5036C89.1395 42.2825 88.8031 42.2457 88.4401 42.3849C88.024 42.4463 87.7407 42.6551 87.5902 43.0155C87.2184 43.9859 88.3339 45.7794 88.7499 46.3322C88.9226 46.5574 88.9093 46.7704 88.7101 46.9792C88.5153 47.1839 88.2852 47.2249 88.0196 47.098C87.9266 47.0529 85.7134 46.0292 84.9167 47.4214C84.7794 47.5975 84.7175 47.79 84.7308 48.0029C84.744 48.2199 84.8281 48.4042 84.9875 48.5639C85.5054 49.0634 86.7713 49.2641 87.9842 48.7318C88.0594 48.699 88.1435 48.6826 88.2276 48.6826V48.6785Z" fill="black"/>
<path d="M43.0249 42.8927C43.0249 43.1261 42.9762 43.3513 42.8788 43.5683C42.7815 43.7853 42.6442 43.9778 42.4628 44.1416C42.2857 44.3094 42.0777 44.4364 41.8386 44.5265C41.604 44.6166 41.3606 44.6616 41.1038 44.6616C40.8515 44.6616 40.6037 44.6166 40.3691 44.5265C40.1345 44.4364 39.9264 44.3094 39.7449 44.1416C39.5679 43.9778 39.4262 43.7853 39.3288 43.5683C39.2315 43.3513 39.1828 43.1261 39.1828 42.8927C39.1828 42.6593 39.2315 42.4299 39.3288 42.2129C39.4262 41.9959 39.5679 41.8075 39.7449 41.6397C39.9264 41.4759 40.1345 41.3448 40.3691 41.2588C40.6037 41.1688 40.8515 41.1237 41.1038 41.1237C41.3606 41.1237 41.604 41.1688 41.8386 41.2588C42.0777 41.3448 42.2857 41.4759 42.4628 41.6397C42.6442 41.8075 42.7815 41.9959 42.8788 42.2129C42.9762 42.4299 43.0249 42.6593 43.0249 42.8927Z" fill="black"/>
<path d="M39.9308 51.8356C39.3156 51.8438 38.8021 51.6391 38.386 51.2255C37.244 50.1199 37.1953 47.6917 37.2794 46.279C36.0223 46.7745 34.7431 46.84 33.4373 46.4756C32.9504 46.2872 32.5343 46.0129 32.189 45.6443C31.8438 45.2758 31.6047 44.8581 31.4719 44.3913C31.3126 43.99 31.2639 43.5806 31.3214 43.1588C31.379 42.737 31.5383 42.348 31.7995 41.9959C32.8043 40.6651 35.1105 40.1287 36.6155 39.9157C35.4292 38.6013 34.5926 36.8692 34.9511 35.4525C35.0928 34.9242 35.3805 34.4779 35.8143 34.1094C36.2436 33.7408 36.7527 33.5074 37.3325 33.4174C38.2267 33.1758 39.0588 33.2986 39.8246 33.7818C41.2057 34.6417 41.9095 36.5335 42.2326 37.766C43.4189 36.7423 45.5303 35.1699 47.23 35.305C47.9781 35.3542 48.5491 35.6736 48.9475 36.2591C50.5277 38.458 47.7081 41.2097 46.1677 42.4709C47.8497 43.1916 49.5008 44.5428 49.8062 45.9719C49.908 46.4469 49.8549 46.9055 49.6557 47.3559C49.4565 47.8023 49.1422 48.1626 48.7085 48.437C48.0002 48.9775 47.1946 49.1822 46.2872 49.0471C45.2868 48.8464 44.437 48.4042 43.7332 47.7245C43.3658 49.2887 42.4274 51.6718 40.1079 51.8315C40.0504 51.8356 39.9884 51.8356 39.9308 51.8356ZM38.0231 44.7107C38.2222 44.7107 38.386 44.7803 38.5188 44.9155C38.6472 45.0506 38.7003 45.2103 38.6782 45.3904C38.4746 46.8809 38.4746 49.5589 39.3377 50.3942C39.5192 50.5785 39.7449 50.6563 40.015 50.6276C42.2503 50.472 42.6487 46.3363 42.6531 46.2954C42.6752 46.0088 42.8346 45.8286 43.1356 45.7549C43.4366 45.6812 43.6756 45.7631 43.8482 46.0006C44.1846 46.4592 45.3222 47.6835 46.4952 47.8555C47.0264 47.9292 47.4956 47.8023 47.9028 47.4829C48.1419 47.3518 48.3145 47.1676 48.4296 46.9342C48.5403 46.7008 48.5712 46.4592 48.5181 46.2094C48.2791 45.0874 46.4952 43.7075 44.707 43.253C44.4414 43.1875 44.2865 43.0319 44.2333 42.7862C44.1846 42.5364 44.2687 42.3398 44.4856 42.1883C45.818 41.2711 49.0139 38.5399 47.8542 36.9266C47.6948 36.6645 47.4514 36.5294 47.1282 36.5089C45.8003 36.4065 43.4764 38.2369 42.3078 39.4121C42.1219 39.6045 41.8918 39.6578 41.6262 39.58C41.3606 39.5022 41.2101 39.3343 41.1747 39.0804C41.0463 38.1673 40.4266 35.6121 39.0898 34.785C38.6516 34.5066 38.178 34.441 37.6689 34.5844C37.3237 34.6253 37.0227 34.7522 36.7615 34.9611C36.5004 35.1658 36.3233 35.4238 36.2304 35.7268C35.9161 36.9716 37.1422 38.8757 38.4568 39.928C38.6782 40.1041 38.7401 40.3252 38.6472 40.5791C38.5498 40.8371 38.355 40.9722 38.0585 40.9886C36.9342 41.0377 33.8091 41.4472 32.8751 42.6879C32.5697 43.1097 32.5166 43.556 32.7246 44.0269C32.884 44.6534 33.2824 45.0956 33.9198 45.3536C35.1769 45.8163 37.0802 45.0997 37.7132 44.7885C37.8106 44.7394 37.9124 44.7148 38.0231 44.7107Z" fill="black"/>
<path d="M118.318 23.4466C118.318 23.68 118.27 23.9052 118.172 24.1222C118.075 24.3393 117.938 24.5317 117.756 24.6955C117.575 24.8634 117.367 24.9903 117.132 25.0804C116.898 25.1705 116.65 25.2155 116.397 25.2155C116.141 25.2155 115.897 25.1705 115.663 25.0804C115.424 24.9903 115.22 24.8634 115.038 24.6955C114.857 24.5317 114.72 24.3393 114.622 24.1222C114.525 23.9052 114.476 23.68 114.476 23.4466C114.476 23.2091 114.525 22.9839 114.622 22.7669C114.72 22.5499 114.857 22.3615 115.038 22.1936C115.22 22.0298 115.424 21.8988 115.663 21.8087C115.897 21.7186 116.141 21.6777 116.397 21.6777C116.65 21.6777 116.898 21.7186 117.132 21.8087C117.367 21.8988 117.575 22.0298 117.756 22.1936C117.938 22.3615 118.075 22.5499 118.172 22.7669C118.27 22.9839 118.318 23.2091 118.318 23.4466Z" fill="black"/>
<path d="M115.22 32.3896C114.609 32.3978 114.096 32.193 113.675 31.7795C112.533 30.6739 112.489 28.2457 112.569 26.8289C111.316 27.3244 110.032 27.394 108.726 27.0295C108.239 26.8412 107.823 26.5627 107.478 26.1983C107.133 25.8298 106.894 25.4121 106.765 24.9412C106.606 24.544 106.557 24.1304 106.615 23.7087C106.673 23.2869 106.832 22.902 107.093 22.5499C108.093 21.215 110.4 20.6826 111.909 20.4656C110.718 19.1512 109.882 17.4232 110.24 16.0064C110.32 15.7853 110.422 15.5765 110.546 15.3758C110.674 15.1793 110.824 14.995 110.997 14.8312C111.17 14.6633 111.365 14.5159 111.573 14.389C111.781 14.2621 112.002 14.1597 112.237 14.0778C112.471 13.9959 112.715 13.9427 112.962 13.914C113.21 13.8812 113.458 13.8772 113.711 13.9017C113.958 13.9222 114.202 13.9713 114.441 14.045C114.675 14.1187 114.901 14.217 115.118 14.3358C116.495 15.1957 117.199 17.0834 117.526 18.32C118.708 17.2963 120.819 15.7239 122.519 15.859C123.267 15.9082 123.843 16.2235 124.237 16.809C125.821 19.012 122.997 21.7637 121.461 23.0249C123.143 23.7455 124.79 25.0968 125.1 26.5259C125.197 27.0009 125.148 27.4595 124.949 27.9099C124.75 28.3562 124.431 28.7166 124.002 28.9909C123.294 29.5314 122.484 29.7321 121.576 29.601C120.58 29.4004 119.73 28.9582 119.027 28.2784C118.659 29.8426 117.721 32.2258 115.401 32.3855C115.344 32.3896 115.282 32.3896 115.22 32.3896ZM113.317 25.2647C113.511 25.2647 113.675 25.3343 113.808 25.4694C113.941 25.6046 113.994 25.7643 113.967 25.9444C113.764 27.4349 113.764 30.1129 114.627 30.9482C114.808 31.1325 115.034 31.2103 115.304 31.1816C117.544 31.026 117.938 26.8903 117.942 26.8494C117.964 26.5627 118.128 26.3826 118.429 26.3089C118.726 26.2352 118.965 26.317 119.142 26.5545C119.478 27.0132 120.611 28.2375 121.784 28.4095C122.316 28.4832 122.785 28.3562 123.196 28.0368C123.431 27.9017 123.608 27.7215 123.719 27.4881C123.834 27.2547 123.865 27.0132 123.812 26.7593C123.568 25.6414 121.789 24.2615 119.996 23.807C119.735 23.7414 119.576 23.5858 119.527 23.3361C119.474 23.0904 119.558 22.8897 119.779 22.7423C121.107 21.8251 124.303 19.0939 123.143 17.4764C122.984 17.2185 122.745 17.0793 122.422 17.0629C121.089 16.9605 118.761 18.7909 117.601 19.962C117.411 20.1544 117.185 20.2118 116.915 20.134C116.65 20.0562 116.499 19.8883 116.464 19.6344C116.335 18.7213 115.716 16.1661 114.379 15.3349C113.941 15.0605 113.467 14.995 112.958 15.1383C112.617 15.1793 112.316 15.3062 112.055 15.511C111.794 15.7198 111.617 15.9737 111.519 16.2808C111.205 17.5215 112.431 19.4297 113.746 20.482C113.972 20.6581 114.034 20.8751 113.936 21.1331C113.839 21.391 113.644 21.5262 113.348 21.5385C112.223 21.5917 109.103 22.0012 108.169 23.2419C107.859 23.6636 107.806 24.11 108.014 24.5809C108.173 25.2033 108.571 25.6496 109.213 25.9076C110.466 26.3703 112.374 25.6537 113.002 25.3384C113.1 25.2893 113.206 25.2647 113.317 25.2647Z" fill="black"/>
<path d="M193.466 47.1758C193.466 47.4092 193.417 47.6385 193.32 47.8555C193.222 48.0726 193.085 48.2609 192.904 48.4288C192.722 48.5926 192.514 48.7236 192.28 48.8096C192.045 48.8997 191.802 48.9447 191.545 48.9447C191.288 48.9447 191.045 48.8997 190.81 48.8096C190.575 48.7236 190.367 48.5926 190.186 48.4288C190.004 48.2609 189.867 48.0726 189.77 47.8555C189.672 47.6385 189.624 47.4092 189.624 47.1758C189.624 46.9424 189.672 46.7172 189.77 46.5002C189.867 46.2831 190.004 46.0907 190.186 45.9269C190.367 45.759 190.575 45.6321 190.81 45.542C191.045 45.4519 191.288 45.4069 191.545 45.4069C191.802 45.4069 192.045 45.4519 192.28 45.542C192.514 45.6321 192.722 45.759 192.904 45.9269C193.085 46.0907 193.222 46.2831 193.32 46.5002C193.417 46.7172 193.466 46.9424 193.466 47.1758Z" fill="black"/>
<path d="M190.372 56.1229C189.757 56.127 189.243 55.9222 188.827 55.5128C187.685 54.4031 187.636 51.9749 187.72 50.5622C186.463 51.0577 185.184 51.1232 183.878 50.7628C183.391 50.5745 182.975 50.296 182.63 49.9275C182.285 49.5631 182.046 49.1454 181.913 48.6745C181.754 48.2732 181.705 47.8637 181.762 47.442C181.82 47.0202 181.979 46.6312 182.24 46.2832C183.245 44.9483 185.551 44.4118 187.056 44.1989C185.87 42.8845 185.034 41.1565 185.392 39.7356C185.534 39.2115 185.821 38.7611 186.255 38.3925C186.689 38.024 187.194 37.7947 187.774 37.7005C188.668 37.4589 189.5 37.5818 190.266 38.0691C191.647 38.929 192.35 40.8166 192.674 42.0533C193.86 41.0255 195.971 39.4531 197.671 39.5882C198.419 39.6374 198.99 39.9567 199.388 40.5423C200.969 42.7412 198.149 45.4929 196.609 46.7581C198.291 47.4788 199.942 48.826 200.247 50.2551C200.349 50.7301 200.296 51.1928 200.097 51.6391C199.898 52.0854 199.583 52.4458 199.149 52.7201C198.441 53.2606 197.636 53.4654 196.728 53.3343C195.728 53.1296 194.878 52.6915 194.174 52.0117C193.807 53.5718 192.868 55.955 190.549 56.1147C190.491 56.1188 190.429 56.1229 190.372 56.1229ZM188.464 48.998C188.663 48.998 188.827 49.0635 188.955 49.2027C189.088 49.3379 189.141 49.4935 189.115 49.6777C188.911 51.1682 188.916 53.8462 189.779 54.6774C189.96 54.8617 190.186 54.9395 190.456 54.9108C192.691 54.7552 193.085 50.6236 193.09 50.5786C193.112 50.296 193.276 50.1159 193.577 50.0421C193.878 49.9684 194.112 50.0503 194.289 50.2878C194.626 50.7424 195.759 51.9708 196.936 52.1387C197.467 52.2124 197.937 52.0895 198.344 51.7701C198.583 51.635 198.755 51.4548 198.871 51.2214C198.981 50.9839 199.012 50.7424 198.959 50.4926C198.72 49.3747 196.936 47.9948 195.144 47.5402C194.882 47.4747 194.723 47.315 194.674 47.0694C194.626 46.8237 194.71 46.623 194.927 46.4756C196.255 45.5584 199.455 42.8231 198.291 41.2097C198.131 40.9518 197.892 40.8126 197.569 40.7962C196.241 40.6897 193.913 42.5242 192.749 43.6953C192.558 43.8877 192.333 43.945 192.067 43.8672C191.797 43.7853 191.647 43.6216 191.611 43.3636C191.487 42.4505 190.863 39.8994 189.531 39.0682C189.088 38.7938 188.615 38.7242 188.105 38.8716C187.765 38.9126 187.464 39.0354 187.203 39.2443C186.941 39.4531 186.764 39.707 186.667 40.0141C186.353 41.2548 187.579 43.1589 188.893 44.2112C189.119 44.3914 189.181 44.6084 189.084 44.8664C188.991 45.1243 188.792 45.2595 188.499 45.2717C187.375 45.325 184.25 45.7345 183.316 46.9752C183.006 47.3928 182.958 47.8392 183.161 48.3101C183.321 48.9366 183.723 49.3788 184.361 49.6409C185.613 50.1036 187.521 49.387 188.154 49.0717C188.252 49.0226 188.353 48.998 188.464 48.998Z" fill="black"/>
</svg>
